G04 EAGLE Gerber RS-274X export*
G75*
%MOMM*%
%FSLAX34Y34*%
%LPD*%
%INBottom Paste*%
%IPPOS*%
%AMOC8*
5,1,8,0,0,1.08239X$1,22.5*%
G01*
%ADD10R,2.115300X4.415700*%
%ADD11R,2.400000X2.400000*%
%ADD12R,2.540000X1.270000*%
%ADD13C,0.240000*%
%ADD14C,0.360000*%
%ADD15C,0.260000*%
%ADD16C,0.400000*%
%ADD17R,4.064000X1.524000*%


D10*
X191008Y85505D03*
X191008Y172559D03*
D11*
X816210Y22352D03*
X766210Y22352D03*
D12*
X510668Y28626D03*
X744524Y183908D03*
X620268Y30480D03*
X620776Y172720D03*
D13*
X817758Y112324D02*
X817758Y90724D01*
X780158Y90724D01*
X780158Y112324D01*
X817758Y112324D01*
X817758Y93004D02*
X780158Y93004D01*
X780158Y95284D02*
X817758Y95284D01*
X817758Y97564D02*
X780158Y97564D01*
X780158Y99844D02*
X817758Y99844D01*
X817758Y102124D02*
X780158Y102124D01*
X780158Y104404D02*
X817758Y104404D01*
X817758Y106684D02*
X780158Y106684D01*
X780158Y108964D02*
X817758Y108964D01*
X817758Y111244D02*
X780158Y111244D01*
X293158Y112324D02*
X293158Y90724D01*
X293158Y112324D02*
X330758Y112324D01*
X330758Y90724D01*
X293158Y90724D01*
X293158Y93004D02*
X330758Y93004D01*
X330758Y95284D02*
X293158Y95284D01*
X293158Y97564D02*
X330758Y97564D01*
X330758Y99844D02*
X293158Y99844D01*
X293158Y102124D02*
X330758Y102124D01*
X330758Y104404D02*
X293158Y104404D01*
X293158Y106684D02*
X330758Y106684D01*
X330758Y108964D02*
X293158Y108964D01*
X293158Y111244D02*
X330758Y111244D01*
D14*
X649758Y77824D02*
X682158Y77824D01*
X649758Y77824D02*
X649758Y125224D01*
X682158Y125224D01*
X682158Y77824D01*
X682158Y81244D02*
X649758Y81244D01*
X649758Y84664D02*
X682158Y84664D01*
X682158Y88084D02*
X649758Y88084D01*
X649758Y91504D02*
X682158Y91504D01*
X682158Y94924D02*
X649758Y94924D01*
X649758Y98344D02*
X682158Y98344D01*
X682158Y101764D02*
X649758Y101764D01*
X649758Y105184D02*
X682158Y105184D01*
X682158Y108604D02*
X649758Y108604D01*
X649758Y112024D02*
X682158Y112024D01*
X682158Y115444D02*
X649758Y115444D01*
X649758Y118864D02*
X682158Y118864D01*
X682158Y122284D02*
X649758Y122284D01*
X461158Y125224D02*
X428758Y125224D01*
X461158Y125224D02*
X461158Y77824D01*
X428758Y77824D01*
X428758Y125224D01*
X428758Y81244D02*
X461158Y81244D01*
X461158Y84664D02*
X428758Y84664D01*
X428758Y88084D02*
X461158Y88084D01*
X461158Y91504D02*
X428758Y91504D01*
X428758Y94924D02*
X461158Y94924D01*
X461158Y98344D02*
X428758Y98344D01*
X428758Y101764D02*
X461158Y101764D01*
X461158Y105184D02*
X428758Y105184D01*
X428758Y108604D02*
X461158Y108604D01*
X461158Y112024D02*
X428758Y112024D01*
X428758Y115444D02*
X461158Y115444D01*
X461158Y118864D02*
X428758Y118864D01*
X428758Y122284D02*
X461158Y122284D01*
D15*
X854658Y113224D02*
X854658Y89824D01*
X823258Y89824D01*
X823258Y113224D01*
X854658Y113224D01*
X854658Y92294D02*
X823258Y92294D01*
X823258Y94764D02*
X854658Y94764D01*
X854658Y97234D02*
X823258Y97234D01*
X823258Y99704D02*
X854658Y99704D01*
X854658Y102174D02*
X823258Y102174D01*
X823258Y104644D02*
X854658Y104644D01*
X854658Y107114D02*
X823258Y107114D01*
X823258Y109584D02*
X854658Y109584D01*
X854658Y112054D02*
X823258Y112054D01*
D16*
X725958Y77024D02*
X689958Y77024D01*
X689958Y126024D01*
X725958Y126024D01*
X725958Y77024D01*
X725958Y80824D02*
X689958Y80824D01*
X689958Y84624D02*
X725958Y84624D01*
X725958Y88424D02*
X689958Y88424D01*
X689958Y92224D02*
X725958Y92224D01*
X725958Y96024D02*
X689958Y96024D01*
X689958Y99824D02*
X725958Y99824D01*
X725958Y103624D02*
X689958Y103624D01*
X689958Y107424D02*
X725958Y107424D01*
X725958Y111224D02*
X689958Y111224D01*
X689958Y115024D02*
X725958Y115024D01*
X725958Y118824D02*
X689958Y118824D01*
X689958Y122624D02*
X725958Y122624D01*
X420958Y126024D02*
X384958Y126024D01*
X420958Y126024D02*
X420958Y77024D01*
X384958Y77024D01*
X384958Y126024D01*
X384958Y80824D02*
X420958Y80824D01*
X420958Y84624D02*
X384958Y84624D01*
X384958Y88424D02*
X420958Y88424D01*
X420958Y92224D02*
X384958Y92224D01*
X384958Y96024D02*
X420958Y96024D01*
X420958Y99824D02*
X384958Y99824D01*
X384958Y103624D02*
X420958Y103624D01*
X420958Y107424D02*
X384958Y107424D01*
X384958Y111224D02*
X420958Y111224D01*
X420958Y115024D02*
X384958Y115024D01*
X384958Y118824D02*
X420958Y118824D01*
X420958Y122624D02*
X384958Y122624D01*
D15*
X256258Y113224D02*
X256258Y89824D01*
X256258Y113224D02*
X287658Y113224D01*
X287658Y89824D01*
X256258Y89824D01*
X256258Y92294D02*
X287658Y92294D01*
X287658Y94764D02*
X256258Y94764D01*
X256258Y97234D02*
X287658Y97234D01*
X287658Y99704D02*
X256258Y99704D01*
X256258Y102174D02*
X287658Y102174D01*
X287658Y104644D02*
X256258Y104644D01*
X256258Y107114D02*
X287658Y107114D01*
X287658Y109584D02*
X256258Y109584D01*
X256258Y112054D02*
X287658Y112054D01*
D17*
X930000Y78984D03*
X930000Y129784D03*
D11*
X310000Y177000D03*
X260000Y177000D03*
M02*
