G04 EAGLE Gerber RS-274X export*
G75*
%MOMM*%
%FSLAX34Y34*%
%LPD*%
%INBottom Copper*%
%IPPOS*%
%AMOC8*
5,1,8,0,0,1.08239X$1,22.5*%
G01*
%ADD10C,1.879600*%
%ADD11R,0.812800X0.812800*%
%ADD12C,0.812800*%
%ADD13R,2.115300X4.415700*%
%ADD14R,2.400000X2.400000*%
%ADD15R,2.540000X1.270000*%
%ADD16C,0.240000*%
%ADD17C,0.360000*%
%ADD18C,0.260000*%
%ADD19C,0.400000*%
%ADD20C,1.000000*%
%ADD21C,1.447800*%
%ADD22R,4.064000X1.524000*%
%ADD23C,1.050000*%
%ADD24C,1.016000*%
%ADD25C,0.675000*%
%ADD26C,0.203200*%
%ADD27C,0.525000*%
%ADD28C,1.125000*%
%ADD29C,0.152400*%
%ADD30C,0.304800*%
%ADD31C,0.254000*%
%ADD32C,0.508000*%
%ADD33C,0.750000*%

G36*
X947226Y2036D02*
X947226Y2036D01*
X947245Y2034D01*
X947347Y2056D01*
X947449Y2072D01*
X947466Y2082D01*
X947486Y2086D01*
X947575Y2139D01*
X947666Y2188D01*
X947680Y2202D01*
X947697Y2212D01*
X947764Y2291D01*
X947836Y2366D01*
X947844Y2384D01*
X947857Y2399D01*
X947896Y2495D01*
X947939Y2589D01*
X947941Y2609D01*
X947949Y2627D01*
X947967Y2794D01*
X947967Y69078D01*
X947964Y69098D01*
X947966Y69117D01*
X947944Y69219D01*
X947928Y69321D01*
X947918Y69338D01*
X947914Y69358D01*
X947861Y69447D01*
X947812Y69538D01*
X947798Y69552D01*
X947788Y69569D01*
X947709Y69636D01*
X947634Y69708D01*
X947616Y69716D01*
X947601Y69729D01*
X947505Y69768D01*
X947411Y69811D01*
X947391Y69813D01*
X947373Y69821D01*
X947206Y69839D01*
X931523Y69839D01*
X931523Y78222D01*
X931520Y78242D01*
X931522Y78261D01*
X931500Y78363D01*
X931483Y78465D01*
X931474Y78482D01*
X931470Y78502D01*
X931417Y78591D01*
X931368Y78682D01*
X931354Y78696D01*
X931344Y78713D01*
X931265Y78780D01*
X931190Y78851D01*
X931172Y78860D01*
X931157Y78873D01*
X931061Y78912D01*
X930967Y78955D01*
X930947Y78957D01*
X930929Y78965D01*
X930762Y78983D01*
X929999Y78983D01*
X929999Y78985D01*
X930762Y78985D01*
X930782Y78988D01*
X930801Y78986D01*
X930903Y79008D01*
X931005Y79025D01*
X931022Y79034D01*
X931042Y79038D01*
X931131Y79091D01*
X931222Y79140D01*
X931236Y79154D01*
X931253Y79164D01*
X931320Y79243D01*
X931391Y79318D01*
X931400Y79336D01*
X931413Y79351D01*
X931452Y79447D01*
X931495Y79541D01*
X931497Y79561D01*
X931505Y79579D01*
X931523Y79746D01*
X931523Y88129D01*
X947206Y88129D01*
X947226Y88132D01*
X947245Y88130D01*
X947347Y88152D01*
X947449Y88168D01*
X947466Y88178D01*
X947486Y88182D01*
X947575Y88235D01*
X947666Y88284D01*
X947680Y88298D01*
X947697Y88308D01*
X947764Y88387D01*
X947836Y88462D01*
X947844Y88480D01*
X947857Y88495D01*
X947896Y88591D01*
X947939Y88685D01*
X947941Y88705D01*
X947949Y88723D01*
X947967Y88890D01*
X947967Y119878D01*
X947964Y119898D01*
X947966Y119917D01*
X947944Y120019D01*
X947928Y120121D01*
X947918Y120138D01*
X947914Y120158D01*
X947861Y120247D01*
X947812Y120338D01*
X947798Y120352D01*
X947788Y120369D01*
X947709Y120436D01*
X947634Y120508D01*
X947616Y120516D01*
X947601Y120529D01*
X947505Y120568D01*
X947411Y120611D01*
X947391Y120613D01*
X947373Y120621D01*
X947206Y120639D01*
X931523Y120639D01*
X931523Y129022D01*
X931520Y129042D01*
X931522Y129061D01*
X931500Y129163D01*
X931483Y129265D01*
X931474Y129282D01*
X931470Y129302D01*
X931417Y129391D01*
X931368Y129482D01*
X931354Y129496D01*
X931344Y129513D01*
X931265Y129580D01*
X931190Y129651D01*
X931172Y129660D01*
X931157Y129673D01*
X931061Y129712D01*
X930967Y129755D01*
X930947Y129757D01*
X930929Y129765D01*
X930762Y129783D01*
X929999Y129783D01*
X929999Y129785D01*
X930762Y129785D01*
X930782Y129788D01*
X930801Y129786D01*
X930903Y129808D01*
X931005Y129825D01*
X931022Y129834D01*
X931042Y129838D01*
X931131Y129891D01*
X931222Y129940D01*
X931236Y129954D01*
X931253Y129964D01*
X931320Y130043D01*
X931391Y130118D01*
X931400Y130136D01*
X931413Y130151D01*
X931452Y130247D01*
X931495Y130341D01*
X931497Y130361D01*
X931505Y130379D01*
X931523Y130546D01*
X931523Y138929D01*
X947206Y138929D01*
X947226Y138932D01*
X947245Y138930D01*
X947347Y138952D01*
X947449Y138968D01*
X947466Y138978D01*
X947486Y138982D01*
X947575Y139035D01*
X947666Y139084D01*
X947680Y139098D01*
X947697Y139108D01*
X947764Y139187D01*
X947836Y139262D01*
X947844Y139280D01*
X947857Y139295D01*
X947896Y139391D01*
X947939Y139485D01*
X947941Y139505D01*
X947949Y139523D01*
X947967Y139690D01*
X947967Y197206D01*
X947964Y197226D01*
X947966Y197245D01*
X947944Y197347D01*
X947928Y197449D01*
X947918Y197466D01*
X947914Y197486D01*
X947861Y197575D01*
X947812Y197666D01*
X947798Y197680D01*
X947788Y197697D01*
X947709Y197764D01*
X947634Y197836D01*
X947616Y197844D01*
X947601Y197857D01*
X947505Y197896D01*
X947411Y197939D01*
X947391Y197941D01*
X947373Y197949D01*
X947206Y197967D01*
X130000Y197967D01*
X129980Y197964D01*
X129961Y197966D01*
X129859Y197944D01*
X129757Y197928D01*
X129740Y197918D01*
X129720Y197914D01*
X129631Y197861D01*
X129540Y197812D01*
X129526Y197798D01*
X129509Y197788D01*
X129442Y197709D01*
X129371Y197634D01*
X129362Y197616D01*
X129349Y197601D01*
X129310Y197505D01*
X129267Y197411D01*
X129265Y197391D01*
X129257Y197373D01*
X129239Y197206D01*
X129239Y2794D01*
X129242Y2774D01*
X129240Y2755D01*
X129262Y2653D01*
X129279Y2551D01*
X129288Y2534D01*
X129292Y2514D01*
X129345Y2425D01*
X129394Y2334D01*
X129408Y2320D01*
X129418Y2303D01*
X129497Y2236D01*
X129572Y2164D01*
X129590Y2156D01*
X129605Y2143D01*
X129701Y2104D01*
X129795Y2061D01*
X129815Y2059D01*
X129833Y2051D01*
X130000Y2033D01*
X947206Y2033D01*
X947226Y2036D01*
G37*
%LPC*%
G36*
X252694Y4063D02*
X252694Y4063D01*
X246415Y10342D01*
X246341Y10395D01*
X246271Y10455D01*
X246241Y10467D01*
X246215Y10486D01*
X246128Y10513D01*
X246043Y10547D01*
X246002Y10551D01*
X245980Y10558D01*
X245948Y10557D01*
X245876Y10565D01*
X243253Y10565D01*
X239239Y12228D01*
X236166Y15301D01*
X234503Y19315D01*
X234503Y23661D01*
X236166Y27675D01*
X239239Y30748D01*
X243253Y32411D01*
X247599Y32411D01*
X251613Y30748D01*
X254686Y27675D01*
X256349Y23661D01*
X256349Y19315D01*
X254686Y15301D01*
X252202Y12817D01*
X252191Y12801D01*
X252175Y12789D01*
X252119Y12701D01*
X252059Y12618D01*
X252053Y12599D01*
X252042Y12582D01*
X252017Y12481D01*
X251986Y12382D01*
X251987Y12363D01*
X251982Y12343D01*
X251990Y12240D01*
X251993Y12137D01*
X252000Y12118D01*
X252001Y12098D01*
X252042Y12003D01*
X252077Y11906D01*
X252090Y11890D01*
X252098Y11872D01*
X252202Y11741D01*
X254575Y9368D01*
X254649Y9315D01*
X254719Y9255D01*
X254749Y9243D01*
X254775Y9224D01*
X254862Y9197D01*
X254947Y9163D01*
X254988Y9159D01*
X255010Y9152D01*
X255042Y9153D01*
X255114Y9145D01*
X263344Y9145D01*
X263415Y9156D01*
X263487Y9158D01*
X263536Y9176D01*
X263587Y9184D01*
X263650Y9218D01*
X263718Y9243D01*
X263758Y9275D01*
X263805Y9300D01*
X263854Y9352D01*
X263910Y9396D01*
X263938Y9440D01*
X263974Y9478D01*
X264004Y9543D01*
X264043Y9603D01*
X264056Y9654D01*
X264078Y9701D01*
X264085Y9772D01*
X264103Y9842D01*
X264099Y9894D01*
X264105Y9945D01*
X264089Y10016D01*
X264084Y10087D01*
X264063Y10135D01*
X264052Y10186D01*
X264016Y10247D01*
X263987Y10313D01*
X263943Y10369D01*
X263926Y10397D01*
X263908Y10412D01*
X263883Y10444D01*
X261566Y12761D01*
X259903Y16775D01*
X259903Y21121D01*
X261566Y25135D01*
X264639Y28208D01*
X268653Y29871D01*
X272999Y29871D01*
X277013Y28208D01*
X280086Y25135D01*
X281749Y21121D01*
X281749Y16775D01*
X281023Y15023D01*
X281012Y14979D01*
X280993Y14937D01*
X280985Y14860D01*
X280967Y14784D01*
X280971Y14738D01*
X280966Y14693D01*
X280983Y14616D01*
X280990Y14539D01*
X281009Y14497D01*
X281018Y14452D01*
X281058Y14385D01*
X281090Y14314D01*
X281121Y14280D01*
X281145Y14241D01*
X281204Y14190D01*
X281256Y14133D01*
X281297Y14111D01*
X281331Y14081D01*
X281404Y14052D01*
X281472Y14015D01*
X281517Y14006D01*
X281560Y13989D01*
X281696Y13974D01*
X281714Y13971D01*
X281719Y13972D01*
X281726Y13971D01*
X341322Y13971D01*
X341412Y13985D01*
X341503Y13993D01*
X341533Y14005D01*
X341565Y14010D01*
X341645Y14053D01*
X341729Y14089D01*
X341761Y14115D01*
X341782Y14126D01*
X341804Y14149D01*
X341860Y14194D01*
X344509Y16843D01*
X344521Y16859D01*
X344536Y16871D01*
X344592Y16958D01*
X344653Y17042D01*
X344659Y17062D01*
X344669Y17078D01*
X344695Y17178D01*
X344725Y17277D01*
X344724Y17297D01*
X344729Y17317D01*
X344721Y17420D01*
X344719Y17523D01*
X344712Y17542D01*
X344710Y17562D01*
X344670Y17657D01*
X344634Y17754D01*
X344622Y17770D01*
X344614Y17788D01*
X344513Y17915D01*
X343661Y19970D01*
X343661Y22194D01*
X344512Y24248D01*
X346084Y25820D01*
X348138Y26671D01*
X350362Y26671D01*
X352416Y25820D01*
X353988Y24248D01*
X354839Y22194D01*
X354839Y21688D01*
X354850Y21617D01*
X354852Y21545D01*
X354870Y21496D01*
X354878Y21445D01*
X354912Y21382D01*
X354937Y21314D01*
X354969Y21273D01*
X354994Y21228D01*
X355045Y21178D01*
X355090Y21122D01*
X355134Y21094D01*
X355172Y21058D01*
X355237Y21028D01*
X355297Y20989D01*
X355348Y20976D01*
X355395Y20955D01*
X355466Y20947D01*
X355536Y20929D01*
X355588Y20933D01*
X355639Y20927D01*
X355710Y20943D01*
X355781Y20948D01*
X355829Y20969D01*
X355880Y20980D01*
X355941Y21017D01*
X356007Y21045D01*
X356063Y21089D01*
X356091Y21106D01*
X356106Y21124D01*
X356138Y21149D01*
X356191Y21223D01*
X356251Y21293D01*
X356263Y21323D01*
X356282Y21349D01*
X356309Y21436D01*
X356343Y21521D01*
X356347Y21562D01*
X356354Y21584D01*
X356353Y21616D01*
X356361Y21688D01*
X356361Y22194D01*
X357212Y24248D01*
X358784Y25820D01*
X360838Y26671D01*
X363062Y26671D01*
X365116Y25820D01*
X366688Y24248D01*
X367539Y22194D01*
X367539Y21942D01*
X367554Y21851D01*
X367561Y21759D01*
X367575Y21721D01*
X367578Y21699D01*
X367594Y21670D01*
X367619Y21601D01*
X367661Y21544D01*
X367694Y21482D01*
X367732Y21445D01*
X367763Y21402D01*
X367821Y21361D01*
X367872Y21312D01*
X367920Y21290D01*
X367963Y21259D01*
X368031Y21238D01*
X368095Y21209D01*
X368148Y21203D01*
X368199Y21187D01*
X368269Y21189D01*
X368339Y21181D01*
X368391Y21193D01*
X368445Y21194D01*
X368511Y21219D01*
X368580Y21234D01*
X368625Y21261D01*
X368675Y21279D01*
X368730Y21324D01*
X368791Y21360D01*
X368825Y21400D01*
X368867Y21434D01*
X368905Y21493D01*
X368951Y21547D01*
X368971Y21596D01*
X368999Y21641D01*
X369016Y21709D01*
X369043Y21775D01*
X369051Y21848D01*
X369059Y21880D01*
X369057Y21902D01*
X369061Y21942D01*
X369061Y22194D01*
X369912Y24248D01*
X371484Y25820D01*
X371639Y25884D01*
X371739Y25946D01*
X371839Y26006D01*
X371843Y26010D01*
X371848Y26014D01*
X371923Y26104D01*
X371999Y26193D01*
X372001Y26198D01*
X372005Y26203D01*
X372047Y26311D01*
X372091Y26421D01*
X372092Y26428D01*
X372093Y26433D01*
X372094Y26451D01*
X372109Y26587D01*
X372109Y27022D01*
X372095Y27112D01*
X372087Y27203D01*
X372075Y27233D01*
X372070Y27265D01*
X372027Y27345D01*
X371991Y27429D01*
X371965Y27461D01*
X371954Y27482D01*
X371931Y27504D01*
X371886Y27560D01*
X369190Y30256D01*
X369116Y30309D01*
X369047Y30369D01*
X369016Y30381D01*
X368990Y30400D01*
X368903Y30427D01*
X368818Y30461D01*
X368778Y30465D01*
X368755Y30472D01*
X368723Y30471D01*
X368652Y30479D01*
X300406Y30479D01*
X282605Y48279D01*
X282526Y48336D01*
X282451Y48398D01*
X282427Y48408D01*
X282406Y48423D01*
X282313Y48452D01*
X282222Y48487D01*
X282196Y48488D01*
X282171Y48495D01*
X282073Y48493D01*
X281976Y48497D01*
X281951Y48490D01*
X281925Y48489D01*
X281833Y48456D01*
X281740Y48428D01*
X281718Y48414D01*
X281694Y48405D01*
X281618Y48344D01*
X281538Y48288D01*
X281522Y48267D01*
X281502Y48251D01*
X281449Y48169D01*
X281391Y48091D01*
X281383Y48066D01*
X281369Y48044D01*
X281345Y47949D01*
X281315Y47857D01*
X281315Y47831D01*
X281309Y47805D01*
X281316Y47708D01*
X281317Y47611D01*
X281326Y47579D01*
X281328Y47560D01*
X281341Y47530D01*
X281364Y47450D01*
X281749Y46521D01*
X281749Y42175D01*
X280086Y38161D01*
X277013Y35088D01*
X272999Y33425D01*
X268653Y33425D01*
X264639Y35088D01*
X261566Y38161D01*
X259903Y42175D01*
X259903Y46521D01*
X261566Y50535D01*
X264639Y53608D01*
X267567Y54821D01*
X267650Y54872D01*
X267736Y54918D01*
X267754Y54937D01*
X267776Y54950D01*
X267838Y55025D01*
X267905Y55096D01*
X267916Y55120D01*
X267933Y55140D01*
X267968Y55231D01*
X268009Y55319D01*
X268012Y55345D01*
X268021Y55369D01*
X268025Y55467D01*
X268036Y55563D01*
X268030Y55589D01*
X268031Y55615D01*
X268004Y55709D01*
X267984Y55804D01*
X267970Y55826D01*
X267963Y55851D01*
X267907Y55931D01*
X267857Y56015D01*
X267838Y56032D01*
X267823Y56053D01*
X267744Y56112D01*
X267670Y56175D01*
X267646Y56185D01*
X267625Y56200D01*
X267533Y56230D01*
X267442Y56267D01*
X267410Y56270D01*
X267391Y56276D01*
X267358Y56276D01*
X267276Y56285D01*
X257343Y56285D01*
X257253Y56271D01*
X257162Y56263D01*
X257132Y56251D01*
X257100Y56246D01*
X257019Y56203D01*
X256935Y56167D01*
X256903Y56141D01*
X256883Y56130D01*
X256860Y56107D01*
X256805Y56062D01*
X254790Y54048D01*
X254777Y54030D01*
X254760Y54016D01*
X254706Y53930D01*
X254646Y53848D01*
X254640Y53827D01*
X254628Y53809D01*
X254604Y53710D01*
X254574Y53613D01*
X254575Y53591D01*
X254569Y53570D01*
X254578Y53468D01*
X254580Y53367D01*
X254588Y53346D01*
X254590Y53325D01*
X254609Y53279D01*
X254628Y53215D01*
X256349Y49061D01*
X256349Y44715D01*
X254686Y40701D01*
X251613Y37628D01*
X247599Y35965D01*
X243253Y35965D01*
X239239Y37628D01*
X236166Y40701D01*
X234503Y44715D01*
X234503Y49061D01*
X236166Y53075D01*
X239239Y56148D01*
X243253Y57811D01*
X247599Y57811D01*
X249793Y56902D01*
X249907Y56875D01*
X250020Y56847D01*
X250026Y56847D01*
X250033Y56846D01*
X250149Y56857D01*
X250265Y56866D01*
X250271Y56868D01*
X250277Y56869D01*
X250385Y56917D01*
X250492Y56962D01*
X250498Y56967D01*
X250502Y56969D01*
X250516Y56981D01*
X250623Y57067D01*
X252352Y58796D01*
X252393Y58854D01*
X252443Y58906D01*
X252465Y58953D01*
X252495Y58995D01*
X252516Y59064D01*
X252547Y59129D01*
X252552Y59181D01*
X252568Y59231D01*
X252566Y59302D01*
X252574Y59373D01*
X252563Y59424D01*
X252561Y59476D01*
X252537Y59544D01*
X252521Y59614D01*
X252495Y59658D01*
X252477Y59707D01*
X252432Y59763D01*
X252395Y59825D01*
X252356Y59859D01*
X252323Y59899D01*
X252263Y59938D01*
X252208Y59985D01*
X252160Y60004D01*
X252116Y60032D01*
X252047Y60050D01*
X251980Y60077D01*
X251909Y60085D01*
X251878Y60093D01*
X251854Y60091D01*
X251813Y60095D01*
X238801Y60095D01*
X238711Y60081D01*
X238620Y60073D01*
X238590Y60061D01*
X238558Y60056D01*
X238477Y60013D01*
X238393Y59977D01*
X238361Y59951D01*
X238341Y59940D01*
X238318Y59917D01*
X238263Y59872D01*
X229540Y51150D01*
X229472Y51056D01*
X229402Y50961D01*
X229400Y50955D01*
X229396Y50950D01*
X229362Y50839D01*
X229326Y50727D01*
X229326Y50721D01*
X229324Y50715D01*
X229327Y50598D01*
X229328Y50481D01*
X229330Y50474D01*
X229330Y50469D01*
X229337Y50451D01*
X229375Y50320D01*
X230949Y46521D01*
X230949Y42175D01*
X229286Y38161D01*
X226213Y35088D01*
X222199Y33425D01*
X217853Y33425D01*
X213839Y35088D01*
X210766Y38161D01*
X209103Y42175D01*
X209103Y46521D01*
X210766Y50535D01*
X213839Y53608D01*
X217853Y55271D01*
X222199Y55271D01*
X224752Y54213D01*
X224866Y54186D01*
X224979Y54158D01*
X224986Y54158D01*
X224992Y54157D01*
X225108Y54168D01*
X225225Y54177D01*
X225230Y54179D01*
X225237Y54180D01*
X225344Y54228D01*
X225451Y54273D01*
X225457Y54278D01*
X225461Y54280D01*
X225475Y54293D01*
X225582Y54378D01*
X236381Y65177D01*
X283630Y65177D01*
X305505Y43302D01*
X305579Y43249D01*
X305649Y43189D01*
X305679Y43177D01*
X305705Y43158D01*
X305792Y43131D01*
X305877Y43097D01*
X305918Y43093D01*
X305940Y43086D01*
X305972Y43087D01*
X306044Y43079D01*
X306917Y43079D01*
X306988Y43090D01*
X307059Y43092D01*
X307108Y43110D01*
X307160Y43118D01*
X307223Y43152D01*
X307290Y43177D01*
X307331Y43209D01*
X307377Y43234D01*
X307426Y43285D01*
X307483Y43330D01*
X307511Y43374D01*
X307547Y43412D01*
X307577Y43477D01*
X307615Y43537D01*
X307628Y43588D01*
X307650Y43635D01*
X307658Y43706D01*
X307676Y43776D01*
X307671Y43828D01*
X307677Y43879D01*
X307662Y43950D01*
X307656Y44021D01*
X307636Y44069D01*
X307625Y44120D01*
X307588Y44181D01*
X307560Y44247D01*
X307515Y44303D01*
X307499Y44331D01*
X307481Y44346D01*
X307455Y44378D01*
X307254Y44579D01*
X307254Y48859D01*
X310280Y51885D01*
X310984Y51885D01*
X311055Y51896D01*
X311127Y51898D01*
X311176Y51916D01*
X311227Y51924D01*
X311290Y51958D01*
X311358Y51983D01*
X311398Y52015D01*
X311444Y52040D01*
X311494Y52092D01*
X311550Y52136D01*
X311578Y52180D01*
X311614Y52218D01*
X311644Y52283D01*
X311683Y52343D01*
X311696Y52394D01*
X311717Y52441D01*
X311725Y52512D01*
X311743Y52582D01*
X311739Y52634D01*
X311745Y52685D01*
X311729Y52756D01*
X311724Y52827D01*
X311703Y52875D01*
X311692Y52926D01*
X311655Y52987D01*
X311627Y53053D01*
X311583Y53109D01*
X311566Y53137D01*
X311548Y53152D01*
X311523Y53184D01*
X301431Y63276D01*
X301357Y63329D01*
X301287Y63389D01*
X301257Y63401D01*
X301231Y63420D01*
X301144Y63447D01*
X301059Y63481D01*
X301018Y63485D01*
X300996Y63492D01*
X300964Y63491D01*
X300892Y63499D01*
X299532Y63499D01*
X295268Y67763D01*
X295194Y67816D01*
X295124Y67876D01*
X295094Y67888D01*
X295068Y67907D01*
X294981Y67934D01*
X294896Y67968D01*
X294855Y67972D01*
X294833Y67979D01*
X294801Y67978D01*
X294729Y67986D01*
X292602Y67986D01*
X286390Y74198D01*
X286316Y74251D01*
X286247Y74311D01*
X286217Y74323D01*
X286190Y74342D01*
X286104Y74369D01*
X286019Y74403D01*
X285978Y74407D01*
X285955Y74414D01*
X285923Y74413D01*
X285852Y74421D01*
X220316Y74421D01*
X220226Y74407D01*
X220135Y74399D01*
X220105Y74387D01*
X220073Y74382D01*
X219992Y74339D01*
X219908Y74303D01*
X219876Y74277D01*
X219856Y74266D01*
X219833Y74243D01*
X219777Y74198D01*
X217225Y71646D01*
X217172Y71572D01*
X217112Y71502D01*
X217100Y71472D01*
X217081Y71446D01*
X217054Y71359D01*
X217020Y71274D01*
X217016Y71233D01*
X217009Y71211D01*
X217010Y71179D01*
X217002Y71107D01*
X217002Y67710D01*
X213976Y64684D01*
X209696Y64684D01*
X206670Y67710D01*
X206670Y71990D01*
X209696Y75016D01*
X213093Y75016D01*
X213183Y75030D01*
X213274Y75038D01*
X213304Y75050D01*
X213336Y75055D01*
X213417Y75098D01*
X213501Y75134D01*
X213533Y75160D01*
X213553Y75171D01*
X213576Y75194D01*
X213632Y75239D01*
X217896Y79503D01*
X233426Y79503D01*
X233497Y79514D01*
X233568Y79516D01*
X233617Y79534D01*
X233669Y79542D01*
X233732Y79576D01*
X233799Y79601D01*
X233840Y79633D01*
X233886Y79658D01*
X233935Y79710D01*
X233991Y79754D01*
X234020Y79798D01*
X234056Y79836D01*
X234086Y79901D01*
X234124Y79961D01*
X234137Y80012D01*
X234159Y80059D01*
X234167Y80130D01*
X234185Y80200D01*
X234180Y80252D01*
X234186Y80303D01*
X234171Y80374D01*
X234165Y80445D01*
X234145Y80493D01*
X234134Y80544D01*
X234097Y80605D01*
X234069Y80671D01*
X234024Y80727D01*
X234008Y80755D01*
X233990Y80770D01*
X233964Y80802D01*
X231054Y83712D01*
X231054Y87992D01*
X234080Y91018D01*
X238360Y91018D01*
X241386Y87992D01*
X241386Y84595D01*
X241400Y84505D01*
X241408Y84414D01*
X241420Y84384D01*
X241425Y84352D01*
X241468Y84271D01*
X241504Y84187D01*
X241530Y84155D01*
X241541Y84135D01*
X241564Y84112D01*
X241609Y84056D01*
X242129Y83536D01*
X242203Y83483D01*
X242273Y83423D01*
X242303Y83411D01*
X242329Y83392D01*
X242416Y83365D01*
X242501Y83331D01*
X242542Y83327D01*
X242564Y83320D01*
X242596Y83321D01*
X242668Y83313D01*
X289745Y83313D01*
X291456Y81601D01*
X291476Y81581D01*
X291535Y81539D01*
X291587Y81490D01*
X291634Y81468D01*
X291676Y81438D01*
X291745Y81417D01*
X291810Y81386D01*
X291862Y81381D01*
X291911Y81365D01*
X291983Y81367D01*
X292054Y81359D01*
X292105Y81370D01*
X292157Y81371D01*
X292224Y81396D01*
X292295Y81411D01*
X292339Y81438D01*
X292388Y81456D01*
X292444Y81501D01*
X292506Y81538D01*
X292540Y81577D01*
X292580Y81609D01*
X292619Y81670D01*
X292666Y81724D01*
X292685Y81773D01*
X292713Y81816D01*
X292731Y81886D01*
X292758Y81953D01*
X292766Y82023D01*
X292774Y82055D01*
X292772Y82078D01*
X292776Y82119D01*
X292776Y82658D01*
X295802Y85684D01*
X300082Y85684D01*
X301468Y84298D01*
X301484Y84286D01*
X301496Y84271D01*
X301584Y84214D01*
X301667Y84154D01*
X301686Y84148D01*
X301703Y84138D01*
X301804Y84112D01*
X301903Y84082D01*
X301922Y84082D01*
X301942Y84077D01*
X302045Y84086D01*
X302148Y84088D01*
X302167Y84095D01*
X302187Y84097D01*
X302282Y84137D01*
X302379Y84173D01*
X302395Y84185D01*
X302413Y84193D01*
X302544Y84298D01*
X303930Y85684D01*
X308210Y85684D01*
X311236Y82658D01*
X311236Y78378D01*
X310915Y78057D01*
X310903Y78041D01*
X310887Y78029D01*
X310831Y77941D01*
X310771Y77857D01*
X310765Y77838D01*
X310754Y77822D01*
X310729Y77721D01*
X310699Y77622D01*
X310699Y77602D01*
X310694Y77583D01*
X310702Y77480D01*
X310705Y77376D01*
X310712Y77358D01*
X310713Y77338D01*
X310754Y77243D01*
X310789Y77145D01*
X310802Y77130D01*
X310810Y77112D01*
X310915Y76981D01*
X313575Y74320D01*
X313633Y74279D01*
X313685Y74229D01*
X313732Y74207D01*
X313774Y74177D01*
X313843Y74156D01*
X313908Y74126D01*
X313960Y74120D01*
X314010Y74104D01*
X314081Y74106D01*
X314152Y74098D01*
X314203Y74110D01*
X314255Y74111D01*
X314323Y74135D01*
X314393Y74151D01*
X314438Y74177D01*
X314486Y74195D01*
X314542Y74240D01*
X314604Y74277D01*
X314638Y74316D01*
X314678Y74349D01*
X314717Y74409D01*
X314764Y74464D01*
X314783Y74512D01*
X314811Y74556D01*
X314829Y74625D01*
X314856Y74692D01*
X314864Y74763D01*
X314872Y74794D01*
X314870Y74818D01*
X314874Y74859D01*
X314874Y75546D01*
X317900Y78572D01*
X322180Y78572D01*
X325206Y75546D01*
X325206Y71266D01*
X323970Y70031D01*
X323958Y70014D01*
X323943Y70002D01*
X323887Y69915D01*
X323827Y69831D01*
X323821Y69812D01*
X323810Y69795D01*
X323785Y69695D01*
X323754Y69596D01*
X323755Y69576D01*
X323750Y69557D01*
X323758Y69454D01*
X323761Y69350D01*
X323767Y69331D01*
X323769Y69311D01*
X323809Y69217D01*
X323845Y69119D01*
X323858Y69103D01*
X323865Y69085D01*
X323970Y68954D01*
X326660Y66264D01*
X326734Y66211D01*
X326804Y66151D01*
X326834Y66139D01*
X326860Y66120D01*
X326947Y66093D01*
X327032Y66059D01*
X327073Y66055D01*
X327095Y66048D01*
X327127Y66049D01*
X327199Y66041D01*
X330102Y66041D01*
X330173Y66052D01*
X330245Y66054D01*
X330294Y66072D01*
X330345Y66080D01*
X330408Y66114D01*
X330476Y66139D01*
X330516Y66171D01*
X330562Y66196D01*
X330612Y66248D01*
X330668Y66292D01*
X330696Y66336D01*
X330732Y66374D01*
X330762Y66439D01*
X330801Y66499D01*
X330814Y66550D01*
X330835Y66597D01*
X330843Y66668D01*
X330861Y66738D01*
X330857Y66790D01*
X330863Y66841D01*
X330847Y66912D01*
X330842Y66983D01*
X330821Y67031D01*
X330810Y67082D01*
X330773Y67143D01*
X330745Y67209D01*
X330701Y67265D01*
X330684Y67293D01*
X330666Y67308D01*
X330641Y67340D01*
X329691Y68290D01*
X329691Y68326D01*
X329677Y68416D01*
X329669Y68507D01*
X329657Y68537D01*
X329652Y68569D01*
X329609Y68649D01*
X329573Y68733D01*
X329547Y68765D01*
X329536Y68786D01*
X329513Y68808D01*
X329468Y68864D01*
X327066Y71266D01*
X327066Y75546D01*
X330092Y78572D01*
X334372Y78572D01*
X337398Y75546D01*
X337398Y71266D01*
X337282Y71150D01*
X337240Y71092D01*
X337190Y71040D01*
X337169Y70993D01*
X337138Y70951D01*
X337117Y70882D01*
X337087Y70817D01*
X337081Y70765D01*
X337066Y70715D01*
X337068Y70644D01*
X337060Y70573D01*
X337071Y70522D01*
X337072Y70470D01*
X337097Y70402D01*
X337112Y70332D01*
X337139Y70287D01*
X337157Y70239D01*
X337201Y70183D01*
X337238Y70121D01*
X337278Y70087D01*
X337310Y70047D01*
X337371Y70008D01*
X337425Y69961D01*
X337473Y69942D01*
X337517Y69914D01*
X337587Y69896D01*
X337653Y69869D01*
X337725Y69861D01*
X337756Y69853D01*
X337779Y69855D01*
X337820Y69851D01*
X430572Y69851D01*
X430592Y69854D01*
X430611Y69852D01*
X430713Y69874D01*
X430815Y69890D01*
X430832Y69900D01*
X430852Y69904D01*
X430941Y69957D01*
X431032Y70006D01*
X431046Y70020D01*
X431063Y70030D01*
X431130Y70109D01*
X431202Y70184D01*
X431210Y70202D01*
X431223Y70217D01*
X431262Y70313D01*
X431305Y70407D01*
X431307Y70427D01*
X431315Y70445D01*
X431333Y70612D01*
X431333Y72117D01*
X432416Y73200D01*
X432458Y73258D01*
X432508Y73310D01*
X432529Y73357D01*
X432560Y73399D01*
X432581Y73468D01*
X432611Y73533D01*
X432617Y73585D01*
X432632Y73635D01*
X432630Y73706D01*
X432638Y73777D01*
X432627Y73828D01*
X432626Y73880D01*
X432601Y73948D01*
X432586Y74018D01*
X432559Y74063D01*
X432541Y74111D01*
X432497Y74167D01*
X432460Y74229D01*
X432420Y74263D01*
X432388Y74303D01*
X432327Y74342D01*
X432273Y74389D01*
X432225Y74408D01*
X432181Y74436D01*
X432111Y74454D01*
X432045Y74481D01*
X431973Y74489D01*
X431942Y74497D01*
X431919Y74495D01*
X431878Y74499D01*
X428320Y74499D01*
X427475Y74726D01*
X426717Y75164D01*
X426098Y75783D01*
X425771Y76348D01*
X425726Y76403D01*
X425688Y76464D01*
X425648Y76498D01*
X425615Y76538D01*
X425555Y76576D01*
X425500Y76622D01*
X425451Y76641D01*
X425407Y76669D01*
X425337Y76686D01*
X425271Y76712D01*
X425219Y76714D01*
X425168Y76726D01*
X425097Y76720D01*
X425025Y76723D01*
X424975Y76709D01*
X424923Y76705D01*
X424857Y76676D01*
X424788Y76656D01*
X424745Y76627D01*
X424698Y76606D01*
X424645Y76558D01*
X424586Y76517D01*
X424554Y76475D01*
X424516Y76440D01*
X424481Y76378D01*
X424438Y76320D01*
X424412Y76254D01*
X424396Y76225D01*
X424392Y76202D01*
X424377Y76164D01*
X424243Y75664D01*
X423778Y74860D01*
X423122Y74204D01*
X422318Y73739D01*
X421422Y73499D01*
X404481Y73499D01*
X404481Y100001D01*
X444196Y100001D01*
X444216Y100004D01*
X444235Y100002D01*
X444337Y100024D01*
X444439Y100041D01*
X444456Y100050D01*
X444476Y100054D01*
X444565Y100107D01*
X444656Y100156D01*
X444670Y100170D01*
X444687Y100180D01*
X444754Y100259D01*
X444825Y100334D01*
X444834Y100352D01*
X444847Y100367D01*
X444886Y100463D01*
X444929Y100557D01*
X444931Y100577D01*
X444939Y100595D01*
X444957Y100762D01*
X444957Y102286D01*
X444954Y102306D01*
X444956Y102325D01*
X444934Y102427D01*
X444917Y102529D01*
X444908Y102546D01*
X444904Y102566D01*
X444851Y102655D01*
X444802Y102746D01*
X444788Y102760D01*
X444778Y102777D01*
X444699Y102844D01*
X444624Y102915D01*
X444606Y102924D01*
X444591Y102937D01*
X444495Y102976D01*
X444401Y103019D01*
X444381Y103021D01*
X444363Y103029D01*
X444196Y103047D01*
X404481Y103047D01*
X404481Y129549D01*
X407662Y129549D01*
X407733Y129560D01*
X407804Y129562D01*
X407853Y129580D01*
X407905Y129588D01*
X407968Y129622D01*
X408035Y129647D01*
X408076Y129679D01*
X408122Y129704D01*
X408171Y129756D01*
X408227Y129800D01*
X408256Y129844D01*
X408292Y129882D01*
X408322Y129947D01*
X408360Y130007D01*
X408373Y130058D01*
X408395Y130105D01*
X408403Y130176D01*
X408421Y130246D01*
X408416Y130298D01*
X408422Y130349D01*
X408407Y130420D01*
X408401Y130491D01*
X408381Y130539D01*
X408370Y130590D01*
X408333Y130651D01*
X408305Y130717D01*
X408260Y130773D01*
X408244Y130801D01*
X408226Y130816D01*
X408200Y130848D01*
X407584Y131464D01*
X407584Y133858D01*
X407581Y133878D01*
X407583Y133897D01*
X407561Y133999D01*
X407545Y134101D01*
X407535Y134118D01*
X407531Y134138D01*
X407478Y134227D01*
X407429Y134318D01*
X407415Y134332D01*
X407405Y134349D01*
X407326Y134416D01*
X407251Y134488D01*
X407233Y134496D01*
X407218Y134509D01*
X407122Y134548D01*
X407028Y134591D01*
X407008Y134593D01*
X406990Y134601D01*
X406823Y134619D01*
X390369Y134619D01*
X379729Y145259D01*
X379729Y158144D01*
X379715Y158234D01*
X379707Y158325D01*
X379695Y158355D01*
X379690Y158387D01*
X379647Y158468D01*
X379611Y158552D01*
X379585Y158584D01*
X379574Y158604D01*
X379551Y158627D01*
X379506Y158683D01*
X378393Y159796D01*
X378319Y159849D01*
X378249Y159909D01*
X378219Y159921D01*
X378193Y159940D01*
X378106Y159967D01*
X378021Y160001D01*
X377980Y160005D01*
X377958Y160012D01*
X377926Y160011D01*
X377854Y160019D01*
X335711Y160019D01*
X334000Y161730D01*
X334000Y161731D01*
X332955Y162775D01*
X332881Y162828D01*
X332812Y162888D01*
X332782Y162900D01*
X332755Y162919D01*
X332668Y162946D01*
X332583Y162980D01*
X332542Y162984D01*
X332520Y162991D01*
X332488Y162990D01*
X332417Y162998D01*
X328661Y162998D01*
X324824Y166835D01*
X324766Y166876D01*
X324714Y166926D01*
X324667Y166948D01*
X324625Y166978D01*
X324556Y166999D01*
X324491Y167029D01*
X324439Y167035D01*
X324389Y167050D01*
X324318Y167049D01*
X324247Y167056D01*
X324196Y167045D01*
X324144Y167044D01*
X324076Y167019D01*
X324006Y167004D01*
X323961Y166978D01*
X323913Y166960D01*
X323857Y166915D01*
X323795Y166878D01*
X323761Y166838D01*
X323721Y166806D01*
X323682Y166746D01*
X323635Y166691D01*
X323616Y166643D01*
X323588Y166599D01*
X323570Y166530D01*
X323543Y166463D01*
X323535Y166392D01*
X323527Y166360D01*
X323529Y166337D01*
X323525Y166296D01*
X323525Y164368D01*
X322632Y163475D01*
X297368Y163475D01*
X296475Y164368D01*
X296475Y189632D01*
X297368Y190525D01*
X322632Y190525D01*
X323525Y189632D01*
X323525Y180302D01*
X323528Y180282D01*
X323526Y180263D01*
X323548Y180161D01*
X323564Y180059D01*
X323574Y180042D01*
X323578Y180022D01*
X323631Y179933D01*
X323680Y179842D01*
X323694Y179828D01*
X323704Y179811D01*
X323783Y179744D01*
X323858Y179672D01*
X323876Y179664D01*
X323891Y179651D01*
X323987Y179612D01*
X324081Y179569D01*
X324101Y179567D01*
X324119Y179559D01*
X324286Y179541D01*
X324730Y179541D01*
X324820Y179555D01*
X324911Y179563D01*
X324941Y179575D01*
X324973Y179580D01*
X325054Y179623D01*
X325138Y179659D01*
X325170Y179685D01*
X325190Y179696D01*
X325213Y179719D01*
X325269Y179764D01*
X325573Y180068D01*
X325626Y180142D01*
X325686Y180212D01*
X325698Y180242D01*
X325717Y180268D01*
X325744Y180355D01*
X325778Y180440D01*
X325782Y180481D01*
X325789Y180503D01*
X325788Y180535D01*
X325796Y180607D01*
X325796Y184004D01*
X328822Y187030D01*
X333102Y187030D01*
X336128Y184004D01*
X336128Y179724D01*
X334464Y178060D01*
X334452Y178044D01*
X334437Y178032D01*
X334380Y177944D01*
X334320Y177861D01*
X334314Y177842D01*
X334304Y177825D01*
X334278Y177724D01*
X334248Y177625D01*
X334248Y177606D01*
X334243Y177586D01*
X334252Y177483D01*
X334254Y177380D01*
X334261Y177361D01*
X334263Y177341D01*
X334303Y177246D01*
X334339Y177149D01*
X334351Y177133D01*
X334359Y177115D01*
X334464Y176984D01*
X336318Y175130D01*
X336318Y171374D01*
X336332Y171283D01*
X336340Y171193D01*
X336352Y171163D01*
X336357Y171131D01*
X336400Y171050D01*
X336436Y170966D01*
X336462Y170934D01*
X336473Y170913D01*
X336496Y170891D01*
X336541Y170835D01*
X339004Y168372D01*
X339078Y168319D01*
X339148Y168259D01*
X339178Y168247D01*
X339204Y168228D01*
X339291Y168201D01*
X339376Y168167D01*
X339417Y168163D01*
X339439Y168156D01*
X339471Y168157D01*
X339542Y168149D01*
X381686Y168149D01*
X383248Y166586D01*
X385034Y164801D01*
X385092Y164759D01*
X385144Y164710D01*
X385191Y164688D01*
X385233Y164657D01*
X385302Y164636D01*
X385367Y164606D01*
X385419Y164600D01*
X385469Y164585D01*
X385540Y164587D01*
X385611Y164579D01*
X385662Y164590D01*
X385714Y164591D01*
X385782Y164616D01*
X385852Y164631D01*
X385897Y164658D01*
X385945Y164676D01*
X386001Y164721D01*
X386063Y164757D01*
X386097Y164797D01*
X386137Y164829D01*
X386176Y164890D01*
X386223Y164944D01*
X386242Y164992D01*
X386270Y165036D01*
X386288Y165106D01*
X386315Y165172D01*
X386323Y165244D01*
X386331Y165275D01*
X386329Y165298D01*
X386333Y165339D01*
X386333Y180138D01*
X386319Y180228D01*
X386311Y180319D01*
X386299Y180349D01*
X386294Y180381D01*
X386251Y180462D01*
X386215Y180546D01*
X386189Y180578D01*
X386178Y180598D01*
X386155Y180621D01*
X386128Y180655D01*
X386127Y180656D01*
X386126Y180657D01*
X386110Y180677D01*
X385040Y181747D01*
X385040Y186026D01*
X388066Y189052D01*
X392346Y189052D01*
X395372Y186026D01*
X395372Y181747D01*
X392346Y178721D01*
X391668Y178721D01*
X391648Y178717D01*
X391629Y178720D01*
X391527Y178698D01*
X391425Y178681D01*
X391408Y178672D01*
X391388Y178667D01*
X391299Y178614D01*
X391208Y178566D01*
X391194Y178551D01*
X391177Y178541D01*
X391110Y178462D01*
X391038Y178387D01*
X391030Y178369D01*
X391017Y178354D01*
X390978Y178258D01*
X390935Y178164D01*
X390933Y178145D01*
X390925Y178126D01*
X390907Y177959D01*
X390907Y150361D01*
X390921Y150270D01*
X390929Y150180D01*
X390941Y150150D01*
X390946Y150118D01*
X390989Y150037D01*
X391025Y149953D01*
X391051Y149921D01*
X391062Y149900D01*
X391085Y149878D01*
X391130Y149822D01*
X394932Y146020D01*
X395006Y145967D01*
X395076Y145907D01*
X395106Y145895D01*
X395132Y145876D01*
X395219Y145849D01*
X395304Y145815D01*
X395345Y145811D01*
X395367Y145804D01*
X395399Y145805D01*
X395471Y145797D01*
X403113Y145797D01*
X403203Y145811D01*
X403294Y145819D01*
X403324Y145831D01*
X403356Y145836D01*
X403436Y145879D01*
X403520Y145915D01*
X403552Y145941D01*
X403573Y145952D01*
X403595Y145975D01*
X403651Y146020D01*
X406815Y149184D01*
X418749Y149184D01*
X423522Y144411D01*
X423596Y144358D01*
X423665Y144298D01*
X423695Y144286D01*
X423721Y144267D01*
X423808Y144240D01*
X423893Y144206D01*
X423934Y144202D01*
X423956Y144195D01*
X423989Y144196D01*
X424060Y144188D01*
X429853Y144188D01*
X429924Y144199D01*
X429995Y144201D01*
X430044Y144219D01*
X430096Y144227D01*
X430159Y144261D01*
X430226Y144286D01*
X430267Y144318D01*
X430313Y144343D01*
X430362Y144394D01*
X430418Y144439D01*
X430447Y144483D01*
X430483Y144521D01*
X430513Y144586D01*
X430551Y144646D01*
X430564Y144697D01*
X430586Y144744D01*
X430594Y144815D01*
X430612Y144885D01*
X430607Y144937D01*
X430613Y144988D01*
X430598Y145059D01*
X430592Y145130D01*
X430572Y145178D01*
X430561Y145229D01*
X430524Y145290D01*
X430496Y145356D01*
X430451Y145412D01*
X430435Y145440D01*
X430417Y145455D01*
X430391Y145487D01*
X429936Y145942D01*
X429936Y150222D01*
X432962Y153248D01*
X437219Y153248D01*
X437309Y153262D01*
X437400Y153270D01*
X437430Y153282D01*
X437462Y153287D01*
X437542Y153330D01*
X437626Y153366D01*
X437658Y153392D01*
X437679Y153403D01*
X437701Y153426D01*
X437757Y153471D01*
X440582Y156296D01*
X444839Y156296D01*
X444929Y156310D01*
X445020Y156318D01*
X445050Y156330D01*
X445082Y156335D01*
X445162Y156378D01*
X445246Y156414D01*
X445278Y156440D01*
X445299Y156451D01*
X445321Y156474D01*
X445377Y156519D01*
X448202Y159344D01*
X452482Y159344D01*
X455508Y156318D01*
X455508Y154178D01*
X455511Y154158D01*
X455509Y154139D01*
X455531Y154037D01*
X455547Y153935D01*
X455557Y153918D01*
X455561Y153898D01*
X455614Y153809D01*
X455663Y153718D01*
X455677Y153704D01*
X455687Y153687D01*
X455766Y153620D01*
X455841Y153548D01*
X455859Y153540D01*
X455874Y153527D01*
X455970Y153488D01*
X456064Y153445D01*
X456084Y153443D01*
X456102Y153435D01*
X456269Y153417D01*
X496269Y153417D01*
X496339Y153428D01*
X496411Y153430D01*
X496460Y153448D01*
X496511Y153456D01*
X496575Y153490D01*
X496642Y153515D01*
X496683Y153547D01*
X496729Y153572D01*
X496778Y153624D01*
X496834Y153668D01*
X496862Y153712D01*
X496898Y153750D01*
X496928Y153815D01*
X496967Y153875D01*
X496980Y153926D01*
X497002Y153973D01*
X497010Y154044D01*
X497027Y154114D01*
X497023Y154166D01*
X497029Y154217D01*
X497014Y154288D01*
X497008Y154359D01*
X496988Y154407D01*
X496977Y154458D01*
X496940Y154519D01*
X496912Y154585D01*
X496867Y154641D01*
X496850Y154669D01*
X496833Y154684D01*
X496807Y154716D01*
X493505Y158018D01*
X493431Y158071D01*
X493361Y158131D01*
X493331Y158143D01*
X493305Y158162D01*
X493218Y158189D01*
X493133Y158223D01*
X493092Y158227D01*
X493070Y158234D01*
X493038Y158233D01*
X492966Y158241D01*
X478350Y158241D01*
X475356Y161235D01*
X475282Y161288D01*
X475212Y161348D01*
X475182Y161360D01*
X475156Y161379D01*
X475069Y161406D01*
X474984Y161440D01*
X474943Y161444D01*
X474921Y161451D01*
X474889Y161450D01*
X474818Y161458D01*
X471162Y161458D01*
X468845Y163775D01*
X468771Y163828D01*
X468702Y163888D01*
X468672Y163900D01*
X468645Y163919D01*
X468558Y163946D01*
X468474Y163980D01*
X468433Y163984D01*
X468410Y163991D01*
X468378Y163990D01*
X468307Y163998D01*
X456091Y163998D01*
X448948Y171141D01*
X448874Y171194D01*
X448805Y171254D01*
X448775Y171266D01*
X448748Y171285D01*
X448661Y171312D01*
X448577Y171346D01*
X448536Y171350D01*
X448513Y171357D01*
X448481Y171356D01*
X448410Y171364D01*
X441867Y171364D01*
X440305Y172927D01*
X439296Y173935D01*
X439222Y173988D01*
X439153Y174048D01*
X439123Y174060D01*
X439096Y174079D01*
X439009Y174106D01*
X438925Y174140D01*
X438884Y174144D01*
X438861Y174151D01*
X438829Y174150D01*
X438758Y174158D01*
X434896Y174158D01*
X431822Y177233D01*
X431748Y177286D01*
X431679Y177345D01*
X431648Y177357D01*
X431622Y177376D01*
X431535Y177403D01*
X431450Y177437D01*
X431410Y177442D01*
X431387Y177449D01*
X431355Y177448D01*
X431284Y177456D01*
X428141Y177456D01*
X425115Y180482D01*
X425115Y184761D01*
X425743Y185390D01*
X425785Y185448D01*
X425835Y185500D01*
X425857Y185547D01*
X425887Y185589D01*
X425908Y185658D01*
X425938Y185723D01*
X425944Y185775D01*
X425959Y185825D01*
X425957Y185896D01*
X425965Y185967D01*
X425954Y186018D01*
X425953Y186070D01*
X425928Y186138D01*
X425913Y186208D01*
X425886Y186253D01*
X425869Y186301D01*
X425824Y186357D01*
X425787Y186419D01*
X425747Y186453D01*
X425715Y186493D01*
X425655Y186532D01*
X425600Y186579D01*
X425552Y186598D01*
X425508Y186626D01*
X425438Y186644D01*
X425372Y186671D01*
X425301Y186679D01*
X425269Y186687D01*
X425246Y186685D01*
X425205Y186689D01*
X416284Y186689D01*
X416264Y186686D01*
X416245Y186688D01*
X416143Y186666D01*
X416041Y186650D01*
X416024Y186640D01*
X416004Y186636D01*
X415915Y186583D01*
X415824Y186534D01*
X415810Y186520D01*
X415793Y186510D01*
X415726Y186431D01*
X415654Y186356D01*
X415646Y186338D01*
X415633Y186323D01*
X415594Y186227D01*
X415551Y186133D01*
X415549Y186113D01*
X415541Y186095D01*
X415523Y185928D01*
X415523Y167236D01*
X404147Y155860D01*
X404094Y155786D01*
X404034Y155716D01*
X404022Y155686D01*
X404003Y155660D01*
X403976Y155573D01*
X403942Y155488D01*
X403938Y155447D01*
X403931Y155425D01*
X403932Y155393D01*
X403924Y155321D01*
X403924Y151924D01*
X400898Y148898D01*
X396618Y148898D01*
X393592Y151924D01*
X393592Y156204D01*
X396618Y159230D01*
X400015Y159230D01*
X400105Y159244D01*
X400196Y159252D01*
X400226Y159264D01*
X400258Y159269D01*
X400339Y159312D01*
X400423Y159348D01*
X400455Y159374D01*
X400475Y159385D01*
X400498Y159408D01*
X400554Y159453D01*
X410218Y169117D01*
X410271Y169191D01*
X410331Y169261D01*
X410343Y169291D01*
X410362Y169317D01*
X410389Y169404D01*
X410423Y169489D01*
X410427Y169530D01*
X410434Y169552D01*
X410433Y169584D01*
X410441Y169656D01*
X410441Y190282D01*
X411930Y191771D01*
X450443Y191771D01*
X450735Y191479D01*
X450793Y191437D01*
X450845Y191388D01*
X450892Y191366D01*
X450934Y191336D01*
X451003Y191314D01*
X451068Y191284D01*
X451120Y191279D01*
X451170Y191263D01*
X451241Y191265D01*
X451312Y191257D01*
X451363Y191268D01*
X451415Y191270D01*
X451483Y191294D01*
X451553Y191309D01*
X451598Y191336D01*
X451646Y191354D01*
X451702Y191399D01*
X451764Y191436D01*
X451798Y191475D01*
X451838Y191508D01*
X451877Y191568D01*
X451924Y191622D01*
X451943Y191671D01*
X451971Y191715D01*
X451989Y191784D01*
X452016Y191851D01*
X452024Y191922D01*
X452032Y191953D01*
X452030Y191976D01*
X452034Y192017D01*
X452034Y192386D01*
X455060Y195412D01*
X459340Y195412D01*
X462366Y192386D01*
X462366Y192278D01*
X462369Y192258D01*
X462367Y192239D01*
X462389Y192137D01*
X462405Y192035D01*
X462415Y192018D01*
X462419Y191998D01*
X462472Y191909D01*
X462521Y191818D01*
X462535Y191804D01*
X462545Y191787D01*
X462624Y191720D01*
X462699Y191648D01*
X462717Y191640D01*
X462732Y191627D01*
X462828Y191588D01*
X462922Y191545D01*
X462942Y191543D01*
X462960Y191535D01*
X463127Y191517D01*
X488357Y191517D01*
X488377Y191520D01*
X488396Y191518D01*
X488498Y191540D01*
X488600Y191556D01*
X488617Y191566D01*
X488637Y191570D01*
X488726Y191623D01*
X488817Y191672D01*
X488831Y191686D01*
X488848Y191696D01*
X488915Y191775D01*
X488987Y191850D01*
X488995Y191868D01*
X489008Y191883D01*
X489047Y191979D01*
X489090Y192073D01*
X489092Y192093D01*
X489100Y192111D01*
X489118Y192278D01*
X489118Y193064D01*
X492144Y196090D01*
X496424Y196090D01*
X499450Y193064D01*
X499450Y188784D01*
X499249Y188583D01*
X499207Y188525D01*
X499157Y188473D01*
X499136Y188426D01*
X499105Y188384D01*
X499084Y188315D01*
X499054Y188250D01*
X499048Y188198D01*
X499033Y188148D01*
X499035Y188077D01*
X499027Y188006D01*
X499038Y187955D01*
X499039Y187903D01*
X499064Y187835D01*
X499079Y187765D01*
X499106Y187720D01*
X499124Y187672D01*
X499168Y187616D01*
X499205Y187554D01*
X499245Y187520D01*
X499277Y187480D01*
X499338Y187441D01*
X499392Y187394D01*
X499440Y187375D01*
X499484Y187347D01*
X499554Y187329D01*
X499620Y187302D01*
X499692Y187294D01*
X499723Y187286D01*
X499746Y187288D01*
X499787Y187284D01*
X501780Y187284D01*
X503343Y185721D01*
X507639Y181425D01*
X507655Y181413D01*
X507668Y181398D01*
X507755Y181342D01*
X507839Y181281D01*
X507858Y181276D01*
X507875Y181265D01*
X507975Y181239D01*
X508074Y181209D01*
X508094Y181210D01*
X508113Y181205D01*
X508216Y181213D01*
X508320Y181215D01*
X508338Y181222D01*
X508358Y181224D01*
X508453Y181264D01*
X508551Y181300D01*
X508566Y181312D01*
X508585Y181320D01*
X508716Y181425D01*
X510018Y182727D01*
X510357Y182868D01*
X510458Y182930D01*
X510561Y182993D01*
X510563Y182996D01*
X510566Y182997D01*
X510643Y183090D01*
X510720Y183182D01*
X510721Y183184D01*
X510723Y183187D01*
X510766Y183300D01*
X510810Y183410D01*
X510810Y183414D01*
X510811Y183416D01*
X510816Y183536D01*
X510822Y183656D01*
X510821Y183659D01*
X510821Y183662D01*
X510788Y183775D01*
X510755Y183893D01*
X510754Y183895D01*
X510753Y183898D01*
X510686Y183995D01*
X510617Y184096D01*
X510614Y184098D01*
X510613Y184100D01*
X510604Y184107D01*
X510488Y184204D01*
X509555Y184828D01*
X508646Y185737D01*
X507932Y186805D01*
X507440Y187993D01*
X507314Y188627D01*
X513206Y188627D01*
X513225Y188630D01*
X513245Y188628D01*
X513347Y188650D01*
X513449Y188666D01*
X513466Y188676D01*
X513486Y188680D01*
X513575Y188733D01*
X513666Y188782D01*
X513680Y188796D01*
X513697Y188806D01*
X513764Y188885D01*
X513835Y188960D01*
X513844Y188978D01*
X513857Y188993D01*
X513895Y189089D01*
X513939Y189183D01*
X513941Y189203D01*
X513949Y189221D01*
X513967Y189388D01*
X513967Y189643D01*
X514222Y189643D01*
X514242Y189646D01*
X514261Y189644D01*
X514363Y189666D01*
X514465Y189683D01*
X514482Y189692D01*
X514502Y189696D01*
X514591Y189749D01*
X514682Y189798D01*
X514696Y189812D01*
X514713Y189822D01*
X514780Y189901D01*
X514852Y189976D01*
X514860Y189994D01*
X514873Y190009D01*
X514912Y190106D01*
X514955Y190199D01*
X514957Y190219D01*
X514965Y190237D01*
X514983Y190404D01*
X514983Y196296D01*
X515617Y196170D01*
X516805Y195678D01*
X517873Y194964D01*
X518782Y194055D01*
X519406Y193122D01*
X519489Y193033D01*
X519569Y192946D01*
X519572Y192944D01*
X519574Y192942D01*
X519680Y192884D01*
X519785Y192827D01*
X519788Y192826D01*
X519790Y192825D01*
X519907Y192805D01*
X520027Y192783D01*
X520030Y192784D01*
X520033Y192783D01*
X520150Y192801D01*
X520270Y192819D01*
X520273Y192821D01*
X520276Y192821D01*
X520381Y192876D01*
X520489Y192931D01*
X520491Y192933D01*
X520494Y192934D01*
X520577Y193020D01*
X520661Y193106D01*
X520663Y193109D01*
X520665Y193111D01*
X520670Y193121D01*
X520742Y193253D01*
X520883Y193592D01*
X522718Y195427D01*
X525116Y196421D01*
X527712Y196421D01*
X530110Y195427D01*
X531945Y193592D01*
X532086Y193253D01*
X532149Y193150D01*
X532211Y193049D01*
X532214Y193047D01*
X532215Y193044D01*
X532308Y192967D01*
X532400Y192890D01*
X532402Y192889D01*
X532405Y192887D01*
X532518Y192844D01*
X532628Y192800D01*
X532632Y192800D01*
X532634Y192799D01*
X532754Y192794D01*
X532874Y192788D01*
X532877Y192789D01*
X532880Y192789D01*
X532994Y192822D01*
X533111Y192855D01*
X533113Y192856D01*
X533116Y192857D01*
X533214Y192925D01*
X533314Y192993D01*
X533316Y192996D01*
X533318Y192997D01*
X533325Y193006D01*
X533422Y193122D01*
X534046Y194055D01*
X534955Y194964D01*
X536023Y195678D01*
X537211Y196170D01*
X537845Y196296D01*
X537845Y190404D01*
X537848Y190385D01*
X537846Y190365D01*
X537868Y190263D01*
X537884Y190161D01*
X537894Y190144D01*
X537898Y190124D01*
X537951Y190035D01*
X538000Y189944D01*
X538014Y189930D01*
X538024Y189913D01*
X538103Y189846D01*
X538178Y189775D01*
X538196Y189766D01*
X538211Y189753D01*
X538307Y189715D01*
X538401Y189671D01*
X538421Y189669D01*
X538439Y189661D01*
X538606Y189643D01*
X538861Y189643D01*
X538861Y189388D01*
X538864Y189368D01*
X538862Y189348D01*
X538884Y189247D01*
X538901Y189145D01*
X538910Y189128D01*
X538914Y189108D01*
X538967Y189019D01*
X539016Y188928D01*
X539030Y188914D01*
X539040Y188897D01*
X539119Y188830D01*
X539194Y188758D01*
X539212Y188750D01*
X539227Y188737D01*
X539324Y188698D01*
X539417Y188655D01*
X539437Y188653D01*
X539455Y188645D01*
X539622Y188627D01*
X551306Y188627D01*
X551325Y188630D01*
X551345Y188628D01*
X551447Y188650D01*
X551549Y188666D01*
X551566Y188676D01*
X551586Y188680D01*
X551675Y188733D01*
X551766Y188782D01*
X551780Y188796D01*
X551797Y188806D01*
X551864Y188885D01*
X551935Y188960D01*
X551944Y188978D01*
X551957Y188993D01*
X551995Y189089D01*
X552039Y189183D01*
X552041Y189203D01*
X552049Y189221D01*
X552067Y189388D01*
X552067Y189643D01*
X552322Y189643D01*
X552342Y189646D01*
X552361Y189644D01*
X552463Y189666D01*
X552565Y189683D01*
X552582Y189692D01*
X552602Y189696D01*
X552691Y189749D01*
X552782Y189798D01*
X552796Y189812D01*
X552813Y189822D01*
X552880Y189901D01*
X552952Y189976D01*
X552960Y189994D01*
X552973Y190009D01*
X553012Y190106D01*
X553055Y190199D01*
X553057Y190219D01*
X553065Y190237D01*
X553083Y190404D01*
X553083Y196296D01*
X553717Y196170D01*
X554905Y195678D01*
X555973Y194964D01*
X556882Y194055D01*
X557506Y193122D01*
X557589Y193033D01*
X557669Y192946D01*
X557672Y192944D01*
X557674Y192942D01*
X557780Y192884D01*
X557885Y192827D01*
X557888Y192826D01*
X557890Y192825D01*
X558007Y192805D01*
X558127Y192783D01*
X558130Y192784D01*
X558133Y192783D01*
X558250Y192801D01*
X558370Y192819D01*
X558373Y192821D01*
X558376Y192821D01*
X558481Y192876D01*
X558589Y192931D01*
X558591Y192933D01*
X558594Y192934D01*
X558677Y193020D01*
X558761Y193106D01*
X558763Y193109D01*
X558765Y193111D01*
X558770Y193121D01*
X558842Y193253D01*
X558983Y193592D01*
X560818Y195427D01*
X563216Y196421D01*
X565812Y196421D01*
X568210Y195427D01*
X570045Y193592D01*
X571039Y191194D01*
X571039Y188598D01*
X570045Y186200D01*
X568210Y184365D01*
X567932Y184249D01*
X567871Y184212D01*
X567805Y184182D01*
X567767Y184147D01*
X567723Y184120D01*
X567677Y184065D01*
X567624Y184016D01*
X567599Y183970D01*
X567566Y183930D01*
X567540Y183863D01*
X567505Y183800D01*
X567496Y183749D01*
X567478Y183701D01*
X567475Y183629D01*
X567462Y183558D01*
X567469Y183507D01*
X567467Y183455D01*
X567487Y183386D01*
X567498Y183315D01*
X567521Y183269D01*
X567536Y183219D01*
X567577Y183160D01*
X567609Y183096D01*
X567646Y183059D01*
X567676Y183017D01*
X567733Y182974D01*
X567785Y182924D01*
X567847Y182889D01*
X567873Y182870D01*
X567896Y182863D01*
X567932Y182843D01*
X568210Y182727D01*
X570045Y180892D01*
X571039Y178494D01*
X571039Y175898D01*
X570045Y173500D01*
X568210Y171665D01*
X565812Y170671D01*
X563216Y170671D01*
X561301Y171465D01*
X561187Y171491D01*
X561074Y171520D01*
X561068Y171519D01*
X561062Y171521D01*
X560945Y171510D01*
X560829Y171501D01*
X560823Y171498D01*
X560817Y171498D01*
X560709Y171450D01*
X560602Y171404D01*
X560597Y171400D01*
X560592Y171398D01*
X560578Y171385D01*
X560471Y171300D01*
X556287Y167115D01*
X548213Y167115D01*
X548123Y167101D01*
X548032Y167093D01*
X548002Y167081D01*
X547970Y167076D01*
X547890Y167033D01*
X547806Y166997D01*
X547774Y166971D01*
X547753Y166960D01*
X547731Y166937D01*
X547675Y166892D01*
X546158Y165376D01*
X544596Y163813D01*
X538756Y163813D01*
X538666Y163799D01*
X538575Y163791D01*
X538545Y163779D01*
X538513Y163774D01*
X538432Y163731D01*
X538349Y163695D01*
X538316Y163669D01*
X538296Y163658D01*
X538274Y163635D01*
X538218Y163590D01*
X535440Y160812D01*
X535398Y160754D01*
X535348Y160702D01*
X535326Y160655D01*
X535296Y160613D01*
X535275Y160544D01*
X535245Y160479D01*
X535239Y160427D01*
X535224Y160377D01*
X535226Y160306D01*
X535218Y160235D01*
X535229Y160184D01*
X535230Y160132D01*
X535255Y160064D01*
X535270Y159994D01*
X535297Y159950D01*
X535315Y159901D01*
X535359Y159845D01*
X535396Y159783D01*
X535436Y159749D01*
X535468Y159709D01*
X535529Y159670D01*
X535583Y159623D01*
X535631Y159604D01*
X535675Y159576D01*
X535745Y159558D01*
X535811Y159531D01*
X535883Y159523D01*
X535914Y159515D01*
X535937Y159517D01*
X535978Y159513D01*
X644450Y159513D01*
X644540Y159527D01*
X644631Y159535D01*
X644661Y159547D01*
X644693Y159552D01*
X644774Y159595D01*
X644857Y159631D01*
X644890Y159657D01*
X644910Y159668D01*
X644932Y159691D01*
X644988Y159736D01*
X677581Y192329D01*
X687279Y192329D01*
X690051Y189557D01*
X690124Y189504D01*
X690194Y189444D01*
X690224Y189432D01*
X690250Y189413D01*
X690337Y189386D01*
X690422Y189352D01*
X690463Y189348D01*
X690485Y189341D01*
X690518Y189342D01*
X690589Y189334D01*
X693107Y189334D01*
X696133Y186308D01*
X696133Y182028D01*
X693107Y179002D01*
X688828Y179002D01*
X687609Y180221D01*
X687593Y180233D01*
X687580Y180248D01*
X687493Y180304D01*
X687409Y180364D01*
X687390Y180370D01*
X687373Y180381D01*
X687273Y180406D01*
X687174Y180437D01*
X687154Y180436D01*
X687135Y180441D01*
X687032Y180433D01*
X686928Y180430D01*
X686909Y180424D01*
X686890Y180422D01*
X686795Y180382D01*
X686697Y180346D01*
X686682Y180333D01*
X686663Y180326D01*
X686532Y180221D01*
X685229Y178917D01*
X680949Y178917D01*
X678621Y181246D01*
X678605Y181257D01*
X678592Y181273D01*
X678505Y181329D01*
X678421Y181389D01*
X678402Y181395D01*
X678385Y181406D01*
X678285Y181431D01*
X678186Y181461D01*
X678166Y181461D01*
X678147Y181466D01*
X678044Y181458D01*
X677940Y181455D01*
X677922Y181448D01*
X677902Y181447D01*
X677807Y181406D01*
X677709Y181371D01*
X677694Y181358D01*
X677675Y181350D01*
X677544Y181246D01*
X671335Y175036D01*
X671293Y174978D01*
X671244Y174926D01*
X671222Y174879D01*
X671192Y174837D01*
X671171Y174768D01*
X671140Y174703D01*
X671135Y174651D01*
X671119Y174601D01*
X671121Y174530D01*
X671113Y174459D01*
X671124Y174408D01*
X671126Y174356D01*
X671150Y174288D01*
X671165Y174218D01*
X671192Y174174D01*
X671210Y174125D01*
X671255Y174069D01*
X671292Y174007D01*
X671331Y173973D01*
X671364Y173933D01*
X671424Y173894D01*
X671479Y173847D01*
X671527Y173828D01*
X671571Y173800D01*
X671640Y173782D01*
X671707Y173755D01*
X671778Y173747D01*
X671809Y173739D01*
X671833Y173741D01*
X671873Y173737D01*
X674624Y173737D01*
X674714Y173751D01*
X674805Y173759D01*
X674835Y173771D01*
X674867Y173776D01*
X674947Y173819D01*
X675031Y173855D01*
X675063Y173881D01*
X675084Y173892D01*
X675106Y173915D01*
X675162Y173960D01*
X677818Y176616D01*
X682098Y176616D01*
X684500Y174214D01*
X684574Y174161D01*
X684643Y174101D01*
X684673Y174089D01*
X684700Y174070D01*
X684786Y174043D01*
X684871Y174009D01*
X684912Y174005D01*
X684935Y173998D01*
X684967Y173999D01*
X685038Y173991D01*
X775082Y173991D01*
X775172Y174005D01*
X775263Y174013D01*
X775293Y174025D01*
X775325Y174030D01*
X775405Y174073D01*
X775489Y174109D01*
X775496Y174114D01*
X779800Y174114D01*
X782826Y171088D01*
X782826Y166809D01*
X779800Y163783D01*
X775521Y163783D01*
X772495Y166809D01*
X772495Y168148D01*
X772491Y168168D01*
X772494Y168187D01*
X772472Y168289D01*
X772455Y168391D01*
X772446Y168408D01*
X772441Y168428D01*
X772388Y168517D01*
X772340Y168608D01*
X772325Y168622D01*
X772315Y168639D01*
X772236Y168706D01*
X772161Y168778D01*
X772143Y168786D01*
X772128Y168799D01*
X772032Y168838D01*
X771938Y168881D01*
X771919Y168883D01*
X771900Y168891D01*
X771733Y168909D01*
X685038Y168909D01*
X684948Y168895D01*
X684857Y168887D01*
X684827Y168875D01*
X684795Y168870D01*
X684715Y168827D01*
X684631Y168791D01*
X684599Y168765D01*
X684578Y168754D01*
X684556Y168731D01*
X684500Y168686D01*
X682098Y166284D01*
X677818Y166284D01*
X675162Y168940D01*
X675088Y168993D01*
X675019Y169053D01*
X674989Y169065D01*
X674962Y169084D01*
X674876Y169111D01*
X674791Y169145D01*
X674750Y169149D01*
X674727Y169156D01*
X674695Y169155D01*
X674624Y169163D01*
X670299Y169163D01*
X670208Y169149D01*
X670118Y169141D01*
X670088Y169129D01*
X670056Y169124D01*
X669975Y169081D01*
X669891Y169045D01*
X669859Y169019D01*
X669838Y169008D01*
X669816Y168985D01*
X669760Y168940D01*
X664934Y164114D01*
X664892Y164056D01*
X664843Y164004D01*
X664821Y163957D01*
X664791Y163915D01*
X664770Y163846D01*
X664739Y163781D01*
X664734Y163729D01*
X664718Y163679D01*
X664720Y163608D01*
X664712Y163537D01*
X664723Y163486D01*
X664725Y163434D01*
X664749Y163366D01*
X664764Y163296D01*
X664791Y163251D01*
X664809Y163203D01*
X664854Y163147D01*
X664891Y163085D01*
X664930Y163051D01*
X664963Y163011D01*
X665023Y162972D01*
X665078Y162925D01*
X665126Y162906D01*
X665170Y162878D01*
X665239Y162860D01*
X665306Y162833D01*
X665377Y162825D01*
X665408Y162817D01*
X665432Y162819D01*
X665472Y162815D01*
X676148Y162815D01*
X676238Y162829D01*
X676329Y162837D01*
X676359Y162849D01*
X676391Y162854D01*
X676471Y162897D01*
X676555Y162933D01*
X676587Y162959D01*
X676608Y162970D01*
X676630Y162993D01*
X676686Y163038D01*
X677564Y163916D01*
X681844Y163916D01*
X684246Y161514D01*
X684320Y161461D01*
X684389Y161401D01*
X684419Y161389D01*
X684446Y161370D01*
X684532Y161343D01*
X684617Y161309D01*
X684658Y161305D01*
X684681Y161298D01*
X684713Y161299D01*
X684784Y161291D01*
X789270Y161291D01*
X791587Y158974D01*
X791661Y158921D01*
X791731Y158861D01*
X791761Y158849D01*
X791787Y158830D01*
X791874Y158803D01*
X791959Y158769D01*
X792000Y158765D01*
X792022Y158758D01*
X792054Y158759D01*
X792126Y158751D01*
X817880Y158751D01*
X817970Y158765D01*
X818061Y158773D01*
X818091Y158785D01*
X818123Y158790D01*
X818203Y158833D01*
X818287Y158869D01*
X818319Y158895D01*
X818340Y158906D01*
X818362Y158929D01*
X818418Y158974D01*
X820820Y161376D01*
X825100Y161376D01*
X828126Y158350D01*
X828126Y154070D01*
X825100Y151044D01*
X820820Y151044D01*
X818418Y153446D01*
X818344Y153499D01*
X818275Y153559D01*
X818245Y153571D01*
X818218Y153590D01*
X818132Y153617D01*
X818047Y153651D01*
X818006Y153655D01*
X817983Y153662D01*
X817951Y153661D01*
X817880Y153669D01*
X789706Y153669D01*
X787389Y155986D01*
X787315Y156039D01*
X787245Y156099D01*
X787215Y156111D01*
X787189Y156130D01*
X787102Y156157D01*
X787017Y156191D01*
X786976Y156195D01*
X786954Y156202D01*
X786922Y156201D01*
X786850Y156209D01*
X684784Y156209D01*
X684694Y156195D01*
X684603Y156187D01*
X684573Y156175D01*
X684541Y156170D01*
X684461Y156127D01*
X684377Y156091D01*
X684345Y156065D01*
X684324Y156054D01*
X684302Y156031D01*
X684246Y155986D01*
X681844Y153584D01*
X677564Y153584D01*
X674538Y156610D01*
X674538Y157480D01*
X674535Y157500D01*
X674537Y157519D01*
X674515Y157621D01*
X674499Y157723D01*
X674489Y157740D01*
X674485Y157760D01*
X674432Y157849D01*
X674383Y157940D01*
X674369Y157954D01*
X674359Y157971D01*
X674280Y158038D01*
X674205Y158110D01*
X674187Y158118D01*
X674172Y158131D01*
X674076Y158170D01*
X673982Y158213D01*
X673962Y158215D01*
X673944Y158223D01*
X673777Y158241D01*
X663695Y158241D01*
X663604Y158227D01*
X663514Y158219D01*
X663484Y158207D01*
X663452Y158202D01*
X663371Y158159D01*
X663287Y158123D01*
X663255Y158097D01*
X663234Y158086D01*
X663212Y158063D01*
X663156Y158018D01*
X657314Y152176D01*
X657272Y152118D01*
X657223Y152066D01*
X657201Y152019D01*
X657171Y151977D01*
X657150Y151908D01*
X657119Y151843D01*
X657114Y151791D01*
X657098Y151741D01*
X657100Y151670D01*
X657092Y151599D01*
X657103Y151548D01*
X657105Y151496D01*
X657129Y151428D01*
X657144Y151358D01*
X657171Y151313D01*
X657189Y151265D01*
X657234Y151209D01*
X657271Y151147D01*
X657310Y151113D01*
X657343Y151073D01*
X657403Y151034D01*
X657458Y150987D01*
X657506Y150968D01*
X657550Y150940D01*
X657619Y150922D01*
X657686Y150895D01*
X657757Y150887D01*
X657788Y150879D01*
X657812Y150881D01*
X657852Y150877D01*
X676910Y150877D01*
X677000Y150891D01*
X677091Y150899D01*
X677121Y150911D01*
X677153Y150916D01*
X677233Y150959D01*
X677317Y150995D01*
X677349Y151021D01*
X677370Y151032D01*
X677392Y151055D01*
X677448Y151100D01*
X677564Y151216D01*
X681844Y151216D01*
X681960Y151100D01*
X682034Y151047D01*
X682103Y150987D01*
X682133Y150975D01*
X682160Y150956D01*
X682246Y150929D01*
X682331Y150895D01*
X682372Y150891D01*
X682395Y150884D01*
X682427Y150885D01*
X682498Y150877D01*
X786166Y150877D01*
X787878Y149165D01*
X789245Y147798D01*
X789319Y147745D01*
X789389Y147685D01*
X789419Y147673D01*
X789445Y147654D01*
X789532Y147627D01*
X789617Y147593D01*
X789658Y147589D01*
X789680Y147582D01*
X789712Y147583D01*
X789784Y147575D01*
X830482Y147575D01*
X830572Y147589D01*
X830663Y147597D01*
X830693Y147609D01*
X830725Y147614D01*
X830806Y147657D01*
X830890Y147693D01*
X830922Y147719D01*
X830942Y147730D01*
X830965Y147753D01*
X831021Y147798D01*
X832811Y149588D01*
X832864Y149662D01*
X832924Y149732D01*
X832936Y149762D01*
X832955Y149788D01*
X832982Y149875D01*
X833016Y149960D01*
X833020Y150001D01*
X833027Y150023D01*
X833026Y150055D01*
X833034Y150127D01*
X833034Y154540D01*
X836060Y157566D01*
X840340Y157566D01*
X843366Y154540D01*
X843366Y150260D01*
X840340Y147234D01*
X837959Y147234D01*
X837869Y147220D01*
X837778Y147212D01*
X837748Y147200D01*
X837716Y147195D01*
X837635Y147152D01*
X837551Y147116D01*
X837519Y147090D01*
X837499Y147079D01*
X837476Y147056D01*
X837420Y147011D01*
X832902Y142493D01*
X787364Y142493D01*
X785652Y144204D01*
X785652Y144205D01*
X784285Y145572D01*
X784211Y145625D01*
X784141Y145685D01*
X784111Y145697D01*
X784085Y145716D01*
X783998Y145743D01*
X783913Y145777D01*
X783872Y145781D01*
X783850Y145788D01*
X783818Y145787D01*
X783746Y145795D01*
X685631Y145795D01*
X685611Y145792D01*
X685592Y145794D01*
X685490Y145772D01*
X685388Y145756D01*
X685371Y145746D01*
X685351Y145742D01*
X685262Y145689D01*
X685171Y145640D01*
X685157Y145626D01*
X685140Y145616D01*
X685073Y145537D01*
X685001Y145462D01*
X684993Y145444D01*
X684980Y145429D01*
X684941Y145333D01*
X684898Y145239D01*
X684896Y145219D01*
X684888Y145201D01*
X684870Y145034D01*
X684870Y143910D01*
X681844Y140884D01*
X677564Y140884D01*
X674538Y143910D01*
X674538Y145542D01*
X674535Y145562D01*
X674537Y145581D01*
X674515Y145683D01*
X674499Y145785D01*
X674489Y145802D01*
X674485Y145822D01*
X674432Y145911D01*
X674383Y146002D01*
X674369Y146016D01*
X674359Y146033D01*
X674280Y146100D01*
X674205Y146172D01*
X674187Y146180D01*
X674172Y146193D01*
X674076Y146232D01*
X673982Y146275D01*
X673962Y146277D01*
X673944Y146285D01*
X673777Y146303D01*
X656075Y146303D01*
X655984Y146289D01*
X655894Y146281D01*
X655864Y146269D01*
X655832Y146264D01*
X655751Y146221D01*
X655667Y146185D01*
X655635Y146159D01*
X655614Y146148D01*
X655592Y146125D01*
X655536Y146080D01*
X652203Y142747D01*
X560324Y142747D01*
X560253Y142736D01*
X560182Y142734D01*
X560133Y142716D01*
X560081Y142708D01*
X560018Y142674D01*
X559951Y142649D01*
X559910Y142617D01*
X559864Y142592D01*
X559814Y142540D01*
X559759Y142496D01*
X559730Y142452D01*
X559694Y142414D01*
X559664Y142349D01*
X559626Y142289D01*
X559613Y142238D01*
X559591Y142191D01*
X559583Y142120D01*
X559565Y142050D01*
X559570Y141998D01*
X559564Y141947D01*
X559579Y141876D01*
X559585Y141805D01*
X559605Y141757D01*
X559616Y141706D01*
X559653Y141645D01*
X559681Y141579D01*
X559726Y141523D01*
X559742Y141495D01*
X559760Y141480D01*
X559786Y141448D01*
X560156Y141078D01*
X560156Y136798D01*
X557130Y133772D01*
X552850Y133772D01*
X550194Y136428D01*
X550120Y136481D01*
X550051Y136541D01*
X550021Y136553D01*
X549994Y136572D01*
X549908Y136599D01*
X549823Y136633D01*
X549782Y136637D01*
X549759Y136644D01*
X549727Y136643D01*
X549656Y136651D01*
X546338Y136651D01*
X543598Y139391D01*
X543524Y139444D01*
X543454Y139504D01*
X543424Y139516D01*
X543398Y139535D01*
X543311Y139562D01*
X543226Y139596D01*
X543185Y139600D01*
X543163Y139607D01*
X543131Y139606D01*
X543060Y139614D01*
X542544Y139614D01*
X542524Y139611D01*
X542505Y139613D01*
X542403Y139591D01*
X542301Y139575D01*
X542284Y139565D01*
X542264Y139561D01*
X542175Y139508D01*
X542084Y139459D01*
X542070Y139445D01*
X542053Y139435D01*
X541986Y139356D01*
X541914Y139281D01*
X541906Y139263D01*
X541893Y139248D01*
X541854Y139152D01*
X541811Y139058D01*
X541809Y139038D01*
X541801Y139020D01*
X541783Y138853D01*
X541783Y137075D01*
X541797Y136985D01*
X541805Y136894D01*
X541817Y136864D01*
X541822Y136832D01*
X541865Y136752D01*
X541901Y136668D01*
X541927Y136636D01*
X541938Y136615D01*
X541961Y136593D01*
X542006Y136537D01*
X544662Y133881D01*
X544662Y129601D01*
X541636Y126575D01*
X537356Y126575D01*
X534330Y129601D01*
X534330Y133881D01*
X535547Y135098D01*
X535589Y135156D01*
X535639Y135208D01*
X535660Y135255D01*
X535691Y135297D01*
X535712Y135366D01*
X535742Y135431D01*
X535748Y135483D01*
X535763Y135533D01*
X535761Y135604D01*
X535769Y135675D01*
X535758Y135726D01*
X535757Y135778D01*
X535732Y135846D01*
X535717Y135916D01*
X535690Y135961D01*
X535672Y136009D01*
X535628Y136065D01*
X535591Y136127D01*
X535551Y136161D01*
X535519Y136201D01*
X535458Y136240D01*
X535404Y136287D01*
X535356Y136306D01*
X535312Y136334D01*
X535242Y136352D01*
X535176Y136379D01*
X535104Y136387D01*
X535073Y136395D01*
X535050Y136393D01*
X535009Y136397D01*
X523592Y136397D01*
X523521Y136386D01*
X523449Y136384D01*
X523400Y136366D01*
X523349Y136358D01*
X523286Y136324D01*
X523218Y136299D01*
X523178Y136267D01*
X523132Y136242D01*
X523082Y136190D01*
X523026Y136146D01*
X522998Y136102D01*
X522962Y136064D01*
X522932Y135999D01*
X522893Y135939D01*
X522881Y135888D01*
X522859Y135841D01*
X522851Y135770D01*
X522833Y135700D01*
X522837Y135648D01*
X522832Y135597D01*
X522847Y135526D01*
X522852Y135455D01*
X522873Y135407D01*
X522884Y135356D01*
X522921Y135295D01*
X522949Y135229D01*
X522993Y135173D01*
X523010Y135145D01*
X523028Y135130D01*
X523053Y135098D01*
X525358Y132793D01*
X525358Y125779D01*
X521178Y121598D01*
X521125Y121525D01*
X521065Y121455D01*
X521053Y121425D01*
X521034Y121399D01*
X521007Y121312D01*
X520973Y121227D01*
X520969Y121186D01*
X520962Y121164D01*
X520963Y121131D01*
X520955Y121060D01*
X520955Y114046D01*
X520969Y113956D01*
X520977Y113865D01*
X520989Y113835D01*
X520994Y113803D01*
X521037Y113723D01*
X521073Y113639D01*
X521099Y113607D01*
X521110Y113586D01*
X521133Y113564D01*
X521178Y113508D01*
X522564Y112122D01*
X522564Y107842D01*
X519538Y104816D01*
X515258Y104816D01*
X512232Y107842D01*
X512232Y112122D01*
X515287Y115176D01*
X515355Y115187D01*
X515372Y115197D01*
X515392Y115201D01*
X515481Y115254D01*
X515572Y115303D01*
X515586Y115317D01*
X515603Y115327D01*
X515670Y115406D01*
X515742Y115481D01*
X515750Y115499D01*
X515763Y115514D01*
X515802Y115610D01*
X515845Y115704D01*
X515847Y115724D01*
X515855Y115742D01*
X515873Y115909D01*
X515873Y123105D01*
X515870Y123125D01*
X515872Y123144D01*
X515850Y123246D01*
X515834Y123348D01*
X515824Y123365D01*
X515820Y123385D01*
X515767Y123474D01*
X515718Y123565D01*
X515704Y123579D01*
X515694Y123596D01*
X515615Y123663D01*
X515540Y123735D01*
X515522Y123743D01*
X515507Y123756D01*
X515411Y123795D01*
X515317Y123838D01*
X515297Y123840D01*
X515279Y123848D01*
X515112Y123866D01*
X513988Y123866D01*
X510962Y126892D01*
X510962Y127508D01*
X510959Y127528D01*
X510961Y127547D01*
X510939Y127649D01*
X510923Y127751D01*
X510913Y127768D01*
X510909Y127788D01*
X510856Y127877D01*
X510807Y127968D01*
X510793Y127982D01*
X510783Y127999D01*
X510704Y128066D01*
X510629Y128138D01*
X510611Y128146D01*
X510596Y128159D01*
X510500Y128198D01*
X510406Y128241D01*
X510386Y128243D01*
X510368Y128251D01*
X510201Y128269D01*
X492421Y128269D01*
X492401Y128266D01*
X492382Y128268D01*
X492280Y128246D01*
X492178Y128230D01*
X492161Y128220D01*
X492141Y128216D01*
X492052Y128163D01*
X491961Y128114D01*
X491947Y128100D01*
X491930Y128090D01*
X491863Y128011D01*
X491791Y127936D01*
X491783Y127918D01*
X491770Y127903D01*
X491731Y127807D01*
X491688Y127713D01*
X491686Y127693D01*
X491678Y127675D01*
X491660Y127508D01*
X491660Y115147D01*
X491674Y115057D01*
X491682Y114966D01*
X491694Y114936D01*
X491699Y114904D01*
X491742Y114824D01*
X491778Y114740D01*
X491804Y114708D01*
X491815Y114687D01*
X491838Y114665D01*
X491883Y114609D01*
X494116Y112376D01*
X494116Y108096D01*
X491090Y105070D01*
X486810Y105070D01*
X483784Y108096D01*
X483784Y112376D01*
X485339Y113931D01*
X485392Y114005D01*
X485452Y114074D01*
X485464Y114104D01*
X485483Y114131D01*
X485510Y114217D01*
X485544Y114302D01*
X485548Y114343D01*
X485555Y114366D01*
X485554Y114398D01*
X485562Y114469D01*
X485562Y127508D01*
X485559Y127528D01*
X485561Y127547D01*
X485539Y127649D01*
X485523Y127751D01*
X485513Y127768D01*
X485509Y127788D01*
X485456Y127877D01*
X485407Y127968D01*
X485393Y127982D01*
X485383Y127999D01*
X485304Y128066D01*
X485229Y128138D01*
X485211Y128146D01*
X485196Y128159D01*
X485100Y128198D01*
X485006Y128241D01*
X484986Y128243D01*
X484968Y128251D01*
X484801Y128269D01*
X464557Y128269D01*
X464463Y128254D01*
X464368Y128245D01*
X464342Y128234D01*
X464315Y128230D01*
X464231Y128185D01*
X464143Y128147D01*
X464122Y128128D01*
X464097Y128114D01*
X464032Y128045D01*
X463961Y127981D01*
X463947Y127957D01*
X463928Y127936D01*
X463888Y127850D01*
X463841Y127766D01*
X463836Y127739D01*
X463824Y127713D01*
X463814Y127618D01*
X463796Y127525D01*
X463800Y127497D01*
X463797Y127469D01*
X463817Y127375D01*
X463831Y127281D01*
X463845Y127249D01*
X463849Y127228D01*
X463866Y127200D01*
X463898Y127127D01*
X464256Y126507D01*
X464483Y125662D01*
X464483Y103047D01*
X445720Y103047D01*
X445700Y103044D01*
X445681Y103046D01*
X445579Y103024D01*
X445477Y103007D01*
X445460Y102998D01*
X445440Y102994D01*
X445351Y102941D01*
X445260Y102892D01*
X445246Y102878D01*
X445229Y102868D01*
X445162Y102789D01*
X445091Y102714D01*
X445082Y102696D01*
X445069Y102681D01*
X445030Y102585D01*
X444987Y102491D01*
X444985Y102471D01*
X444977Y102453D01*
X444959Y102286D01*
X444959Y100762D01*
X444962Y100742D01*
X444960Y100723D01*
X444982Y100621D01*
X444999Y100519D01*
X445008Y100502D01*
X445012Y100482D01*
X445065Y100393D01*
X445114Y100302D01*
X445128Y100288D01*
X445138Y100271D01*
X445217Y100204D01*
X445292Y100133D01*
X445310Y100124D01*
X445325Y100111D01*
X445421Y100072D01*
X445515Y100029D01*
X445535Y100027D01*
X445553Y100019D01*
X445720Y100001D01*
X464483Y100001D01*
X464483Y77386D01*
X464256Y76541D01*
X463818Y75783D01*
X463199Y75164D01*
X462441Y74726D01*
X461596Y74499D01*
X449502Y74499D01*
X449431Y74488D01*
X449360Y74486D01*
X449311Y74468D01*
X449259Y74460D01*
X449196Y74426D01*
X449129Y74401D01*
X449088Y74369D01*
X449042Y74344D01*
X448993Y74292D01*
X448937Y74248D01*
X448908Y74204D01*
X448872Y74166D01*
X448842Y74101D01*
X448804Y74041D01*
X448791Y73990D01*
X448769Y73943D01*
X448761Y73872D01*
X448743Y73802D01*
X448748Y73750D01*
X448742Y73699D01*
X448757Y73628D01*
X448763Y73557D01*
X448783Y73509D01*
X448794Y73458D01*
X448831Y73397D01*
X448859Y73331D01*
X448904Y73275D01*
X448920Y73247D01*
X448938Y73232D01*
X448964Y73200D01*
X449920Y72244D01*
X449920Y67964D01*
X446894Y64938D01*
X444564Y64938D01*
X444474Y64924D01*
X444383Y64916D01*
X444353Y64904D01*
X444321Y64899D01*
X444241Y64856D01*
X444156Y64820D01*
X444124Y64794D01*
X444104Y64783D01*
X444081Y64760D01*
X444025Y64715D01*
X442840Y63530D01*
X442799Y63472D01*
X442749Y63420D01*
X442727Y63373D01*
X442697Y63331D01*
X442676Y63262D01*
X442646Y63197D01*
X442640Y63145D01*
X442624Y63095D01*
X442626Y63024D01*
X442618Y62953D01*
X442630Y62902D01*
X442631Y62850D01*
X442655Y62782D01*
X442671Y62712D01*
X442697Y62667D01*
X442715Y62619D01*
X442760Y62563D01*
X442797Y62501D01*
X442836Y62467D01*
X442869Y62427D01*
X442929Y62388D01*
X442984Y62341D01*
X443032Y62322D01*
X443076Y62294D01*
X443145Y62276D01*
X443212Y62249D01*
X443283Y62241D01*
X443314Y62233D01*
X443338Y62235D01*
X443379Y62231D01*
X450613Y62231D01*
X450703Y62245D01*
X450794Y62253D01*
X450824Y62265D01*
X450856Y62270D01*
X450936Y62313D01*
X451020Y62349D01*
X451052Y62375D01*
X451073Y62386D01*
X451095Y62409D01*
X451151Y62454D01*
X457024Y68327D01*
X469548Y68327D01*
X469638Y68341D01*
X469729Y68349D01*
X469759Y68361D01*
X469791Y68366D01*
X469872Y68409D01*
X469956Y68445D01*
X469988Y68471D01*
X470008Y68482D01*
X470031Y68505D01*
X470087Y68550D01*
X471134Y69597D01*
X476250Y69597D01*
X476321Y69608D01*
X476392Y69610D01*
X476441Y69628D01*
X476493Y69636D01*
X476556Y69670D01*
X476623Y69695D01*
X476664Y69727D01*
X476710Y69752D01*
X476759Y69804D01*
X476815Y69848D01*
X476844Y69892D01*
X476880Y69930D01*
X476910Y69995D01*
X476948Y70055D01*
X476961Y70106D01*
X476983Y70153D01*
X476991Y70224D01*
X477009Y70294D01*
X477004Y70346D01*
X477010Y70397D01*
X476995Y70468D01*
X476989Y70539D01*
X476969Y70587D01*
X476958Y70638D01*
X476921Y70699D01*
X476893Y70765D01*
X476848Y70821D01*
X476832Y70849D01*
X476814Y70864D01*
X476788Y70896D01*
X475910Y71774D01*
X475910Y76054D01*
X478936Y79080D01*
X483216Y79080D01*
X484602Y77694D01*
X484618Y77682D01*
X484630Y77667D01*
X484718Y77610D01*
X484801Y77550D01*
X484820Y77544D01*
X484837Y77534D01*
X484938Y77508D01*
X485037Y77478D01*
X485056Y77478D01*
X485076Y77473D01*
X485179Y77482D01*
X485282Y77484D01*
X485301Y77491D01*
X485321Y77493D01*
X485416Y77533D01*
X485513Y77569D01*
X485529Y77581D01*
X485547Y77589D01*
X485678Y77694D01*
X487064Y79080D01*
X491344Y79080D01*
X494370Y76054D01*
X494370Y71916D01*
X494381Y71845D01*
X494383Y71774D01*
X494401Y71725D01*
X494409Y71673D01*
X494443Y71610D01*
X494468Y71543D01*
X494500Y71502D01*
X494525Y71456D01*
X494577Y71407D01*
X494621Y71351D01*
X494665Y71322D01*
X494703Y71286D01*
X494768Y71256D01*
X494828Y71218D01*
X494879Y71205D01*
X494926Y71183D01*
X494997Y71175D01*
X495067Y71157D01*
X495119Y71162D01*
X495170Y71156D01*
X495241Y71171D01*
X495312Y71177D01*
X495360Y71197D01*
X495411Y71208D01*
X495472Y71245D01*
X495538Y71273D01*
X495594Y71318D01*
X495622Y71334D01*
X495637Y71352D01*
X495669Y71378D01*
X496767Y72476D01*
X508244Y72476D01*
X508315Y72487D01*
X508386Y72489D01*
X508435Y72507D01*
X508487Y72515D01*
X508550Y72549D01*
X508617Y72574D01*
X508658Y72606D01*
X508704Y72631D01*
X508753Y72683D01*
X508809Y72727D01*
X508838Y72771D01*
X508873Y72809D01*
X508904Y72874D01*
X508942Y72934D01*
X508955Y72985D01*
X508977Y73032D01*
X508985Y73103D01*
X509002Y73173D01*
X508998Y73225D01*
X509004Y73276D01*
X508989Y73347D01*
X508983Y73418D01*
X508963Y73466D01*
X508952Y73517D01*
X508915Y73578D01*
X508887Y73644D01*
X508842Y73700D01*
X508826Y73728D01*
X508808Y73743D01*
X508782Y73775D01*
X496929Y85628D01*
X496855Y85681D01*
X496786Y85741D01*
X496756Y85753D01*
X496729Y85772D01*
X496642Y85799D01*
X496558Y85833D01*
X496517Y85837D01*
X496494Y85844D01*
X496462Y85843D01*
X496391Y85851D01*
X490982Y85851D01*
X490892Y85837D01*
X490801Y85829D01*
X490771Y85817D01*
X490739Y85812D01*
X490659Y85769D01*
X490575Y85733D01*
X490543Y85707D01*
X490522Y85696D01*
X490500Y85673D01*
X490444Y85628D01*
X490328Y85512D01*
X486048Y85512D01*
X483022Y88538D01*
X483022Y92818D01*
X486048Y95844D01*
X490328Y95844D01*
X493354Y92818D01*
X493354Y92710D01*
X493357Y92690D01*
X493355Y92671D01*
X493377Y92569D01*
X493393Y92467D01*
X493403Y92450D01*
X493407Y92430D01*
X493460Y92341D01*
X493509Y92250D01*
X493523Y92236D01*
X493533Y92219D01*
X493612Y92152D01*
X493687Y92080D01*
X493705Y92072D01*
X493720Y92059D01*
X493816Y92020D01*
X493910Y91977D01*
X493930Y91975D01*
X493948Y91967D01*
X494115Y91949D01*
X499232Y91949D01*
X521361Y69820D01*
X521435Y69767D01*
X521504Y69707D01*
X521534Y69695D01*
X521561Y69676D01*
X521648Y69649D01*
X521732Y69615D01*
X521773Y69611D01*
X521796Y69604D01*
X521828Y69605D01*
X521899Y69597D01*
X577596Y69597D01*
X577686Y69611D01*
X577777Y69619D01*
X577807Y69631D01*
X577839Y69636D01*
X577919Y69679D01*
X578003Y69715D01*
X578035Y69741D01*
X578056Y69752D01*
X578078Y69775D01*
X578134Y69820D01*
X580282Y71968D01*
X584562Y71968D01*
X586456Y70074D01*
X586530Y70021D01*
X586599Y69961D01*
X586629Y69949D01*
X586656Y69930D01*
X586742Y69903D01*
X586827Y69869D01*
X586868Y69865D01*
X586891Y69858D01*
X586923Y69859D01*
X586994Y69851D01*
X644128Y69851D01*
X644218Y69865D01*
X644309Y69873D01*
X644339Y69885D01*
X644371Y69890D01*
X644451Y69933D01*
X644535Y69969D01*
X644567Y69995D01*
X644588Y70006D01*
X644610Y70029D01*
X644666Y70074D01*
X646560Y71968D01*
X650840Y71968D01*
X652734Y70074D01*
X652808Y70021D01*
X652877Y69961D01*
X652907Y69949D01*
X652934Y69930D01*
X653020Y69903D01*
X653105Y69869D01*
X653146Y69865D01*
X653169Y69858D01*
X653201Y69859D01*
X653272Y69851D01*
X827278Y69851D01*
X827368Y69865D01*
X827459Y69873D01*
X827489Y69885D01*
X827521Y69890D01*
X827601Y69933D01*
X827685Y69969D01*
X827717Y69995D01*
X827738Y70006D01*
X827760Y70029D01*
X827816Y70074D01*
X829710Y71968D01*
X833990Y71968D01*
X837016Y68942D01*
X837016Y64662D01*
X833990Y61636D01*
X829710Y61636D01*
X827816Y63530D01*
X827742Y63583D01*
X827673Y63643D01*
X827643Y63655D01*
X827616Y63674D01*
X827530Y63701D01*
X827445Y63735D01*
X827404Y63739D01*
X827381Y63746D01*
X827349Y63745D01*
X827278Y63753D01*
X741934Y63753D01*
X741863Y63742D01*
X741792Y63740D01*
X741743Y63722D01*
X741691Y63714D01*
X741628Y63680D01*
X741561Y63655D01*
X741520Y63623D01*
X741474Y63598D01*
X741424Y63546D01*
X741369Y63502D01*
X741340Y63458D01*
X741304Y63420D01*
X741274Y63355D01*
X741236Y63295D01*
X741223Y63244D01*
X741201Y63197D01*
X741193Y63126D01*
X741175Y63056D01*
X741180Y63004D01*
X741174Y62953D01*
X741189Y62882D01*
X741195Y62811D01*
X741215Y62763D01*
X741226Y62712D01*
X741263Y62651D01*
X741291Y62585D01*
X741336Y62529D01*
X741352Y62501D01*
X741370Y62486D01*
X741396Y62454D01*
X741766Y62084D01*
X741766Y57804D01*
X738740Y54778D01*
X734460Y54778D01*
X731434Y57804D01*
X731434Y59182D01*
X731431Y59202D01*
X731433Y59221D01*
X731411Y59323D01*
X731395Y59425D01*
X731385Y59442D01*
X731381Y59462D01*
X731328Y59551D01*
X731279Y59642D01*
X731265Y59656D01*
X731255Y59673D01*
X731176Y59740D01*
X731101Y59812D01*
X731083Y59820D01*
X731068Y59833D01*
X730972Y59872D01*
X730878Y59915D01*
X730858Y59917D01*
X730840Y59925D01*
X730673Y59943D01*
X655745Y59943D01*
X655655Y59929D01*
X655564Y59921D01*
X655534Y59909D01*
X655502Y59904D01*
X655422Y59861D01*
X655338Y59825D01*
X655306Y59799D01*
X655285Y59788D01*
X655263Y59765D01*
X655207Y59720D01*
X655024Y59538D01*
X655024Y59537D01*
X653313Y57826D01*
X643833Y57826D01*
X641939Y59720D01*
X641865Y59773D01*
X641796Y59833D01*
X641766Y59845D01*
X641740Y59864D01*
X641653Y59891D01*
X641568Y59925D01*
X641527Y59929D01*
X641504Y59936D01*
X641472Y59935D01*
X641401Y59943D01*
X588467Y59943D01*
X588377Y59929D01*
X588286Y59921D01*
X588256Y59909D01*
X588224Y59904D01*
X588144Y59861D01*
X588060Y59825D01*
X588028Y59799D01*
X588007Y59788D01*
X587985Y59765D01*
X587929Y59720D01*
X586035Y57826D01*
X578809Y57826D01*
X576915Y59720D01*
X576841Y59773D01*
X576772Y59833D01*
X576742Y59845D01*
X576715Y59864D01*
X576629Y59891D01*
X576544Y59925D01*
X576503Y59929D01*
X576480Y59936D01*
X576448Y59935D01*
X576377Y59943D01*
X517286Y59943D01*
X515046Y62183D01*
X514988Y62225D01*
X514936Y62274D01*
X514889Y62296D01*
X514847Y62326D01*
X514778Y62348D01*
X514713Y62378D01*
X514661Y62383D01*
X514611Y62399D01*
X514540Y62397D01*
X514469Y62405D01*
X514418Y62394D01*
X514366Y62392D01*
X514298Y62368D01*
X514228Y62353D01*
X514183Y62326D01*
X514135Y62308D01*
X514079Y62263D01*
X514017Y62226D01*
X513983Y62187D01*
X513943Y62154D01*
X513904Y62094D01*
X513857Y62040D01*
X513838Y61991D01*
X513810Y61947D01*
X513792Y61878D01*
X513765Y61811D01*
X513757Y61740D01*
X513749Y61709D01*
X513751Y61686D01*
X513747Y61645D01*
X513747Y61360D01*
X510721Y58334D01*
X507864Y58334D01*
X507774Y58320D01*
X507683Y58312D01*
X507653Y58300D01*
X507621Y58295D01*
X507541Y58252D01*
X507457Y58216D01*
X507425Y58190D01*
X507404Y58179D01*
X507382Y58156D01*
X507326Y58111D01*
X503993Y54778D01*
X496767Y54778D01*
X494619Y56926D01*
X494545Y56979D01*
X494476Y57039D01*
X494446Y57051D01*
X494419Y57070D01*
X494333Y57097D01*
X494248Y57131D01*
X494207Y57135D01*
X494184Y57142D01*
X494152Y57141D01*
X494081Y57149D01*
X477008Y57149D01*
X476918Y57135D01*
X476827Y57127D01*
X476797Y57115D01*
X476765Y57110D01*
X476684Y57067D01*
X476600Y57031D01*
X476568Y57005D01*
X476548Y56994D01*
X476525Y56971D01*
X476469Y56926D01*
X467664Y48121D01*
X467623Y48063D01*
X467573Y48011D01*
X467551Y47964D01*
X467521Y47922D01*
X467500Y47853D01*
X467470Y47788D01*
X467464Y47736D01*
X467448Y47686D01*
X467450Y47615D01*
X467442Y47544D01*
X467454Y47493D01*
X467455Y47441D01*
X467479Y47373D01*
X467495Y47303D01*
X467521Y47258D01*
X467539Y47210D01*
X467584Y47154D01*
X467621Y47092D01*
X467660Y47058D01*
X467693Y47018D01*
X467753Y46979D01*
X467808Y46932D01*
X467856Y46913D01*
X467900Y46885D01*
X467969Y46867D01*
X468036Y46840D01*
X468107Y46832D01*
X468138Y46824D01*
X468162Y46826D01*
X468203Y46822D01*
X564752Y46822D01*
X564842Y46836D01*
X564933Y46844D01*
X564963Y46856D01*
X564995Y46861D01*
X565076Y46904D01*
X565159Y46940D01*
X565192Y46966D01*
X565212Y46977D01*
X565234Y47000D01*
X565290Y47045D01*
X568200Y49955D01*
X572480Y49955D01*
X575506Y46929D01*
X575506Y42649D01*
X572480Y39623D01*
X568200Y39623D01*
X567322Y40501D01*
X567248Y40554D01*
X567179Y40614D01*
X567149Y40626D01*
X567123Y40645D01*
X567036Y40672D01*
X566951Y40706D01*
X566910Y40710D01*
X566888Y40717D01*
X566855Y40716D01*
X566784Y40724D01*
X378473Y40724D01*
X378402Y40713D01*
X378330Y40711D01*
X378281Y40693D01*
X378230Y40685D01*
X378167Y40651D01*
X378099Y40626D01*
X378059Y40594D01*
X378013Y40569D01*
X377963Y40517D01*
X377907Y40473D01*
X377879Y40429D01*
X377843Y40391D01*
X377813Y40326D01*
X377774Y40266D01*
X377761Y40215D01*
X377740Y40168D01*
X377732Y40097D01*
X377714Y40027D01*
X377718Y39975D01*
X377712Y39924D01*
X377728Y39853D01*
X377733Y39782D01*
X377754Y39734D01*
X377765Y39683D01*
X377802Y39622D01*
X377830Y39556D01*
X377874Y39500D01*
X377891Y39472D01*
X377909Y39457D01*
X377934Y39425D01*
X386655Y30704D01*
X386729Y30651D01*
X386799Y30591D01*
X386829Y30579D01*
X386855Y30560D01*
X386942Y30533D01*
X387027Y30499D01*
X387068Y30495D01*
X387090Y30488D01*
X387122Y30489D01*
X387194Y30481D01*
X391196Y30481D01*
X392908Y28770D01*
X392908Y28769D01*
X395832Y25845D01*
X395849Y25833D01*
X395861Y25817D01*
X395928Y25774D01*
X395966Y25742D01*
X395988Y25733D01*
X396032Y25701D01*
X396051Y25695D01*
X396068Y25684D01*
X396169Y25659D01*
X396180Y25656D01*
X396194Y25650D01*
X396201Y25649D01*
X396267Y25629D01*
X396287Y25629D01*
X396307Y25624D01*
X396410Y25632D01*
X396513Y25635D01*
X396532Y25642D01*
X396552Y25644D01*
X396613Y25669D01*
X396623Y25671D01*
X396649Y25685D01*
X396744Y25720D01*
X396760Y25732D01*
X396778Y25740D01*
X396827Y25779D01*
X396841Y25786D01*
X396855Y25801D01*
X396871Y25815D01*
X398938Y26671D01*
X401162Y26671D01*
X403216Y25820D01*
X404788Y24248D01*
X405639Y22194D01*
X405639Y19970D01*
X404788Y17916D01*
X404682Y17810D01*
X404640Y17752D01*
X404591Y17700D01*
X404569Y17653D01*
X404538Y17611D01*
X404517Y17542D01*
X404487Y17477D01*
X404481Y17425D01*
X404466Y17376D01*
X404468Y17304D01*
X404460Y17233D01*
X404471Y17182D01*
X404472Y17130D01*
X404497Y17062D01*
X404512Y16992D01*
X404539Y16947D01*
X404557Y16899D01*
X404602Y16843D01*
X404638Y16781D01*
X404678Y16747D01*
X404711Y16707D01*
X404771Y16668D01*
X404825Y16621D01*
X404874Y16602D01*
X404917Y16574D01*
X404987Y16556D01*
X405053Y16529D01*
X405125Y16521D01*
X405156Y16513D01*
X405179Y16515D01*
X405220Y16511D01*
X406400Y16511D01*
X406420Y16514D01*
X406439Y16512D01*
X406541Y16534D01*
X406643Y16550D01*
X406660Y16560D01*
X406680Y16564D01*
X406769Y16617D01*
X406860Y16666D01*
X406874Y16680D01*
X406891Y16690D01*
X406958Y16769D01*
X407030Y16844D01*
X407038Y16862D01*
X407051Y16877D01*
X407090Y16973D01*
X407133Y17067D01*
X407135Y17087D01*
X407143Y17105D01*
X407161Y17272D01*
X407161Y19833D01*
X412262Y19833D01*
X412281Y19836D01*
X412301Y19834D01*
X412403Y19856D01*
X412505Y19872D01*
X412522Y19882D01*
X412542Y19886D01*
X412631Y19939D01*
X412722Y19988D01*
X412736Y20002D01*
X412753Y20012D01*
X412756Y20016D01*
X412810Y19964D01*
X412828Y19956D01*
X412843Y19943D01*
X412940Y19904D01*
X413033Y19861D01*
X413053Y19859D01*
X413071Y19851D01*
X413238Y19833D01*
X418339Y19833D01*
X418339Y17272D01*
X418342Y17252D01*
X418340Y17233D01*
X418362Y17131D01*
X418378Y17029D01*
X418388Y17012D01*
X418392Y16992D01*
X418445Y16903D01*
X418494Y16812D01*
X418508Y16798D01*
X418518Y16781D01*
X418597Y16714D01*
X418672Y16642D01*
X418690Y16634D01*
X418705Y16621D01*
X418801Y16582D01*
X418895Y16539D01*
X418915Y16537D01*
X418933Y16529D01*
X419100Y16511D01*
X632362Y16511D01*
X632452Y16525D01*
X632543Y16533D01*
X632573Y16545D01*
X632605Y16550D01*
X632686Y16593D01*
X632770Y16629D01*
X632802Y16655D01*
X632822Y16666D01*
X632845Y16689D01*
X632901Y16734D01*
X639751Y23584D01*
X639795Y23645D01*
X639829Y23681D01*
X639835Y23694D01*
X639864Y23728D01*
X639876Y23758D01*
X639895Y23784D01*
X639921Y23871D01*
X639955Y23956D01*
X639960Y23997D01*
X639967Y24019D01*
X639966Y24051D01*
X639974Y24122D01*
X639974Y44486D01*
X645357Y49870D01*
X653493Y49870D01*
X655133Y48230D01*
X655207Y48177D01*
X655277Y48117D01*
X655307Y48105D01*
X655333Y48086D01*
X655420Y48059D01*
X655505Y48025D01*
X655546Y48021D01*
X655568Y48014D01*
X655600Y48015D01*
X655672Y48007D01*
X674526Y48007D01*
X674616Y48021D01*
X674707Y48029D01*
X674737Y48041D01*
X674769Y48046D01*
X674850Y48089D01*
X674934Y48125D01*
X674966Y48151D01*
X674986Y48162D01*
X675009Y48185D01*
X675065Y48230D01*
X678655Y51821D01*
X678744Y51840D01*
X678846Y51856D01*
X678863Y51866D01*
X678883Y51870D01*
X678972Y51923D01*
X679063Y51972D01*
X679077Y51986D01*
X679094Y51996D01*
X679161Y52075D01*
X679233Y52150D01*
X679241Y52168D01*
X679254Y52183D01*
X679293Y52279D01*
X679336Y52373D01*
X679338Y52393D01*
X679346Y52411D01*
X679364Y52578D01*
X679364Y54718D01*
X682390Y57744D01*
X686670Y57744D01*
X689696Y54718D01*
X689696Y52032D01*
X689710Y51942D01*
X689718Y51851D01*
X689730Y51821D01*
X689735Y51789D01*
X689778Y51708D01*
X689814Y51624D01*
X689840Y51592D01*
X689851Y51572D01*
X689874Y51549D01*
X689919Y51493D01*
X693436Y47976D01*
X693510Y47923D01*
X693580Y47863D01*
X693610Y47851D01*
X693636Y47832D01*
X693723Y47805D01*
X693808Y47771D01*
X693849Y47767D01*
X693871Y47760D01*
X693903Y47761D01*
X693975Y47753D01*
X741172Y47753D01*
X741243Y47764D01*
X741314Y47766D01*
X741363Y47784D01*
X741415Y47792D01*
X741478Y47826D01*
X741545Y47851D01*
X741586Y47883D01*
X741632Y47908D01*
X741681Y47959D01*
X741738Y48004D01*
X741766Y48048D01*
X741802Y48086D01*
X741832Y48151D01*
X741870Y48211D01*
X741883Y48262D01*
X741905Y48309D01*
X741913Y48380D01*
X741931Y48450D01*
X741926Y48502D01*
X741932Y48553D01*
X741917Y48624D01*
X741911Y48695D01*
X741891Y48743D01*
X741880Y48794D01*
X741843Y48855D01*
X741815Y48921D01*
X741770Y48977D01*
X741754Y49005D01*
X741736Y49020D01*
X741710Y49052D01*
X741594Y49168D01*
X741594Y53448D01*
X744620Y56474D01*
X748900Y56474D01*
X751926Y53448D01*
X751926Y51745D01*
X751937Y51674D01*
X751939Y51602D01*
X751957Y51553D01*
X751965Y51502D01*
X751999Y51439D01*
X752024Y51371D01*
X752056Y51331D01*
X752081Y51285D01*
X752133Y51235D01*
X752177Y51179D01*
X752221Y51151D01*
X752259Y51115D01*
X752324Y51085D01*
X752384Y51046D01*
X752435Y51033D01*
X752482Y51012D01*
X752553Y51004D01*
X752623Y50986D01*
X752675Y50990D01*
X752726Y50984D01*
X752797Y51000D01*
X752868Y51005D01*
X752916Y51026D01*
X752967Y51037D01*
X753028Y51074D01*
X753094Y51102D01*
X753150Y51146D01*
X753178Y51163D01*
X753193Y51181D01*
X753225Y51206D01*
X754344Y52325D01*
X763439Y52325D01*
X763459Y52328D01*
X763478Y52326D01*
X763580Y52348D01*
X763682Y52364D01*
X763699Y52374D01*
X763719Y52378D01*
X763808Y52431D01*
X763899Y52480D01*
X763913Y52494D01*
X763930Y52504D01*
X763997Y52583D01*
X764069Y52658D01*
X764077Y52676D01*
X764090Y52691D01*
X764129Y52787D01*
X764172Y52881D01*
X764174Y52901D01*
X764182Y52919D01*
X764200Y53086D01*
X764200Y53448D01*
X767226Y56474D01*
X771506Y56474D01*
X774532Y53448D01*
X774532Y49168D01*
X771506Y46142D01*
X767226Y46142D01*
X766348Y47020D01*
X766274Y47073D01*
X766205Y47133D01*
X766175Y47145D01*
X766149Y47164D01*
X766062Y47191D01*
X765977Y47225D01*
X765936Y47229D01*
X765913Y47236D01*
X765881Y47235D01*
X765810Y47243D01*
X763270Y47243D01*
X763199Y47232D01*
X763128Y47230D01*
X763079Y47212D01*
X763027Y47204D01*
X762964Y47170D01*
X762897Y47145D01*
X762856Y47113D01*
X762810Y47088D01*
X762761Y47036D01*
X762705Y46992D01*
X762676Y46948D01*
X762640Y46910D01*
X762610Y46845D01*
X762572Y46785D01*
X762559Y46734D01*
X762537Y46687D01*
X762529Y46616D01*
X762511Y46546D01*
X762516Y46494D01*
X762510Y46443D01*
X762525Y46372D01*
X762531Y46301D01*
X762551Y46253D01*
X762562Y46202D01*
X762599Y46141D01*
X762627Y46075D01*
X762672Y46019D01*
X762688Y45991D01*
X762706Y45976D01*
X762732Y45944D01*
X763356Y45320D01*
X763356Y41040D01*
X760330Y38014D01*
X756050Y38014D01*
X754840Y39224D01*
X754824Y39236D01*
X754812Y39252D01*
X754724Y39308D01*
X754640Y39368D01*
X754621Y39374D01*
X754605Y39385D01*
X754504Y39410D01*
X754405Y39440D01*
X754385Y39440D01*
X754366Y39445D01*
X754263Y39437D01*
X754159Y39434D01*
X754141Y39427D01*
X754121Y39426D01*
X754026Y39385D01*
X753928Y39350D01*
X753913Y39337D01*
X753895Y39329D01*
X753764Y39224D01*
X749590Y35051D01*
X741680Y35051D01*
X741609Y35040D01*
X741538Y35038D01*
X741489Y35020D01*
X741437Y35012D01*
X741374Y34978D01*
X741307Y34953D01*
X741266Y34921D01*
X741220Y34896D01*
X741171Y34844D01*
X741115Y34800D01*
X741086Y34756D01*
X741050Y34718D01*
X741020Y34653D01*
X740982Y34593D01*
X740969Y34542D01*
X740947Y34495D01*
X740939Y34424D01*
X740921Y34354D01*
X740926Y34302D01*
X740920Y34251D01*
X740935Y34180D01*
X740941Y34109D01*
X740961Y34061D01*
X740972Y34010D01*
X741009Y33949D01*
X741037Y33883D01*
X741082Y33827D01*
X741098Y33799D01*
X741116Y33784D01*
X741142Y33752D01*
X741766Y33128D01*
X741766Y28848D01*
X738740Y25822D01*
X734460Y25822D01*
X731434Y28848D01*
X731434Y30480D01*
X731431Y30500D01*
X731433Y30519D01*
X731411Y30621D01*
X731395Y30723D01*
X731385Y30740D01*
X731381Y30760D01*
X731328Y30849D01*
X731279Y30940D01*
X731265Y30954D01*
X731255Y30971D01*
X731176Y31038D01*
X731101Y31110D01*
X731083Y31118D01*
X731068Y31131D01*
X730972Y31170D01*
X730878Y31213D01*
X730858Y31215D01*
X730840Y31223D01*
X730673Y31241D01*
X689305Y31241D01*
X689215Y31227D01*
X689124Y31219D01*
X689094Y31207D01*
X689062Y31202D01*
X688982Y31159D01*
X688898Y31123D01*
X688866Y31097D01*
X688845Y31086D01*
X688823Y31063D01*
X688767Y31018D01*
X687889Y30140D01*
X680663Y30140D01*
X679737Y31066D01*
X679663Y31119D01*
X679594Y31179D01*
X679564Y31191D01*
X679538Y31210D01*
X679451Y31237D01*
X679366Y31271D01*
X679325Y31275D01*
X679302Y31282D01*
X679270Y31281D01*
X679199Y31289D01*
X658316Y31289D01*
X658226Y31275D01*
X658135Y31267D01*
X658105Y31255D01*
X658073Y31250D01*
X657993Y31207D01*
X657909Y31171D01*
X657877Y31145D01*
X657856Y31134D01*
X657834Y31111D01*
X657778Y31066D01*
X657746Y31034D01*
X657699Y30969D01*
X657686Y30956D01*
X657684Y30950D01*
X657633Y30891D01*
X657621Y30861D01*
X657602Y30835D01*
X657575Y30748D01*
X657541Y30663D01*
X657537Y30622D01*
X657530Y30599D01*
X657531Y30567D01*
X657523Y30496D01*
X657523Y29295D01*
X657526Y29275D01*
X657524Y29256D01*
X657546Y29154D01*
X657562Y29052D01*
X657572Y29035D01*
X657576Y29015D01*
X657629Y28926D01*
X657678Y28835D01*
X657692Y28821D01*
X657702Y28804D01*
X657781Y28737D01*
X657856Y28665D01*
X657874Y28657D01*
X657889Y28644D01*
X657985Y28605D01*
X658079Y28562D01*
X658099Y28560D01*
X658117Y28552D01*
X658284Y28534D01*
X660000Y28534D01*
X663026Y25508D01*
X663026Y21228D01*
X660000Y18202D01*
X655720Y18202D01*
X654691Y19232D01*
X654675Y19243D01*
X654662Y19259D01*
X654575Y19315D01*
X654491Y19375D01*
X654472Y19381D01*
X654455Y19392D01*
X654355Y19417D01*
X654256Y19448D01*
X654236Y19447D01*
X654217Y19452D01*
X654114Y19444D01*
X654010Y19441D01*
X653991Y19434D01*
X653971Y19433D01*
X653877Y19393D01*
X653779Y19357D01*
X653763Y19344D01*
X653745Y19337D01*
X653614Y19232D01*
X640157Y5775D01*
X638446Y4063D01*
X377916Y4063D01*
X365842Y16136D01*
X365748Y16205D01*
X365654Y16274D01*
X365648Y16276D01*
X365643Y16280D01*
X365532Y16314D01*
X365420Y16351D01*
X365414Y16351D01*
X365408Y16352D01*
X365291Y16349D01*
X365174Y16348D01*
X365167Y16346D01*
X365162Y16346D01*
X365144Y16340D01*
X365013Y16301D01*
X363062Y15493D01*
X360838Y15493D01*
X359067Y16227D01*
X358953Y16254D01*
X358840Y16282D01*
X358833Y16282D01*
X358827Y16283D01*
X358711Y16272D01*
X358594Y16263D01*
X358589Y16261D01*
X358582Y16260D01*
X358475Y16212D01*
X358368Y16167D01*
X358362Y16162D01*
X358358Y16160D01*
X358344Y16147D01*
X358237Y16062D01*
X347950Y5775D01*
X346238Y4063D01*
X252694Y4063D01*
G37*
%LPD*%
%LPC*%
G36*
X688498Y73499D02*
X688498Y73499D01*
X686432Y75565D01*
X686422Y75630D01*
X686420Y75702D01*
X686402Y75751D01*
X686394Y75802D01*
X686360Y75866D01*
X686335Y75933D01*
X686303Y75974D01*
X686278Y76020D01*
X686226Y76069D01*
X686182Y76125D01*
X686138Y76153D01*
X686100Y76189D01*
X686035Y76219D01*
X685975Y76258D01*
X685924Y76271D01*
X685877Y76293D01*
X685806Y76301D01*
X685736Y76318D01*
X685684Y76314D01*
X685633Y76320D01*
X685562Y76305D01*
X685491Y76299D01*
X685443Y76279D01*
X685392Y76268D01*
X685331Y76231D01*
X685265Y76203D01*
X685209Y76158D01*
X685181Y76141D01*
X685166Y76124D01*
X685134Y76098D01*
X683535Y74499D01*
X648381Y74499D01*
X646433Y76447D01*
X646433Y99314D01*
X646430Y99334D01*
X646432Y99353D01*
X646410Y99455D01*
X646394Y99557D01*
X646384Y99574D01*
X646380Y99594D01*
X646327Y99683D01*
X646278Y99774D01*
X646264Y99788D01*
X646254Y99805D01*
X646175Y99872D01*
X646100Y99944D01*
X646082Y99952D01*
X646067Y99965D01*
X645971Y100004D01*
X645877Y100047D01*
X645857Y100049D01*
X645839Y100057D01*
X645672Y100075D01*
X551528Y100075D01*
X546248Y105355D01*
X546174Y105408D01*
X546105Y105468D01*
X546075Y105480D01*
X546049Y105499D01*
X545962Y105526D01*
X545877Y105560D01*
X545836Y105564D01*
X545813Y105571D01*
X545781Y105570D01*
X545710Y105578D01*
X544468Y105578D01*
X541442Y108604D01*
X541442Y112884D01*
X544468Y115910D01*
X548748Y115910D01*
X551774Y112884D01*
X551774Y111642D01*
X551776Y111627D01*
X551775Y111613D01*
X551789Y111549D01*
X551796Y111461D01*
X551808Y111431D01*
X551813Y111399D01*
X551827Y111374D01*
X551827Y111373D01*
X551831Y111367D01*
X551856Y111319D01*
X551892Y111235D01*
X551918Y111203D01*
X551929Y111182D01*
X551952Y111160D01*
X551997Y111104D01*
X554673Y108428D01*
X554747Y108375D01*
X554816Y108315D01*
X554846Y108303D01*
X554872Y108284D01*
X554959Y108257D01*
X555044Y108223D01*
X555085Y108219D01*
X555108Y108212D01*
X555140Y108213D01*
X555211Y108205D01*
X645672Y108205D01*
X645692Y108208D01*
X645711Y108206D01*
X645813Y108228D01*
X645915Y108244D01*
X645932Y108254D01*
X645952Y108258D01*
X646041Y108311D01*
X646132Y108360D01*
X646146Y108374D01*
X646163Y108384D01*
X646230Y108463D01*
X646302Y108538D01*
X646310Y108556D01*
X646323Y108571D01*
X646362Y108667D01*
X646405Y108761D01*
X646407Y108781D01*
X646415Y108799D01*
X646433Y108966D01*
X646433Y126601D01*
X648381Y128549D01*
X683535Y128549D01*
X685134Y126950D01*
X685192Y126908D01*
X685244Y126859D01*
X685291Y126837D01*
X685333Y126807D01*
X685402Y126786D01*
X685467Y126755D01*
X685519Y126750D01*
X685569Y126734D01*
X685640Y126736D01*
X685711Y126728D01*
X685762Y126739D01*
X685814Y126741D01*
X685882Y126765D01*
X685952Y126780D01*
X685997Y126807D01*
X686045Y126825D01*
X686101Y126870D01*
X686163Y126907D01*
X686197Y126946D01*
X686237Y126979D01*
X686276Y127039D01*
X686323Y127094D01*
X686342Y127142D01*
X686370Y127186D01*
X686388Y127255D01*
X686415Y127322D01*
X686423Y127393D01*
X686431Y127424D01*
X686429Y127447D01*
X686433Y127483D01*
X688498Y129549D01*
X727418Y129549D01*
X729483Y127484D01*
X729483Y108890D01*
X729486Y108870D01*
X729484Y108851D01*
X729506Y108749D01*
X729522Y108647D01*
X729532Y108630D01*
X729536Y108610D01*
X729589Y108521D01*
X729638Y108430D01*
X729652Y108416D01*
X729662Y108399D01*
X729741Y108332D01*
X729816Y108260D01*
X729834Y108252D01*
X729849Y108239D01*
X729945Y108200D01*
X730039Y108157D01*
X730059Y108155D01*
X730077Y108147D01*
X730244Y108129D01*
X776672Y108129D01*
X776692Y108132D01*
X776711Y108130D01*
X776813Y108152D01*
X776915Y108168D01*
X776932Y108178D01*
X776952Y108182D01*
X777041Y108235D01*
X777132Y108284D01*
X777146Y108298D01*
X777163Y108308D01*
X777230Y108387D01*
X777302Y108462D01*
X777310Y108480D01*
X777323Y108495D01*
X777362Y108591D01*
X777405Y108685D01*
X777407Y108705D01*
X777415Y108723D01*
X777433Y108890D01*
X777433Y113453D01*
X779029Y115049D01*
X818887Y115049D01*
X819449Y114486D01*
X819465Y114475D01*
X819478Y114459D01*
X819565Y114403D01*
X819649Y114343D01*
X819668Y114337D01*
X819685Y114326D01*
X819785Y114301D01*
X819884Y114270D01*
X819904Y114271D01*
X819923Y114266D01*
X820026Y114274D01*
X820130Y114277D01*
X820148Y114284D01*
X820168Y114285D01*
X820263Y114326D01*
X820361Y114361D01*
X820376Y114374D01*
X820395Y114382D01*
X820526Y114486D01*
X822088Y116049D01*
X834132Y116049D01*
X834152Y116052D01*
X834171Y116050D01*
X834273Y116072D01*
X834375Y116088D01*
X834392Y116098D01*
X834412Y116102D01*
X834501Y116155D01*
X834592Y116204D01*
X834606Y116218D01*
X834623Y116228D01*
X834690Y116307D01*
X834762Y116382D01*
X834770Y116400D01*
X834783Y116415D01*
X834822Y116511D01*
X834865Y116605D01*
X834867Y116625D01*
X834875Y116643D01*
X834885Y116733D01*
X868181Y150030D01*
X906813Y150030D01*
X906903Y150044D01*
X906994Y150052D01*
X907024Y150064D01*
X907056Y150069D01*
X907136Y150112D01*
X907220Y150148D01*
X907252Y150174D01*
X907273Y150185D01*
X907295Y150208D01*
X907351Y150253D01*
X918559Y161461D01*
X921163Y164065D01*
X921689Y164065D01*
X921804Y164083D01*
X921920Y164101D01*
X921926Y164103D01*
X921932Y164104D01*
X922035Y164159D01*
X922139Y164212D01*
X922144Y164217D01*
X922149Y164220D01*
X922230Y164305D01*
X922312Y164388D01*
X922315Y164394D01*
X922319Y164398D01*
X922327Y164415D01*
X922393Y164535D01*
X922570Y164964D01*
X925036Y167430D01*
X928257Y168764D01*
X931743Y168764D01*
X934964Y167430D01*
X937430Y164964D01*
X938764Y161743D01*
X938764Y158257D01*
X937430Y155036D01*
X934964Y152570D01*
X931743Y151236D01*
X928257Y151236D01*
X925036Y152570D01*
X923639Y153967D01*
X923623Y153979D01*
X923610Y153994D01*
X923523Y154050D01*
X923439Y154111D01*
X923420Y154117D01*
X923404Y154127D01*
X923303Y154153D01*
X923204Y154183D01*
X923184Y154183D01*
X923165Y154187D01*
X923062Y154179D01*
X922958Y154177D01*
X922940Y154170D01*
X922920Y154168D01*
X922825Y154128D01*
X922727Y154092D01*
X922712Y154080D01*
X922693Y154072D01*
X922563Y153967D01*
X913100Y144504D01*
X910496Y141900D01*
X871864Y141900D01*
X871774Y141886D01*
X871683Y141878D01*
X871653Y141866D01*
X871621Y141861D01*
X871541Y141818D01*
X871457Y141782D01*
X871425Y141756D01*
X871404Y141745D01*
X871382Y141722D01*
X871326Y141677D01*
X846997Y117348D01*
X846955Y117290D01*
X846905Y117238D01*
X846883Y117191D01*
X846853Y117149D01*
X846832Y117080D01*
X846802Y117015D01*
X846796Y116963D01*
X846781Y116913D01*
X846783Y116842D01*
X846775Y116771D01*
X846786Y116720D01*
X846787Y116668D01*
X846812Y116600D01*
X846827Y116530D01*
X846854Y116485D01*
X846872Y116437D01*
X846916Y116381D01*
X846953Y116319D01*
X846993Y116285D01*
X847025Y116245D01*
X847086Y116206D01*
X847140Y116159D01*
X847188Y116140D01*
X847232Y116112D01*
X847302Y116094D01*
X847368Y116067D01*
X847440Y116059D01*
X847471Y116051D01*
X847494Y116053D01*
X847535Y116049D01*
X855828Y116049D01*
X857483Y114394D01*
X857483Y88654D01*
X855828Y86999D01*
X822088Y86999D01*
X820526Y88562D01*
X820509Y88573D01*
X820497Y88589D01*
X820410Y88645D01*
X820326Y88705D01*
X820307Y88711D01*
X820290Y88722D01*
X820190Y88747D01*
X820091Y88778D01*
X820071Y88777D01*
X820052Y88782D01*
X819949Y88774D01*
X819845Y88771D01*
X819826Y88764D01*
X819806Y88763D01*
X819711Y88722D01*
X819614Y88687D01*
X819598Y88674D01*
X819580Y88666D01*
X819449Y88562D01*
X818887Y87999D01*
X779029Y87999D01*
X777433Y89595D01*
X777433Y94158D01*
X777431Y94172D01*
X777432Y94183D01*
X777431Y94188D01*
X777432Y94197D01*
X777410Y94299D01*
X777394Y94401D01*
X777384Y94418D01*
X777380Y94438D01*
X777327Y94527D01*
X777278Y94618D01*
X777264Y94632D01*
X777254Y94649D01*
X777175Y94716D01*
X777100Y94788D01*
X777082Y94796D01*
X777067Y94809D01*
X776971Y94848D01*
X776877Y94891D01*
X776857Y94893D01*
X776839Y94901D01*
X776672Y94919D01*
X730244Y94919D01*
X730224Y94916D01*
X730205Y94918D01*
X730103Y94896D01*
X730001Y94880D01*
X729984Y94870D01*
X729964Y94866D01*
X729875Y94813D01*
X729784Y94764D01*
X729770Y94750D01*
X729753Y94740D01*
X729686Y94661D01*
X729614Y94586D01*
X729606Y94568D01*
X729593Y94553D01*
X729554Y94457D01*
X729511Y94363D01*
X729509Y94343D01*
X729501Y94325D01*
X729483Y94158D01*
X729483Y75564D01*
X727418Y73499D01*
X688498Y73499D01*
G37*
%LPD*%
%LPC*%
G36*
X674436Y4001D02*
X674436Y4001D01*
X671129Y7308D01*
X671055Y7361D01*
X670986Y7421D01*
X670956Y7433D01*
X670929Y7452D01*
X670842Y7479D01*
X670758Y7513D01*
X670717Y7517D01*
X670694Y7524D01*
X670662Y7523D01*
X670591Y7531D01*
X667912Y7531D01*
X664886Y10557D01*
X664886Y14837D01*
X667912Y17863D01*
X672192Y17863D01*
X675218Y14837D01*
X675218Y12158D01*
X675232Y12068D01*
X675240Y11977D01*
X675252Y11947D01*
X675257Y11915D01*
X675300Y11835D01*
X675336Y11751D01*
X675362Y11719D01*
X675373Y11698D01*
X675396Y11676D01*
X675441Y11620D01*
X676739Y10322D01*
X676813Y10269D01*
X676882Y10209D01*
X676912Y10197D01*
X676939Y10178D01*
X677026Y10151D01*
X677110Y10117D01*
X677151Y10113D01*
X677174Y10106D01*
X677206Y10107D01*
X677277Y10099D01*
X751924Y10099D01*
X751944Y10102D01*
X751963Y10100D01*
X752065Y10122D01*
X752167Y10138D01*
X752184Y10148D01*
X752204Y10152D01*
X752293Y10205D01*
X752384Y10254D01*
X752398Y10268D01*
X752415Y10278D01*
X752482Y10357D01*
X752554Y10432D01*
X752562Y10450D01*
X752575Y10465D01*
X752614Y10561D01*
X752657Y10655D01*
X752659Y10675D01*
X752667Y10693D01*
X752685Y10860D01*
X752685Y20829D01*
X765448Y20829D01*
X765468Y20832D01*
X765487Y20830D01*
X765589Y20852D01*
X765691Y20869D01*
X765708Y20878D01*
X765728Y20882D01*
X765817Y20935D01*
X765908Y20984D01*
X765922Y20998D01*
X765939Y21008D01*
X766006Y21087D01*
X766077Y21162D01*
X766086Y21180D01*
X766099Y21195D01*
X766138Y21291D01*
X766181Y21385D01*
X766183Y21405D01*
X766191Y21423D01*
X766209Y21590D01*
X766209Y22353D01*
X766211Y22353D01*
X766211Y21590D01*
X766214Y21570D01*
X766212Y21551D01*
X766234Y21449D01*
X766251Y21347D01*
X766260Y21330D01*
X766264Y21310D01*
X766317Y21221D01*
X766366Y21130D01*
X766380Y21116D01*
X766390Y21099D01*
X766469Y21032D01*
X766544Y20961D01*
X766562Y20952D01*
X766577Y20939D01*
X766673Y20900D01*
X766767Y20857D01*
X766787Y20855D01*
X766805Y20847D01*
X766972Y20829D01*
X779735Y20829D01*
X779735Y10860D01*
X779738Y10840D01*
X779736Y10821D01*
X779758Y10719D01*
X779774Y10617D01*
X779784Y10600D01*
X779788Y10580D01*
X779841Y10491D01*
X779890Y10400D01*
X779904Y10386D01*
X779914Y10369D01*
X779993Y10302D01*
X780068Y10230D01*
X780086Y10222D01*
X780101Y10209D01*
X780197Y10170D01*
X780291Y10127D01*
X780311Y10125D01*
X780329Y10117D01*
X780496Y10099D01*
X795012Y10099D01*
X795102Y10113D01*
X795193Y10121D01*
X795223Y10133D01*
X795255Y10138D01*
X795335Y10181D01*
X795419Y10217D01*
X795451Y10243D01*
X795472Y10254D01*
X795494Y10277D01*
X795550Y10322D01*
X802462Y17234D01*
X802515Y17308D01*
X802575Y17377D01*
X802587Y17407D01*
X802606Y17434D01*
X802633Y17521D01*
X802667Y17605D01*
X802671Y17646D01*
X802678Y17669D01*
X802677Y17701D01*
X802685Y17772D01*
X802685Y34984D01*
X803578Y35877D01*
X825108Y35877D01*
X825198Y35891D01*
X825289Y35899D01*
X825319Y35911D01*
X825351Y35916D01*
X825431Y35959D01*
X825515Y35995D01*
X825547Y36021D01*
X825568Y36032D01*
X825590Y36055D01*
X825646Y36100D01*
X828783Y39237D01*
X901533Y39237D01*
X901536Y39237D01*
X901540Y39237D01*
X902801Y39248D01*
X903695Y38355D01*
X903697Y38353D01*
X903700Y38350D01*
X907949Y34176D01*
X908026Y34122D01*
X908099Y34062D01*
X908126Y34052D01*
X908150Y34035D01*
X908241Y34008D01*
X908328Y33974D01*
X908358Y33973D01*
X908386Y33964D01*
X908480Y33968D01*
X908574Y33964D01*
X908602Y33972D01*
X908632Y33973D01*
X908720Y34006D01*
X908810Y34032D01*
X908834Y34049D01*
X908862Y34060D01*
X908935Y34119D01*
X909012Y34173D01*
X909030Y34196D01*
X909053Y34215D01*
X909103Y34295D01*
X909159Y34370D01*
X909168Y34398D01*
X909184Y34423D01*
X909206Y34514D01*
X909235Y34604D01*
X909235Y34633D01*
X909242Y34662D01*
X909234Y34756D01*
X909233Y34850D01*
X909222Y34886D01*
X909221Y34907D01*
X909207Y34937D01*
X909186Y35011D01*
X908974Y35524D01*
X908884Y35977D01*
X914726Y35977D01*
X914746Y35980D01*
X914765Y35978D01*
X914867Y36000D01*
X914969Y36017D01*
X914986Y36026D01*
X915006Y36030D01*
X915095Y36083D01*
X915186Y36132D01*
X915200Y36146D01*
X915217Y36156D01*
X915284Y36235D01*
X915355Y36310D01*
X915364Y36328D01*
X915377Y36343D01*
X915415Y36439D01*
X915459Y36533D01*
X915461Y36553D01*
X915469Y36571D01*
X915487Y36738D01*
X915487Y37501D01*
X916250Y37501D01*
X916270Y37504D01*
X916289Y37502D01*
X916391Y37524D01*
X916493Y37541D01*
X916510Y37550D01*
X916530Y37554D01*
X916619Y37607D01*
X916710Y37656D01*
X916724Y37670D01*
X916741Y37680D01*
X916808Y37759D01*
X916879Y37834D01*
X916888Y37852D01*
X916901Y37867D01*
X916940Y37963D01*
X916983Y38057D01*
X916985Y38077D01*
X916993Y38095D01*
X917011Y38262D01*
X917011Y44104D01*
X917464Y44014D01*
X918697Y43504D01*
X919807Y42762D01*
X920310Y42258D01*
X920348Y42232D01*
X920379Y42198D01*
X920447Y42160D01*
X920510Y42115D01*
X920554Y42101D01*
X920594Y42079D01*
X920671Y42065D01*
X920745Y42043D01*
X920791Y42044D01*
X920836Y42036D01*
X920913Y42047D01*
X920991Y42049D01*
X921034Y42065D01*
X921080Y42071D01*
X921149Y42107D01*
X921222Y42133D01*
X921258Y42162D01*
X921299Y42183D01*
X921354Y42239D01*
X921414Y42287D01*
X921439Y42326D01*
X921471Y42358D01*
X921537Y42479D01*
X921547Y42494D01*
X921548Y42499D01*
X921552Y42505D01*
X922234Y44151D01*
X923193Y45587D01*
X924413Y46807D01*
X925849Y47766D01*
X927444Y48427D01*
X928477Y48632D01*
X928477Y40762D01*
X928480Y40742D01*
X928478Y40723D01*
X928500Y40621D01*
X928517Y40519D01*
X928526Y40502D01*
X928530Y40482D01*
X928583Y40393D01*
X928632Y40302D01*
X928646Y40288D01*
X928656Y40271D01*
X928735Y40204D01*
X928810Y40133D01*
X928828Y40124D01*
X928843Y40111D01*
X928939Y40073D01*
X929033Y40029D01*
X929053Y40027D01*
X929071Y40019D01*
X929238Y40001D01*
X930001Y40001D01*
X930001Y39999D01*
X929238Y39999D01*
X929218Y39996D01*
X929199Y39998D01*
X929097Y39976D01*
X928995Y39959D01*
X928978Y39950D01*
X928958Y39946D01*
X928869Y39893D01*
X928778Y39844D01*
X928764Y39830D01*
X928747Y39820D01*
X928680Y39741D01*
X928609Y39666D01*
X928600Y39648D01*
X928587Y39633D01*
X928548Y39537D01*
X928505Y39443D01*
X928503Y39423D01*
X928495Y39405D01*
X928477Y39238D01*
X928477Y31368D01*
X927444Y31573D01*
X925849Y32234D01*
X924413Y33193D01*
X923193Y34413D01*
X922965Y34754D01*
X922883Y34842D01*
X922802Y34930D01*
X922800Y34931D01*
X922797Y34934D01*
X922691Y34991D01*
X922587Y35049D01*
X922584Y35049D01*
X922581Y35051D01*
X922463Y35071D01*
X922345Y35092D01*
X922342Y35092D01*
X922339Y35092D01*
X922222Y35074D01*
X922101Y35056D01*
X922098Y35055D01*
X922095Y35055D01*
X921989Y34999D01*
X921882Y34945D01*
X921880Y34943D01*
X921877Y34941D01*
X921792Y34853D01*
X921710Y34769D01*
X921708Y34766D01*
X921706Y34764D01*
X921701Y34754D01*
X921629Y34622D01*
X921492Y34291D01*
X920750Y33181D01*
X919807Y32238D01*
X918697Y31496D01*
X917464Y30986D01*
X916444Y30783D01*
X916398Y30765D01*
X916349Y30757D01*
X916283Y30723D01*
X916213Y30696D01*
X916175Y30665D01*
X916132Y30642D01*
X916080Y30588D01*
X916022Y30541D01*
X915996Y30500D01*
X915963Y30464D01*
X915931Y30396D01*
X915891Y30333D01*
X915880Y30285D01*
X915859Y30241D01*
X915851Y30167D01*
X915833Y30094D01*
X915837Y30045D01*
X915832Y29997D01*
X915848Y29924D01*
X915854Y29849D01*
X915874Y29804D01*
X915884Y29756D01*
X915922Y29692D01*
X915952Y29623D01*
X915985Y29587D01*
X916010Y29545D01*
X916067Y29496D01*
X916117Y29441D01*
X916160Y29417D01*
X916197Y29385D01*
X916267Y29357D01*
X916332Y29321D01*
X916380Y29312D01*
X916425Y29293D01*
X916550Y29279D01*
X916573Y29275D01*
X916583Y29276D01*
X916592Y29275D01*
X916836Y29275D01*
X919326Y28243D01*
X921231Y26338D01*
X921590Y25472D01*
X921614Y25433D01*
X921630Y25390D01*
X921678Y25329D01*
X921719Y25263D01*
X921755Y25234D01*
X921783Y25198D01*
X921849Y25156D01*
X921909Y25106D01*
X921952Y25090D01*
X921990Y25065D01*
X922066Y25046D01*
X922139Y25018D01*
X922184Y25016D01*
X922229Y25005D01*
X922306Y25011D01*
X922384Y25008D01*
X922428Y25020D01*
X922474Y25024D01*
X922546Y25055D01*
X922620Y25076D01*
X922658Y25102D01*
X922700Y25120D01*
X922807Y25206D01*
X922823Y25216D01*
X922826Y25221D01*
X922831Y25225D01*
X925036Y27430D01*
X928257Y28764D01*
X931743Y28764D01*
X934964Y27430D01*
X937430Y24964D01*
X938764Y21743D01*
X938764Y18257D01*
X937430Y15036D01*
X934964Y12570D01*
X931743Y11236D01*
X928257Y11236D01*
X925036Y12570D01*
X922570Y15036D01*
X921972Y16481D01*
X921910Y16581D01*
X921850Y16681D01*
X921845Y16685D01*
X921842Y16690D01*
X921752Y16765D01*
X921663Y16841D01*
X921657Y16843D01*
X921653Y16847D01*
X921544Y16889D01*
X921435Y16933D01*
X921428Y16934D01*
X921423Y16935D01*
X921405Y16936D01*
X921268Y16951D01*
X919836Y16951D01*
X919745Y16937D01*
X919655Y16929D01*
X919625Y16917D01*
X919593Y16912D01*
X919512Y16869D01*
X919428Y16833D01*
X919396Y16807D01*
X919375Y16796D01*
X919353Y16773D01*
X919340Y16763D01*
X916836Y15725D01*
X914140Y15725D01*
X911650Y16757D01*
X909745Y18662D01*
X908713Y21152D01*
X908713Y23848D01*
X908821Y24107D01*
X908848Y24221D01*
X908877Y24341D01*
X908876Y24344D01*
X908877Y24346D01*
X908866Y24465D01*
X908855Y24586D01*
X908854Y24589D01*
X908854Y24591D01*
X908805Y24701D01*
X908757Y24811D01*
X908755Y24814D01*
X908754Y24816D01*
X908747Y24823D01*
X908651Y24941D01*
X900525Y32921D01*
X900454Y32972D01*
X900387Y33029D01*
X900354Y33042D01*
X900324Y33063D01*
X900240Y33088D01*
X900159Y33121D01*
X900113Y33126D01*
X900089Y33133D01*
X900057Y33132D01*
X899992Y33139D01*
X831624Y33139D01*
X831534Y33125D01*
X831443Y33117D01*
X831413Y33105D01*
X831381Y33100D01*
X831301Y33057D01*
X831217Y33021D01*
X831185Y32995D01*
X831164Y32984D01*
X831142Y32961D01*
X831086Y32916D01*
X829958Y31788D01*
X829905Y31714D01*
X829845Y31645D01*
X829833Y31615D01*
X829814Y31588D01*
X829787Y31501D01*
X829753Y31417D01*
X829749Y31376D01*
X829742Y31353D01*
X829743Y31321D01*
X829735Y31250D01*
X829735Y9720D01*
X828842Y8827D01*
X803544Y8827D01*
X803467Y8882D01*
X803448Y8888D01*
X803431Y8899D01*
X803331Y8924D01*
X803232Y8955D01*
X803212Y8954D01*
X803193Y8959D01*
X803090Y8951D01*
X802986Y8948D01*
X802968Y8941D01*
X802948Y8940D01*
X802853Y8899D01*
X802755Y8864D01*
X802740Y8851D01*
X802721Y8844D01*
X802590Y8739D01*
X799862Y6010D01*
X797853Y4001D01*
X674436Y4001D01*
G37*
%LPD*%
%LPC*%
G36*
X185312Y35678D02*
X185312Y35678D01*
X182910Y38080D01*
X182836Y38133D01*
X182767Y38193D01*
X182737Y38205D01*
X182710Y38224D01*
X182624Y38251D01*
X182539Y38285D01*
X182498Y38289D01*
X182475Y38296D01*
X182443Y38295D01*
X182372Y38303D01*
X160904Y38303D01*
X154196Y45011D01*
X154122Y45064D01*
X154052Y45124D01*
X154022Y45136D01*
X153996Y45155D01*
X153909Y45182D01*
X153824Y45216D01*
X153783Y45220D01*
X153761Y45227D01*
X153729Y45226D01*
X153657Y45234D01*
X150260Y45234D01*
X147234Y48260D01*
X147234Y52540D01*
X149636Y54942D01*
X149689Y55016D01*
X149749Y55085D01*
X149761Y55115D01*
X149780Y55142D01*
X149807Y55228D01*
X149841Y55313D01*
X149845Y55354D01*
X149852Y55377D01*
X149851Y55409D01*
X149859Y55480D01*
X149859Y70502D01*
X166895Y87538D01*
X178146Y87538D01*
X178165Y87541D01*
X178185Y87539D01*
X178286Y87561D01*
X178388Y87577D01*
X178406Y87587D01*
X178425Y87591D01*
X178514Y87644D01*
X178606Y87693D01*
X178619Y87707D01*
X178636Y87717D01*
X178704Y87796D01*
X178775Y87871D01*
X178783Y87889D01*
X178796Y87904D01*
X178835Y88000D01*
X178879Y88094D01*
X178881Y88114D01*
X178888Y88132D01*
X178907Y88299D01*
X178907Y108215D01*
X179800Y109108D01*
X187706Y109108D01*
X187726Y109111D01*
X187745Y109109D01*
X187847Y109131D01*
X187949Y109148D01*
X187966Y109157D01*
X187986Y109162D01*
X188075Y109215D01*
X188166Y109263D01*
X188180Y109277D01*
X188197Y109288D01*
X188264Y109366D01*
X188336Y109441D01*
X188344Y109459D01*
X188357Y109475D01*
X188396Y109571D01*
X188439Y109664D01*
X188441Y109684D01*
X188449Y109703D01*
X188467Y109869D01*
X188467Y112385D01*
X189956Y113874D01*
X242288Y113874D01*
X242378Y113888D01*
X242469Y113896D01*
X242499Y113908D01*
X242531Y113913D01*
X242612Y113956D01*
X242696Y113992D01*
X242728Y114018D01*
X242748Y114029D01*
X242771Y114052D01*
X242827Y114097D01*
X255876Y127146D01*
X267970Y127146D01*
X268060Y127160D01*
X268151Y127168D01*
X268181Y127180D01*
X268213Y127185D01*
X268293Y127228D01*
X268377Y127264D01*
X268409Y127290D01*
X268430Y127301D01*
X268452Y127324D01*
X268508Y127369D01*
X270910Y129771D01*
X275190Y129771D01*
X278216Y126745D01*
X278216Y122465D01*
X275190Y119439D01*
X270910Y119439D01*
X268508Y121841D01*
X268434Y121894D01*
X268365Y121954D01*
X268335Y121966D01*
X268308Y121985D01*
X268222Y122012D01*
X268137Y122046D01*
X268096Y122050D01*
X268073Y122057D01*
X268041Y122056D01*
X267970Y122064D01*
X258296Y122064D01*
X258206Y122050D01*
X258115Y122042D01*
X258085Y122030D01*
X258053Y122025D01*
X257972Y121982D01*
X257888Y121946D01*
X257856Y121920D01*
X257836Y121909D01*
X257813Y121886D01*
X257757Y121841D01*
X244708Y108792D01*
X203870Y108792D01*
X203851Y108789D01*
X203831Y108791D01*
X203730Y108769D01*
X203628Y108753D01*
X203610Y108743D01*
X203591Y108739D01*
X203502Y108686D01*
X203410Y108637D01*
X203397Y108623D01*
X203380Y108613D01*
X203312Y108534D01*
X203241Y108459D01*
X203233Y108441D01*
X203220Y108426D01*
X203181Y108330D01*
X203137Y108236D01*
X203135Y108216D01*
X203128Y108198D01*
X203109Y108031D01*
X203109Y62795D01*
X202216Y61902D01*
X179800Y61902D01*
X178907Y62795D01*
X178907Y81695D01*
X178904Y81715D01*
X178906Y81734D01*
X178884Y81836D01*
X178867Y81938D01*
X178858Y81955D01*
X178853Y81975D01*
X178800Y82064D01*
X178752Y82155D01*
X178738Y82169D01*
X178727Y82186D01*
X178649Y82253D01*
X178574Y82325D01*
X178556Y82333D01*
X178540Y82346D01*
X178444Y82385D01*
X178351Y82428D01*
X178331Y82430D01*
X178312Y82438D01*
X178146Y82456D01*
X169315Y82456D01*
X169225Y82442D01*
X169134Y82434D01*
X169104Y82422D01*
X169072Y82417D01*
X168991Y82374D01*
X168907Y82338D01*
X168875Y82312D01*
X168855Y82301D01*
X168832Y82278D01*
X168776Y82233D01*
X155164Y68621D01*
X155111Y68547D01*
X155051Y68477D01*
X155039Y68447D01*
X155020Y68421D01*
X154993Y68334D01*
X154959Y68249D01*
X154955Y68208D01*
X154948Y68186D01*
X154949Y68154D01*
X154941Y68082D01*
X154941Y55480D01*
X154955Y55390D01*
X154963Y55299D01*
X154975Y55269D01*
X154980Y55237D01*
X155023Y55157D01*
X155059Y55073D01*
X155085Y55041D01*
X155096Y55020D01*
X155119Y54998D01*
X155164Y54942D01*
X157566Y52540D01*
X157566Y49143D01*
X157580Y49053D01*
X157588Y48962D01*
X157600Y48932D01*
X157605Y48900D01*
X157648Y48819D01*
X157684Y48735D01*
X157710Y48703D01*
X157721Y48683D01*
X157744Y48660D01*
X157789Y48604D01*
X162785Y43608D01*
X162859Y43555D01*
X162929Y43495D01*
X162959Y43483D01*
X162985Y43464D01*
X163072Y43437D01*
X163157Y43403D01*
X163198Y43399D01*
X163220Y43392D01*
X163252Y43393D01*
X163324Y43385D01*
X182372Y43385D01*
X182462Y43399D01*
X182553Y43407D01*
X182583Y43419D01*
X182615Y43424D01*
X182695Y43467D01*
X182779Y43503D01*
X182811Y43529D01*
X182832Y43540D01*
X182854Y43563D01*
X182910Y43608D01*
X185312Y46010D01*
X189592Y46010D01*
X192618Y42984D01*
X192618Y38704D01*
X189592Y35678D01*
X185312Y35678D01*
G37*
%LPD*%
%LPC*%
G36*
X286319Y121834D02*
X286319Y121834D01*
X283293Y124860D01*
X283293Y129140D01*
X286319Y132166D01*
X288954Y132166D01*
X289044Y132180D01*
X289135Y132188D01*
X289165Y132200D01*
X289197Y132205D01*
X289278Y132248D01*
X289362Y132284D01*
X289394Y132310D01*
X289414Y132321D01*
X289437Y132344D01*
X289493Y132389D01*
X292964Y135860D01*
X293005Y135918D01*
X293055Y135970D01*
X293077Y136017D01*
X293107Y136059D01*
X293128Y136128D01*
X293158Y136193D01*
X293164Y136245D01*
X293180Y136295D01*
X293178Y136366D01*
X293186Y136437D01*
X293174Y136488D01*
X293173Y136540D01*
X293149Y136608D01*
X293133Y136678D01*
X293107Y136723D01*
X293089Y136771D01*
X293044Y136827D01*
X293007Y136889D01*
X292968Y136923D01*
X292935Y136963D01*
X292875Y137002D01*
X292820Y137049D01*
X292772Y137068D01*
X292728Y137096D01*
X292659Y137114D01*
X292592Y137141D01*
X292521Y137149D01*
X292490Y137157D01*
X292466Y137155D01*
X292425Y137159D01*
X240922Y137159D01*
X240832Y137145D01*
X240741Y137137D01*
X240711Y137125D01*
X240679Y137120D01*
X240598Y137077D01*
X240514Y137041D01*
X240482Y137015D01*
X240462Y137004D01*
X240439Y136981D01*
X240383Y136936D01*
X240065Y136617D01*
X240053Y136601D01*
X240037Y136589D01*
X239981Y136501D01*
X239921Y136418D01*
X239915Y136399D01*
X239904Y136382D01*
X239879Y136281D01*
X239849Y136183D01*
X239849Y136163D01*
X239844Y136143D01*
X239852Y136040D01*
X239855Y135937D01*
X239862Y135918D01*
X239863Y135898D01*
X239904Y135803D01*
X239939Y135706D01*
X239952Y135690D01*
X239960Y135672D01*
X240065Y135541D01*
X240116Y135490D01*
X240116Y131210D01*
X237090Y128184D01*
X232810Y128184D01*
X229784Y131210D01*
X229784Y135490D01*
X232810Y138516D01*
X234461Y138516D01*
X234551Y138530D01*
X234642Y138538D01*
X234672Y138550D01*
X234704Y138555D01*
X234785Y138598D01*
X234869Y138634D01*
X234901Y138660D01*
X234921Y138671D01*
X234944Y138694D01*
X235000Y138739D01*
X236042Y139781D01*
X236053Y139797D01*
X236069Y139809D01*
X236125Y139897D01*
X236185Y139980D01*
X236191Y139999D01*
X236202Y140016D01*
X236227Y140117D01*
X236257Y140216D01*
X236257Y140235D01*
X236262Y140255D01*
X236254Y140358D01*
X236251Y140461D01*
X236244Y140480D01*
X236243Y140500D01*
X236202Y140595D01*
X236167Y140692D01*
X236154Y140708D01*
X236146Y140726D01*
X236042Y140857D01*
X234968Y141931D01*
X234894Y141984D01*
X234824Y142044D01*
X234794Y142056D01*
X234768Y142075D01*
X234681Y142102D01*
X234596Y142136D01*
X234555Y142140D01*
X234533Y142147D01*
X234501Y142146D01*
X234429Y142154D01*
X232810Y142154D01*
X229784Y145180D01*
X229784Y149460D01*
X232810Y152486D01*
X237090Y152486D01*
X240116Y149460D01*
X240116Y146812D01*
X240119Y146792D01*
X240117Y146773D01*
X240139Y146671D01*
X240155Y146569D01*
X240165Y146552D01*
X240169Y146532D01*
X240222Y146443D01*
X240271Y146352D01*
X240285Y146338D01*
X240295Y146321D01*
X240374Y146254D01*
X240449Y146182D01*
X240467Y146174D01*
X240482Y146161D01*
X240578Y146122D01*
X240672Y146079D01*
X240692Y146077D01*
X240710Y146069D01*
X240877Y146051D01*
X360328Y146051D01*
X360418Y146065D01*
X360509Y146073D01*
X360539Y146085D01*
X360571Y146090D01*
X360652Y146133D01*
X360736Y146169D01*
X360768Y146195D01*
X360788Y146206D01*
X360811Y146229D01*
X360867Y146274D01*
X364181Y149588D01*
X364234Y149662D01*
X364294Y149732D01*
X364306Y149762D01*
X364325Y149788D01*
X364352Y149875D01*
X364386Y149960D01*
X364390Y150001D01*
X364397Y150023D01*
X364396Y150055D01*
X364404Y150127D01*
X364404Y152508D01*
X367430Y155534D01*
X371710Y155534D01*
X374736Y152508D01*
X374736Y148228D01*
X373392Y146884D01*
X373380Y146868D01*
X373365Y146856D01*
X373308Y146768D01*
X373248Y146685D01*
X373242Y146666D01*
X373232Y146649D01*
X373206Y146548D01*
X373176Y146449D01*
X373176Y146430D01*
X373171Y146410D01*
X373180Y146307D01*
X373182Y146204D01*
X373189Y146185D01*
X373191Y146165D01*
X373231Y146070D01*
X373267Y145973D01*
X373279Y145957D01*
X373287Y145939D01*
X373392Y145808D01*
X374736Y144464D01*
X374736Y140184D01*
X373265Y138713D01*
X373253Y138697D01*
X373238Y138685D01*
X373181Y138597D01*
X373121Y138514D01*
X373115Y138495D01*
X373105Y138478D01*
X373079Y138377D01*
X373049Y138278D01*
X373049Y138259D01*
X373044Y138239D01*
X373053Y138136D01*
X373055Y138033D01*
X373062Y138014D01*
X373064Y137994D01*
X373104Y137899D01*
X373140Y137802D01*
X373152Y137786D01*
X373160Y137768D01*
X373265Y137637D01*
X374736Y136166D01*
X374736Y131886D01*
X371710Y128860D01*
X367430Y128860D01*
X364404Y131886D01*
X364404Y132567D01*
X364401Y132586D01*
X364403Y132606D01*
X364381Y132707D01*
X364365Y132809D01*
X364355Y132827D01*
X364351Y132847D01*
X364298Y132936D01*
X364249Y133027D01*
X364235Y133041D01*
X364225Y133058D01*
X364146Y133125D01*
X364071Y133196D01*
X364053Y133205D01*
X364038Y133218D01*
X363942Y133256D01*
X363848Y133300D01*
X363828Y133302D01*
X363810Y133309D01*
X363643Y133328D01*
X359719Y133328D01*
X359712Y133331D01*
X359671Y133335D01*
X359648Y133342D01*
X359616Y133341D01*
X359545Y133349D01*
X297955Y133349D01*
X297865Y133335D01*
X297774Y133327D01*
X297744Y133315D01*
X297712Y133310D01*
X297631Y133267D01*
X297547Y133231D01*
X297515Y133205D01*
X297495Y133194D01*
X297472Y133171D01*
X297416Y133126D01*
X293848Y129558D01*
X293795Y129484D01*
X293735Y129414D01*
X293723Y129384D01*
X293704Y129358D01*
X293677Y129271D01*
X293643Y129186D01*
X293639Y129145D01*
X293632Y129123D01*
X293633Y129091D01*
X293625Y129019D01*
X293625Y124860D01*
X290599Y121834D01*
X286319Y121834D01*
G37*
%LPD*%
%LPC*%
G36*
X497336Y20751D02*
X497336Y20751D01*
X496443Y21644D01*
X496443Y35608D01*
X497336Y36501D01*
X524000Y36501D01*
X524893Y35608D01*
X524893Y33198D01*
X524896Y33178D01*
X524894Y33159D01*
X524916Y33057D01*
X524932Y32955D01*
X524942Y32938D01*
X524946Y32918D01*
X524999Y32829D01*
X525048Y32738D01*
X525062Y32724D01*
X525072Y32707D01*
X525151Y32640D01*
X525226Y32568D01*
X525244Y32560D01*
X525259Y32547D01*
X525355Y32508D01*
X525449Y32465D01*
X525469Y32463D01*
X525487Y32455D01*
X525654Y32437D01*
X538150Y32437D01*
X538240Y32451D01*
X538331Y32459D01*
X538361Y32471D01*
X538393Y32476D01*
X538473Y32519D01*
X538557Y32555D01*
X538589Y32581D01*
X538610Y32592D01*
X538632Y32615D01*
X538688Y32660D01*
X541928Y35900D01*
X546208Y35900D01*
X549234Y32874D01*
X549234Y28594D01*
X546208Y25568D01*
X541928Y25568D01*
X541380Y26116D01*
X541306Y26169D01*
X541237Y26229D01*
X541207Y26241D01*
X541180Y26260D01*
X541094Y26287D01*
X541009Y26321D01*
X540968Y26325D01*
X540945Y26332D01*
X540913Y26331D01*
X540842Y26339D01*
X525654Y26339D01*
X525634Y26336D01*
X525615Y26338D01*
X525513Y26316D01*
X525411Y26300D01*
X525394Y26290D01*
X525374Y26286D01*
X525285Y26233D01*
X525194Y26184D01*
X525180Y26170D01*
X525163Y26160D01*
X525096Y26081D01*
X525024Y26006D01*
X525016Y25988D01*
X525003Y25973D01*
X524964Y25877D01*
X524921Y25783D01*
X524919Y25763D01*
X524911Y25745D01*
X524893Y25578D01*
X524893Y21644D01*
X524000Y20751D01*
X497336Y20751D01*
G37*
%LPD*%
%LPC*%
G36*
X564534Y83734D02*
X564534Y83734D01*
X561508Y86760D01*
X561508Y91040D01*
X564534Y94066D01*
X568814Y94066D01*
X570708Y92172D01*
X570782Y92119D01*
X570851Y92059D01*
X570881Y92047D01*
X570908Y92028D01*
X570994Y92001D01*
X571079Y91967D01*
X571120Y91963D01*
X571143Y91956D01*
X571175Y91957D01*
X571246Y91949D01*
X577342Y91949D01*
X577432Y91963D01*
X577523Y91971D01*
X577553Y91983D01*
X577585Y91988D01*
X577665Y92031D01*
X577749Y92067D01*
X577781Y92093D01*
X577802Y92104D01*
X577824Y92127D01*
X577880Y92172D01*
X579774Y94066D01*
X584054Y94066D01*
X585948Y92172D01*
X586022Y92119D01*
X586091Y92059D01*
X586121Y92047D01*
X586148Y92028D01*
X586234Y92001D01*
X586319Y91967D01*
X586360Y91963D01*
X586383Y91956D01*
X586415Y91957D01*
X586486Y91949D01*
X630428Y91949D01*
X630518Y91963D01*
X630609Y91971D01*
X630639Y91983D01*
X630671Y91988D01*
X630751Y92031D01*
X630835Y92067D01*
X630867Y92093D01*
X630888Y92104D01*
X630910Y92127D01*
X630966Y92172D01*
X632860Y94066D01*
X637140Y94066D01*
X640166Y91040D01*
X640166Y86760D01*
X637140Y83734D01*
X632860Y83734D01*
X630966Y85628D01*
X630892Y85681D01*
X630823Y85741D01*
X630793Y85753D01*
X630766Y85772D01*
X630680Y85799D01*
X630595Y85833D01*
X630554Y85837D01*
X630531Y85844D01*
X630499Y85843D01*
X630428Y85851D01*
X586486Y85851D01*
X586396Y85837D01*
X586305Y85829D01*
X586275Y85817D01*
X586243Y85812D01*
X586163Y85769D01*
X586079Y85733D01*
X586047Y85707D01*
X586026Y85696D01*
X586004Y85673D01*
X585948Y85628D01*
X584054Y83734D01*
X579774Y83734D01*
X577880Y85628D01*
X577806Y85681D01*
X577737Y85741D01*
X577707Y85753D01*
X577680Y85772D01*
X577594Y85799D01*
X577509Y85833D01*
X577468Y85837D01*
X577445Y85844D01*
X577413Y85843D01*
X577342Y85851D01*
X571246Y85851D01*
X571156Y85837D01*
X571065Y85829D01*
X571035Y85817D01*
X571003Y85812D01*
X570923Y85769D01*
X570839Y85733D01*
X570807Y85707D01*
X570786Y85696D01*
X570764Y85673D01*
X570708Y85628D01*
X568814Y83734D01*
X564534Y83734D01*
G37*
%LPD*%
%LPC*%
G36*
X381433Y103047D02*
X381433Y103047D01*
X381433Y126488D01*
X381673Y127384D01*
X382138Y128188D01*
X382794Y128844D01*
X383598Y129309D01*
X384494Y129549D01*
X401435Y129549D01*
X401435Y103047D01*
X381433Y103047D01*
G37*
%LPD*%
%LPC*%
G36*
X384494Y73499D02*
X384494Y73499D01*
X383598Y73739D01*
X382794Y74204D01*
X382138Y74860D01*
X381673Y75664D01*
X381433Y76560D01*
X381433Y100001D01*
X401435Y100001D01*
X401435Y73499D01*
X384494Y73499D01*
G37*
%LPD*%
%LPC*%
G36*
X273481Y103047D02*
X273481Y103047D01*
X273481Y116049D01*
X288030Y116049D01*
X288748Y115856D01*
X289393Y115484D01*
X289918Y114958D01*
X290162Y114537D01*
X290236Y114446D01*
X290312Y114352D01*
X290315Y114349D01*
X290318Y114346D01*
X290417Y114284D01*
X290519Y114219D01*
X290523Y114218D01*
X290526Y114215D01*
X290642Y114188D01*
X290757Y114159D01*
X290761Y114159D01*
X290765Y114158D01*
X290883Y114168D01*
X291002Y114178D01*
X291006Y114179D01*
X291010Y114180D01*
X291118Y114227D01*
X291229Y114274D01*
X291232Y114277D01*
X291235Y114278D01*
X291246Y114288D01*
X291360Y114379D01*
X291485Y114504D01*
X292106Y114863D01*
X292799Y115049D01*
X310435Y115049D01*
X310435Y103047D01*
X273481Y103047D01*
G37*
%LPD*%
%LPC*%
G36*
X273481Y86999D02*
X273481Y86999D01*
X273481Y100001D01*
X310435Y100001D01*
X310435Y87999D01*
X292799Y87999D01*
X292106Y88185D01*
X291485Y88544D01*
X291360Y88669D01*
X291263Y88739D01*
X291167Y88809D01*
X291163Y88810D01*
X291160Y88813D01*
X291045Y88848D01*
X290933Y88884D01*
X290929Y88884D01*
X290925Y88885D01*
X290806Y88882D01*
X290687Y88880D01*
X290683Y88879D01*
X290679Y88879D01*
X290568Y88838D01*
X290455Y88798D01*
X290452Y88796D01*
X290448Y88794D01*
X290356Y88721D01*
X290261Y88647D01*
X290258Y88643D01*
X290256Y88641D01*
X290248Y88629D01*
X290162Y88511D01*
X289918Y88090D01*
X289393Y87564D01*
X288748Y87192D01*
X288030Y86999D01*
X273481Y86999D01*
G37*
%LPD*%
%LPC*%
G36*
X607444Y164845D02*
X607444Y164845D01*
X606551Y165738D01*
X606551Y179702D01*
X607444Y180595D01*
X634108Y180595D01*
X635001Y179702D01*
X635001Y165738D01*
X634108Y164845D01*
X607444Y164845D01*
G37*
%LPD*%
%LPC*%
G36*
X606936Y22605D02*
X606936Y22605D01*
X606043Y23498D01*
X606043Y37462D01*
X606936Y38355D01*
X633600Y38355D01*
X634493Y37462D01*
X634493Y23498D01*
X633600Y22605D01*
X606936Y22605D01*
G37*
%LPD*%
%LPC*%
G36*
X641242Y185414D02*
X641242Y185414D01*
X640624Y186033D01*
X640549Y186086D01*
X640547Y186088D01*
X640481Y186145D01*
X640480Y186145D01*
X640479Y186146D01*
X640450Y186158D01*
X640424Y186176D01*
X640336Y186203D01*
X640251Y186237D01*
X640211Y186242D01*
X640189Y186249D01*
X640157Y186248D01*
X640084Y186256D01*
X599789Y186187D01*
X599775Y186185D01*
X598936Y186185D01*
X598846Y186170D01*
X598755Y186163D01*
X598725Y186151D01*
X598693Y186145D01*
X598612Y186103D01*
X598529Y186067D01*
X598496Y186041D01*
X598476Y186030D01*
X598454Y186007D01*
X598398Y185962D01*
X598278Y185842D01*
X593998Y185842D01*
X590972Y188868D01*
X590972Y193148D01*
X593998Y196174D01*
X598278Y196174D01*
X601304Y193148D01*
X601304Y192034D01*
X601307Y192014D01*
X601305Y191993D01*
X601327Y191893D01*
X601343Y191791D01*
X601353Y191773D01*
X601358Y191753D01*
X601410Y191665D01*
X601459Y191574D01*
X601473Y191560D01*
X601484Y191542D01*
X601562Y191475D01*
X601637Y191405D01*
X601656Y191396D01*
X601671Y191383D01*
X601767Y191344D01*
X601860Y191301D01*
X601880Y191299D01*
X601900Y191291D01*
X602066Y191273D01*
X637456Y191333D01*
X637475Y191336D01*
X637494Y191334D01*
X637596Y191356D01*
X637699Y191373D01*
X637716Y191382D01*
X637735Y191386D01*
X637824Y191439D01*
X637916Y191488D01*
X637929Y191502D01*
X637946Y191512D01*
X638014Y191591D01*
X638085Y191667D01*
X638093Y191684D01*
X638106Y191699D01*
X638145Y191796D01*
X638188Y191890D01*
X638191Y191909D01*
X638198Y191927D01*
X638216Y192094D01*
X638216Y192720D01*
X641242Y195746D01*
X645522Y195746D01*
X648548Y192720D01*
X648548Y188440D01*
X645522Y185414D01*
X641242Y185414D01*
G37*
%LPD*%
%LPC*%
G36*
X342109Y117659D02*
X342109Y117659D01*
X339961Y119807D01*
X339887Y119860D01*
X339818Y119920D01*
X339788Y119932D01*
X339761Y119951D01*
X339675Y119978D01*
X339590Y120012D01*
X339549Y120016D01*
X339526Y120023D01*
X339494Y120022D01*
X339423Y120030D01*
X305959Y120030D01*
X305869Y120016D01*
X305778Y120008D01*
X305748Y119996D01*
X305716Y119991D01*
X305636Y119948D01*
X305552Y119912D01*
X305520Y119886D01*
X305499Y119875D01*
X305495Y119872D01*
X305476Y119851D01*
X305421Y119807D01*
X304527Y118913D01*
X300247Y118913D01*
X297221Y121939D01*
X297221Y126219D01*
X300247Y129245D01*
X304527Y129245D01*
X307585Y126187D01*
X307592Y126138D01*
X307602Y126121D01*
X307606Y126101D01*
X307659Y126012D01*
X307708Y125921D01*
X307722Y125907D01*
X307732Y125890D01*
X307811Y125823D01*
X307886Y125751D01*
X307904Y125743D01*
X307919Y125730D01*
X308015Y125691D01*
X308109Y125648D01*
X308129Y125646D01*
X308147Y125638D01*
X308314Y125620D01*
X339423Y125620D01*
X339513Y125634D01*
X339604Y125642D01*
X339634Y125654D01*
X339666Y125659D01*
X339746Y125702D01*
X339830Y125738D01*
X339862Y125764D01*
X339883Y125775D01*
X339905Y125798D01*
X339961Y125843D01*
X342109Y127991D01*
X346389Y127991D01*
X349415Y124965D01*
X349415Y120685D01*
X346389Y117659D01*
X342109Y117659D01*
G37*
%LPD*%
%LPC*%
G36*
X313481Y103047D02*
X313481Y103047D01*
X313481Y115049D01*
X331117Y115049D01*
X331810Y114863D01*
X332431Y114504D01*
X332938Y113997D01*
X333297Y113376D01*
X333483Y112683D01*
X333483Y103047D01*
X313481Y103047D01*
G37*
%LPD*%
%LPC*%
G36*
X313481Y100001D02*
X313481Y100001D01*
X333483Y100001D01*
X333483Y90365D01*
X333297Y89672D01*
X332938Y89051D01*
X332431Y88544D01*
X331810Y88185D01*
X331117Y87999D01*
X313481Y87999D01*
X313481Y100001D01*
G37*
%LPD*%
%LPC*%
G36*
X192531Y174082D02*
X192531Y174082D01*
X192531Y196162D01*
X201888Y196162D01*
X202448Y195930D01*
X202877Y195501D01*
X203109Y194941D01*
X203109Y174082D01*
X192531Y174082D01*
G37*
%LPD*%
%LPC*%
G36*
X192531Y148956D02*
X192531Y148956D01*
X192531Y171036D01*
X203109Y171036D01*
X203109Y150177D01*
X202877Y149617D01*
X202448Y149188D01*
X201888Y148956D01*
X192531Y148956D01*
G37*
%LPD*%
%LPC*%
G36*
X178907Y174082D02*
X178907Y174082D01*
X178907Y194941D01*
X179139Y195501D01*
X179568Y195930D01*
X180128Y196162D01*
X189485Y196162D01*
X189485Y174082D01*
X178907Y174082D01*
G37*
%LPD*%
%LPC*%
G36*
X180128Y148956D02*
X180128Y148956D01*
X179568Y149188D01*
X179139Y149617D01*
X178907Y150177D01*
X178907Y171036D01*
X189485Y171036D01*
X189485Y148956D01*
X180128Y148956D01*
G37*
%LPD*%
%LPC*%
G36*
X253433Y103047D02*
X253433Y103047D01*
X253433Y113596D01*
X253626Y114314D01*
X253998Y114959D01*
X254523Y115484D01*
X255168Y115856D01*
X255886Y116049D01*
X270435Y116049D01*
X270435Y103047D01*
X253433Y103047D01*
G37*
%LPD*%
%LPC*%
G36*
X255886Y86999D02*
X255886Y86999D01*
X255168Y87192D01*
X254523Y87564D01*
X253998Y88089D01*
X253626Y88734D01*
X253433Y89452D01*
X253433Y100001D01*
X270435Y100001D01*
X270435Y86999D01*
X255886Y86999D01*
G37*
%LPD*%
%LPC*%
G36*
X908155Y131307D02*
X908155Y131307D01*
X908155Y137707D01*
X908387Y138268D01*
X908816Y138697D01*
X909377Y138929D01*
X928477Y138929D01*
X928477Y131307D01*
X908155Y131307D01*
G37*
%LPD*%
%LPC*%
G36*
X908155Y80507D02*
X908155Y80507D01*
X908155Y86907D01*
X908387Y87468D01*
X908816Y87897D01*
X909377Y88129D01*
X928477Y88129D01*
X928477Y80507D01*
X908155Y80507D01*
G37*
%LPD*%
%LPC*%
G36*
X909377Y69839D02*
X909377Y69839D01*
X908816Y70071D01*
X908387Y70500D01*
X908155Y71061D01*
X908155Y77461D01*
X928477Y77461D01*
X928477Y69839D01*
X909377Y69839D01*
G37*
%LPD*%
%LPC*%
G36*
X909377Y120639D02*
X909377Y120639D01*
X908816Y120871D01*
X908387Y121300D01*
X908155Y121861D01*
X908155Y128261D01*
X928477Y128261D01*
X928477Y120639D01*
X909377Y120639D01*
G37*
%LPD*%
%LPC*%
G36*
X261523Y178523D02*
X261523Y178523D01*
X261523Y190525D01*
X272303Y190525D01*
X272864Y190293D01*
X273293Y189864D01*
X273525Y189303D01*
X273525Y178523D01*
X261523Y178523D01*
G37*
%LPD*%
%LPC*%
G36*
X767733Y23875D02*
X767733Y23875D01*
X767733Y35877D01*
X778513Y35877D01*
X779074Y35645D01*
X779503Y35216D01*
X779735Y34655D01*
X779735Y23875D01*
X767733Y23875D01*
G37*
%LPD*%
%LPC*%
G36*
X246475Y178523D02*
X246475Y178523D01*
X246475Y189303D01*
X246707Y189864D01*
X247136Y190293D01*
X247697Y190525D01*
X258477Y190525D01*
X258477Y178523D01*
X246475Y178523D01*
G37*
%LPD*%
%LPC*%
G36*
X752685Y23875D02*
X752685Y23875D01*
X752685Y34655D01*
X752917Y35216D01*
X753346Y35645D01*
X753907Y35877D01*
X764687Y35877D01*
X764687Y23875D01*
X752685Y23875D01*
G37*
%LPD*%
%LPC*%
G36*
X261523Y163475D02*
X261523Y163475D01*
X261523Y175477D01*
X273525Y175477D01*
X273525Y164697D01*
X273293Y164136D01*
X272864Y163707D01*
X272303Y163475D01*
X261523Y163475D01*
G37*
%LPD*%
%LPC*%
G36*
X247697Y163475D02*
X247697Y163475D01*
X247136Y163707D01*
X246707Y164136D01*
X246475Y164697D01*
X246475Y175477D01*
X258477Y175477D01*
X258477Y163475D01*
X247697Y163475D01*
G37*
%LPD*%
%LPC*%
G36*
X918749Y97709D02*
X918749Y97709D01*
X916437Y98667D01*
X914667Y100437D01*
X913709Y102749D01*
X913709Y105251D01*
X914667Y107563D01*
X916437Y109333D01*
X918749Y110291D01*
X921251Y110291D01*
X923563Y109333D01*
X925333Y107563D01*
X926291Y105251D01*
X926291Y102749D01*
X925333Y100437D01*
X923563Y98667D01*
X921251Y97709D01*
X918749Y97709D01*
G37*
%LPD*%
%LPC*%
G36*
X335438Y15493D02*
X335438Y15493D01*
X333384Y16344D01*
X331812Y17916D01*
X330961Y19970D01*
X330961Y22194D01*
X331812Y24248D01*
X333384Y25820D01*
X335438Y26671D01*
X337662Y26671D01*
X339716Y25820D01*
X341288Y24248D01*
X342139Y22194D01*
X342139Y19970D01*
X341288Y17916D01*
X339716Y16344D01*
X337662Y15493D01*
X335438Y15493D01*
G37*
%LPD*%
%LPC*%
G36*
X322738Y15493D02*
X322738Y15493D01*
X320684Y16344D01*
X319112Y17916D01*
X318261Y19970D01*
X318261Y22194D01*
X319112Y24248D01*
X320684Y25820D01*
X322738Y26671D01*
X324962Y26671D01*
X327016Y25820D01*
X328588Y24248D01*
X329439Y22194D01*
X329439Y19970D01*
X328588Y17916D01*
X327016Y16344D01*
X324962Y15493D01*
X322738Y15493D01*
G37*
%LPD*%
%LPC*%
G36*
X310038Y15493D02*
X310038Y15493D01*
X307984Y16344D01*
X306412Y17916D01*
X305561Y19970D01*
X305561Y22194D01*
X306412Y24248D01*
X307984Y25820D01*
X310038Y26671D01*
X312262Y26671D01*
X314316Y25820D01*
X315888Y24248D01*
X316739Y22194D01*
X316739Y19970D01*
X315888Y17916D01*
X314316Y16344D01*
X312262Y15493D01*
X310038Y15493D01*
G37*
%LPD*%
%LPC*%
G36*
X746047Y185431D02*
X746047Y185431D01*
X746047Y191783D01*
X757527Y191783D01*
X758088Y191551D01*
X758517Y191122D01*
X758749Y190561D01*
X758749Y185431D01*
X746047Y185431D01*
G37*
%LPD*%
%LPC*%
G36*
X730299Y185431D02*
X730299Y185431D01*
X730299Y190561D01*
X730531Y191122D01*
X730960Y191551D01*
X731521Y191783D01*
X743001Y191783D01*
X743001Y185431D01*
X730299Y185431D01*
G37*
%LPD*%
%LPC*%
G36*
X746047Y176033D02*
X746047Y176033D01*
X746047Y182385D01*
X758749Y182385D01*
X758749Y177255D01*
X758517Y176694D01*
X758088Y176265D01*
X757527Y176033D01*
X746047Y176033D01*
G37*
%LPD*%
%LPC*%
G36*
X731521Y176033D02*
X731521Y176033D01*
X730960Y176265D01*
X730531Y176694D01*
X730299Y177255D01*
X730299Y182385D01*
X743001Y182385D01*
X743001Y176033D01*
X731521Y176033D01*
G37*
%LPD*%
%LPC*%
G36*
X221549Y20471D02*
X221549Y20471D01*
X221549Y29766D01*
X222584Y29602D01*
X224219Y29070D01*
X225751Y28290D01*
X227142Y27279D01*
X228357Y26064D01*
X229368Y24673D01*
X230148Y23141D01*
X230680Y21506D01*
X230844Y20471D01*
X221549Y20471D01*
G37*
%LPD*%
%LPC*%
G36*
X209208Y20471D02*
X209208Y20471D01*
X209372Y21506D01*
X209904Y23141D01*
X210684Y24673D01*
X211695Y26064D01*
X212910Y27279D01*
X214301Y28290D01*
X215833Y29070D01*
X217468Y29602D01*
X218503Y29766D01*
X218503Y20471D01*
X209208Y20471D01*
G37*
%LPD*%
%LPC*%
G36*
X221549Y17425D02*
X221549Y17425D01*
X230844Y17425D01*
X230680Y16390D01*
X230148Y14755D01*
X229368Y13223D01*
X228357Y11832D01*
X227142Y10617D01*
X225751Y9606D01*
X224219Y8826D01*
X222584Y8294D01*
X221549Y8130D01*
X221549Y17425D01*
G37*
%LPD*%
%LPC*%
G36*
X217468Y8294D02*
X217468Y8294D01*
X215833Y8826D01*
X214301Y9606D01*
X212910Y10617D01*
X211695Y11832D01*
X210684Y13223D01*
X209904Y14755D01*
X209372Y16390D01*
X209208Y17425D01*
X218503Y17425D01*
X218503Y8130D01*
X217468Y8294D01*
G37*
%LPD*%
%LPC*%
G36*
X540383Y191165D02*
X540383Y191165D01*
X540383Y196296D01*
X541017Y196170D01*
X542205Y195678D01*
X543273Y194964D01*
X544182Y194055D01*
X544831Y193084D01*
X544862Y193051D01*
X544886Y193011D01*
X544946Y192961D01*
X544999Y192904D01*
X545039Y192883D01*
X545074Y192853D01*
X545147Y192824D01*
X545215Y192787D01*
X545261Y192780D01*
X545303Y192763D01*
X545381Y192759D01*
X545458Y192746D01*
X545503Y192753D01*
X545549Y192750D01*
X545624Y192772D01*
X545701Y192783D01*
X545742Y192805D01*
X545786Y192817D01*
X545850Y192861D01*
X545919Y192897D01*
X545951Y192930D01*
X545989Y192956D01*
X546077Y193061D01*
X546090Y193074D01*
X546092Y193078D01*
X546097Y193084D01*
X546746Y194055D01*
X547655Y194964D01*
X548723Y195678D01*
X549911Y196170D01*
X550545Y196296D01*
X550545Y191165D01*
X540383Y191165D01*
G37*
%LPD*%
%LPC*%
G36*
X931523Y41523D02*
X931523Y41523D01*
X931523Y48632D01*
X932556Y48427D01*
X934151Y47766D01*
X935587Y46807D01*
X936807Y45587D01*
X937766Y44151D01*
X938427Y42556D01*
X938632Y41523D01*
X931523Y41523D01*
G37*
%LPD*%
%LPC*%
G36*
X931523Y181523D02*
X931523Y181523D01*
X931523Y188632D01*
X932556Y188427D01*
X934151Y187766D01*
X935587Y186807D01*
X936807Y185587D01*
X937766Y184151D01*
X938427Y182556D01*
X938632Y181523D01*
X931523Y181523D01*
G37*
%LPD*%
%LPC*%
G36*
X931523Y38477D02*
X931523Y38477D01*
X938632Y38477D01*
X938427Y37444D01*
X937766Y35849D01*
X936807Y34413D01*
X935587Y33193D01*
X934151Y32234D01*
X932556Y31573D01*
X931523Y31368D01*
X931523Y38477D01*
G37*
%LPD*%
%LPC*%
G36*
X931523Y178477D02*
X931523Y178477D01*
X938632Y178477D01*
X938427Y177444D01*
X937766Y175849D01*
X936807Y174413D01*
X935587Y173193D01*
X934151Y172234D01*
X932556Y171573D01*
X931523Y171368D01*
X931523Y178477D01*
G37*
%LPD*%
%LPC*%
G36*
X921368Y181523D02*
X921368Y181523D01*
X921573Y182556D01*
X922234Y184151D01*
X923193Y185587D01*
X924413Y186807D01*
X925849Y187766D01*
X927444Y188427D01*
X928477Y188632D01*
X928477Y181523D01*
X921368Y181523D01*
G37*
%LPD*%
%LPC*%
G36*
X927444Y171573D02*
X927444Y171573D01*
X925849Y172234D01*
X924413Y173193D01*
X923193Y174413D01*
X922234Y175849D01*
X921573Y177444D01*
X921368Y178477D01*
X928477Y178477D01*
X928477Y171368D01*
X927444Y171573D01*
G37*
%LPD*%
%LPC*%
G36*
X507314Y191165D02*
X507314Y191165D01*
X507440Y191799D01*
X507932Y192987D01*
X508646Y194055D01*
X509555Y194964D01*
X510623Y195678D01*
X511811Y196170D01*
X512445Y196296D01*
X512445Y191165D01*
X507314Y191165D01*
G37*
%LPD*%
%LPC*%
G36*
X413999Y22331D02*
X413999Y22331D01*
X413999Y26671D01*
X417117Y26671D01*
X417678Y26439D01*
X418107Y26010D01*
X418339Y25449D01*
X418339Y22331D01*
X413999Y22331D01*
G37*
%LPD*%
%LPC*%
G36*
X407161Y22331D02*
X407161Y22331D01*
X407161Y25449D01*
X407393Y26010D01*
X407822Y26439D01*
X408383Y26671D01*
X411501Y26671D01*
X411501Y22331D01*
X407161Y22331D01*
G37*
%LPD*%
%LPC*%
G36*
X908884Y39023D02*
X908884Y39023D01*
X908974Y39476D01*
X909484Y40709D01*
X910226Y41819D01*
X911169Y42762D01*
X912279Y43504D01*
X913512Y44014D01*
X913965Y44104D01*
X913965Y39023D01*
X908884Y39023D01*
G37*
%LPD*%
%LPC*%
G36*
X299699Y22331D02*
X299699Y22331D01*
X299699Y26532D01*
X300080Y26456D01*
X301097Y26035D01*
X302013Y25423D01*
X302791Y24645D01*
X303403Y23729D01*
X303824Y22712D01*
X303900Y22331D01*
X299699Y22331D01*
G37*
%LPD*%
%LPC*%
G36*
X293000Y22331D02*
X293000Y22331D01*
X293076Y22712D01*
X293497Y23729D01*
X294109Y24645D01*
X294887Y25423D01*
X295803Y26035D01*
X296820Y26456D01*
X297201Y26532D01*
X297201Y22331D01*
X293000Y22331D01*
G37*
%LPD*%
%LPC*%
G36*
X299699Y19833D02*
X299699Y19833D01*
X303900Y19833D01*
X303824Y19452D01*
X303403Y18435D01*
X302791Y17519D01*
X302013Y16741D01*
X301097Y16129D01*
X300080Y15708D01*
X299699Y15632D01*
X299699Y19833D01*
G37*
%LPD*%
%LPC*%
G36*
X296820Y15708D02*
X296820Y15708D01*
X295803Y16129D01*
X294887Y16741D01*
X294109Y17519D01*
X293497Y18435D01*
X293076Y19452D01*
X293000Y19833D01*
X297201Y19833D01*
X297201Y15632D01*
X296820Y15708D01*
G37*
%LPD*%
%LPC*%
G36*
X929999Y179999D02*
X929999Y179999D01*
X929999Y180001D01*
X930001Y180001D01*
X930001Y179999D01*
X929999Y179999D01*
G37*
%LPD*%
%LPC*%
G36*
X220025Y18947D02*
X220025Y18947D01*
X220025Y18949D01*
X220027Y18949D01*
X220027Y18947D01*
X220025Y18947D01*
G37*
%LPD*%
%LPC*%
G36*
X271957Y101523D02*
X271957Y101523D01*
X271957Y101525D01*
X271959Y101525D01*
X271959Y101523D01*
X271957Y101523D01*
G37*
%LPD*%
%LPC*%
G36*
X311957Y101523D02*
X311957Y101523D01*
X311957Y101525D01*
X311959Y101525D01*
X311959Y101523D01*
X311957Y101523D01*
G37*
%LPD*%
%LPC*%
G36*
X402957Y101523D02*
X402957Y101523D01*
X402957Y101525D01*
X402959Y101525D01*
X402959Y101523D01*
X402957Y101523D01*
G37*
%LPD*%
%LPC*%
G36*
X191007Y172558D02*
X191007Y172558D01*
X191007Y172560D01*
X191009Y172560D01*
X191009Y172558D01*
X191007Y172558D01*
G37*
%LPD*%
%LPC*%
G36*
X259999Y176999D02*
X259999Y176999D01*
X259999Y177001D01*
X260001Y177001D01*
X260001Y176999D01*
X259999Y176999D01*
G37*
%LPD*%
%LPC*%
G36*
X744523Y183907D02*
X744523Y183907D01*
X744523Y183909D01*
X744525Y183909D01*
X744525Y183907D01*
X744523Y183907D01*
G37*
%LPD*%
D10*
X270826Y44348D03*
X270826Y18948D03*
X245426Y46888D03*
X245426Y21488D03*
X220026Y44348D03*
X220026Y18948D03*
D11*
X412750Y21082D03*
D12*
X400050Y21082D03*
X387350Y21082D03*
X374650Y21082D03*
X361950Y21082D03*
X349250Y21082D03*
X336550Y21082D03*
X323850Y21082D03*
X311150Y21082D03*
X298450Y21082D03*
D13*
X191008Y85505D03*
X191008Y172559D03*
D14*
X816210Y22352D03*
X766210Y22352D03*
D15*
X510668Y28626D03*
X744524Y183908D03*
X620268Y30480D03*
X620776Y172720D03*
D16*
X817758Y112324D02*
X817758Y90724D01*
X780158Y90724D01*
X780158Y112324D01*
X817758Y112324D01*
X817758Y93004D02*
X780158Y93004D01*
X780158Y95284D02*
X817758Y95284D01*
X817758Y97564D02*
X780158Y97564D01*
X780158Y99844D02*
X817758Y99844D01*
X817758Y102124D02*
X780158Y102124D01*
X780158Y104404D02*
X817758Y104404D01*
X817758Y106684D02*
X780158Y106684D01*
X780158Y108964D02*
X817758Y108964D01*
X817758Y111244D02*
X780158Y111244D01*
X293158Y112324D02*
X293158Y90724D01*
X293158Y112324D02*
X330758Y112324D01*
X330758Y90724D01*
X293158Y90724D01*
X293158Y93004D02*
X330758Y93004D01*
X330758Y95284D02*
X293158Y95284D01*
X293158Y97564D02*
X330758Y97564D01*
X330758Y99844D02*
X293158Y99844D01*
X293158Y102124D02*
X330758Y102124D01*
X330758Y104404D02*
X293158Y104404D01*
X293158Y106684D02*
X330758Y106684D01*
X330758Y108964D02*
X293158Y108964D01*
X293158Y111244D02*
X330758Y111244D01*
D17*
X649758Y77824D02*
X682158Y77824D01*
X649758Y77824D02*
X649758Y125224D01*
X682158Y125224D01*
X682158Y77824D01*
X682158Y81244D02*
X649758Y81244D01*
X649758Y84664D02*
X682158Y84664D01*
X682158Y88084D02*
X649758Y88084D01*
X649758Y91504D02*
X682158Y91504D01*
X682158Y94924D02*
X649758Y94924D01*
X649758Y98344D02*
X682158Y98344D01*
X682158Y101764D02*
X649758Y101764D01*
X649758Y105184D02*
X682158Y105184D01*
X682158Y108604D02*
X649758Y108604D01*
X649758Y112024D02*
X682158Y112024D01*
X682158Y115444D02*
X649758Y115444D01*
X649758Y118864D02*
X682158Y118864D01*
X682158Y122284D02*
X649758Y122284D01*
X461158Y125224D02*
X428758Y125224D01*
X461158Y125224D02*
X461158Y77824D01*
X428758Y77824D01*
X428758Y125224D01*
X428758Y81244D02*
X461158Y81244D01*
X461158Y84664D02*
X428758Y84664D01*
X428758Y88084D02*
X461158Y88084D01*
X461158Y91504D02*
X428758Y91504D01*
X428758Y94924D02*
X461158Y94924D01*
X461158Y98344D02*
X428758Y98344D01*
X428758Y101764D02*
X461158Y101764D01*
X461158Y105184D02*
X428758Y105184D01*
X428758Y108604D02*
X461158Y108604D01*
X461158Y112024D02*
X428758Y112024D01*
X428758Y115444D02*
X461158Y115444D01*
X461158Y118864D02*
X428758Y118864D01*
X428758Y122284D02*
X461158Y122284D01*
D18*
X854658Y113224D02*
X854658Y89824D01*
X823258Y89824D01*
X823258Y113224D01*
X854658Y113224D01*
X854658Y92294D02*
X823258Y92294D01*
X823258Y94764D02*
X854658Y94764D01*
X854658Y97234D02*
X823258Y97234D01*
X823258Y99704D02*
X854658Y99704D01*
X854658Y102174D02*
X823258Y102174D01*
X823258Y104644D02*
X854658Y104644D01*
X854658Y107114D02*
X823258Y107114D01*
X823258Y109584D02*
X854658Y109584D01*
X854658Y112054D02*
X823258Y112054D01*
D19*
X725958Y77024D02*
X689958Y77024D01*
X689958Y126024D01*
X725958Y126024D01*
X725958Y77024D01*
X725958Y80824D02*
X689958Y80824D01*
X689958Y84624D02*
X725958Y84624D01*
X725958Y88424D02*
X689958Y88424D01*
X689958Y92224D02*
X725958Y92224D01*
X725958Y96024D02*
X689958Y96024D01*
X689958Y99824D02*
X725958Y99824D01*
X725958Y103624D02*
X689958Y103624D01*
X689958Y107424D02*
X725958Y107424D01*
X725958Y111224D02*
X689958Y111224D01*
X689958Y115024D02*
X725958Y115024D01*
X725958Y118824D02*
X689958Y118824D01*
X689958Y122624D02*
X725958Y122624D01*
X420958Y126024D02*
X384958Y126024D01*
X420958Y126024D02*
X420958Y77024D01*
X384958Y77024D01*
X384958Y126024D01*
X384958Y80824D02*
X420958Y80824D01*
X420958Y84624D02*
X384958Y84624D01*
X384958Y88424D02*
X420958Y88424D01*
X420958Y92224D02*
X384958Y92224D01*
X384958Y96024D02*
X420958Y96024D01*
X420958Y99824D02*
X384958Y99824D01*
X384958Y103624D02*
X420958Y103624D01*
X420958Y107424D02*
X384958Y107424D01*
X384958Y111224D02*
X420958Y111224D01*
X420958Y115024D02*
X384958Y115024D01*
X384958Y118824D02*
X420958Y118824D01*
X420958Y122624D02*
X384958Y122624D01*
D18*
X256258Y113224D02*
X256258Y89824D01*
X256258Y113224D02*
X287658Y113224D01*
X287658Y89824D01*
X256258Y89824D01*
X256258Y92294D02*
X287658Y92294D01*
X287658Y94764D02*
X256258Y94764D01*
X256258Y97234D02*
X287658Y97234D01*
X287658Y99704D02*
X256258Y99704D01*
X256258Y102174D02*
X287658Y102174D01*
X287658Y104644D02*
X256258Y104644D01*
X256258Y107114D02*
X287658Y107114D01*
X287658Y109584D02*
X256258Y109584D01*
X256258Y112054D02*
X287658Y112054D01*
D20*
X526414Y177196D03*
X539114Y177196D03*
X551814Y177196D03*
X564514Y177196D03*
X513714Y177196D03*
X526414Y189896D03*
X539114Y189896D03*
X551814Y189896D03*
X564514Y189896D03*
X513714Y189896D03*
D21*
X930000Y180000D03*
X930000Y160000D03*
D22*
X930000Y78984D03*
X930000Y129784D03*
D23*
X915488Y37500D03*
X915488Y22500D03*
D21*
X930000Y40000D03*
X930000Y20000D03*
D14*
X310000Y177000D03*
X260000Y177000D03*
D24*
X271958Y101524D02*
X311958Y101524D01*
X402958Y101524D02*
X444958Y101524D01*
D25*
X920000Y79000D03*
X920000Y130000D03*
D26*
X407162Y97320D02*
X402958Y101524D01*
D27*
X304762Y51984D03*
X266662Y69256D03*
X246342Y70018D03*
X225514Y70018D03*
X490258Y36744D03*
X490258Y20488D03*
X465874Y36744D03*
X465874Y20488D03*
X133350Y6350D03*
X133350Y19050D03*
X133350Y31750D03*
X133350Y44450D03*
X133350Y57150D03*
X133350Y69850D03*
X133350Y82550D03*
X133350Y95250D03*
X133350Y107950D03*
X133350Y120650D03*
X133350Y133350D03*
X133350Y146050D03*
X146304Y169164D03*
X145034Y152400D03*
X145034Y139954D03*
X145288Y125476D03*
X131826Y169164D03*
X131826Y185928D03*
X146304Y185928D03*
X139192Y185928D03*
X131826Y195326D03*
X148336Y195326D03*
X131826Y158750D03*
X146304Y162560D03*
X139192Y158750D03*
X146050Y44450D03*
X152400Y38100D03*
X165100Y50800D03*
X171450Y19050D03*
X171450Y6350D03*
X203200Y6350D03*
X203200Y31750D03*
X203200Y44450D03*
X203200Y56388D03*
X180848Y31750D03*
X231902Y6350D03*
X244856Y6350D03*
X233426Y34290D03*
X279400Y31750D03*
X292100Y31750D03*
X285750Y68580D03*
X174498Y193802D03*
X174498Y181102D03*
X174498Y168402D03*
X174498Y155702D03*
X174498Y143002D03*
X174498Y130302D03*
X174498Y117602D03*
X174498Y97790D03*
X237998Y193802D03*
X237998Y181102D03*
X237998Y168402D03*
X237998Y155702D03*
X225298Y193802D03*
X212598Y193802D03*
X206248Y193802D03*
X218948Y193802D03*
X231648Y193802D03*
X237998Y187452D03*
X237998Y174752D03*
X237998Y162052D03*
X174498Y187452D03*
X174498Y174752D03*
X174498Y162052D03*
X174498Y149352D03*
X174498Y136652D03*
X174498Y123952D03*
X174498Y111252D03*
X174498Y104902D03*
X237998Y123952D03*
X237998Y104902D03*
X237998Y98552D03*
X180848Y143002D03*
X187198Y143002D03*
X193548Y143002D03*
X199898Y143002D03*
X206248Y143002D03*
X212598Y143002D03*
X218948Y143002D03*
X225298Y143002D03*
X180848Y117602D03*
X187198Y117602D03*
X193548Y117602D03*
X199898Y117602D03*
X206248Y117602D03*
X212598Y117602D03*
X218948Y117602D03*
X225298Y117602D03*
X231648Y117602D03*
X237998Y117602D03*
X231648Y104902D03*
X225298Y104902D03*
X219202Y104902D03*
X213106Y104902D03*
X207010Y99060D03*
X207010Y92710D03*
X171450Y78740D03*
X225298Y123952D03*
X225298Y130302D03*
X225298Y136652D03*
X225298Y149352D03*
X225298Y155702D03*
X231648Y155702D03*
X231648Y174752D03*
X225298Y174752D03*
X218948Y174752D03*
X212598Y174752D03*
X206248Y174752D03*
X267462Y195326D03*
X281178Y195326D03*
X302768Y195326D03*
X315468Y195326D03*
X328168Y195326D03*
X354330Y195326D03*
X394970Y195326D03*
X466852Y195326D03*
X484124Y195326D03*
X574802Y195326D03*
X651002Y195326D03*
X619506Y195326D03*
X663702Y195326D03*
X689610Y195326D03*
X673354Y195326D03*
X701548Y193802D03*
X714248Y193802D03*
X726948Y193802D03*
X739648Y194818D03*
X752348Y194818D03*
X765048Y193802D03*
X777748Y193802D03*
X790448Y193802D03*
X803148Y193802D03*
X815848Y190246D03*
X828548Y192532D03*
X841248Y193548D03*
X853948Y193548D03*
X866394Y193548D03*
X878840Y193294D03*
X885190Y192786D03*
X834898Y193040D03*
X847598Y193548D03*
X860044Y193548D03*
X872744Y193548D03*
X822198Y192532D03*
X812800Y184404D03*
X813816Y178308D03*
X813816Y172212D03*
X839978Y172720D03*
X847090Y172720D03*
X853694Y172720D03*
X860044Y172720D03*
X866648Y172720D03*
X873252Y172720D03*
X890778Y188468D03*
X895858Y183388D03*
X900430Y178816D03*
X904494Y173482D03*
X905510Y166878D03*
X905510Y160274D03*
X905510Y132080D03*
X905510Y126238D03*
X905510Y120396D03*
X905002Y114554D03*
X911098Y117348D03*
X917448Y117348D03*
X923798Y117348D03*
X930148Y117348D03*
X936498Y117348D03*
X942848Y117348D03*
X905002Y93726D03*
X905510Y138176D03*
X879348Y170434D03*
X883920Y165862D03*
X884682Y159766D03*
X884682Y153670D03*
X884682Y138176D03*
X884682Y131572D03*
X884682Y124968D03*
X884682Y118364D03*
X884682Y111506D03*
X884682Y103886D03*
X884682Y97536D03*
X884682Y91186D03*
X884682Y85090D03*
X884682Y78740D03*
X884682Y72390D03*
X884682Y66294D03*
X884682Y60198D03*
X884682Y54356D03*
X884682Y48768D03*
X884682Y42926D03*
X880872Y29464D03*
X842010Y22860D03*
X842010Y16510D03*
X843026Y10160D03*
X849376Y7620D03*
X855726Y7620D03*
X862076Y7620D03*
X868426Y7620D03*
X874776Y7620D03*
X882142Y8636D03*
X889254Y9398D03*
X894588Y13716D03*
X899668Y18796D03*
X904240Y23876D03*
X901700Y6604D03*
X905256Y42164D03*
X905256Y48514D03*
X905256Y55372D03*
X905510Y87630D03*
X905510Y81534D03*
X905510Y75184D03*
X905510Y69088D03*
X911098Y91440D03*
X917448Y91440D03*
X923798Y91440D03*
X930148Y91440D03*
X936498Y91440D03*
X942848Y91440D03*
D28*
X941594Y191548D03*
D27*
X942594Y142748D03*
X923544Y142748D03*
X910844Y193548D03*
X942594Y66548D03*
X923544Y66548D03*
X917448Y6350D03*
D28*
X941594Y7842D03*
D27*
X842264Y29210D03*
X842010Y42926D03*
X831850Y4826D03*
X819150Y4826D03*
X806450Y4826D03*
X787400Y57404D03*
X787400Y76454D03*
X800100Y76454D03*
X800100Y57404D03*
X812800Y57404D03*
X812800Y76454D03*
X749300Y19304D03*
X841248Y76454D03*
X841248Y130302D03*
X832358Y160274D03*
X812800Y120904D03*
X800100Y120904D03*
X787400Y120904D03*
X774700Y120904D03*
X762000Y120904D03*
X749300Y127254D03*
X736600Y139954D03*
X755650Y139954D03*
X768350Y139954D03*
X781050Y139700D03*
X793750Y136652D03*
X806450Y136652D03*
X819150Y130302D03*
X736600Y165100D03*
X768350Y165100D03*
X752348Y165100D03*
X701802Y178308D03*
X714502Y178308D03*
X727202Y178308D03*
X765302Y178308D03*
X778002Y178308D03*
X790702Y178308D03*
X803402Y178308D03*
X803402Y165608D03*
X815340Y165100D03*
X734822Y121158D03*
X733298Y84074D03*
X744220Y112268D03*
X741172Y75946D03*
X746252Y91186D03*
X764286Y90932D03*
X736600Y19304D03*
X798068Y32004D03*
X793750Y44704D03*
X781050Y44704D03*
X806450Y44704D03*
X819150Y44704D03*
X831850Y44704D03*
X685800Y19304D03*
X663194Y5842D03*
X645922Y5842D03*
X635000Y51054D03*
X644398Y53848D03*
X598678Y22352D03*
X587248Y22098D03*
X574548Y22352D03*
X561848Y22352D03*
X552196Y22352D03*
X580898Y79502D03*
X593598Y79502D03*
X625348Y79502D03*
X638048Y79502D03*
X562102Y79502D03*
X549402Y79502D03*
X555498Y54102D03*
X527050Y50800D03*
X514350Y50800D03*
X494284Y81788D03*
X481330Y102362D03*
X495300Y100584D03*
X481076Y124206D03*
X511810Y84582D03*
X511810Y102108D03*
X512064Y119888D03*
X530098Y80772D03*
X532892Y22352D03*
X495300Y122428D03*
X530098Y117602D03*
X529590Y132588D03*
X553466Y121666D03*
X574040Y112014D03*
X573786Y96266D03*
X421424Y36744D03*
X374650Y88900D03*
X374650Y76200D03*
X454406Y71120D03*
X374650Y101600D03*
X374650Y114300D03*
X374650Y127000D03*
X386334Y133096D03*
X375920Y156210D03*
X412750Y153162D03*
X425450Y148336D03*
X434848Y157734D03*
X361950Y171958D03*
X330200Y159258D03*
X307340Y159258D03*
X323850Y150368D03*
X318262Y129286D03*
X331216Y129540D03*
X293878Y118110D03*
X280924Y119634D03*
X278130Y133350D03*
X278130Y150368D03*
X269240Y160020D03*
X278638Y172720D03*
X280670Y164084D03*
X314198Y82804D03*
X335026Y82804D03*
X324866Y82804D03*
X247142Y89662D03*
X225044Y88900D03*
X352552Y5080D03*
X206756Y104902D03*
X573532Y163576D03*
X591820Y163322D03*
X619760Y96012D03*
X615442Y124206D03*
X620014Y112522D03*
X648462Y181610D03*
X640842Y169164D03*
X638048Y163322D03*
X591566Y169672D03*
X595122Y182880D03*
X591438Y139049D03*
X784352Y31750D03*
X784352Y14224D03*
X796036Y16764D03*
X905510Y153670D03*
X398758Y154064D03*
D29*
X508634Y177196D02*
X513714Y177196D01*
D26*
X412982Y168288D02*
X398758Y154064D01*
X412982Y168288D02*
X412982Y189230D01*
X373228Y40538D02*
X304676Y40538D01*
X282578Y62636D01*
X220026Y45229D02*
X220026Y44348D01*
X237433Y62636D02*
X282578Y62636D01*
X237433Y62636D02*
X220026Y45229D01*
X373228Y40538D02*
X385826Y27940D01*
X397002Y21082D02*
X400050Y21082D01*
X397002Y21082D02*
X390144Y27940D01*
X385826Y27940D01*
X412982Y189230D02*
X449391Y189230D01*
D29*
X500833Y184997D02*
X508634Y177196D01*
X460333Y184997D02*
X459655Y184319D01*
X454302Y184319D01*
X449391Y189230D01*
X460333Y184997D02*
X500833Y184997D01*
D27*
X746760Y51308D03*
X684530Y52578D03*
D26*
X642515Y43434D02*
X642515Y22755D01*
X633730Y13970D01*
X390398Y13970D01*
X386080Y19812D02*
X387350Y21082D01*
X386080Y19812D02*
X386080Y18288D01*
X390398Y13970D01*
X684530Y49276D02*
X684530Y52578D01*
X684530Y49276D02*
X679704Y49276D01*
X675894Y45466D01*
X684530Y52578D02*
X684530Y52578D01*
X652441Y47329D02*
X646410Y47329D01*
X652441Y47329D02*
X654304Y45466D01*
X675894Y45466D01*
X646410Y47329D02*
X642515Y43434D01*
X281105Y58826D02*
X255975Y58826D01*
X281105Y58826D02*
X303355Y36576D01*
X371856Y36576D02*
X387350Y21082D01*
X371856Y36576D02*
X303355Y36576D01*
X255975Y58826D02*
X245426Y48277D01*
X245426Y46888D01*
X684530Y49276D02*
X688543Y49276D01*
X692607Y45212D01*
X745541Y45212D01*
X746760Y46431D01*
X746760Y51308D01*
D27*
X769366Y51308D03*
D26*
X767842Y49784D01*
X755396Y49784D01*
X747014Y41402D01*
X384556Y10414D02*
X374650Y20320D01*
X374650Y21082D01*
X646938Y38862D02*
X648970Y40894D01*
X646938Y38862D02*
X646938Y21590D01*
X635762Y10414D01*
X384556Y10414D01*
D27*
X648970Y40894D03*
D26*
X648336Y41528D01*
X677448Y41528D01*
X681471Y45551D01*
X691134Y41402D02*
X747014Y41402D01*
X691134Y41402D02*
X686985Y45551D01*
X681471Y45551D01*
X374650Y28390D02*
X374650Y21082D01*
X374650Y28390D02*
X370020Y33020D01*
X301458Y33020D02*
X281748Y52730D01*
X273366Y44348D01*
X270826Y44348D01*
X301458Y33020D02*
X370020Y33020D01*
D27*
X758190Y43180D03*
D26*
X754126Y43180D01*
X748538Y37592D01*
X685546Y37592D01*
X684276Y38862D02*
X684276Y39116D01*
X684276Y38862D02*
X685546Y37592D01*
D27*
X684276Y39116D03*
D26*
X651172Y33591D02*
X651172Y20383D01*
X637393Y6604D01*
X378968Y6604D01*
X364490Y21082D01*
X361950Y21082D01*
X651172Y33591D02*
X655221Y37640D01*
X682800Y37640D02*
X684276Y39116D01*
X682800Y37640D02*
X655221Y37640D01*
X361950Y21082D02*
X359664Y21082D01*
X345186Y6604D01*
X253746Y6604D01*
X245426Y14924D01*
X245426Y21488D01*
D27*
X436499Y69977D03*
X332232Y73406D03*
D26*
X433832Y67310D02*
X436499Y69977D01*
X433832Y67310D02*
X334264Y67310D01*
X332232Y69342D02*
X332232Y73406D01*
X332232Y69342D02*
X334264Y67310D01*
D27*
X444754Y70104D03*
X320040Y73406D03*
D26*
X444754Y70104D02*
X444754Y69037D01*
X439217Y63500D01*
X320040Y69291D02*
X320040Y73406D01*
X325831Y63500D02*
X439217Y63500D01*
X325831Y63500D02*
X320040Y69291D01*
D27*
X831850Y66802D03*
D30*
X648700Y66802D01*
D27*
X648700Y66802D03*
D30*
X349250Y21082D02*
X349250Y17272D01*
X342900Y10922D01*
X278892Y10922D01*
X270866Y18948D01*
X270826Y18948D01*
D27*
X344249Y122825D03*
D31*
X302371Y122825D01*
X301752Y123444D01*
X302387Y124079D01*
D27*
X302387Y124079D03*
X582422Y66802D03*
D30*
X648700Y66802D01*
D27*
X488950Y110236D03*
D30*
X582168Y66548D02*
X582422Y66802D01*
X582168Y66548D02*
X520321Y66548D01*
D27*
X457200Y190246D03*
D31*
X457200Y188722D01*
X494284Y188722D01*
D27*
X494284Y190924D03*
X412750Y133604D03*
D30*
X489966Y88900D02*
X497969Y88900D01*
X489966Y88900D02*
X488188Y90678D01*
D27*
X488188Y90678D03*
D30*
X497969Y88900D02*
X520321Y66548D01*
X415036Y131318D02*
X412750Y133604D01*
D27*
X516128Y129032D03*
D30*
X513842Y131318D01*
X488611Y131318D02*
X415036Y131318D01*
X488611Y131318D02*
X513842Y131318D01*
D31*
X494284Y188722D02*
X494284Y190924D01*
D30*
X488611Y131318D02*
X488611Y110575D01*
X488950Y110236D01*
D27*
X484936Y172716D03*
D29*
X486968Y174748D02*
X495096Y174748D01*
X486968Y174748D02*
X484936Y172716D01*
X495096Y174748D02*
X506268Y163576D01*
X522911Y163576D02*
X524514Y165056D01*
X522911Y163576D02*
X506268Y163576D01*
X524514Y165056D02*
X531882Y165078D01*
X533617Y166825D01*
X536194Y169402D01*
X542132Y169402D01*
X549926Y177196D02*
X551814Y177196D01*
X549926Y177196D02*
X542132Y169402D01*
D27*
X476504Y172805D03*
D29*
X476504Y172661D02*
X482376Y166789D01*
X476504Y172661D02*
X476504Y172805D01*
X503858Y160958D02*
X504383Y160432D01*
X503858Y160958D02*
X498026Y166789D01*
X482376Y166789D01*
X503858Y160958D02*
X504384Y160431D01*
X525114Y160431D02*
X526570Y161775D01*
X525114Y160431D02*
X504384Y160431D01*
X526570Y161775D02*
X533174Y161780D01*
X537493Y166100D01*
X543649Y166100D02*
X546951Y169402D01*
X555340Y169402D01*
X563134Y177196D02*
X564514Y177196D01*
X563134Y177196D02*
X555340Y169402D01*
X543649Y166100D02*
X537493Y166100D01*
D27*
X460756Y175260D03*
D29*
X496062Y178816D02*
X508254Y166624D01*
X496062Y178816D02*
X463550Y178816D01*
X460756Y176022D01*
X460756Y175260D01*
X508254Y166624D02*
X521190Y166624D01*
X539114Y177164D02*
X539114Y177196D01*
X523650Y168894D02*
X521190Y166624D01*
X523650Y168894D02*
X531124Y168894D01*
X539114Y177164D01*
D27*
X446532Y182626D03*
D29*
X510321Y169672D02*
X518890Y169672D01*
X510321Y169672D02*
X498129Y181864D01*
X518890Y169672D02*
X526414Y177196D01*
X498129Y181864D02*
X463550Y181864D01*
X461511Y181864D01*
X460918Y181271D01*
X447887Y181271D01*
X446532Y182626D01*
D27*
X736600Y30988D03*
D26*
X733806Y33782D01*
D27*
X657860Y23368D03*
D26*
X654982Y26246D01*
X654982Y31864D02*
X656948Y33830D01*
X654982Y31864D02*
X654982Y26246D01*
X680567Y33830D02*
X681716Y32681D01*
X686836Y32681D01*
X687937Y33782D01*
X680567Y33830D02*
X656948Y33830D01*
X687937Y33782D02*
X733806Y33782D01*
D27*
X736600Y59944D03*
D26*
X734060Y62484D01*
X654377Y62484D02*
X652260Y60367D01*
X644886Y60367D01*
X642769Y62484D01*
X587099Y62484D02*
X584982Y60367D01*
X579862Y60367D01*
X577745Y62484D01*
X654377Y62484D02*
X734060Y62484D01*
X642769Y62484D02*
X587099Y62484D01*
X577745Y62484D02*
X518338Y62484D01*
D27*
X489204Y73914D03*
D26*
X489204Y67056D02*
X494941Y67056D01*
X510887Y69935D02*
X518338Y62484D01*
X510887Y69935D02*
X497820Y69935D01*
X494941Y67056D01*
X489204Y67056D02*
X489204Y73914D01*
D27*
X683089Y184083D03*
D29*
X680938Y186234D01*
X679299Y186234D01*
X647243Y154178D01*
D27*
X430281Y182621D03*
D29*
X500579Y154178D02*
X647243Y154178D01*
X440020Y176445D02*
X435844Y176445D01*
X430281Y182008D02*
X430281Y182621D01*
X430281Y182008D02*
X435844Y176445D01*
X479297Y160528D02*
X494229Y160528D01*
X479297Y160528D02*
X476080Y163745D01*
X494229Y160528D02*
X500579Y154178D01*
X472109Y163745D02*
X469569Y166285D01*
X472109Y163745D02*
X476080Y163745D01*
X469569Y166285D02*
X457038Y166285D01*
X442814Y173651D02*
X440020Y176445D01*
X442814Y173651D02*
X449672Y173651D01*
X457038Y166285D01*
D27*
X838200Y152400D03*
D26*
X838200Y151384D01*
X788416Y145034D02*
X785114Y148336D01*
X681990Y148336D02*
X679704Y146050D01*
X681990Y148336D02*
X785114Y148336D01*
D27*
X679704Y146050D03*
D29*
X677164Y148590D01*
X654812Y148590D01*
X651256Y145034D01*
D27*
X435102Y148082D03*
D29*
X437134Y148082D02*
X440182Y145034D01*
X437134Y148082D02*
X435102Y148082D01*
X440182Y145034D02*
X651256Y145034D01*
D26*
X788416Y145034D02*
X831850Y145034D01*
X838200Y151384D01*
D27*
X822960Y156210D03*
D26*
X790758Y156210D01*
X788218Y158750D01*
X679704Y158750D01*
D27*
X679704Y158750D03*
D29*
X677926Y160528D01*
X662432Y160528D01*
X649986Y148082D01*
D27*
X442722Y151130D03*
D29*
X445770Y148082D02*
X649986Y148082D01*
X445770Y148082D02*
X442722Y151130D01*
D27*
X777660Y168948D03*
X679958Y171450D03*
D29*
X669036Y171450D01*
X648716Y151130D01*
X450850Y151130D02*
X450342Y151638D01*
X450342Y154178D01*
X450850Y151130D02*
X648716Y151130D01*
D27*
X450342Y154178D03*
D26*
X775159Y171450D02*
X777660Y168948D01*
X775159Y171450D02*
X679958Y171450D01*
D27*
X690967Y184168D03*
D29*
X686331Y190042D02*
X678529Y190042D01*
X690967Y185406D02*
X690967Y184168D01*
X690967Y185406D02*
X686331Y190042D01*
X678529Y190042D02*
X645713Y157226D01*
D27*
X438404Y182626D03*
D29*
X481068Y163576D02*
X496210Y163576D01*
X502560Y157226D02*
X645713Y157226D01*
X502560Y157226D02*
X496210Y163576D01*
X481068Y163576D02*
X477851Y166793D01*
X438404Y182118D02*
X438404Y182626D01*
X473880Y166793D02*
X477851Y166793D01*
X438404Y182372D02*
X438404Y182626D01*
X438404Y182372D02*
X444077Y176699D01*
X450935Y176699D01*
X458301Y169333D01*
X471340Y169333D01*
X473880Y166793D01*
D27*
X211836Y69850D03*
X508581Y63500D03*
D26*
X475640Y59690D02*
X464125Y48175D01*
X287220Y76962D02*
X218948Y76962D01*
X211836Y69850D01*
X287220Y76962D02*
X293655Y70527D01*
X296097Y70527D01*
X300584Y66040D01*
X302260Y66040D01*
X320125Y48175D01*
X464125Y48175D01*
X495449Y59690D02*
X497820Y57319D01*
X502940Y57319D01*
X508867Y63246D01*
X508835Y63246D01*
X508581Y63500D01*
X495449Y59690D02*
X475640Y59690D01*
D27*
X236220Y85852D03*
X500380Y63500D03*
D26*
X500126Y63246D01*
X473913Y63246D01*
X295128Y74337D02*
X288693Y80772D01*
X241300Y80772D01*
X236220Y85852D01*
X321552Y52070D02*
X462737Y52070D01*
X297570Y74337D02*
X295128Y74337D01*
X297570Y74337D02*
X302057Y69850D01*
X303772Y69850D01*
X321552Y52070D01*
X462737Y52070D02*
X473913Y63246D01*
D27*
X297942Y80518D03*
D26*
X305499Y73406D02*
X323025Y55880D01*
X304038Y73406D02*
X297434Y80010D01*
X304038Y73406D02*
X305499Y73406D01*
X297942Y80518D02*
X297434Y80010D01*
X457200Y55880D02*
X460502Y59182D01*
X457200Y55880D02*
X323025Y55880D01*
D27*
X460502Y59182D03*
X306070Y80518D03*
D26*
X306070Y78232D02*
X324612Y59690D01*
X306070Y78232D02*
X306070Y80518D01*
X458077Y65786D02*
X470916Y65786D01*
X458077Y65786D02*
X451981Y59690D01*
X324612Y59690D01*
D27*
X481076Y73914D03*
D26*
X472186Y67056D02*
X470916Y65786D01*
X472186Y67056D02*
X481076Y67056D01*
X481076Y73914D01*
D27*
X234950Y133350D03*
D26*
X234950Y135096D01*
X239554Y139700D01*
X365676Y139700D01*
X368300Y142324D02*
X369570Y142324D01*
X368300Y142324D02*
X365676Y139700D01*
D27*
X369570Y142324D03*
X234950Y147320D03*
D26*
X236982Y143510D02*
X361696Y143510D01*
X368554Y150368D02*
X369570Y150368D01*
X368554Y150368D02*
X361696Y143510D01*
D27*
X369570Y150368D03*
D26*
X236982Y143510D02*
X234950Y145542D01*
X234950Y147320D01*
D27*
X187452Y40844D03*
D26*
X161956Y40844D01*
X152400Y50400D01*
D27*
X152400Y50400D03*
D26*
X152400Y69450D02*
X167947Y84997D01*
X152400Y69450D02*
X152400Y50400D01*
X190500Y84997D02*
X191008Y85505D01*
X190500Y84997D02*
X167947Y84997D01*
D27*
X273050Y124605D03*
D26*
X256928Y124605D01*
X243656Y111333D01*
X191008Y111333D01*
X191008Y85505D01*
D27*
X288459Y127000D03*
D26*
X296587Y135890D02*
X360913Y135890D01*
X296587Y135890D02*
X288459Y127762D01*
X288459Y127000D01*
X370078Y134534D02*
X370078Y135042D01*
X370078Y134534D02*
X369570Y134026D01*
X370078Y135042D02*
X369251Y135869D01*
X360934Y135869D01*
X360913Y135890D01*
D27*
X369570Y134026D03*
X544068Y30734D03*
D30*
X542722Y29388D01*
X511430Y29388D01*
X510668Y28626D01*
D26*
X333784Y165539D02*
X329713Y165539D01*
D29*
X311150Y177000D02*
X310000Y177000D01*
X311150Y177000D02*
X318252Y177000D01*
D26*
X329713Y165539D01*
X333784Y165539D02*
X336763Y162560D01*
X391421Y137160D02*
X407162Y137160D01*
X410549Y140547D01*
X415022Y140547D01*
X420187Y135382D01*
X391421Y137160D02*
X382270Y146311D01*
X382270Y159512D01*
X379222Y162560D01*
X336763Y162560D01*
D27*
X517398Y109982D03*
D26*
X519176Y135382D02*
X420187Y135382D01*
X522817Y131741D02*
X522817Y126831D01*
X518414Y122428D02*
X518414Y110998D01*
X517398Y109982D01*
X518414Y122428D02*
X522817Y126831D01*
X522817Y131741D02*
X519176Y135382D01*
D27*
X330962Y181864D03*
D26*
X326098Y177000D01*
X311150Y177000D01*
D24*
X665958Y101524D02*
X666974Y102540D01*
X706942Y102540D01*
X707958Y101524D01*
X798958Y101524D02*
X838958Y101524D01*
X798958Y101524D02*
X707958Y101524D01*
D27*
X546608Y110744D03*
D32*
X553212Y104140D01*
X665374Y104140D01*
D30*
X666974Y102540D01*
D32*
X922847Y160000D02*
X930000Y160000D01*
D27*
X539496Y131741D03*
D29*
X539496Y138684D01*
D27*
X331152Y172990D03*
D29*
X338280Y165862D01*
X416539Y143849D02*
X421704Y138684D01*
X409025Y143849D02*
X405638Y140462D01*
X392938Y140462D01*
X385572Y147828D01*
X385572Y161029D01*
X421704Y138684D02*
X539496Y138684D01*
X416539Y143849D02*
X409025Y143849D01*
X385572Y161029D02*
X380739Y165862D01*
X338280Y165862D01*
D32*
X908812Y145965D02*
X922847Y160000D01*
X908812Y145965D02*
X869865Y145965D01*
X838958Y115058D01*
X838958Y101524D01*
D27*
X596138Y191008D03*
D26*
X641601Y188799D02*
X643382Y190580D01*
X641601Y188799D02*
X598420Y188726D01*
X596138Y191008D01*
D27*
X643382Y190580D03*
X581914Y88900D03*
X635000Y88900D03*
X566674Y88900D03*
D30*
X581914Y88900D01*
X635000Y88900D01*
D27*
X312420Y46719D03*
D26*
X312674Y46465D02*
X312996Y46465D01*
X312674Y46465D02*
X312420Y46719D01*
D30*
X569324Y43773D02*
X570340Y44789D01*
X569324Y43773D02*
X377275Y43773D01*
D27*
X570340Y44789D03*
D26*
X377275Y44094D02*
X315367Y44094D01*
X377275Y43773D02*
X377275Y44094D01*
X315367Y44094D02*
X312996Y46465D01*
D33*
X920000Y104000D03*
D30*
X917738Y20000D02*
X930000Y20000D01*
X917738Y20000D02*
X915488Y22500D01*
X901550Y36188D01*
X830046Y36188D01*
X816210Y22352D01*
X811892Y22352D01*
X796590Y7050D01*
D27*
X670052Y12697D03*
D30*
X675699Y7050D01*
X796590Y7050D01*
D27*
X554990Y138938D03*
D29*
X547285Y138938D01*
X544322Y141901D01*
X422797Y141901D01*
D27*
X390206Y183886D03*
D29*
X417801Y146897D02*
X422797Y141901D01*
X388620Y182300D02*
X390206Y183886D01*
X388620Y182300D02*
X388620Y149098D01*
X394208Y143510D01*
X404375Y143510D01*
X407762Y146897D02*
X417801Y146897D01*
X407762Y146897D02*
X404375Y143510D01*
M02*
