M48
;GenerationSoftware,Autodesk,EAGLE,9.6.2*%
;CreationDate,2021-05-04T13:15:44Z*%
FMAT,2
ICI,OFF
METRIC,TZ,000.000
T8C0.350
T7C0.450
T6C0.500
T5C0.508
T4C0.700
T3C0.750
T2C0.800
T1C1.016
%
G90
M71
T1
X22003Y1895
X27083Y4435
X27083Y1895
X24543Y4689
X24543Y2149
X22003Y4435
T2
X2000Y10000
T3
X94159Y784
X94159Y19155
T4
X93000Y4000
X93000Y2000
X93000Y18000
X93000Y16000
X91549Y3750
X91549Y2250
T5
X52641Y17720
X53911Y17720
X55181Y17720
X56451Y17720
X51371Y17720
X52641Y18990
X53911Y18990
X55181Y18990
X56451Y18990
X51371Y18990
T6
X40005Y2108
X38735Y2108
X37465Y2108
X36195Y2108
X34925Y2108
X33655Y2108
X32385Y2108
X31115Y2108
X29845Y2108
X92000Y10400
X41275Y2108
T7
X92000Y13000
X92000Y7900
T8
X15240Y3810
X16510Y5080
X17145Y1905
X17145Y635
X20320Y635
X20320Y3175
X20320Y4445
X20320Y5639
X18085Y3175
X23190Y635
X24486Y635
X23343Y3429
X27940Y3175
X29210Y3175
X28575Y6858
X17450Y19380
X17450Y18110
X17450Y16840
X17450Y15570
X17450Y14300
X17450Y13030
X17450Y11760
X17450Y9779
X23800Y19380
X23800Y18110
X23800Y16840
X23800Y15570
X22530Y19380
X21260Y19380
X20625Y19380
X21895Y19380
X23165Y19380
X23800Y18745
X23800Y17475
X23800Y16205
X17450Y18745
X17450Y17475
X17450Y16205
X17450Y14935
X17450Y13665
X17450Y12395
X17450Y11125
X17450Y10490
X23800Y12395
X23800Y10490
X23800Y9855
X18085Y14300
X18720Y14300
X19355Y14300
X19990Y14300
X20625Y14300
X21260Y14300
X21895Y14300
X22530Y14300
X18085Y11760
X18720Y11760
X19355Y11760
X19990Y11760
X20625Y11760
X21260Y11760
X21895Y11760
X22530Y11760
X23165Y11760
X23800Y11760
X23165Y10490
X22530Y10490
X21920Y10490
X21311Y10490
X20701Y9906
X20701Y9271
X17145Y7874
X22530Y12395
X22530Y13030
X22530Y13665
X22530Y14935
X22530Y15570
X23165Y15570
X23165Y17475
X22530Y17475
X21895Y17475
X21260Y17475
X20625Y17475
X26746Y19533
X28118Y19533
X30277Y19533
X31547Y19533
X32817Y19533
X35433Y19533
X39497Y19533
X46685Y19533
X48412Y19533
X57480Y19533
X65100Y19533
X61951Y19533
X66370Y19533
X68961Y19533
X67335Y19533
X70155Y19380
X71425Y19380
X72695Y19380
X73965Y19482
X75235Y19482
X76505Y19380
X77775Y19380
X79045Y19380
X80315Y19380
X81585Y19025
X82855Y19253
X84125Y19355
X85395Y19355
X86639Y19355
X87884Y19329
X88519Y19279
X83490Y19304
X84760Y19355
X86004Y19355
X87274Y19355
X82220Y19253
X81280Y18440
X81382Y17831
X81382Y17221
X83998Y17272
X84709Y17272
X85369Y17272
X86004Y17272
X86665Y17272
X87325Y17272
X89078Y18847
X89586Y18339
X90043Y17882
X90449Y17348
X90551Y16688
X90551Y16027
X90551Y13208
X90551Y12624
X90551Y12040
X90500Y11455
X91110Y11735
X91745Y11735
X92380Y11735
X93015Y11735
X93650Y11735
X94285Y11735
X90500Y9373
X90551Y13818
X87935Y17043
X88392Y16586
X88468Y15977
X88468Y15367
X88468Y13818
X88468Y13157
X88468Y12497
X88468Y11836
X88468Y11151
X88468Y10389
X88468Y9754
X88468Y9119
X88468Y8509
X88468Y7874
X88468Y7239
X88468Y6629
X88468Y6020
X88468Y5436
X88468Y4877
X88468Y4293
X88087Y2946
X84201Y2286
X84201Y1651
X84303Y1016
X84938Y762
X85573Y762
X86208Y762
X86843Y762
X87478Y762
X88214Y864
X88925Y940
X89459Y1372
X89967Y1880
X90424Y2388
X90170Y660
X90526Y4216
X90526Y4851
X90526Y5537
X90551Y8763
X90551Y8153
X90551Y7518
X90551Y6909
X91110Y9144
X91745Y9144
X92380Y9144
X93015Y9144
X93650Y9144
X94285Y9144
X94259Y14275
X92354Y14275
X91084Y19355
X94259Y6655
X92354Y6655
X91745Y635
X84226Y2921
X84201Y4293
X83185Y483
X81915Y483
X80645Y483
X78740Y5740
X78740Y7645
X80010Y7645
X80010Y5740
X81280Y5740
X81280Y7645
X74930Y1930
X84125Y7645
X84125Y13030
X83236Y16027
X81280Y12090
X80010Y12090
X78740Y12090
X77470Y12090
X76200Y12090
X74930Y12725
X73660Y13995
X75565Y13995
X76835Y13995
X78105Y13970
X79375Y13665
X80645Y13665
X81915Y13030
X73660Y16510
X76835Y16510
X75235Y16510
X70180Y17831
X71450Y17831
X72720Y17831
X76530Y17831
X77800Y17831
X79070Y17831
X80340Y17831
X80340Y16561
X81534Y16510
X73482Y12116
X73330Y8407
X74422Y11227
X74117Y7595
X74625Y9119
X76429Y9093
X73660Y1930
X79807Y3200
X79375Y4470
X78105Y4470
X80645Y4470
X81915Y4470
X83185Y4470
X68580Y1930
X66319Y584
X64592Y584
X63500Y5105
X64440Y5385
X59868Y2235
X58725Y2210
X57455Y2235
X56185Y2235
X55220Y2235
X58090Y7950
X59360Y7950
X62535Y7950
X63805Y7950
X56210Y7950
X54940Y7950
X55550Y5410
X52705Y5080
X51435Y5080
X49428Y8179
X48133Y10236
X49530Y10058
X48108Y12421
X51181Y8458
X51181Y10211
X51206Y11989
X53010Y8077
X53289Y2235
X49530Y12243
X53010Y11760
X52959Y13259
X55347Y12167
X57404Y11201
X57379Y9627
X42142Y3674
X37465Y8890
X37465Y7620
X45441Y7112
X37465Y10160
X37465Y11430
X37465Y12700
X38633Y13310
X37592Y15621
X41275Y15316
X42545Y14834
X43485Y15773
X36195Y17196
X33020Y15926
X30734Y15926
X32385Y15037
X31826Y12929
X33122Y12954
X29388Y11811
X28092Y11963
X27813Y13335
X27813Y15037
X26924Y16002
X27864Y17272
X28067Y16408
X31420Y8280
X33503Y8280
X32487Y8280
X24714Y8966
X22504Y8890
X35255Y508
X20676Y10490
X57353Y16358
X59182Y16332
X61976Y9601
X61544Y12421
X62001Y11252
X64846Y18161
X30476Y5198
X63805Y16332
X59157Y16967
X59512Y18288
X59144Y13905
X78435Y3175
X78435Y1422
X79604Y1676
X90551Y15367
X39876Y15406
X74676Y5131
X68453Y5258
X76937Y5131
X64897Y4089
X75819Y4318
X68428Y3912
X43650Y6998
X33223Y7341
X44475Y7010
X32004Y7341
X83185Y6680
X64870Y6680
X34425Y12282
X30239Y12408
X58242Y6680
X48895Y11024
X45720Y19025
X49428Y19092
X41275Y13360
X48819Y9068
X51613Y12903
X48494Y17272
X47650Y17281
X46076Y17526
X44653Y18263
X73660Y3099
X65786Y2337
X73660Y5994
X48920Y7391
X68309Y18408
X43028Y18262
X83820Y15240
X67970Y14605
X43510Y14808
X82296Y15621
X67970Y15875
X44272Y15113
X77766Y16895
X67996Y17145
X45034Y15418
X69097Y18417
X43840Y18263
X21184Y6985
X50858Y6350
X23622Y8585
X50038Y6350
X29794Y8052
X46050Y5918
X30607Y8052
X48108Y7391
X64084Y16916
X36957Y14232
X23495Y14732
X36957Y15037
X18745Y4084
X15240Y5040
X27305Y12460
X28846Y12700
X36957Y13403
X54407Y3073
X51740Y10998
X33096Y18186
X54661Y11074
X53950Y13174
X33115Y17299
X59614Y19101
X64338Y19058
X58191Y8890
X63500Y8890
X56667Y8890
X31242Y4672
X57034Y4479
X26666Y6926
X67005Y1270
X55499Y13894
X39021Y18389
X24634Y7002
X2000Y14000
X2000Y6000
X22551Y7002
X49026Y3674
X49026Y2049
X46587Y3674
X46587Y2049
X13335Y635
X13335Y1905
X13335Y3175
X13335Y4445
X13335Y5715
X13335Y6985
X13335Y8255
X13335Y9525
X13335Y10795
X13335Y12065
X13335Y13335
X13335Y14605
X14630Y16916
X14503Y15240
X14503Y13995
X14529Y12548
X13183Y16916
X13183Y18593
X14630Y18593
X13919Y18593
X13183Y19533
X14834Y19533
X13183Y15875
X14630Y16256
X13919Y15875
X14605Y4445
X23495Y13335
M30