G04 EAGLE Gerber RS-274X export*
G75*
%MOMM*%
%FSLAX34Y34*%
%LPD*%
%INBottom Silkscreen*%
%IPPOS*%
%AMOC8*
5,1,8,0,0,1.08239X$1,22.5*%
G01*
%ADD10C,0.406400*%
%ADD11C,0.279400*%
%ADD12C,0.203200*%
%ADD13C,0.254000*%
%ADD14C,0.120000*%
%ADD15C,0.152400*%
%ADD16C,0.127000*%


D10*
X834898Y36830D02*
X834898Y7366D01*
X326390Y162306D02*
X326390Y191770D01*
D11*
X883962Y19925D02*
X893953Y19925D01*
X888958Y14930D02*
X888958Y24920D01*
X890312Y161149D02*
X900303Y161149D01*
X895308Y156154D02*
X895308Y166144D01*
X862203Y161149D02*
X852212Y161149D01*
X857208Y156154D02*
X857208Y166144D01*
X862203Y19925D02*
X852212Y19925D01*
X857208Y14930D02*
X857208Y24920D01*
X862118Y101459D02*
X872109Y101459D01*
X867114Y96464D02*
X867114Y106454D01*
D12*
X352806Y33105D02*
X345694Y33105D01*
X349250Y29549D02*
X349250Y36661D01*
X288290Y6689D02*
X281178Y6689D01*
X284734Y3133D02*
X284734Y10245D01*
X176276Y69173D02*
X169164Y69173D01*
X172720Y65617D02*
X172720Y72729D01*
X897382Y174244D02*
X900938Y184912D01*
X893826Y184912D02*
X897382Y174244D01*
X888280Y180171D02*
X885317Y180171D01*
X885317Y180170D02*
X885210Y180168D01*
X885103Y180162D01*
X884997Y180153D01*
X884891Y180139D01*
X884785Y180122D01*
X884680Y180101D01*
X884576Y180076D01*
X884473Y180047D01*
X884371Y180015D01*
X884270Y179979D01*
X884171Y179939D01*
X884073Y179896D01*
X883977Y179849D01*
X883882Y179799D01*
X883789Y179746D01*
X883699Y179689D01*
X883610Y179629D01*
X883524Y179566D01*
X883440Y179500D01*
X883358Y179430D01*
X883279Y179358D01*
X883203Y179283D01*
X883129Y179205D01*
X883059Y179125D01*
X882991Y179042D01*
X882926Y178957D01*
X882865Y178870D01*
X882806Y178780D01*
X882751Y178689D01*
X882699Y178595D01*
X882651Y178499D01*
X882606Y178402D01*
X882564Y178304D01*
X882527Y178204D01*
X882492Y178102D01*
X882462Y178000D01*
X882435Y177896D01*
X882412Y177792D01*
X882393Y177686D01*
X882378Y177580D01*
X882366Y177474D01*
X882358Y177367D01*
X882354Y177260D01*
X882354Y177154D01*
X882358Y177047D01*
X882366Y176940D01*
X882378Y176834D01*
X882393Y176728D01*
X882412Y176622D01*
X882435Y176518D01*
X882462Y176414D01*
X882492Y176312D01*
X882527Y176210D01*
X882564Y176110D01*
X882606Y176012D01*
X882651Y175915D01*
X882699Y175819D01*
X882751Y175726D01*
X882806Y175634D01*
X882865Y175544D01*
X882926Y175457D01*
X882991Y175372D01*
X883059Y175289D01*
X883129Y175209D01*
X883203Y175131D01*
X883279Y175056D01*
X883358Y174984D01*
X883440Y174914D01*
X883524Y174848D01*
X883610Y174785D01*
X883699Y174725D01*
X883789Y174668D01*
X883882Y174615D01*
X883977Y174565D01*
X884073Y174518D01*
X884171Y174475D01*
X884270Y174435D01*
X884371Y174399D01*
X884473Y174367D01*
X884576Y174338D01*
X884680Y174313D01*
X884785Y174292D01*
X884891Y174275D01*
X884997Y174261D01*
X885103Y174252D01*
X885210Y174246D01*
X885317Y174244D01*
X888280Y174244D01*
X888280Y184912D01*
X885317Y184912D01*
X885220Y184910D01*
X885124Y184904D01*
X885028Y184894D01*
X884932Y184880D01*
X884837Y184863D01*
X884742Y184841D01*
X884649Y184816D01*
X884557Y184787D01*
X884466Y184754D01*
X884376Y184717D01*
X884288Y184677D01*
X884202Y184633D01*
X884118Y184586D01*
X884035Y184536D01*
X883955Y184482D01*
X883877Y184424D01*
X883801Y184364D01*
X883728Y184301D01*
X883658Y184235D01*
X883590Y184165D01*
X883525Y184094D01*
X883463Y184019D01*
X883405Y183942D01*
X883349Y183863D01*
X883297Y183782D01*
X883248Y183698D01*
X883202Y183613D01*
X883160Y183526D01*
X883122Y183437D01*
X883087Y183347D01*
X883056Y183255D01*
X883029Y183162D01*
X883005Y183069D01*
X882986Y182974D01*
X882970Y182878D01*
X882958Y182782D01*
X882950Y182686D01*
X882946Y182589D01*
X882946Y182493D01*
X882950Y182396D01*
X882958Y182300D01*
X882970Y182204D01*
X882986Y182108D01*
X883005Y182013D01*
X883029Y181920D01*
X883056Y181827D01*
X883087Y181735D01*
X883122Y181645D01*
X883160Y181556D01*
X883202Y181469D01*
X883248Y181384D01*
X883297Y181300D01*
X883349Y181219D01*
X883405Y181140D01*
X883463Y181063D01*
X883525Y180988D01*
X883590Y180917D01*
X883658Y180847D01*
X883728Y180781D01*
X883801Y180718D01*
X883877Y180658D01*
X883955Y180600D01*
X884035Y180546D01*
X884118Y180496D01*
X884202Y180449D01*
X884288Y180405D01*
X884376Y180365D01*
X884466Y180328D01*
X884557Y180295D01*
X884649Y180266D01*
X884742Y180241D01*
X884837Y180219D01*
X884932Y180202D01*
X885028Y180188D01*
X885124Y180178D01*
X885220Y180172D01*
X885317Y180170D01*
X878078Y174244D02*
X874522Y184912D01*
X870966Y174244D01*
X871855Y176911D02*
X877189Y176911D01*
X863854Y174244D02*
X863854Y184912D01*
X866817Y184912D02*
X860891Y184912D01*
X853948Y184912D02*
X853948Y174244D01*
X856911Y184912D02*
X850985Y184912D01*
X896874Y43434D02*
X893318Y32766D01*
X889762Y43434D01*
X884436Y43434D02*
X884436Y32766D01*
X879695Y32766D01*
X874268Y32766D02*
X874268Y43434D01*
X875453Y32766D02*
X873083Y32766D01*
X873083Y43434D02*
X875453Y43434D01*
X865886Y43434D02*
X865886Y32766D01*
X868849Y43434D02*
X862923Y43434D01*
X857800Y43434D02*
X857800Y32766D01*
X857800Y38693D02*
X851874Y38693D01*
X851874Y43434D02*
X851874Y32766D01*
X792988Y28448D02*
X792988Y17780D01*
X788247Y17780D01*
X285242Y172720D02*
X285147Y172722D01*
X285051Y172728D01*
X284956Y172737D01*
X284862Y172751D01*
X284768Y172768D01*
X284675Y172789D01*
X284582Y172814D01*
X284491Y172842D01*
X284401Y172874D01*
X284313Y172910D01*
X284226Y172949D01*
X284140Y172992D01*
X284057Y173038D01*
X283975Y173087D01*
X283895Y173140D01*
X283818Y173196D01*
X283742Y173254D01*
X283670Y173316D01*
X283600Y173381D01*
X283532Y173449D01*
X283467Y173519D01*
X283405Y173591D01*
X283347Y173667D01*
X283291Y173744D01*
X283238Y173824D01*
X283189Y173906D01*
X283143Y173989D01*
X283100Y174075D01*
X283061Y174162D01*
X283025Y174250D01*
X282993Y174340D01*
X282965Y174431D01*
X282940Y174524D01*
X282919Y174617D01*
X282902Y174711D01*
X282888Y174805D01*
X282879Y174900D01*
X282873Y174996D01*
X282871Y175091D01*
X285242Y172720D02*
X285378Y172722D01*
X285515Y172727D01*
X285651Y172737D01*
X285786Y172750D01*
X285922Y172766D01*
X286056Y172787D01*
X286191Y172811D01*
X286324Y172838D01*
X286457Y172870D01*
X286589Y172904D01*
X286720Y172943D01*
X286849Y172985D01*
X286978Y173030D01*
X287105Y173079D01*
X287231Y173132D01*
X287355Y173188D01*
X287478Y173247D01*
X287599Y173309D01*
X287719Y173375D01*
X287836Y173444D01*
X287952Y173517D01*
X288066Y173592D01*
X288177Y173670D01*
X288286Y173752D01*
X288394Y173836D01*
X288498Y173923D01*
X288601Y174013D01*
X288701Y174106D01*
X288798Y174202D01*
X288502Y181017D02*
X288500Y181112D01*
X288494Y181208D01*
X288485Y181303D01*
X288471Y181397D01*
X288454Y181491D01*
X288433Y181584D01*
X288408Y181677D01*
X288380Y181768D01*
X288348Y181858D01*
X288312Y181946D01*
X288273Y182033D01*
X288230Y182119D01*
X288184Y182203D01*
X288135Y182284D01*
X288082Y182364D01*
X288026Y182441D01*
X287968Y182517D01*
X287906Y182589D01*
X287841Y182659D01*
X287773Y182727D01*
X287703Y182792D01*
X287631Y182854D01*
X287555Y182912D01*
X287478Y182968D01*
X287398Y183021D01*
X287317Y183070D01*
X287233Y183116D01*
X287147Y183159D01*
X287060Y183198D01*
X286972Y183234D01*
X286882Y183266D01*
X286791Y183294D01*
X286698Y183319D01*
X286605Y183340D01*
X286511Y183357D01*
X286417Y183371D01*
X286322Y183380D01*
X286226Y183386D01*
X286131Y183388D01*
X286001Y183386D01*
X285871Y183380D01*
X285741Y183371D01*
X285612Y183358D01*
X285483Y183341D01*
X285355Y183320D01*
X285227Y183295D01*
X285100Y183267D01*
X284974Y183235D01*
X284849Y183199D01*
X284725Y183160D01*
X284603Y183117D01*
X284481Y183071D01*
X284361Y183020D01*
X284243Y182967D01*
X284126Y182910D01*
X284011Y182850D01*
X283897Y182786D01*
X283786Y182719D01*
X283676Y182649D01*
X283569Y182575D01*
X283464Y182499D01*
X287317Y178942D02*
X287398Y178993D01*
X287478Y179047D01*
X287556Y179103D01*
X287631Y179163D01*
X287704Y179226D01*
X287774Y179292D01*
X287841Y179360D01*
X287906Y179431D01*
X287968Y179505D01*
X288027Y179581D01*
X288083Y179659D01*
X288135Y179740D01*
X288185Y179822D01*
X288231Y179907D01*
X288273Y179993D01*
X288313Y180081D01*
X288348Y180170D01*
X288380Y180261D01*
X288409Y180353D01*
X288433Y180446D01*
X288454Y180539D01*
X288471Y180634D01*
X288485Y180729D01*
X288494Y180825D01*
X288500Y180921D01*
X288502Y181017D01*
X284057Y177166D02*
X283975Y177115D01*
X283895Y177061D01*
X283817Y177005D01*
X283742Y176945D01*
X283669Y176882D01*
X283599Y176816D01*
X283532Y176748D01*
X283467Y176677D01*
X283405Y176603D01*
X283346Y176527D01*
X283290Y176449D01*
X283238Y176368D01*
X283188Y176286D01*
X283142Y176201D01*
X283100Y176115D01*
X283060Y176027D01*
X283025Y175938D01*
X282993Y175847D01*
X282964Y175755D01*
X282940Y175662D01*
X282919Y175569D01*
X282902Y175474D01*
X282888Y175379D01*
X282879Y175283D01*
X282873Y175187D01*
X282871Y175091D01*
X284057Y177165D02*
X287316Y178943D01*
X43434Y189484D02*
X32766Y189484D01*
X32766Y186521D01*
X32768Y186414D01*
X32774Y186307D01*
X32783Y186201D01*
X32797Y186095D01*
X32814Y185989D01*
X32835Y185884D01*
X32860Y185780D01*
X32889Y185677D01*
X32921Y185575D01*
X32957Y185474D01*
X32997Y185375D01*
X33040Y185277D01*
X33087Y185181D01*
X33137Y185086D01*
X33190Y184993D01*
X33247Y184903D01*
X33307Y184814D01*
X33370Y184728D01*
X33436Y184644D01*
X33506Y184562D01*
X33578Y184483D01*
X33653Y184407D01*
X33731Y184333D01*
X33811Y184263D01*
X33894Y184195D01*
X33979Y184130D01*
X34066Y184069D01*
X34156Y184010D01*
X34247Y183955D01*
X34341Y183903D01*
X34437Y183855D01*
X34534Y183810D01*
X34632Y183768D01*
X34732Y183731D01*
X34834Y183696D01*
X34936Y183666D01*
X35040Y183639D01*
X35144Y183616D01*
X35250Y183597D01*
X35356Y183582D01*
X35462Y183570D01*
X35569Y183562D01*
X35676Y183558D01*
X35782Y183558D01*
X35889Y183562D01*
X35996Y183570D01*
X36102Y183582D01*
X36208Y183597D01*
X36314Y183616D01*
X36418Y183639D01*
X36522Y183666D01*
X36624Y183696D01*
X36726Y183731D01*
X36826Y183768D01*
X36924Y183810D01*
X37021Y183855D01*
X37117Y183903D01*
X37210Y183955D01*
X37302Y184010D01*
X37392Y184069D01*
X37479Y184130D01*
X37564Y184195D01*
X37647Y184263D01*
X37727Y184333D01*
X37805Y184407D01*
X37880Y184483D01*
X37952Y184562D01*
X38022Y184644D01*
X38088Y184728D01*
X38151Y184814D01*
X38211Y184903D01*
X38268Y184993D01*
X38321Y185086D01*
X38371Y185181D01*
X38418Y185277D01*
X38461Y185375D01*
X38501Y185474D01*
X38537Y185575D01*
X38569Y185677D01*
X38598Y185780D01*
X38623Y185884D01*
X38644Y185989D01*
X38661Y186095D01*
X38675Y186201D01*
X38684Y186307D01*
X38690Y186414D01*
X38692Y186521D01*
X38693Y186521D02*
X38693Y189484D01*
X41656Y178825D02*
X32766Y178825D01*
X41656Y178825D02*
X41738Y178823D01*
X41820Y178817D01*
X41902Y178808D01*
X41983Y178795D01*
X42063Y178778D01*
X42143Y178757D01*
X42221Y178733D01*
X42298Y178705D01*
X42374Y178674D01*
X42449Y178639D01*
X42521Y178600D01*
X42592Y178559D01*
X42661Y178514D01*
X42727Y178466D01*
X42792Y178415D01*
X42854Y178361D01*
X42913Y178304D01*
X42970Y178245D01*
X43024Y178183D01*
X43075Y178118D01*
X43123Y178052D01*
X43168Y177983D01*
X43209Y177912D01*
X43248Y177840D01*
X43283Y177765D01*
X43314Y177689D01*
X43342Y177612D01*
X43366Y177534D01*
X43387Y177454D01*
X43404Y177374D01*
X43417Y177293D01*
X43426Y177211D01*
X43432Y177129D01*
X43434Y177047D01*
X43434Y170984D02*
X43434Y168021D01*
X43434Y170984D02*
X43432Y171066D01*
X43426Y171148D01*
X43417Y171230D01*
X43404Y171311D01*
X43387Y171391D01*
X43366Y171471D01*
X43342Y171549D01*
X43314Y171626D01*
X43283Y171702D01*
X43248Y171777D01*
X43209Y171849D01*
X43168Y171920D01*
X43123Y171989D01*
X43075Y172055D01*
X43024Y172120D01*
X42970Y172182D01*
X42913Y172241D01*
X42854Y172298D01*
X42792Y172352D01*
X42727Y172403D01*
X42661Y172451D01*
X42592Y172496D01*
X42521Y172537D01*
X42449Y172576D01*
X42374Y172611D01*
X42298Y172642D01*
X42221Y172670D01*
X42143Y172694D01*
X42063Y172715D01*
X41983Y172732D01*
X41902Y172745D01*
X41820Y172754D01*
X41738Y172760D01*
X41656Y172762D01*
X38693Y172762D01*
X38693Y172763D02*
X38596Y172761D01*
X38500Y172755D01*
X38404Y172745D01*
X38308Y172731D01*
X38213Y172714D01*
X38118Y172692D01*
X38025Y172667D01*
X37933Y172638D01*
X37842Y172605D01*
X37752Y172568D01*
X37664Y172528D01*
X37578Y172484D01*
X37494Y172437D01*
X37411Y172387D01*
X37331Y172333D01*
X37253Y172275D01*
X37177Y172215D01*
X37104Y172152D01*
X37034Y172086D01*
X36966Y172016D01*
X36901Y171945D01*
X36839Y171870D01*
X36781Y171793D01*
X36725Y171714D01*
X36673Y171633D01*
X36624Y171549D01*
X36578Y171464D01*
X36536Y171377D01*
X36498Y171288D01*
X36463Y171198D01*
X36432Y171106D01*
X36405Y171013D01*
X36381Y170920D01*
X36362Y170825D01*
X36346Y170729D01*
X36334Y170633D01*
X36326Y170537D01*
X36322Y170440D01*
X36322Y170344D01*
X36326Y170247D01*
X36334Y170151D01*
X36346Y170055D01*
X36362Y169959D01*
X36381Y169864D01*
X36405Y169771D01*
X36432Y169678D01*
X36463Y169586D01*
X36498Y169496D01*
X36536Y169407D01*
X36578Y169320D01*
X36624Y169235D01*
X36673Y169151D01*
X36725Y169070D01*
X36781Y168991D01*
X36839Y168914D01*
X36901Y168839D01*
X36966Y168768D01*
X37034Y168698D01*
X37104Y168632D01*
X37177Y168569D01*
X37253Y168509D01*
X37331Y168451D01*
X37411Y168397D01*
X37494Y168347D01*
X37578Y168300D01*
X37664Y168256D01*
X37752Y168216D01*
X37842Y168179D01*
X37933Y168146D01*
X38025Y168117D01*
X38118Y168092D01*
X38213Y168070D01*
X38308Y168053D01*
X38404Y168039D01*
X38500Y168029D01*
X38596Y168023D01*
X38693Y168021D01*
X39878Y168021D01*
X39878Y172762D01*
X39285Y160870D02*
X39285Y158203D01*
X39286Y160870D02*
X39288Y160959D01*
X39294Y161048D01*
X39303Y161137D01*
X39317Y161225D01*
X39334Y161313D01*
X39355Y161400D01*
X39379Y161485D01*
X39408Y161570D01*
X39440Y161653D01*
X39475Y161735D01*
X39514Y161816D01*
X39556Y161894D01*
X39602Y161971D01*
X39651Y162045D01*
X39703Y162118D01*
X39759Y162188D01*
X39817Y162256D01*
X39878Y162321D01*
X39942Y162383D01*
X40008Y162443D01*
X40077Y162499D01*
X40148Y162553D01*
X40222Y162604D01*
X40297Y162651D01*
X40375Y162695D01*
X40454Y162736D01*
X40535Y162773D01*
X40618Y162807D01*
X40702Y162837D01*
X40787Y162863D01*
X40874Y162886D01*
X40961Y162905D01*
X41049Y162921D01*
X41137Y162932D01*
X41226Y162940D01*
X41315Y162944D01*
X41405Y162944D01*
X41494Y162940D01*
X41583Y162932D01*
X41671Y162921D01*
X41759Y162905D01*
X41846Y162886D01*
X41933Y162863D01*
X42018Y162837D01*
X42102Y162807D01*
X42185Y162773D01*
X42266Y162736D01*
X42345Y162695D01*
X42423Y162651D01*
X42498Y162604D01*
X42572Y162553D01*
X42643Y162499D01*
X42712Y162443D01*
X42778Y162383D01*
X42842Y162321D01*
X42903Y162256D01*
X42961Y162188D01*
X43017Y162118D01*
X43069Y162045D01*
X43118Y161971D01*
X43164Y161894D01*
X43206Y161816D01*
X43245Y161735D01*
X43280Y161653D01*
X43312Y161570D01*
X43341Y161485D01*
X43365Y161400D01*
X43386Y161313D01*
X43403Y161225D01*
X43417Y161137D01*
X43426Y161048D01*
X43432Y160959D01*
X43434Y160870D01*
X43434Y158203D01*
X38100Y158203D01*
X38018Y158205D01*
X37936Y158211D01*
X37854Y158220D01*
X37773Y158233D01*
X37693Y158250D01*
X37613Y158271D01*
X37535Y158295D01*
X37458Y158323D01*
X37382Y158354D01*
X37307Y158389D01*
X37235Y158428D01*
X37164Y158469D01*
X37095Y158514D01*
X37029Y158562D01*
X36964Y158613D01*
X36902Y158667D01*
X36843Y158724D01*
X36786Y158783D01*
X36732Y158845D01*
X36681Y158910D01*
X36633Y158976D01*
X36588Y159045D01*
X36547Y159116D01*
X36508Y159188D01*
X36473Y159263D01*
X36442Y159339D01*
X36414Y159416D01*
X36390Y159494D01*
X36369Y159574D01*
X36352Y159654D01*
X36339Y159735D01*
X36330Y159817D01*
X36324Y159899D01*
X36322Y159981D01*
X36322Y162352D01*
X39285Y151680D02*
X40471Y148717D01*
X39286Y151681D02*
X39255Y151752D01*
X39221Y151822D01*
X39184Y151890D01*
X39143Y151955D01*
X39098Y152019D01*
X39051Y152080D01*
X39000Y152139D01*
X38947Y152196D01*
X38891Y152249D01*
X38832Y152300D01*
X38771Y152347D01*
X38707Y152392D01*
X38642Y152433D01*
X38574Y152471D01*
X38504Y152505D01*
X38433Y152536D01*
X38361Y152563D01*
X38287Y152586D01*
X38212Y152606D01*
X38136Y152622D01*
X38059Y152634D01*
X37982Y152642D01*
X37905Y152646D01*
X37827Y152647D01*
X37750Y152643D01*
X37672Y152636D01*
X37596Y152624D01*
X37520Y152609D01*
X37444Y152590D01*
X37370Y152567D01*
X37297Y152541D01*
X37226Y152511D01*
X37156Y152477D01*
X37088Y152440D01*
X37022Y152399D01*
X36958Y152355D01*
X36896Y152308D01*
X36837Y152258D01*
X36781Y152205D01*
X36727Y152149D01*
X36676Y152091D01*
X36628Y152030D01*
X36583Y151967D01*
X36541Y151901D01*
X36503Y151834D01*
X36468Y151764D01*
X36437Y151693D01*
X36409Y151621D01*
X36386Y151547D01*
X36365Y151472D01*
X36349Y151397D01*
X36336Y151320D01*
X36328Y151243D01*
X36323Y151166D01*
X36322Y151088D01*
X36326Y150926D01*
X36334Y150764D01*
X36346Y150603D01*
X36362Y150442D01*
X36382Y150281D01*
X36405Y150121D01*
X36433Y149962D01*
X36464Y149803D01*
X36499Y149645D01*
X36538Y149488D01*
X36581Y149332D01*
X36627Y149177D01*
X36677Y149023D01*
X36731Y148870D01*
X36789Y148719D01*
X36850Y148569D01*
X36914Y148421D01*
X40470Y148717D02*
X40501Y148646D01*
X40535Y148576D01*
X40572Y148508D01*
X40613Y148443D01*
X40658Y148379D01*
X40705Y148318D01*
X40756Y148259D01*
X40809Y148202D01*
X40865Y148149D01*
X40924Y148098D01*
X40985Y148051D01*
X41049Y148006D01*
X41114Y147965D01*
X41182Y147927D01*
X41252Y147893D01*
X41323Y147862D01*
X41395Y147835D01*
X41469Y147812D01*
X41544Y147792D01*
X41620Y147776D01*
X41697Y147764D01*
X41774Y147756D01*
X41851Y147752D01*
X41929Y147751D01*
X42006Y147755D01*
X42084Y147762D01*
X42160Y147774D01*
X42236Y147789D01*
X42312Y147808D01*
X42386Y147831D01*
X42459Y147857D01*
X42530Y147887D01*
X42600Y147921D01*
X42668Y147958D01*
X42734Y147999D01*
X42798Y148043D01*
X42860Y148090D01*
X42919Y148140D01*
X42975Y148193D01*
X43029Y148249D01*
X43080Y148307D01*
X43128Y148368D01*
X43173Y148431D01*
X43215Y148497D01*
X43253Y148564D01*
X43288Y148634D01*
X43319Y148704D01*
X43347Y148777D01*
X43370Y148851D01*
X43391Y148926D01*
X43407Y149001D01*
X43420Y149078D01*
X43428Y149155D01*
X43433Y149232D01*
X43434Y149310D01*
X43428Y149547D01*
X43416Y149785D01*
X43399Y150022D01*
X43375Y150258D01*
X43347Y150494D01*
X43313Y150730D01*
X43273Y150964D01*
X43228Y151197D01*
X43177Y151430D01*
X43121Y151661D01*
X43059Y151890D01*
X42992Y152118D01*
X42919Y152345D01*
X42841Y152569D01*
X43434Y140885D02*
X43434Y137922D01*
X43434Y140885D02*
X43432Y140967D01*
X43426Y141049D01*
X43417Y141131D01*
X43404Y141212D01*
X43387Y141292D01*
X43366Y141372D01*
X43342Y141450D01*
X43314Y141527D01*
X43283Y141603D01*
X43248Y141678D01*
X43209Y141750D01*
X43168Y141821D01*
X43123Y141890D01*
X43075Y141956D01*
X43024Y142021D01*
X42970Y142083D01*
X42913Y142142D01*
X42854Y142199D01*
X42792Y142253D01*
X42727Y142304D01*
X42661Y142352D01*
X42592Y142397D01*
X42521Y142438D01*
X42449Y142477D01*
X42374Y142512D01*
X42298Y142543D01*
X42221Y142571D01*
X42143Y142595D01*
X42063Y142616D01*
X41983Y142633D01*
X41902Y142646D01*
X41820Y142655D01*
X41738Y142661D01*
X41656Y142663D01*
X38693Y142663D01*
X38693Y142664D02*
X38596Y142662D01*
X38500Y142656D01*
X38404Y142646D01*
X38308Y142632D01*
X38213Y142615D01*
X38118Y142593D01*
X38025Y142568D01*
X37933Y142539D01*
X37842Y142506D01*
X37752Y142469D01*
X37664Y142429D01*
X37578Y142385D01*
X37494Y142338D01*
X37411Y142288D01*
X37331Y142234D01*
X37253Y142176D01*
X37177Y142116D01*
X37104Y142053D01*
X37034Y141987D01*
X36966Y141917D01*
X36901Y141846D01*
X36839Y141771D01*
X36781Y141694D01*
X36725Y141615D01*
X36673Y141534D01*
X36624Y141450D01*
X36578Y141365D01*
X36536Y141278D01*
X36498Y141189D01*
X36463Y141099D01*
X36432Y141007D01*
X36405Y140914D01*
X36381Y140821D01*
X36362Y140726D01*
X36346Y140630D01*
X36334Y140534D01*
X36326Y140438D01*
X36322Y140341D01*
X36322Y140245D01*
X36326Y140148D01*
X36334Y140052D01*
X36346Y139956D01*
X36362Y139860D01*
X36381Y139765D01*
X36405Y139672D01*
X36432Y139579D01*
X36463Y139487D01*
X36498Y139397D01*
X36536Y139308D01*
X36578Y139221D01*
X36624Y139136D01*
X36673Y139052D01*
X36725Y138971D01*
X36781Y138892D01*
X36839Y138815D01*
X36901Y138740D01*
X36966Y138669D01*
X37034Y138599D01*
X37104Y138533D01*
X37177Y138470D01*
X37253Y138410D01*
X37331Y138352D01*
X37411Y138298D01*
X37494Y138248D01*
X37578Y138201D01*
X37664Y138157D01*
X37752Y138117D01*
X37842Y138080D01*
X37933Y138047D01*
X38025Y138018D01*
X38118Y137993D01*
X38213Y137971D01*
X38308Y137954D01*
X38404Y137940D01*
X38500Y137930D01*
X38596Y137924D01*
X38693Y137922D01*
X39878Y137922D01*
X39878Y142663D01*
X43434Y124171D02*
X43434Y121801D01*
X43434Y124171D02*
X43432Y124266D01*
X43426Y124362D01*
X43417Y124457D01*
X43403Y124551D01*
X43386Y124645D01*
X43365Y124738D01*
X43340Y124831D01*
X43312Y124922D01*
X43280Y125012D01*
X43244Y125100D01*
X43205Y125187D01*
X43162Y125273D01*
X43116Y125357D01*
X43067Y125438D01*
X43014Y125518D01*
X42958Y125595D01*
X42900Y125671D01*
X42838Y125743D01*
X42773Y125813D01*
X42705Y125881D01*
X42635Y125946D01*
X42563Y126008D01*
X42487Y126066D01*
X42410Y126122D01*
X42330Y126175D01*
X42249Y126224D01*
X42165Y126270D01*
X42079Y126313D01*
X41992Y126352D01*
X41904Y126388D01*
X41814Y126420D01*
X41723Y126448D01*
X41630Y126473D01*
X41537Y126494D01*
X41443Y126511D01*
X41349Y126525D01*
X41254Y126534D01*
X41158Y126540D01*
X41063Y126542D01*
X35137Y126542D01*
X35042Y126540D01*
X34946Y126534D01*
X34851Y126525D01*
X34757Y126511D01*
X34663Y126494D01*
X34570Y126473D01*
X34477Y126448D01*
X34386Y126420D01*
X34296Y126388D01*
X34208Y126352D01*
X34121Y126313D01*
X34035Y126270D01*
X33952Y126224D01*
X33870Y126175D01*
X33790Y126122D01*
X33713Y126066D01*
X33637Y126008D01*
X33565Y125946D01*
X33495Y125881D01*
X33427Y125813D01*
X33362Y125743D01*
X33300Y125671D01*
X33242Y125595D01*
X33186Y125518D01*
X33133Y125438D01*
X33084Y125357D01*
X33038Y125273D01*
X32995Y125187D01*
X32956Y125100D01*
X32920Y125012D01*
X32888Y124922D01*
X32860Y124831D01*
X32835Y124738D01*
X32814Y124645D01*
X32797Y124551D01*
X32783Y124457D01*
X32774Y124362D01*
X32768Y124267D01*
X32766Y124171D01*
X32766Y121801D01*
X39285Y115150D02*
X39285Y112483D01*
X39286Y115150D02*
X39288Y115239D01*
X39294Y115328D01*
X39303Y115417D01*
X39317Y115505D01*
X39334Y115593D01*
X39355Y115680D01*
X39379Y115765D01*
X39408Y115850D01*
X39440Y115933D01*
X39475Y116015D01*
X39514Y116096D01*
X39556Y116174D01*
X39602Y116251D01*
X39651Y116325D01*
X39703Y116398D01*
X39759Y116468D01*
X39817Y116536D01*
X39878Y116601D01*
X39942Y116663D01*
X40008Y116723D01*
X40077Y116779D01*
X40148Y116833D01*
X40222Y116884D01*
X40297Y116931D01*
X40375Y116975D01*
X40454Y117016D01*
X40535Y117053D01*
X40618Y117087D01*
X40702Y117117D01*
X40787Y117143D01*
X40874Y117166D01*
X40961Y117185D01*
X41049Y117201D01*
X41137Y117212D01*
X41226Y117220D01*
X41315Y117224D01*
X41405Y117224D01*
X41494Y117220D01*
X41583Y117212D01*
X41671Y117201D01*
X41759Y117185D01*
X41846Y117166D01*
X41933Y117143D01*
X42018Y117117D01*
X42102Y117087D01*
X42185Y117053D01*
X42266Y117016D01*
X42345Y116975D01*
X42423Y116931D01*
X42498Y116884D01*
X42572Y116833D01*
X42643Y116779D01*
X42712Y116723D01*
X42778Y116663D01*
X42842Y116601D01*
X42903Y116536D01*
X42961Y116468D01*
X43017Y116398D01*
X43069Y116325D01*
X43118Y116251D01*
X43164Y116174D01*
X43206Y116096D01*
X43245Y116015D01*
X43280Y115933D01*
X43312Y115850D01*
X43341Y115765D01*
X43365Y115680D01*
X43386Y115593D01*
X43403Y115505D01*
X43417Y115417D01*
X43426Y115328D01*
X43432Y115239D01*
X43434Y115150D01*
X43434Y112483D01*
X38100Y112483D01*
X38018Y112485D01*
X37936Y112491D01*
X37854Y112500D01*
X37773Y112513D01*
X37693Y112530D01*
X37613Y112551D01*
X37535Y112575D01*
X37458Y112603D01*
X37382Y112634D01*
X37307Y112669D01*
X37235Y112708D01*
X37164Y112749D01*
X37095Y112794D01*
X37029Y112842D01*
X36964Y112893D01*
X36902Y112947D01*
X36843Y113004D01*
X36786Y113063D01*
X36732Y113125D01*
X36681Y113190D01*
X36633Y113256D01*
X36588Y113325D01*
X36547Y113396D01*
X36508Y113468D01*
X36473Y113543D01*
X36442Y113619D01*
X36414Y113696D01*
X36390Y113774D01*
X36369Y113854D01*
X36352Y113934D01*
X36339Y114015D01*
X36330Y114097D01*
X36324Y114179D01*
X36322Y114261D01*
X36322Y116632D01*
X32766Y106816D02*
X41656Y106816D01*
X41738Y106814D01*
X41820Y106808D01*
X41902Y106799D01*
X41983Y106786D01*
X42063Y106769D01*
X42143Y106748D01*
X42221Y106724D01*
X42298Y106696D01*
X42374Y106665D01*
X42449Y106630D01*
X42521Y106591D01*
X42592Y106550D01*
X42661Y106505D01*
X42727Y106457D01*
X42792Y106406D01*
X42854Y106352D01*
X42913Y106295D01*
X42970Y106236D01*
X43024Y106174D01*
X43075Y106109D01*
X43123Y106043D01*
X43168Y105974D01*
X43209Y105903D01*
X43248Y105831D01*
X43283Y105756D01*
X43314Y105680D01*
X43342Y105603D01*
X43366Y105525D01*
X43387Y105445D01*
X43404Y105365D01*
X43417Y105284D01*
X43426Y105202D01*
X43432Y105120D01*
X43434Y105038D01*
X41656Y100720D02*
X32766Y100720D01*
X41656Y100720D02*
X41738Y100718D01*
X41820Y100712D01*
X41902Y100703D01*
X41983Y100690D01*
X42063Y100673D01*
X42143Y100652D01*
X42221Y100628D01*
X42298Y100600D01*
X42374Y100569D01*
X42449Y100534D01*
X42521Y100495D01*
X42592Y100454D01*
X42661Y100409D01*
X42727Y100361D01*
X42792Y100310D01*
X42854Y100256D01*
X42913Y100199D01*
X42970Y100140D01*
X43024Y100078D01*
X43075Y100013D01*
X43123Y99947D01*
X43168Y99878D01*
X43209Y99807D01*
X43248Y99735D01*
X43283Y99660D01*
X43314Y99584D01*
X43342Y99507D01*
X43366Y99429D01*
X43387Y99349D01*
X43404Y99269D01*
X43417Y99188D01*
X43426Y99106D01*
X43432Y99024D01*
X43434Y98942D01*
X51816Y189484D02*
X62484Y189484D01*
X58335Y189484D02*
X51816Y183557D01*
X55965Y187113D02*
X62484Y183557D01*
X62484Y177080D02*
X62484Y174117D01*
X62484Y177080D02*
X62482Y177162D01*
X62476Y177244D01*
X62467Y177326D01*
X62454Y177407D01*
X62437Y177487D01*
X62416Y177567D01*
X62392Y177645D01*
X62364Y177722D01*
X62333Y177798D01*
X62298Y177873D01*
X62259Y177945D01*
X62218Y178016D01*
X62173Y178085D01*
X62125Y178151D01*
X62074Y178216D01*
X62020Y178278D01*
X61963Y178337D01*
X61904Y178394D01*
X61842Y178448D01*
X61777Y178499D01*
X61711Y178547D01*
X61642Y178592D01*
X61571Y178633D01*
X61499Y178672D01*
X61424Y178707D01*
X61348Y178738D01*
X61271Y178766D01*
X61193Y178790D01*
X61113Y178811D01*
X61033Y178828D01*
X60952Y178841D01*
X60870Y178850D01*
X60788Y178856D01*
X60706Y178858D01*
X57743Y178858D01*
X57743Y178859D02*
X57646Y178857D01*
X57550Y178851D01*
X57454Y178841D01*
X57358Y178827D01*
X57263Y178810D01*
X57168Y178788D01*
X57075Y178763D01*
X56983Y178734D01*
X56892Y178701D01*
X56802Y178664D01*
X56714Y178624D01*
X56628Y178580D01*
X56544Y178533D01*
X56461Y178483D01*
X56381Y178429D01*
X56303Y178371D01*
X56227Y178311D01*
X56154Y178248D01*
X56084Y178182D01*
X56016Y178112D01*
X55951Y178041D01*
X55889Y177966D01*
X55831Y177889D01*
X55775Y177810D01*
X55723Y177729D01*
X55674Y177645D01*
X55628Y177560D01*
X55586Y177473D01*
X55548Y177384D01*
X55513Y177294D01*
X55482Y177202D01*
X55455Y177109D01*
X55431Y177016D01*
X55412Y176921D01*
X55396Y176825D01*
X55384Y176729D01*
X55376Y176633D01*
X55372Y176536D01*
X55372Y176440D01*
X55376Y176343D01*
X55384Y176247D01*
X55396Y176151D01*
X55412Y176055D01*
X55431Y175960D01*
X55455Y175867D01*
X55482Y175774D01*
X55513Y175682D01*
X55548Y175592D01*
X55586Y175503D01*
X55628Y175416D01*
X55674Y175331D01*
X55723Y175247D01*
X55775Y175166D01*
X55831Y175087D01*
X55889Y175010D01*
X55951Y174935D01*
X56016Y174864D01*
X56084Y174794D01*
X56154Y174728D01*
X56227Y174665D01*
X56303Y174605D01*
X56381Y174547D01*
X56461Y174493D01*
X56544Y174443D01*
X56628Y174396D01*
X56714Y174352D01*
X56802Y174312D01*
X56892Y174275D01*
X56983Y174242D01*
X57075Y174213D01*
X57168Y174188D01*
X57263Y174166D01*
X57358Y174149D01*
X57454Y174135D01*
X57550Y174125D01*
X57646Y174119D01*
X57743Y174117D01*
X58928Y174117D01*
X58928Y178858D01*
X55372Y169333D02*
X62484Y166963D01*
X55372Y164592D01*
X55372Y160105D02*
X62484Y160105D01*
X52409Y160401D02*
X51816Y160401D01*
X51816Y159808D01*
X52409Y159808D01*
X52409Y160401D01*
X55372Y154855D02*
X62484Y154855D01*
X55372Y154855D02*
X55372Y151892D01*
X55374Y151810D01*
X55380Y151728D01*
X55389Y151646D01*
X55402Y151565D01*
X55419Y151485D01*
X55440Y151405D01*
X55464Y151327D01*
X55492Y151250D01*
X55523Y151174D01*
X55558Y151099D01*
X55597Y151027D01*
X55638Y150956D01*
X55683Y150887D01*
X55731Y150821D01*
X55782Y150756D01*
X55836Y150694D01*
X55893Y150635D01*
X55952Y150578D01*
X56014Y150524D01*
X56079Y150473D01*
X56145Y150425D01*
X56214Y150380D01*
X56285Y150339D01*
X56357Y150300D01*
X56432Y150265D01*
X56508Y150234D01*
X56585Y150206D01*
X56663Y150182D01*
X56743Y150161D01*
X56823Y150144D01*
X56904Y150131D01*
X56986Y150122D01*
X57068Y150116D01*
X57150Y150114D01*
X62484Y150114D01*
X62484Y136186D02*
X51816Y138557D01*
X55372Y133816D02*
X62484Y136186D01*
X62484Y131445D02*
X55372Y133816D01*
X51816Y129074D02*
X62484Y131445D01*
X58335Y122008D02*
X58335Y119341D01*
X58336Y122008D02*
X58338Y122097D01*
X58344Y122186D01*
X58353Y122275D01*
X58367Y122363D01*
X58384Y122451D01*
X58405Y122538D01*
X58429Y122623D01*
X58458Y122708D01*
X58490Y122791D01*
X58525Y122873D01*
X58564Y122954D01*
X58606Y123032D01*
X58652Y123109D01*
X58701Y123183D01*
X58753Y123256D01*
X58809Y123326D01*
X58867Y123394D01*
X58928Y123459D01*
X58992Y123521D01*
X59058Y123581D01*
X59127Y123637D01*
X59198Y123691D01*
X59272Y123742D01*
X59347Y123789D01*
X59425Y123833D01*
X59504Y123874D01*
X59585Y123911D01*
X59668Y123945D01*
X59752Y123975D01*
X59837Y124001D01*
X59924Y124024D01*
X60011Y124043D01*
X60099Y124059D01*
X60187Y124070D01*
X60276Y124078D01*
X60365Y124082D01*
X60455Y124082D01*
X60544Y124078D01*
X60633Y124070D01*
X60721Y124059D01*
X60809Y124043D01*
X60896Y124024D01*
X60983Y124001D01*
X61068Y123975D01*
X61152Y123945D01*
X61235Y123911D01*
X61316Y123874D01*
X61395Y123833D01*
X61473Y123789D01*
X61548Y123742D01*
X61622Y123691D01*
X61693Y123637D01*
X61762Y123581D01*
X61828Y123521D01*
X61892Y123459D01*
X61953Y123394D01*
X62011Y123326D01*
X62067Y123256D01*
X62119Y123183D01*
X62168Y123109D01*
X62214Y123032D01*
X62256Y122954D01*
X62295Y122873D01*
X62330Y122791D01*
X62362Y122708D01*
X62391Y122623D01*
X62415Y122538D01*
X62436Y122451D01*
X62453Y122363D01*
X62467Y122275D01*
X62476Y122186D01*
X62482Y122097D01*
X62484Y122008D01*
X62484Y119341D01*
X57150Y119341D01*
X57068Y119343D01*
X56986Y119349D01*
X56904Y119358D01*
X56823Y119371D01*
X56743Y119388D01*
X56663Y119409D01*
X56585Y119433D01*
X56508Y119461D01*
X56432Y119492D01*
X56357Y119527D01*
X56285Y119566D01*
X56214Y119607D01*
X56145Y119652D01*
X56079Y119700D01*
X56014Y119751D01*
X55952Y119805D01*
X55893Y119862D01*
X55836Y119921D01*
X55782Y119983D01*
X55731Y120048D01*
X55683Y120114D01*
X55638Y120183D01*
X55597Y120254D01*
X55558Y120326D01*
X55523Y120401D01*
X55492Y120477D01*
X55464Y120554D01*
X55440Y120632D01*
X55419Y120712D01*
X55402Y120792D01*
X55389Y120873D01*
X55380Y120955D01*
X55374Y121037D01*
X55372Y121119D01*
X55372Y123490D01*
X51816Y113674D02*
X60706Y113674D01*
X60788Y113672D01*
X60870Y113666D01*
X60952Y113657D01*
X61033Y113644D01*
X61113Y113627D01*
X61193Y113606D01*
X61271Y113582D01*
X61348Y113554D01*
X61424Y113523D01*
X61499Y113488D01*
X61571Y113449D01*
X61642Y113408D01*
X61711Y113363D01*
X61777Y113315D01*
X61842Y113264D01*
X61904Y113210D01*
X61963Y113153D01*
X62020Y113094D01*
X62074Y113032D01*
X62125Y112967D01*
X62173Y112901D01*
X62218Y112832D01*
X62259Y112761D01*
X62298Y112689D01*
X62333Y112614D01*
X62364Y112538D01*
X62392Y112461D01*
X62416Y112383D01*
X62437Y112303D01*
X62454Y112223D01*
X62467Y112142D01*
X62476Y112060D01*
X62482Y111978D01*
X62484Y111896D01*
X55372Y108681D02*
X55372Y105125D01*
X51816Y107496D02*
X60706Y107496D01*
X60788Y107494D01*
X60870Y107488D01*
X60952Y107479D01*
X61033Y107466D01*
X61113Y107449D01*
X61193Y107428D01*
X61271Y107404D01*
X61348Y107376D01*
X61424Y107345D01*
X61499Y107310D01*
X61571Y107271D01*
X61642Y107230D01*
X61711Y107185D01*
X61777Y107137D01*
X61842Y107086D01*
X61904Y107032D01*
X61963Y106975D01*
X62020Y106916D01*
X62074Y106854D01*
X62125Y106789D01*
X62173Y106723D01*
X62218Y106654D01*
X62259Y106583D01*
X62298Y106511D01*
X62333Y106436D01*
X62364Y106360D01*
X62392Y106283D01*
X62416Y106205D01*
X62437Y106125D01*
X62454Y106045D01*
X62467Y105964D01*
X62476Y105882D01*
X62482Y105800D01*
X62484Y105718D01*
X62484Y105125D01*
X60113Y100373D02*
X57743Y100373D01*
X57646Y100371D01*
X57550Y100365D01*
X57454Y100355D01*
X57358Y100341D01*
X57263Y100324D01*
X57168Y100302D01*
X57075Y100277D01*
X56983Y100248D01*
X56892Y100215D01*
X56802Y100178D01*
X56714Y100138D01*
X56628Y100094D01*
X56544Y100047D01*
X56461Y99997D01*
X56381Y99943D01*
X56303Y99885D01*
X56227Y99825D01*
X56154Y99762D01*
X56084Y99696D01*
X56016Y99626D01*
X55951Y99555D01*
X55889Y99480D01*
X55831Y99403D01*
X55775Y99324D01*
X55723Y99243D01*
X55674Y99159D01*
X55628Y99074D01*
X55586Y98987D01*
X55548Y98898D01*
X55513Y98808D01*
X55482Y98716D01*
X55455Y98623D01*
X55431Y98530D01*
X55412Y98435D01*
X55396Y98339D01*
X55384Y98243D01*
X55376Y98147D01*
X55372Y98050D01*
X55372Y97954D01*
X55376Y97857D01*
X55384Y97761D01*
X55396Y97665D01*
X55412Y97569D01*
X55431Y97474D01*
X55455Y97381D01*
X55482Y97288D01*
X55513Y97196D01*
X55548Y97106D01*
X55586Y97017D01*
X55628Y96930D01*
X55674Y96845D01*
X55723Y96761D01*
X55775Y96680D01*
X55831Y96601D01*
X55889Y96524D01*
X55951Y96449D01*
X56016Y96378D01*
X56084Y96308D01*
X56154Y96242D01*
X56227Y96179D01*
X56303Y96119D01*
X56381Y96061D01*
X56461Y96007D01*
X56544Y95957D01*
X56628Y95910D01*
X56714Y95866D01*
X56802Y95826D01*
X56892Y95789D01*
X56983Y95756D01*
X57075Y95727D01*
X57168Y95702D01*
X57263Y95680D01*
X57358Y95663D01*
X57454Y95649D01*
X57550Y95639D01*
X57646Y95633D01*
X57743Y95631D01*
X60113Y95631D01*
X60210Y95633D01*
X60306Y95639D01*
X60402Y95649D01*
X60498Y95663D01*
X60593Y95680D01*
X60688Y95702D01*
X60781Y95727D01*
X60873Y95756D01*
X60964Y95789D01*
X61054Y95826D01*
X61142Y95866D01*
X61228Y95910D01*
X61312Y95957D01*
X61395Y96007D01*
X61475Y96061D01*
X61553Y96119D01*
X61629Y96179D01*
X61702Y96242D01*
X61772Y96308D01*
X61840Y96378D01*
X61905Y96449D01*
X61967Y96524D01*
X62025Y96601D01*
X62081Y96680D01*
X62133Y96761D01*
X62182Y96845D01*
X62228Y96930D01*
X62270Y97017D01*
X62308Y97106D01*
X62343Y97196D01*
X62374Y97288D01*
X62401Y97381D01*
X62425Y97474D01*
X62444Y97569D01*
X62460Y97665D01*
X62472Y97761D01*
X62480Y97857D01*
X62484Y97954D01*
X62484Y98050D01*
X62480Y98147D01*
X62472Y98243D01*
X62460Y98339D01*
X62444Y98435D01*
X62425Y98530D01*
X62401Y98623D01*
X62374Y98716D01*
X62343Y98808D01*
X62308Y98898D01*
X62270Y98987D01*
X62228Y99074D01*
X62182Y99159D01*
X62133Y99243D01*
X62081Y99324D01*
X62025Y99403D01*
X61967Y99480D01*
X61905Y99555D01*
X61840Y99626D01*
X61772Y99696D01*
X61702Y99762D01*
X61629Y99825D01*
X61553Y99885D01*
X61475Y99943D01*
X61395Y99997D01*
X61312Y100047D01*
X61228Y100094D01*
X61142Y100138D01*
X61054Y100178D01*
X60964Y100215D01*
X60873Y100248D01*
X60781Y100277D01*
X60688Y100302D01*
X60593Y100324D01*
X60498Y100341D01*
X60402Y100355D01*
X60306Y100365D01*
X60210Y100371D01*
X60113Y100373D01*
X62484Y90086D02*
X55372Y90086D01*
X55372Y87122D01*
X55374Y87040D01*
X55380Y86958D01*
X55389Y86876D01*
X55402Y86795D01*
X55419Y86715D01*
X55440Y86635D01*
X55464Y86557D01*
X55492Y86480D01*
X55523Y86404D01*
X55558Y86329D01*
X55597Y86257D01*
X55638Y86186D01*
X55683Y86117D01*
X55731Y86051D01*
X55782Y85986D01*
X55836Y85924D01*
X55893Y85865D01*
X55952Y85808D01*
X56014Y85754D01*
X56079Y85703D01*
X56145Y85655D01*
X56214Y85610D01*
X56285Y85569D01*
X56357Y85530D01*
X56432Y85495D01*
X56508Y85464D01*
X56585Y85436D01*
X56663Y85412D01*
X56743Y85391D01*
X56823Y85374D01*
X56904Y85361D01*
X56986Y85352D01*
X57068Y85346D01*
X57150Y85344D01*
X62484Y85344D01*
X77385Y182372D02*
X77385Y189484D01*
X80941Y185928D02*
X73829Y185928D01*
X79163Y176699D02*
X70866Y174329D01*
X79163Y176699D02*
X79163Y170773D01*
X76793Y172551D02*
X81534Y172551D01*
X79163Y165269D02*
X70866Y162899D01*
X79163Y165269D02*
X79163Y159343D01*
X76793Y161121D02*
X81534Y161121D01*
X72051Y147743D02*
X70866Y147743D01*
X70866Y141817D01*
X81534Y144780D01*
X78571Y136313D02*
X78464Y136311D01*
X78357Y136305D01*
X78251Y136296D01*
X78145Y136282D01*
X78039Y136265D01*
X77934Y136244D01*
X77830Y136219D01*
X77727Y136190D01*
X77625Y136158D01*
X77524Y136122D01*
X77425Y136082D01*
X77327Y136039D01*
X77231Y135992D01*
X77136Y135942D01*
X77043Y135889D01*
X76953Y135832D01*
X76864Y135772D01*
X76778Y135709D01*
X76694Y135643D01*
X76612Y135573D01*
X76533Y135501D01*
X76457Y135426D01*
X76383Y135348D01*
X76313Y135268D01*
X76245Y135185D01*
X76180Y135100D01*
X76119Y135013D01*
X76060Y134923D01*
X76005Y134832D01*
X75953Y134738D01*
X75905Y134642D01*
X75860Y134545D01*
X75818Y134447D01*
X75781Y134347D01*
X75746Y134245D01*
X75716Y134143D01*
X75689Y134039D01*
X75666Y133935D01*
X75647Y133829D01*
X75632Y133723D01*
X75620Y133617D01*
X75612Y133510D01*
X75608Y133403D01*
X75608Y133297D01*
X75612Y133190D01*
X75620Y133083D01*
X75632Y132977D01*
X75647Y132871D01*
X75666Y132765D01*
X75689Y132661D01*
X75716Y132557D01*
X75746Y132455D01*
X75781Y132353D01*
X75818Y132253D01*
X75860Y132155D01*
X75905Y132058D01*
X75953Y131962D01*
X76005Y131869D01*
X76060Y131777D01*
X76119Y131687D01*
X76180Y131600D01*
X76245Y131515D01*
X76313Y131432D01*
X76383Y131352D01*
X76457Y131274D01*
X76533Y131199D01*
X76612Y131127D01*
X76694Y131057D01*
X76778Y130991D01*
X76864Y130928D01*
X76953Y130868D01*
X77043Y130811D01*
X77136Y130758D01*
X77231Y130708D01*
X77327Y130661D01*
X77425Y130618D01*
X77524Y130578D01*
X77625Y130542D01*
X77727Y130510D01*
X77830Y130481D01*
X77934Y130456D01*
X78039Y130435D01*
X78145Y130418D01*
X78251Y130404D01*
X78357Y130395D01*
X78464Y130389D01*
X78571Y130387D01*
X78678Y130389D01*
X78785Y130395D01*
X78891Y130404D01*
X78997Y130418D01*
X79103Y130435D01*
X79208Y130456D01*
X79312Y130481D01*
X79415Y130510D01*
X79517Y130542D01*
X79618Y130578D01*
X79717Y130618D01*
X79815Y130661D01*
X79911Y130708D01*
X80006Y130758D01*
X80099Y130811D01*
X80189Y130868D01*
X80278Y130928D01*
X80364Y130991D01*
X80448Y131057D01*
X80530Y131127D01*
X80609Y131199D01*
X80685Y131274D01*
X80759Y131352D01*
X80829Y131432D01*
X80897Y131515D01*
X80962Y131600D01*
X81023Y131687D01*
X81082Y131777D01*
X81137Y131869D01*
X81189Y131962D01*
X81237Y132058D01*
X81282Y132155D01*
X81324Y132253D01*
X81361Y132353D01*
X81396Y132455D01*
X81426Y132557D01*
X81453Y132661D01*
X81476Y132765D01*
X81495Y132871D01*
X81510Y132977D01*
X81522Y133083D01*
X81530Y133190D01*
X81534Y133297D01*
X81534Y133403D01*
X81530Y133510D01*
X81522Y133617D01*
X81510Y133723D01*
X81495Y133829D01*
X81476Y133935D01*
X81453Y134039D01*
X81426Y134143D01*
X81396Y134245D01*
X81361Y134347D01*
X81324Y134447D01*
X81282Y134545D01*
X81237Y134642D01*
X81189Y134738D01*
X81137Y134831D01*
X81082Y134923D01*
X81023Y135013D01*
X80962Y135100D01*
X80897Y135185D01*
X80829Y135268D01*
X80759Y135348D01*
X80685Y135426D01*
X80609Y135501D01*
X80530Y135573D01*
X80448Y135643D01*
X80364Y135709D01*
X80278Y135772D01*
X80189Y135832D01*
X80099Y135889D01*
X80006Y135942D01*
X79911Y135992D01*
X79815Y136039D01*
X79717Y136082D01*
X79618Y136122D01*
X79517Y136158D01*
X79415Y136190D01*
X79312Y136219D01*
X79208Y136244D01*
X79103Y136265D01*
X78997Y136282D01*
X78891Y136296D01*
X78785Y136305D01*
X78678Y136311D01*
X78571Y136313D01*
X73237Y135721D02*
X73140Y135719D01*
X73044Y135713D01*
X72948Y135703D01*
X72852Y135689D01*
X72757Y135672D01*
X72662Y135650D01*
X72569Y135625D01*
X72477Y135596D01*
X72386Y135563D01*
X72296Y135526D01*
X72208Y135486D01*
X72122Y135442D01*
X72038Y135395D01*
X71955Y135345D01*
X71875Y135291D01*
X71797Y135233D01*
X71721Y135173D01*
X71648Y135110D01*
X71578Y135044D01*
X71510Y134974D01*
X71445Y134903D01*
X71383Y134828D01*
X71325Y134751D01*
X71269Y134672D01*
X71217Y134591D01*
X71168Y134507D01*
X71122Y134422D01*
X71080Y134335D01*
X71042Y134246D01*
X71007Y134156D01*
X70976Y134064D01*
X70949Y133971D01*
X70925Y133878D01*
X70906Y133783D01*
X70890Y133687D01*
X70878Y133591D01*
X70870Y133495D01*
X70866Y133398D01*
X70866Y133302D01*
X70870Y133205D01*
X70878Y133109D01*
X70890Y133013D01*
X70906Y132917D01*
X70925Y132822D01*
X70949Y132729D01*
X70976Y132636D01*
X71007Y132544D01*
X71042Y132454D01*
X71080Y132365D01*
X71122Y132278D01*
X71168Y132193D01*
X71217Y132109D01*
X71269Y132028D01*
X71325Y131949D01*
X71383Y131872D01*
X71445Y131797D01*
X71510Y131726D01*
X71578Y131656D01*
X71648Y131590D01*
X71721Y131527D01*
X71797Y131467D01*
X71875Y131409D01*
X71955Y131355D01*
X72038Y131305D01*
X72122Y131258D01*
X72208Y131214D01*
X72296Y131174D01*
X72386Y131137D01*
X72477Y131104D01*
X72569Y131075D01*
X72662Y131050D01*
X72757Y131028D01*
X72852Y131011D01*
X72948Y130997D01*
X73044Y130987D01*
X73140Y130981D01*
X73237Y130979D01*
X73334Y130981D01*
X73430Y130987D01*
X73526Y130997D01*
X73622Y131011D01*
X73717Y131028D01*
X73812Y131050D01*
X73905Y131075D01*
X73997Y131104D01*
X74088Y131137D01*
X74178Y131174D01*
X74266Y131214D01*
X74352Y131258D01*
X74436Y131305D01*
X74519Y131355D01*
X74599Y131409D01*
X74677Y131467D01*
X74753Y131527D01*
X74826Y131590D01*
X74896Y131656D01*
X74964Y131726D01*
X75029Y131797D01*
X75091Y131872D01*
X75149Y131949D01*
X75205Y132028D01*
X75257Y132109D01*
X75306Y132193D01*
X75352Y132278D01*
X75394Y132365D01*
X75432Y132454D01*
X75467Y132544D01*
X75498Y132636D01*
X75525Y132729D01*
X75549Y132822D01*
X75568Y132917D01*
X75584Y133013D01*
X75596Y133109D01*
X75604Y133205D01*
X75608Y133302D01*
X75608Y133398D01*
X75604Y133495D01*
X75596Y133591D01*
X75584Y133687D01*
X75568Y133783D01*
X75549Y133878D01*
X75525Y133971D01*
X75498Y134064D01*
X75467Y134156D01*
X75432Y134246D01*
X75394Y134335D01*
X75352Y134422D01*
X75306Y134507D01*
X75257Y134591D01*
X75205Y134672D01*
X75149Y134751D01*
X75091Y134828D01*
X75029Y134903D01*
X74964Y134974D01*
X74896Y135044D01*
X74826Y135110D01*
X74753Y135173D01*
X74677Y135233D01*
X74599Y135291D01*
X74519Y135345D01*
X74436Y135395D01*
X74352Y135442D01*
X74266Y135486D01*
X74178Y135526D01*
X74088Y135563D01*
X73997Y135596D01*
X73905Y135625D01*
X73812Y135650D01*
X73717Y135672D01*
X73622Y135689D01*
X73526Y135703D01*
X73430Y135713D01*
X73334Y135719D01*
X73237Y135721D01*
X75607Y124883D02*
X75607Y121327D01*
X75609Y121232D01*
X75615Y121136D01*
X75624Y121041D01*
X75638Y120947D01*
X75655Y120853D01*
X75676Y120760D01*
X75701Y120667D01*
X75729Y120576D01*
X75761Y120486D01*
X75797Y120398D01*
X75836Y120311D01*
X75879Y120225D01*
X75925Y120142D01*
X75974Y120060D01*
X76027Y119980D01*
X76083Y119903D01*
X76141Y119827D01*
X76203Y119755D01*
X76268Y119685D01*
X76336Y119617D01*
X76406Y119552D01*
X76478Y119490D01*
X76554Y119432D01*
X76631Y119376D01*
X76711Y119323D01*
X76792Y119274D01*
X76876Y119228D01*
X76962Y119185D01*
X77049Y119146D01*
X77137Y119110D01*
X77227Y119078D01*
X77318Y119050D01*
X77411Y119025D01*
X77504Y119004D01*
X77598Y118987D01*
X77692Y118973D01*
X77787Y118964D01*
X77883Y118958D01*
X77978Y118956D01*
X77978Y118957D02*
X78571Y118957D01*
X78678Y118959D01*
X78785Y118965D01*
X78891Y118974D01*
X78997Y118988D01*
X79103Y119005D01*
X79208Y119026D01*
X79312Y119051D01*
X79415Y119080D01*
X79517Y119112D01*
X79618Y119148D01*
X79717Y119188D01*
X79815Y119231D01*
X79911Y119278D01*
X80006Y119328D01*
X80099Y119381D01*
X80189Y119438D01*
X80278Y119498D01*
X80364Y119561D01*
X80448Y119627D01*
X80530Y119697D01*
X80609Y119769D01*
X80685Y119844D01*
X80759Y119922D01*
X80829Y120002D01*
X80897Y120085D01*
X80962Y120170D01*
X81023Y120257D01*
X81082Y120347D01*
X81137Y120438D01*
X81189Y120532D01*
X81237Y120628D01*
X81282Y120725D01*
X81324Y120823D01*
X81361Y120923D01*
X81396Y121025D01*
X81426Y121127D01*
X81453Y121231D01*
X81476Y121335D01*
X81495Y121441D01*
X81510Y121547D01*
X81522Y121653D01*
X81530Y121760D01*
X81534Y121867D01*
X81534Y121973D01*
X81530Y122080D01*
X81522Y122187D01*
X81510Y122293D01*
X81495Y122399D01*
X81476Y122505D01*
X81453Y122609D01*
X81426Y122713D01*
X81396Y122815D01*
X81361Y122917D01*
X81324Y123017D01*
X81282Y123115D01*
X81237Y123212D01*
X81189Y123308D01*
X81137Y123401D01*
X81082Y123493D01*
X81023Y123583D01*
X80962Y123670D01*
X80897Y123755D01*
X80829Y123838D01*
X80759Y123918D01*
X80685Y123996D01*
X80609Y124071D01*
X80530Y124143D01*
X80448Y124213D01*
X80364Y124279D01*
X80278Y124342D01*
X80189Y124402D01*
X80099Y124459D01*
X80006Y124512D01*
X79911Y124562D01*
X79815Y124609D01*
X79717Y124652D01*
X79618Y124692D01*
X79517Y124728D01*
X79415Y124760D01*
X79312Y124789D01*
X79208Y124814D01*
X79103Y124835D01*
X78997Y124852D01*
X78891Y124866D01*
X78785Y124875D01*
X78678Y124881D01*
X78571Y124883D01*
X75607Y124883D01*
X75472Y124881D01*
X75336Y124875D01*
X75201Y124866D01*
X75067Y124852D01*
X74932Y124835D01*
X74799Y124814D01*
X74665Y124789D01*
X74533Y124760D01*
X74402Y124727D01*
X74271Y124691D01*
X74142Y124651D01*
X74014Y124607D01*
X73887Y124560D01*
X73761Y124509D01*
X73638Y124455D01*
X73515Y124397D01*
X73395Y124335D01*
X73276Y124270D01*
X73159Y124202D01*
X73044Y124130D01*
X72931Y124056D01*
X72820Y123978D01*
X72712Y123896D01*
X72606Y123812D01*
X72502Y123725D01*
X72401Y123635D01*
X72303Y123542D01*
X72207Y123446D01*
X72114Y123348D01*
X72024Y123247D01*
X71937Y123143D01*
X71853Y123037D01*
X71771Y122929D01*
X71693Y122818D01*
X71619Y122705D01*
X71547Y122590D01*
X71479Y122473D01*
X71414Y122355D01*
X71352Y122234D01*
X71294Y122112D01*
X71240Y121988D01*
X71189Y121862D01*
X71142Y121735D01*
X71098Y121607D01*
X71058Y121478D01*
X71022Y121347D01*
X70989Y121216D01*
X70960Y121084D01*
X70935Y120951D01*
X70914Y120817D01*
X70897Y120682D01*
X70883Y120548D01*
X70874Y120413D01*
X70868Y120277D01*
X70866Y120142D01*
X70866Y113454D02*
X72051Y113454D01*
X70866Y113454D02*
X70866Y107527D01*
X81534Y110490D01*
X78571Y95927D02*
X78464Y95925D01*
X78357Y95919D01*
X78251Y95910D01*
X78145Y95896D01*
X78039Y95879D01*
X77934Y95858D01*
X77830Y95833D01*
X77727Y95804D01*
X77625Y95772D01*
X77524Y95736D01*
X77425Y95696D01*
X77327Y95653D01*
X77231Y95606D01*
X77136Y95556D01*
X77043Y95503D01*
X76953Y95446D01*
X76864Y95386D01*
X76778Y95323D01*
X76694Y95257D01*
X76612Y95187D01*
X76533Y95115D01*
X76457Y95040D01*
X76383Y94962D01*
X76313Y94882D01*
X76245Y94799D01*
X76180Y94714D01*
X76119Y94627D01*
X76060Y94537D01*
X76005Y94446D01*
X75953Y94352D01*
X75905Y94256D01*
X75860Y94159D01*
X75818Y94061D01*
X75781Y93961D01*
X75746Y93859D01*
X75716Y93757D01*
X75689Y93653D01*
X75666Y93549D01*
X75647Y93443D01*
X75632Y93337D01*
X75620Y93231D01*
X75612Y93124D01*
X75608Y93017D01*
X75608Y92911D01*
X75612Y92804D01*
X75620Y92697D01*
X75632Y92591D01*
X75647Y92485D01*
X75666Y92379D01*
X75689Y92275D01*
X75716Y92171D01*
X75746Y92069D01*
X75781Y91967D01*
X75818Y91867D01*
X75860Y91769D01*
X75905Y91672D01*
X75953Y91576D01*
X76005Y91483D01*
X76060Y91391D01*
X76119Y91301D01*
X76180Y91214D01*
X76245Y91129D01*
X76313Y91046D01*
X76383Y90966D01*
X76457Y90888D01*
X76533Y90813D01*
X76612Y90741D01*
X76694Y90671D01*
X76778Y90605D01*
X76864Y90542D01*
X76953Y90482D01*
X77043Y90425D01*
X77136Y90372D01*
X77231Y90322D01*
X77327Y90275D01*
X77425Y90232D01*
X77524Y90192D01*
X77625Y90156D01*
X77727Y90124D01*
X77830Y90095D01*
X77934Y90070D01*
X78039Y90049D01*
X78145Y90032D01*
X78251Y90018D01*
X78357Y90009D01*
X78464Y90003D01*
X78571Y90001D01*
X78678Y90003D01*
X78785Y90009D01*
X78891Y90018D01*
X78997Y90032D01*
X79103Y90049D01*
X79208Y90070D01*
X79312Y90095D01*
X79415Y90124D01*
X79517Y90156D01*
X79618Y90192D01*
X79717Y90232D01*
X79815Y90275D01*
X79911Y90322D01*
X80006Y90372D01*
X80099Y90425D01*
X80189Y90482D01*
X80278Y90542D01*
X80364Y90605D01*
X80448Y90671D01*
X80530Y90741D01*
X80609Y90813D01*
X80685Y90888D01*
X80759Y90966D01*
X80829Y91046D01*
X80897Y91129D01*
X80962Y91214D01*
X81023Y91301D01*
X81082Y91391D01*
X81137Y91482D01*
X81189Y91576D01*
X81237Y91672D01*
X81282Y91769D01*
X81324Y91867D01*
X81361Y91967D01*
X81396Y92069D01*
X81426Y92171D01*
X81453Y92275D01*
X81476Y92379D01*
X81495Y92485D01*
X81510Y92591D01*
X81522Y92697D01*
X81530Y92804D01*
X81534Y92911D01*
X81534Y93017D01*
X81530Y93124D01*
X81522Y93231D01*
X81510Y93337D01*
X81495Y93443D01*
X81476Y93549D01*
X81453Y93653D01*
X81426Y93757D01*
X81396Y93859D01*
X81361Y93961D01*
X81324Y94061D01*
X81282Y94159D01*
X81237Y94256D01*
X81189Y94352D01*
X81137Y94445D01*
X81082Y94537D01*
X81023Y94627D01*
X80962Y94714D01*
X80897Y94799D01*
X80829Y94882D01*
X80759Y94962D01*
X80685Y95040D01*
X80609Y95115D01*
X80530Y95187D01*
X80448Y95257D01*
X80364Y95323D01*
X80278Y95386D01*
X80189Y95446D01*
X80099Y95503D01*
X80006Y95556D01*
X79911Y95606D01*
X79815Y95653D01*
X79717Y95696D01*
X79618Y95736D01*
X79517Y95772D01*
X79415Y95804D01*
X79312Y95833D01*
X79208Y95858D01*
X79103Y95879D01*
X78997Y95896D01*
X78891Y95910D01*
X78785Y95919D01*
X78678Y95925D01*
X78571Y95927D01*
X73237Y95335D02*
X73140Y95333D01*
X73044Y95327D01*
X72948Y95317D01*
X72852Y95303D01*
X72757Y95286D01*
X72662Y95264D01*
X72569Y95239D01*
X72477Y95210D01*
X72386Y95177D01*
X72296Y95140D01*
X72208Y95100D01*
X72122Y95056D01*
X72038Y95009D01*
X71955Y94959D01*
X71875Y94905D01*
X71797Y94847D01*
X71721Y94787D01*
X71648Y94724D01*
X71578Y94658D01*
X71510Y94588D01*
X71445Y94517D01*
X71383Y94442D01*
X71325Y94365D01*
X71269Y94286D01*
X71217Y94205D01*
X71168Y94121D01*
X71122Y94036D01*
X71080Y93949D01*
X71042Y93860D01*
X71007Y93770D01*
X70976Y93678D01*
X70949Y93585D01*
X70925Y93492D01*
X70906Y93397D01*
X70890Y93301D01*
X70878Y93205D01*
X70870Y93109D01*
X70866Y93012D01*
X70866Y92916D01*
X70870Y92819D01*
X70878Y92723D01*
X70890Y92627D01*
X70906Y92531D01*
X70925Y92436D01*
X70949Y92343D01*
X70976Y92250D01*
X71007Y92158D01*
X71042Y92068D01*
X71080Y91979D01*
X71122Y91892D01*
X71168Y91807D01*
X71217Y91723D01*
X71269Y91642D01*
X71325Y91563D01*
X71383Y91486D01*
X71445Y91411D01*
X71510Y91340D01*
X71578Y91270D01*
X71648Y91204D01*
X71721Y91141D01*
X71797Y91081D01*
X71875Y91023D01*
X71955Y90969D01*
X72038Y90919D01*
X72122Y90872D01*
X72208Y90828D01*
X72296Y90788D01*
X72386Y90751D01*
X72477Y90718D01*
X72569Y90689D01*
X72662Y90664D01*
X72757Y90642D01*
X72852Y90625D01*
X72948Y90611D01*
X73044Y90601D01*
X73140Y90595D01*
X73237Y90593D01*
X73334Y90595D01*
X73430Y90601D01*
X73526Y90611D01*
X73622Y90625D01*
X73717Y90642D01*
X73812Y90664D01*
X73905Y90689D01*
X73997Y90718D01*
X74088Y90751D01*
X74178Y90788D01*
X74266Y90828D01*
X74352Y90872D01*
X74436Y90919D01*
X74519Y90969D01*
X74599Y91023D01*
X74677Y91081D01*
X74753Y91141D01*
X74826Y91204D01*
X74896Y91270D01*
X74964Y91340D01*
X75029Y91411D01*
X75091Y91486D01*
X75149Y91563D01*
X75205Y91642D01*
X75257Y91723D01*
X75306Y91807D01*
X75352Y91892D01*
X75394Y91979D01*
X75432Y92068D01*
X75467Y92158D01*
X75498Y92250D01*
X75525Y92343D01*
X75549Y92436D01*
X75568Y92531D01*
X75584Y92627D01*
X75596Y92723D01*
X75604Y92819D01*
X75608Y92916D01*
X75608Y93012D01*
X75604Y93109D01*
X75596Y93205D01*
X75584Y93301D01*
X75568Y93397D01*
X75549Y93492D01*
X75525Y93585D01*
X75498Y93678D01*
X75467Y93770D01*
X75432Y93860D01*
X75394Y93949D01*
X75352Y94036D01*
X75306Y94121D01*
X75257Y94205D01*
X75205Y94286D01*
X75149Y94365D01*
X75091Y94442D01*
X75029Y94517D01*
X74964Y94588D01*
X74896Y94658D01*
X74826Y94724D01*
X74753Y94787D01*
X74677Y94847D01*
X74599Y94905D01*
X74519Y94959D01*
X74436Y95009D01*
X74352Y95056D01*
X74266Y95100D01*
X74178Y95140D01*
X74088Y95177D01*
X73997Y95210D01*
X73905Y95239D01*
X73812Y95264D01*
X73717Y95286D01*
X73622Y95303D01*
X73526Y95317D01*
X73430Y95327D01*
X73334Y95333D01*
X73237Y95335D01*
X70866Y81238D02*
X70868Y81136D01*
X70874Y81034D01*
X70884Y80932D01*
X70897Y80831D01*
X70915Y80730D01*
X70936Y80630D01*
X70961Y80531D01*
X70990Y80433D01*
X71023Y80336D01*
X71059Y80241D01*
X71099Y80147D01*
X71143Y80055D01*
X71190Y79964D01*
X71241Y79875D01*
X71294Y79788D01*
X71352Y79704D01*
X71412Y79621D01*
X71475Y79541D01*
X71542Y79464D01*
X71611Y79389D01*
X71684Y79316D01*
X71759Y79247D01*
X71836Y79180D01*
X71916Y79117D01*
X71999Y79057D01*
X72083Y78999D01*
X72170Y78946D01*
X72259Y78895D01*
X72350Y78848D01*
X72442Y78804D01*
X72536Y78764D01*
X72632Y78728D01*
X72728Y78695D01*
X72826Y78666D01*
X72925Y78641D01*
X73025Y78620D01*
X73126Y78602D01*
X73227Y78589D01*
X73329Y78579D01*
X73431Y78573D01*
X73533Y78571D01*
X70866Y81238D02*
X70868Y81354D01*
X70874Y81471D01*
X70884Y81587D01*
X70898Y81702D01*
X70915Y81817D01*
X70937Y81932D01*
X70963Y82045D01*
X70992Y82158D01*
X71025Y82270D01*
X71062Y82380D01*
X71103Y82489D01*
X71147Y82597D01*
X71195Y82703D01*
X71247Y82807D01*
X71302Y82910D01*
X71360Y83011D01*
X71422Y83109D01*
X71487Y83206D01*
X71556Y83300D01*
X71628Y83392D01*
X71702Y83481D01*
X71780Y83568D01*
X71861Y83652D01*
X71944Y83733D01*
X72030Y83811D01*
X72119Y83887D01*
X72210Y83959D01*
X72304Y84028D01*
X72400Y84094D01*
X72498Y84157D01*
X72598Y84216D01*
X72700Y84272D01*
X72805Y84324D01*
X72910Y84373D01*
X73018Y84418D01*
X73126Y84460D01*
X73237Y84497D01*
X75608Y79459D02*
X75534Y79384D01*
X75457Y79312D01*
X75377Y79243D01*
X75295Y79176D01*
X75211Y79113D01*
X75124Y79053D01*
X75036Y78996D01*
X74945Y78942D01*
X74852Y78892D01*
X74758Y78845D01*
X74662Y78802D01*
X74564Y78762D01*
X74465Y78726D01*
X74365Y78693D01*
X74263Y78665D01*
X74161Y78640D01*
X74057Y78618D01*
X73953Y78601D01*
X73849Y78587D01*
X73744Y78578D01*
X73638Y78572D01*
X73533Y78570D01*
X75607Y79460D02*
X81534Y84498D01*
X81534Y78571D01*
X81534Y73068D02*
X81534Y69512D01*
X81532Y69417D01*
X81526Y69321D01*
X81517Y69226D01*
X81503Y69132D01*
X81486Y69038D01*
X81465Y68945D01*
X81440Y68852D01*
X81412Y68761D01*
X81380Y68671D01*
X81344Y68583D01*
X81305Y68496D01*
X81262Y68410D01*
X81216Y68327D01*
X81167Y68245D01*
X81114Y68165D01*
X81058Y68088D01*
X81000Y68012D01*
X80938Y67940D01*
X80873Y67870D01*
X80805Y67802D01*
X80735Y67737D01*
X80663Y67675D01*
X80587Y67617D01*
X80510Y67561D01*
X80430Y67508D01*
X80349Y67459D01*
X80265Y67413D01*
X80179Y67370D01*
X80092Y67331D01*
X80004Y67295D01*
X79914Y67263D01*
X79823Y67235D01*
X79730Y67210D01*
X79637Y67189D01*
X79543Y67172D01*
X79449Y67158D01*
X79354Y67149D01*
X79259Y67143D01*
X79163Y67141D01*
X77978Y67141D01*
X77883Y67143D01*
X77787Y67149D01*
X77692Y67158D01*
X77598Y67172D01*
X77504Y67189D01*
X77411Y67210D01*
X77318Y67235D01*
X77227Y67263D01*
X77137Y67295D01*
X77049Y67331D01*
X76962Y67370D01*
X76876Y67413D01*
X76792Y67459D01*
X76711Y67508D01*
X76631Y67561D01*
X76554Y67617D01*
X76478Y67675D01*
X76406Y67737D01*
X76336Y67802D01*
X76268Y67870D01*
X76203Y67940D01*
X76141Y68012D01*
X76083Y68088D01*
X76027Y68165D01*
X75974Y68245D01*
X75925Y68327D01*
X75879Y68410D01*
X75836Y68496D01*
X75797Y68583D01*
X75761Y68671D01*
X75729Y68761D01*
X75701Y68852D01*
X75676Y68945D01*
X75655Y69038D01*
X75638Y69132D01*
X75624Y69226D01*
X75615Y69321D01*
X75609Y69417D01*
X75607Y69512D01*
X75607Y73068D01*
X70866Y73068D01*
X70866Y67141D01*
X78571Y55541D02*
X78464Y55539D01*
X78357Y55533D01*
X78251Y55524D01*
X78145Y55510D01*
X78039Y55493D01*
X77934Y55472D01*
X77830Y55447D01*
X77727Y55418D01*
X77625Y55386D01*
X77524Y55350D01*
X77425Y55310D01*
X77327Y55267D01*
X77231Y55220D01*
X77136Y55170D01*
X77043Y55117D01*
X76953Y55060D01*
X76864Y55000D01*
X76778Y54937D01*
X76694Y54871D01*
X76612Y54801D01*
X76533Y54729D01*
X76457Y54654D01*
X76383Y54576D01*
X76313Y54496D01*
X76245Y54413D01*
X76180Y54328D01*
X76119Y54241D01*
X76060Y54151D01*
X76005Y54060D01*
X75953Y53966D01*
X75905Y53870D01*
X75860Y53773D01*
X75818Y53675D01*
X75781Y53575D01*
X75746Y53473D01*
X75716Y53371D01*
X75689Y53267D01*
X75666Y53163D01*
X75647Y53057D01*
X75632Y52951D01*
X75620Y52845D01*
X75612Y52738D01*
X75608Y52631D01*
X75608Y52525D01*
X75612Y52418D01*
X75620Y52311D01*
X75632Y52205D01*
X75647Y52099D01*
X75666Y51993D01*
X75689Y51889D01*
X75716Y51785D01*
X75746Y51683D01*
X75781Y51581D01*
X75818Y51481D01*
X75860Y51383D01*
X75905Y51286D01*
X75953Y51190D01*
X76005Y51097D01*
X76060Y51005D01*
X76119Y50915D01*
X76180Y50828D01*
X76245Y50743D01*
X76313Y50660D01*
X76383Y50580D01*
X76457Y50502D01*
X76533Y50427D01*
X76612Y50355D01*
X76694Y50285D01*
X76778Y50219D01*
X76864Y50156D01*
X76953Y50096D01*
X77043Y50039D01*
X77136Y49986D01*
X77231Y49936D01*
X77327Y49889D01*
X77425Y49846D01*
X77524Y49806D01*
X77625Y49770D01*
X77727Y49738D01*
X77830Y49709D01*
X77934Y49684D01*
X78039Y49663D01*
X78145Y49646D01*
X78251Y49632D01*
X78357Y49623D01*
X78464Y49617D01*
X78571Y49615D01*
X78678Y49617D01*
X78785Y49623D01*
X78891Y49632D01*
X78997Y49646D01*
X79103Y49663D01*
X79208Y49684D01*
X79312Y49709D01*
X79415Y49738D01*
X79517Y49770D01*
X79618Y49806D01*
X79717Y49846D01*
X79815Y49889D01*
X79911Y49936D01*
X80006Y49986D01*
X80099Y50039D01*
X80189Y50096D01*
X80278Y50156D01*
X80364Y50219D01*
X80448Y50285D01*
X80530Y50355D01*
X80609Y50427D01*
X80685Y50502D01*
X80759Y50580D01*
X80829Y50660D01*
X80897Y50743D01*
X80962Y50828D01*
X81023Y50915D01*
X81082Y51005D01*
X81137Y51096D01*
X81189Y51190D01*
X81237Y51286D01*
X81282Y51383D01*
X81324Y51481D01*
X81361Y51581D01*
X81396Y51683D01*
X81426Y51785D01*
X81453Y51889D01*
X81476Y51993D01*
X81495Y52099D01*
X81510Y52205D01*
X81522Y52311D01*
X81530Y52418D01*
X81534Y52525D01*
X81534Y52631D01*
X81530Y52738D01*
X81522Y52845D01*
X81510Y52951D01*
X81495Y53057D01*
X81476Y53163D01*
X81453Y53267D01*
X81426Y53371D01*
X81396Y53473D01*
X81361Y53575D01*
X81324Y53675D01*
X81282Y53773D01*
X81237Y53870D01*
X81189Y53966D01*
X81137Y54059D01*
X81082Y54151D01*
X81023Y54241D01*
X80962Y54328D01*
X80897Y54413D01*
X80829Y54496D01*
X80759Y54576D01*
X80685Y54654D01*
X80609Y54729D01*
X80530Y54801D01*
X80448Y54871D01*
X80364Y54937D01*
X80278Y55000D01*
X80189Y55060D01*
X80099Y55117D01*
X80006Y55170D01*
X79911Y55220D01*
X79815Y55267D01*
X79717Y55310D01*
X79618Y55350D01*
X79517Y55386D01*
X79415Y55418D01*
X79312Y55447D01*
X79208Y55472D01*
X79103Y55493D01*
X78997Y55510D01*
X78891Y55524D01*
X78785Y55533D01*
X78678Y55539D01*
X78571Y55541D01*
X73237Y54949D02*
X73140Y54947D01*
X73044Y54941D01*
X72948Y54931D01*
X72852Y54917D01*
X72757Y54900D01*
X72662Y54878D01*
X72569Y54853D01*
X72477Y54824D01*
X72386Y54791D01*
X72296Y54754D01*
X72208Y54714D01*
X72122Y54670D01*
X72038Y54623D01*
X71955Y54573D01*
X71875Y54519D01*
X71797Y54461D01*
X71721Y54401D01*
X71648Y54338D01*
X71578Y54272D01*
X71510Y54202D01*
X71445Y54131D01*
X71383Y54056D01*
X71325Y53979D01*
X71269Y53900D01*
X71217Y53819D01*
X71168Y53735D01*
X71122Y53650D01*
X71080Y53563D01*
X71042Y53474D01*
X71007Y53384D01*
X70976Y53292D01*
X70949Y53199D01*
X70925Y53106D01*
X70906Y53011D01*
X70890Y52915D01*
X70878Y52819D01*
X70870Y52723D01*
X70866Y52626D01*
X70866Y52530D01*
X70870Y52433D01*
X70878Y52337D01*
X70890Y52241D01*
X70906Y52145D01*
X70925Y52050D01*
X70949Y51957D01*
X70976Y51864D01*
X71007Y51772D01*
X71042Y51682D01*
X71080Y51593D01*
X71122Y51506D01*
X71168Y51421D01*
X71217Y51337D01*
X71269Y51256D01*
X71325Y51177D01*
X71383Y51100D01*
X71445Y51025D01*
X71510Y50954D01*
X71578Y50884D01*
X71648Y50818D01*
X71721Y50755D01*
X71797Y50695D01*
X71875Y50637D01*
X71955Y50583D01*
X72038Y50533D01*
X72122Y50486D01*
X72208Y50442D01*
X72296Y50402D01*
X72386Y50365D01*
X72477Y50332D01*
X72569Y50303D01*
X72662Y50278D01*
X72757Y50256D01*
X72852Y50239D01*
X72948Y50225D01*
X73044Y50215D01*
X73140Y50209D01*
X73237Y50207D01*
X73334Y50209D01*
X73430Y50215D01*
X73526Y50225D01*
X73622Y50239D01*
X73717Y50256D01*
X73812Y50278D01*
X73905Y50303D01*
X73997Y50332D01*
X74088Y50365D01*
X74178Y50402D01*
X74266Y50442D01*
X74352Y50486D01*
X74436Y50533D01*
X74519Y50583D01*
X74599Y50637D01*
X74677Y50695D01*
X74753Y50755D01*
X74826Y50818D01*
X74896Y50884D01*
X74964Y50954D01*
X75029Y51025D01*
X75091Y51100D01*
X75149Y51177D01*
X75205Y51256D01*
X75257Y51337D01*
X75306Y51421D01*
X75352Y51506D01*
X75394Y51593D01*
X75432Y51682D01*
X75467Y51772D01*
X75498Y51864D01*
X75525Y51957D01*
X75549Y52050D01*
X75568Y52145D01*
X75584Y52241D01*
X75596Y52337D01*
X75604Y52433D01*
X75608Y52530D01*
X75608Y52626D01*
X75604Y52723D01*
X75596Y52819D01*
X75584Y52915D01*
X75568Y53011D01*
X75549Y53106D01*
X75525Y53199D01*
X75498Y53292D01*
X75467Y53384D01*
X75432Y53474D01*
X75394Y53563D01*
X75352Y53650D01*
X75306Y53735D01*
X75257Y53819D01*
X75205Y53900D01*
X75149Y53979D01*
X75091Y54056D01*
X75029Y54131D01*
X74964Y54202D01*
X74896Y54272D01*
X74826Y54338D01*
X74753Y54401D01*
X74677Y54461D01*
X74599Y54519D01*
X74519Y54573D01*
X74436Y54623D01*
X74352Y54670D01*
X74266Y54714D01*
X74178Y54754D01*
X74088Y54791D01*
X73997Y54824D01*
X73905Y54853D01*
X73812Y54878D01*
X73717Y54900D01*
X73622Y54917D01*
X73526Y54931D01*
X73430Y54941D01*
X73334Y54947D01*
X73237Y54949D01*
X79163Y44112D02*
X70866Y41741D01*
X79163Y44112D02*
X79163Y38185D01*
X76793Y39963D02*
X81534Y39963D01*
X72051Y32682D02*
X70866Y32682D01*
X70866Y26755D01*
X81534Y29718D01*
X89916Y189484D02*
X100584Y189484D01*
X94657Y189484D02*
X94657Y183557D01*
X89916Y183557D02*
X100584Y183557D01*
X96435Y175856D02*
X96435Y173189D01*
X96436Y175856D02*
X96438Y175945D01*
X96444Y176034D01*
X96453Y176123D01*
X96467Y176211D01*
X96484Y176299D01*
X96505Y176386D01*
X96529Y176471D01*
X96558Y176556D01*
X96590Y176639D01*
X96625Y176721D01*
X96664Y176802D01*
X96706Y176880D01*
X96752Y176957D01*
X96801Y177031D01*
X96853Y177104D01*
X96909Y177174D01*
X96967Y177242D01*
X97028Y177307D01*
X97092Y177369D01*
X97158Y177429D01*
X97227Y177485D01*
X97298Y177539D01*
X97372Y177590D01*
X97447Y177637D01*
X97525Y177681D01*
X97604Y177722D01*
X97685Y177759D01*
X97768Y177793D01*
X97852Y177823D01*
X97937Y177849D01*
X98024Y177872D01*
X98111Y177891D01*
X98199Y177907D01*
X98287Y177918D01*
X98376Y177926D01*
X98465Y177930D01*
X98555Y177930D01*
X98644Y177926D01*
X98733Y177918D01*
X98821Y177907D01*
X98909Y177891D01*
X98996Y177872D01*
X99083Y177849D01*
X99168Y177823D01*
X99252Y177793D01*
X99335Y177759D01*
X99416Y177722D01*
X99495Y177681D01*
X99573Y177637D01*
X99648Y177590D01*
X99722Y177539D01*
X99793Y177485D01*
X99862Y177429D01*
X99928Y177369D01*
X99992Y177307D01*
X100053Y177242D01*
X100111Y177174D01*
X100167Y177104D01*
X100219Y177031D01*
X100268Y176957D01*
X100314Y176880D01*
X100356Y176802D01*
X100395Y176721D01*
X100430Y176639D01*
X100462Y176556D01*
X100491Y176471D01*
X100515Y176386D01*
X100536Y176299D01*
X100553Y176211D01*
X100567Y176123D01*
X100576Y176034D01*
X100582Y175945D01*
X100584Y175856D01*
X100584Y173189D01*
X95250Y173189D01*
X95168Y173191D01*
X95086Y173197D01*
X95004Y173206D01*
X94923Y173219D01*
X94843Y173236D01*
X94763Y173257D01*
X94685Y173281D01*
X94608Y173309D01*
X94532Y173340D01*
X94457Y173375D01*
X94385Y173414D01*
X94314Y173455D01*
X94245Y173500D01*
X94179Y173548D01*
X94114Y173599D01*
X94052Y173653D01*
X93993Y173710D01*
X93936Y173769D01*
X93882Y173831D01*
X93831Y173896D01*
X93783Y173962D01*
X93738Y174031D01*
X93697Y174102D01*
X93658Y174174D01*
X93623Y174249D01*
X93592Y174325D01*
X93564Y174402D01*
X93540Y174480D01*
X93519Y174560D01*
X93502Y174640D01*
X93489Y174721D01*
X93480Y174803D01*
X93474Y174885D01*
X93472Y174967D01*
X93472Y177338D01*
X93472Y167075D02*
X100584Y167075D01*
X93472Y167075D02*
X93472Y163519D01*
X94657Y163519D01*
X93472Y158835D02*
X100584Y158835D01*
X93472Y158835D02*
X93472Y153501D01*
X93474Y153419D01*
X93480Y153337D01*
X93489Y153255D01*
X93502Y153174D01*
X93519Y153094D01*
X93540Y153014D01*
X93564Y152936D01*
X93592Y152859D01*
X93623Y152783D01*
X93658Y152708D01*
X93697Y152636D01*
X93738Y152565D01*
X93783Y152496D01*
X93831Y152430D01*
X93882Y152365D01*
X93936Y152303D01*
X93993Y152244D01*
X94052Y152187D01*
X94114Y152133D01*
X94179Y152082D01*
X94245Y152034D01*
X94314Y151989D01*
X94385Y151948D01*
X94457Y151909D01*
X94532Y151874D01*
X94608Y151843D01*
X94685Y151815D01*
X94763Y151791D01*
X94843Y151770D01*
X94923Y151753D01*
X95004Y151740D01*
X95086Y151731D01*
X95168Y151725D01*
X95250Y151723D01*
X100584Y151723D01*
X100584Y155279D02*
X93472Y155279D01*
X89916Y145805D02*
X98806Y145805D01*
X98888Y145803D01*
X98970Y145797D01*
X99052Y145788D01*
X99133Y145775D01*
X99213Y145758D01*
X99293Y145737D01*
X99371Y145713D01*
X99448Y145685D01*
X99524Y145654D01*
X99599Y145619D01*
X99671Y145580D01*
X99742Y145539D01*
X99811Y145494D01*
X99877Y145446D01*
X99942Y145395D01*
X100004Y145341D01*
X100063Y145284D01*
X100120Y145225D01*
X100174Y145163D01*
X100225Y145098D01*
X100273Y145032D01*
X100318Y144963D01*
X100359Y144892D01*
X100398Y144820D01*
X100433Y144745D01*
X100464Y144669D01*
X100492Y144592D01*
X100516Y144514D01*
X100537Y144434D01*
X100554Y144354D01*
X100567Y144273D01*
X100576Y144191D01*
X100582Y144109D01*
X100584Y144027D01*
X100584Y137964D02*
X100584Y135001D01*
X100584Y137964D02*
X100582Y138046D01*
X100576Y138128D01*
X100567Y138210D01*
X100554Y138291D01*
X100537Y138371D01*
X100516Y138451D01*
X100492Y138529D01*
X100464Y138606D01*
X100433Y138682D01*
X100398Y138757D01*
X100359Y138829D01*
X100318Y138900D01*
X100273Y138969D01*
X100225Y139035D01*
X100174Y139100D01*
X100120Y139162D01*
X100063Y139221D01*
X100004Y139278D01*
X99942Y139332D01*
X99877Y139383D01*
X99811Y139431D01*
X99742Y139476D01*
X99671Y139517D01*
X99599Y139556D01*
X99524Y139591D01*
X99448Y139622D01*
X99371Y139650D01*
X99293Y139674D01*
X99213Y139695D01*
X99133Y139712D01*
X99052Y139725D01*
X98970Y139734D01*
X98888Y139740D01*
X98806Y139742D01*
X95843Y139742D01*
X95843Y139743D02*
X95746Y139741D01*
X95650Y139735D01*
X95554Y139725D01*
X95458Y139711D01*
X95363Y139694D01*
X95268Y139672D01*
X95175Y139647D01*
X95083Y139618D01*
X94992Y139585D01*
X94902Y139548D01*
X94814Y139508D01*
X94728Y139464D01*
X94644Y139417D01*
X94561Y139367D01*
X94481Y139313D01*
X94403Y139255D01*
X94327Y139195D01*
X94254Y139132D01*
X94184Y139066D01*
X94116Y138996D01*
X94051Y138925D01*
X93989Y138850D01*
X93931Y138773D01*
X93875Y138694D01*
X93823Y138613D01*
X93774Y138529D01*
X93728Y138444D01*
X93686Y138357D01*
X93648Y138268D01*
X93613Y138178D01*
X93582Y138086D01*
X93555Y137993D01*
X93531Y137900D01*
X93512Y137805D01*
X93496Y137709D01*
X93484Y137613D01*
X93476Y137517D01*
X93472Y137420D01*
X93472Y137324D01*
X93476Y137227D01*
X93484Y137131D01*
X93496Y137035D01*
X93512Y136939D01*
X93531Y136844D01*
X93555Y136751D01*
X93582Y136658D01*
X93613Y136566D01*
X93648Y136476D01*
X93686Y136387D01*
X93728Y136300D01*
X93774Y136215D01*
X93823Y136131D01*
X93875Y136050D01*
X93931Y135971D01*
X93989Y135894D01*
X94051Y135819D01*
X94116Y135748D01*
X94184Y135678D01*
X94254Y135612D01*
X94327Y135549D01*
X94403Y135489D01*
X94481Y135431D01*
X94561Y135377D01*
X94644Y135327D01*
X94728Y135280D01*
X94814Y135236D01*
X94902Y135196D01*
X94992Y135159D01*
X95083Y135126D01*
X95175Y135097D01*
X95268Y135072D01*
X95363Y135050D01*
X95458Y135033D01*
X95554Y135019D01*
X95650Y135009D01*
X95746Y135003D01*
X95843Y135001D01*
X97028Y135001D01*
X97028Y139742D01*
X96435Y128947D02*
X97621Y125984D01*
X96436Y128948D02*
X96405Y129019D01*
X96371Y129089D01*
X96334Y129157D01*
X96293Y129222D01*
X96248Y129286D01*
X96201Y129347D01*
X96150Y129406D01*
X96097Y129463D01*
X96041Y129516D01*
X95982Y129567D01*
X95921Y129614D01*
X95857Y129659D01*
X95792Y129700D01*
X95724Y129738D01*
X95654Y129772D01*
X95583Y129803D01*
X95511Y129830D01*
X95437Y129853D01*
X95362Y129873D01*
X95286Y129889D01*
X95209Y129901D01*
X95132Y129909D01*
X95055Y129913D01*
X94977Y129914D01*
X94900Y129910D01*
X94822Y129903D01*
X94746Y129891D01*
X94670Y129876D01*
X94594Y129857D01*
X94520Y129834D01*
X94447Y129808D01*
X94376Y129778D01*
X94306Y129744D01*
X94238Y129707D01*
X94172Y129666D01*
X94108Y129622D01*
X94046Y129575D01*
X93987Y129525D01*
X93931Y129472D01*
X93877Y129416D01*
X93826Y129358D01*
X93778Y129297D01*
X93733Y129234D01*
X93691Y129168D01*
X93653Y129101D01*
X93618Y129031D01*
X93587Y128960D01*
X93559Y128888D01*
X93536Y128814D01*
X93515Y128739D01*
X93499Y128664D01*
X93486Y128587D01*
X93478Y128510D01*
X93473Y128433D01*
X93472Y128355D01*
X93476Y128193D01*
X93484Y128031D01*
X93496Y127870D01*
X93512Y127709D01*
X93532Y127548D01*
X93555Y127388D01*
X93583Y127229D01*
X93614Y127070D01*
X93649Y126912D01*
X93688Y126755D01*
X93731Y126599D01*
X93777Y126444D01*
X93827Y126290D01*
X93881Y126137D01*
X93939Y125986D01*
X94000Y125836D01*
X94064Y125688D01*
X97620Y125984D02*
X97651Y125913D01*
X97685Y125843D01*
X97722Y125775D01*
X97763Y125710D01*
X97808Y125646D01*
X97855Y125585D01*
X97906Y125526D01*
X97959Y125469D01*
X98015Y125416D01*
X98074Y125365D01*
X98135Y125318D01*
X98199Y125273D01*
X98264Y125232D01*
X98332Y125194D01*
X98402Y125160D01*
X98473Y125129D01*
X98545Y125102D01*
X98619Y125079D01*
X98694Y125059D01*
X98770Y125043D01*
X98847Y125031D01*
X98924Y125023D01*
X99001Y125019D01*
X99079Y125018D01*
X99156Y125022D01*
X99234Y125029D01*
X99310Y125041D01*
X99386Y125056D01*
X99462Y125075D01*
X99536Y125098D01*
X99609Y125124D01*
X99680Y125154D01*
X99750Y125188D01*
X99818Y125225D01*
X99884Y125266D01*
X99948Y125310D01*
X100010Y125357D01*
X100069Y125407D01*
X100125Y125460D01*
X100179Y125516D01*
X100230Y125574D01*
X100278Y125635D01*
X100323Y125698D01*
X100365Y125764D01*
X100403Y125831D01*
X100438Y125901D01*
X100469Y125971D01*
X100497Y126044D01*
X100520Y126118D01*
X100541Y126193D01*
X100557Y126268D01*
X100570Y126345D01*
X100578Y126422D01*
X100583Y126499D01*
X100584Y126577D01*
X100578Y126814D01*
X100566Y127052D01*
X100549Y127289D01*
X100525Y127525D01*
X100497Y127761D01*
X100463Y127997D01*
X100423Y128231D01*
X100378Y128464D01*
X100327Y128697D01*
X100271Y128928D01*
X100209Y129157D01*
X100142Y129385D01*
X100069Y129612D01*
X99991Y129836D01*
X96435Y119041D02*
X97621Y116078D01*
X96436Y119042D02*
X96405Y119113D01*
X96371Y119183D01*
X96334Y119251D01*
X96293Y119316D01*
X96248Y119380D01*
X96201Y119441D01*
X96150Y119500D01*
X96097Y119557D01*
X96041Y119610D01*
X95982Y119661D01*
X95921Y119708D01*
X95857Y119753D01*
X95792Y119794D01*
X95724Y119832D01*
X95654Y119866D01*
X95583Y119897D01*
X95511Y119924D01*
X95437Y119947D01*
X95362Y119967D01*
X95286Y119983D01*
X95209Y119995D01*
X95132Y120003D01*
X95055Y120007D01*
X94977Y120008D01*
X94900Y120004D01*
X94822Y119997D01*
X94746Y119985D01*
X94670Y119970D01*
X94594Y119951D01*
X94520Y119928D01*
X94447Y119902D01*
X94376Y119872D01*
X94306Y119838D01*
X94238Y119801D01*
X94172Y119760D01*
X94108Y119716D01*
X94046Y119669D01*
X93987Y119619D01*
X93931Y119566D01*
X93877Y119510D01*
X93826Y119452D01*
X93778Y119391D01*
X93733Y119328D01*
X93691Y119262D01*
X93653Y119195D01*
X93618Y119125D01*
X93587Y119054D01*
X93559Y118982D01*
X93536Y118908D01*
X93515Y118833D01*
X93499Y118758D01*
X93486Y118681D01*
X93478Y118604D01*
X93473Y118527D01*
X93472Y118449D01*
X93476Y118287D01*
X93484Y118125D01*
X93496Y117964D01*
X93512Y117803D01*
X93532Y117642D01*
X93555Y117482D01*
X93583Y117323D01*
X93614Y117164D01*
X93649Y117006D01*
X93688Y116849D01*
X93731Y116693D01*
X93777Y116538D01*
X93827Y116384D01*
X93881Y116231D01*
X93939Y116080D01*
X94000Y115930D01*
X94064Y115782D01*
X97620Y116078D02*
X97651Y116007D01*
X97685Y115937D01*
X97722Y115869D01*
X97763Y115804D01*
X97808Y115740D01*
X97855Y115679D01*
X97906Y115620D01*
X97959Y115563D01*
X98015Y115510D01*
X98074Y115459D01*
X98135Y115412D01*
X98199Y115367D01*
X98264Y115326D01*
X98332Y115288D01*
X98402Y115254D01*
X98473Y115223D01*
X98545Y115196D01*
X98619Y115173D01*
X98694Y115153D01*
X98770Y115137D01*
X98847Y115125D01*
X98924Y115117D01*
X99001Y115113D01*
X99079Y115112D01*
X99156Y115116D01*
X99234Y115123D01*
X99310Y115135D01*
X99386Y115150D01*
X99462Y115169D01*
X99536Y115192D01*
X99609Y115218D01*
X99680Y115248D01*
X99750Y115282D01*
X99818Y115319D01*
X99884Y115360D01*
X99948Y115404D01*
X100010Y115451D01*
X100069Y115501D01*
X100125Y115554D01*
X100179Y115610D01*
X100230Y115668D01*
X100278Y115729D01*
X100323Y115792D01*
X100365Y115858D01*
X100403Y115925D01*
X100438Y115995D01*
X100469Y116065D01*
X100497Y116138D01*
X100520Y116212D01*
X100541Y116287D01*
X100557Y116362D01*
X100570Y116439D01*
X100578Y116516D01*
X100583Y116593D01*
X100584Y116671D01*
X100578Y116908D01*
X100566Y117146D01*
X100549Y117383D01*
X100525Y117619D01*
X100497Y117855D01*
X100463Y118091D01*
X100423Y118325D01*
X100378Y118558D01*
X100327Y118791D01*
X100271Y119022D01*
X100209Y119251D01*
X100142Y119479D01*
X100069Y119706D01*
X99991Y119930D01*
X100584Y100584D02*
X100582Y100489D01*
X100576Y100393D01*
X100567Y100298D01*
X100553Y100204D01*
X100536Y100110D01*
X100515Y100017D01*
X100490Y99924D01*
X100462Y99833D01*
X100430Y99743D01*
X100394Y99655D01*
X100355Y99568D01*
X100312Y99482D01*
X100266Y99399D01*
X100217Y99317D01*
X100164Y99237D01*
X100108Y99160D01*
X100050Y99084D01*
X99988Y99012D01*
X99923Y98942D01*
X99855Y98874D01*
X99785Y98809D01*
X99713Y98747D01*
X99637Y98689D01*
X99560Y98633D01*
X99480Y98580D01*
X99399Y98531D01*
X99315Y98485D01*
X99229Y98442D01*
X99142Y98403D01*
X99054Y98367D01*
X98964Y98335D01*
X98873Y98307D01*
X98780Y98282D01*
X98687Y98261D01*
X98593Y98244D01*
X98499Y98230D01*
X98404Y98221D01*
X98308Y98215D01*
X98213Y98213D01*
X100584Y100584D02*
X100582Y100720D01*
X100577Y100857D01*
X100567Y100993D01*
X100554Y101128D01*
X100538Y101264D01*
X100517Y101399D01*
X100493Y101533D01*
X100466Y101666D01*
X100434Y101799D01*
X100400Y101931D01*
X100361Y102062D01*
X100319Y102191D01*
X100274Y102320D01*
X100225Y102447D01*
X100172Y102573D01*
X100116Y102697D01*
X100057Y102820D01*
X99995Y102941D01*
X99929Y103061D01*
X99860Y103178D01*
X99787Y103294D01*
X99712Y103408D01*
X99634Y103519D01*
X99552Y103628D01*
X99468Y103736D01*
X99381Y103840D01*
X99291Y103943D01*
X99198Y104043D01*
X99102Y104140D01*
X92287Y103844D02*
X92192Y103842D01*
X92096Y103836D01*
X92001Y103827D01*
X91907Y103813D01*
X91813Y103796D01*
X91720Y103775D01*
X91627Y103750D01*
X91536Y103722D01*
X91446Y103690D01*
X91358Y103654D01*
X91271Y103615D01*
X91185Y103572D01*
X91102Y103526D01*
X91020Y103477D01*
X90940Y103424D01*
X90863Y103368D01*
X90787Y103310D01*
X90715Y103248D01*
X90645Y103183D01*
X90577Y103115D01*
X90512Y103045D01*
X90450Y102973D01*
X90392Y102897D01*
X90336Y102820D01*
X90283Y102740D01*
X90234Y102659D01*
X90188Y102575D01*
X90145Y102489D01*
X90106Y102402D01*
X90070Y102314D01*
X90038Y102224D01*
X90010Y102133D01*
X89985Y102040D01*
X89964Y101947D01*
X89947Y101853D01*
X89933Y101759D01*
X89924Y101664D01*
X89918Y101568D01*
X89916Y101473D01*
X89918Y101343D01*
X89924Y101213D01*
X89933Y101083D01*
X89946Y100954D01*
X89963Y100825D01*
X89984Y100697D01*
X90009Y100569D01*
X90037Y100442D01*
X90069Y100316D01*
X90105Y100191D01*
X90144Y100067D01*
X90187Y99945D01*
X90233Y99823D01*
X90284Y99703D01*
X90337Y99585D01*
X90394Y99468D01*
X90454Y99353D01*
X90518Y99239D01*
X90585Y99128D01*
X90655Y99018D01*
X90729Y98911D01*
X90805Y98806D01*
X94362Y102659D02*
X94311Y102740D01*
X94257Y102820D01*
X94201Y102898D01*
X94141Y102973D01*
X94078Y103046D01*
X94012Y103116D01*
X93944Y103183D01*
X93873Y103248D01*
X93799Y103310D01*
X93723Y103369D01*
X93645Y103425D01*
X93564Y103477D01*
X93482Y103527D01*
X93397Y103573D01*
X93311Y103615D01*
X93223Y103655D01*
X93134Y103690D01*
X93043Y103722D01*
X92951Y103751D01*
X92858Y103775D01*
X92765Y103796D01*
X92670Y103813D01*
X92575Y103827D01*
X92479Y103836D01*
X92383Y103842D01*
X92287Y103844D01*
X96138Y99398D02*
X96189Y99317D01*
X96243Y99237D01*
X96299Y99159D01*
X96359Y99084D01*
X96422Y99011D01*
X96488Y98941D01*
X96556Y98874D01*
X96627Y98809D01*
X96701Y98747D01*
X96777Y98688D01*
X96855Y98632D01*
X96936Y98580D01*
X97018Y98530D01*
X97103Y98484D01*
X97189Y98442D01*
X97277Y98402D01*
X97366Y98367D01*
X97457Y98335D01*
X97549Y98306D01*
X97642Y98282D01*
X97735Y98261D01*
X97830Y98244D01*
X97925Y98230D01*
X98021Y98221D01*
X98117Y98215D01*
X98213Y98213D01*
X96139Y99399D02*
X94361Y102658D01*
X100584Y91463D02*
X100584Y89092D01*
X100584Y91463D02*
X100582Y91545D01*
X100576Y91627D01*
X100567Y91709D01*
X100554Y91790D01*
X100537Y91870D01*
X100516Y91950D01*
X100492Y92028D01*
X100464Y92105D01*
X100433Y92181D01*
X100398Y92256D01*
X100359Y92328D01*
X100318Y92399D01*
X100273Y92468D01*
X100225Y92534D01*
X100174Y92599D01*
X100120Y92661D01*
X100063Y92720D01*
X100004Y92777D01*
X99942Y92831D01*
X99877Y92882D01*
X99811Y92930D01*
X99742Y92975D01*
X99671Y93016D01*
X99599Y93055D01*
X99524Y93090D01*
X99448Y93121D01*
X99371Y93149D01*
X99293Y93173D01*
X99213Y93194D01*
X99133Y93211D01*
X99052Y93224D01*
X98970Y93233D01*
X98888Y93239D01*
X98806Y93241D01*
X95250Y93241D01*
X95168Y93239D01*
X95086Y93233D01*
X95004Y93224D01*
X94923Y93211D01*
X94843Y93194D01*
X94763Y93173D01*
X94685Y93149D01*
X94608Y93121D01*
X94532Y93090D01*
X94457Y93055D01*
X94385Y93016D01*
X94314Y92975D01*
X94245Y92930D01*
X94179Y92882D01*
X94114Y92831D01*
X94052Y92777D01*
X93993Y92720D01*
X93936Y92661D01*
X93882Y92599D01*
X93831Y92534D01*
X93783Y92468D01*
X93738Y92399D01*
X93697Y92328D01*
X93658Y92256D01*
X93623Y92181D01*
X93592Y92105D01*
X93564Y92028D01*
X93540Y91950D01*
X93519Y91870D01*
X93502Y91790D01*
X93489Y91709D01*
X93480Y91627D01*
X93474Y91545D01*
X93472Y91463D01*
X93472Y89092D01*
X93472Y84794D02*
X100584Y84794D01*
X90509Y85090D02*
X89916Y85090D01*
X89916Y84498D01*
X90509Y84498D01*
X90509Y85090D01*
X100584Y78148D02*
X100584Y75184D01*
X100584Y78148D02*
X100582Y78230D01*
X100576Y78312D01*
X100567Y78394D01*
X100554Y78475D01*
X100537Y78555D01*
X100516Y78635D01*
X100492Y78713D01*
X100464Y78790D01*
X100433Y78866D01*
X100398Y78941D01*
X100359Y79013D01*
X100318Y79084D01*
X100273Y79153D01*
X100225Y79219D01*
X100174Y79284D01*
X100120Y79346D01*
X100063Y79405D01*
X100004Y79462D01*
X99942Y79516D01*
X99877Y79567D01*
X99811Y79615D01*
X99742Y79660D01*
X99671Y79701D01*
X99599Y79740D01*
X99524Y79775D01*
X99448Y79806D01*
X99371Y79834D01*
X99293Y79858D01*
X99213Y79879D01*
X99133Y79896D01*
X99052Y79909D01*
X98970Y79918D01*
X98888Y79924D01*
X98806Y79926D01*
X95843Y79926D01*
X95746Y79924D01*
X95650Y79918D01*
X95554Y79908D01*
X95458Y79894D01*
X95363Y79877D01*
X95268Y79855D01*
X95175Y79830D01*
X95083Y79801D01*
X94992Y79768D01*
X94902Y79731D01*
X94814Y79691D01*
X94728Y79647D01*
X94644Y79600D01*
X94561Y79550D01*
X94481Y79496D01*
X94403Y79438D01*
X94327Y79378D01*
X94254Y79315D01*
X94184Y79249D01*
X94116Y79179D01*
X94051Y79108D01*
X93989Y79033D01*
X93931Y78956D01*
X93875Y78877D01*
X93823Y78796D01*
X93774Y78712D01*
X93728Y78627D01*
X93686Y78540D01*
X93648Y78451D01*
X93613Y78361D01*
X93582Y78269D01*
X93555Y78176D01*
X93531Y78083D01*
X93512Y77988D01*
X93496Y77892D01*
X93484Y77796D01*
X93476Y77700D01*
X93472Y77603D01*
X93472Y77507D01*
X93476Y77410D01*
X93484Y77314D01*
X93496Y77218D01*
X93512Y77122D01*
X93531Y77027D01*
X93555Y76934D01*
X93582Y76841D01*
X93613Y76749D01*
X93648Y76659D01*
X93686Y76570D01*
X93728Y76483D01*
X93774Y76398D01*
X93823Y76314D01*
X93875Y76233D01*
X93931Y76154D01*
X93989Y76077D01*
X94051Y76002D01*
X94116Y75931D01*
X94184Y75861D01*
X94254Y75795D01*
X94327Y75732D01*
X94403Y75672D01*
X94481Y75614D01*
X94561Y75560D01*
X94644Y75510D01*
X94728Y75463D01*
X94814Y75419D01*
X94902Y75379D01*
X94992Y75342D01*
X95083Y75309D01*
X95175Y75280D01*
X95268Y75255D01*
X95363Y75233D01*
X95458Y75216D01*
X95554Y75202D01*
X95650Y75192D01*
X95746Y75186D01*
X95843Y75184D01*
X97028Y75184D01*
X97028Y79926D01*
X100584Y69639D02*
X93472Y69639D01*
X93472Y66675D01*
X93474Y66593D01*
X93480Y66511D01*
X93489Y66429D01*
X93502Y66348D01*
X93519Y66268D01*
X93540Y66188D01*
X93564Y66110D01*
X93592Y66033D01*
X93623Y65957D01*
X93658Y65882D01*
X93697Y65810D01*
X93738Y65739D01*
X93783Y65670D01*
X93831Y65604D01*
X93882Y65539D01*
X93936Y65477D01*
X93993Y65418D01*
X94052Y65361D01*
X94114Y65307D01*
X94179Y65256D01*
X94245Y65208D01*
X94314Y65163D01*
X94385Y65122D01*
X94457Y65083D01*
X94532Y65048D01*
X94608Y65017D01*
X94685Y64989D01*
X94763Y64965D01*
X94843Y64944D01*
X94923Y64927D01*
X95004Y64914D01*
X95086Y64905D01*
X95168Y64899D01*
X95250Y64897D01*
X100584Y64897D01*
X93472Y60421D02*
X93472Y56865D01*
X89916Y59236D02*
X98806Y59236D01*
X98888Y59234D01*
X98970Y59228D01*
X99052Y59219D01*
X99133Y59206D01*
X99213Y59189D01*
X99293Y59168D01*
X99371Y59144D01*
X99448Y59116D01*
X99524Y59085D01*
X99599Y59050D01*
X99671Y59011D01*
X99742Y58970D01*
X99811Y58925D01*
X99877Y58877D01*
X99942Y58826D01*
X100004Y58772D01*
X100063Y58715D01*
X100120Y58656D01*
X100174Y58594D01*
X100225Y58529D01*
X100273Y58463D01*
X100318Y58394D01*
X100359Y58323D01*
X100398Y58251D01*
X100433Y58176D01*
X100464Y58100D01*
X100492Y58023D01*
X100516Y57945D01*
X100537Y57865D01*
X100554Y57785D01*
X100567Y57704D01*
X100576Y57622D01*
X100582Y57540D01*
X100584Y57458D01*
X100584Y56865D01*
X100584Y52409D02*
X93472Y52409D01*
X90509Y52705D02*
X89916Y52705D01*
X89916Y52113D01*
X90509Y52113D01*
X90509Y52705D01*
X91694Y46982D02*
X100584Y46982D01*
X91694Y46982D02*
X91612Y46980D01*
X91530Y46974D01*
X91448Y46965D01*
X91367Y46952D01*
X91287Y46935D01*
X91207Y46914D01*
X91129Y46890D01*
X91052Y46862D01*
X90976Y46831D01*
X90901Y46796D01*
X90829Y46757D01*
X90758Y46716D01*
X90689Y46671D01*
X90623Y46623D01*
X90558Y46572D01*
X90496Y46518D01*
X90437Y46461D01*
X90380Y46402D01*
X90326Y46340D01*
X90275Y46275D01*
X90227Y46209D01*
X90182Y46140D01*
X90141Y46069D01*
X90102Y45997D01*
X90067Y45922D01*
X90036Y45846D01*
X90008Y45769D01*
X89984Y45691D01*
X89963Y45611D01*
X89946Y45531D01*
X89933Y45450D01*
X89924Y45368D01*
X89918Y45286D01*
X89916Y45204D01*
X89916Y44611D01*
X93472Y44611D02*
X93472Y48167D01*
X93472Y41360D02*
X100584Y41360D01*
X90509Y41656D02*
X89916Y41656D01*
X89916Y41064D01*
X90509Y41064D01*
X90509Y41656D01*
X100584Y34694D02*
X100584Y32323D01*
X100584Y34694D02*
X100582Y34776D01*
X100576Y34858D01*
X100567Y34940D01*
X100554Y35021D01*
X100537Y35101D01*
X100516Y35181D01*
X100492Y35259D01*
X100464Y35336D01*
X100433Y35412D01*
X100398Y35487D01*
X100359Y35559D01*
X100318Y35630D01*
X100273Y35699D01*
X100225Y35765D01*
X100174Y35830D01*
X100120Y35892D01*
X100063Y35951D01*
X100004Y36008D01*
X99942Y36062D01*
X99877Y36113D01*
X99811Y36161D01*
X99742Y36206D01*
X99671Y36247D01*
X99599Y36286D01*
X99524Y36321D01*
X99448Y36352D01*
X99371Y36380D01*
X99293Y36404D01*
X99213Y36425D01*
X99133Y36442D01*
X99052Y36455D01*
X98970Y36464D01*
X98888Y36470D01*
X98806Y36472D01*
X95250Y36472D01*
X95168Y36470D01*
X95086Y36464D01*
X95004Y36455D01*
X94923Y36442D01*
X94843Y36425D01*
X94763Y36404D01*
X94685Y36380D01*
X94608Y36352D01*
X94532Y36321D01*
X94457Y36286D01*
X94385Y36247D01*
X94314Y36206D01*
X94245Y36161D01*
X94179Y36113D01*
X94114Y36062D01*
X94052Y36008D01*
X93993Y35951D01*
X93936Y35892D01*
X93882Y35830D01*
X93831Y35765D01*
X93783Y35699D01*
X93738Y35630D01*
X93697Y35559D01*
X93658Y35487D01*
X93623Y35412D01*
X93592Y35336D01*
X93564Y35259D01*
X93540Y35181D01*
X93519Y35101D01*
X93502Y35021D01*
X93489Y34940D01*
X93480Y34858D01*
X93474Y34776D01*
X93472Y34694D01*
X93472Y32323D01*
X119634Y184743D02*
X119634Y189484D01*
X108966Y189484D01*
X108966Y184743D01*
X113707Y185928D02*
X113707Y189484D01*
X119634Y180543D02*
X112522Y175802D01*
X112522Y180543D02*
X119634Y175802D01*
X123190Y170549D02*
X112522Y170549D01*
X112522Y167586D01*
X112524Y167504D01*
X112530Y167422D01*
X112539Y167340D01*
X112552Y167259D01*
X112569Y167179D01*
X112590Y167099D01*
X112614Y167021D01*
X112642Y166944D01*
X112673Y166868D01*
X112708Y166793D01*
X112747Y166721D01*
X112788Y166650D01*
X112833Y166581D01*
X112881Y166515D01*
X112932Y166450D01*
X112986Y166388D01*
X113043Y166329D01*
X113102Y166272D01*
X113164Y166218D01*
X113229Y166167D01*
X113295Y166119D01*
X113364Y166074D01*
X113435Y166033D01*
X113507Y165994D01*
X113582Y165959D01*
X113658Y165928D01*
X113735Y165900D01*
X113813Y165876D01*
X113893Y165855D01*
X113973Y165838D01*
X114054Y165825D01*
X114136Y165816D01*
X114218Y165810D01*
X114300Y165808D01*
X117856Y165808D01*
X117938Y165810D01*
X118020Y165816D01*
X118102Y165825D01*
X118183Y165838D01*
X118263Y165855D01*
X118343Y165876D01*
X118421Y165900D01*
X118498Y165928D01*
X118574Y165959D01*
X118649Y165994D01*
X118721Y166033D01*
X118792Y166074D01*
X118861Y166119D01*
X118927Y166167D01*
X118992Y166218D01*
X119054Y166272D01*
X119113Y166329D01*
X119170Y166388D01*
X119224Y166450D01*
X119275Y166515D01*
X119323Y166581D01*
X119368Y166650D01*
X119409Y166721D01*
X119448Y166793D01*
X119483Y166868D01*
X119514Y166944D01*
X119542Y167021D01*
X119566Y167099D01*
X119587Y167179D01*
X119604Y167259D01*
X119617Y167340D01*
X119626Y167422D01*
X119632Y167504D01*
X119634Y167586D01*
X119634Y170549D01*
X119634Y158953D02*
X119634Y155990D01*
X119634Y158953D02*
X119632Y159035D01*
X119626Y159117D01*
X119617Y159199D01*
X119604Y159280D01*
X119587Y159360D01*
X119566Y159440D01*
X119542Y159518D01*
X119514Y159595D01*
X119483Y159671D01*
X119448Y159746D01*
X119409Y159818D01*
X119368Y159889D01*
X119323Y159958D01*
X119275Y160024D01*
X119224Y160089D01*
X119170Y160151D01*
X119113Y160210D01*
X119054Y160267D01*
X118992Y160321D01*
X118927Y160372D01*
X118861Y160420D01*
X118792Y160465D01*
X118721Y160506D01*
X118649Y160545D01*
X118574Y160580D01*
X118498Y160611D01*
X118421Y160639D01*
X118343Y160663D01*
X118263Y160684D01*
X118183Y160701D01*
X118102Y160714D01*
X118020Y160723D01*
X117938Y160729D01*
X117856Y160731D01*
X114893Y160731D01*
X114893Y160732D02*
X114796Y160730D01*
X114700Y160724D01*
X114604Y160714D01*
X114508Y160700D01*
X114413Y160683D01*
X114318Y160661D01*
X114225Y160636D01*
X114133Y160607D01*
X114042Y160574D01*
X113952Y160537D01*
X113864Y160497D01*
X113778Y160453D01*
X113694Y160406D01*
X113611Y160356D01*
X113531Y160302D01*
X113453Y160244D01*
X113377Y160184D01*
X113304Y160121D01*
X113234Y160055D01*
X113166Y159985D01*
X113101Y159914D01*
X113039Y159839D01*
X112981Y159762D01*
X112925Y159683D01*
X112873Y159602D01*
X112824Y159518D01*
X112778Y159433D01*
X112736Y159346D01*
X112698Y159257D01*
X112663Y159167D01*
X112632Y159075D01*
X112605Y158982D01*
X112581Y158889D01*
X112562Y158794D01*
X112546Y158698D01*
X112534Y158602D01*
X112526Y158506D01*
X112522Y158409D01*
X112522Y158313D01*
X112526Y158216D01*
X112534Y158120D01*
X112546Y158024D01*
X112562Y157928D01*
X112581Y157833D01*
X112605Y157740D01*
X112632Y157647D01*
X112663Y157555D01*
X112698Y157465D01*
X112736Y157376D01*
X112778Y157289D01*
X112824Y157204D01*
X112873Y157120D01*
X112925Y157039D01*
X112981Y156960D01*
X113039Y156883D01*
X113101Y156808D01*
X113166Y156737D01*
X113234Y156667D01*
X113304Y156601D01*
X113377Y156538D01*
X113453Y156478D01*
X113531Y156420D01*
X113611Y156366D01*
X113694Y156316D01*
X113778Y156269D01*
X113864Y156225D01*
X113952Y156185D01*
X114042Y156148D01*
X114133Y156115D01*
X114225Y156086D01*
X114318Y156061D01*
X114413Y156039D01*
X114508Y156022D01*
X114604Y156008D01*
X114700Y155998D01*
X114796Y155992D01*
X114893Y155990D01*
X116078Y155990D01*
X116078Y160731D01*
X119634Y150345D02*
X112522Y150345D01*
X112522Y146789D01*
X113707Y146789D01*
X112522Y143121D02*
X119634Y143121D01*
X109559Y143417D02*
X108966Y143417D01*
X108966Y142824D01*
X109559Y142824D01*
X109559Y143417D01*
X112522Y137533D02*
X119634Y137533D01*
X112522Y137533D02*
X112522Y132199D01*
X112524Y132117D01*
X112530Y132035D01*
X112539Y131953D01*
X112552Y131872D01*
X112569Y131792D01*
X112590Y131712D01*
X112614Y131634D01*
X112642Y131557D01*
X112673Y131481D01*
X112708Y131406D01*
X112747Y131334D01*
X112788Y131263D01*
X112833Y131194D01*
X112881Y131128D01*
X112932Y131063D01*
X112986Y131001D01*
X113043Y130942D01*
X113102Y130885D01*
X113164Y130831D01*
X113229Y130780D01*
X113295Y130732D01*
X113364Y130687D01*
X113435Y130646D01*
X113507Y130607D01*
X113582Y130572D01*
X113658Y130541D01*
X113735Y130513D01*
X113813Y130489D01*
X113893Y130468D01*
X113973Y130451D01*
X114054Y130438D01*
X114136Y130429D01*
X114218Y130423D01*
X114300Y130421D01*
X119634Y130421D01*
X119634Y133977D02*
X112522Y133977D01*
X119634Y122758D02*
X119634Y119795D01*
X119634Y122758D02*
X119632Y122840D01*
X119626Y122922D01*
X119617Y123004D01*
X119604Y123085D01*
X119587Y123165D01*
X119566Y123245D01*
X119542Y123323D01*
X119514Y123400D01*
X119483Y123476D01*
X119448Y123551D01*
X119409Y123623D01*
X119368Y123694D01*
X119323Y123763D01*
X119275Y123829D01*
X119224Y123894D01*
X119170Y123956D01*
X119113Y124015D01*
X119054Y124072D01*
X118992Y124126D01*
X118927Y124177D01*
X118861Y124225D01*
X118792Y124270D01*
X118721Y124311D01*
X118649Y124350D01*
X118574Y124385D01*
X118498Y124416D01*
X118421Y124444D01*
X118343Y124468D01*
X118263Y124489D01*
X118183Y124506D01*
X118102Y124519D01*
X118020Y124528D01*
X117938Y124534D01*
X117856Y124536D01*
X114893Y124536D01*
X114893Y124537D02*
X114796Y124535D01*
X114700Y124529D01*
X114604Y124519D01*
X114508Y124505D01*
X114413Y124488D01*
X114318Y124466D01*
X114225Y124441D01*
X114133Y124412D01*
X114042Y124379D01*
X113952Y124342D01*
X113864Y124302D01*
X113778Y124258D01*
X113694Y124211D01*
X113611Y124161D01*
X113531Y124107D01*
X113453Y124049D01*
X113377Y123989D01*
X113304Y123926D01*
X113234Y123860D01*
X113166Y123790D01*
X113101Y123719D01*
X113039Y123644D01*
X112981Y123567D01*
X112925Y123488D01*
X112873Y123407D01*
X112824Y123323D01*
X112778Y123238D01*
X112736Y123151D01*
X112698Y123062D01*
X112663Y122972D01*
X112632Y122880D01*
X112605Y122787D01*
X112581Y122694D01*
X112562Y122599D01*
X112546Y122503D01*
X112534Y122407D01*
X112526Y122311D01*
X112522Y122214D01*
X112522Y122118D01*
X112526Y122021D01*
X112534Y121925D01*
X112546Y121829D01*
X112562Y121733D01*
X112581Y121638D01*
X112605Y121545D01*
X112632Y121452D01*
X112663Y121360D01*
X112698Y121270D01*
X112736Y121181D01*
X112778Y121094D01*
X112824Y121009D01*
X112873Y120925D01*
X112925Y120844D01*
X112981Y120765D01*
X113039Y120688D01*
X113101Y120613D01*
X113166Y120542D01*
X113234Y120472D01*
X113304Y120406D01*
X113377Y120343D01*
X113453Y120283D01*
X113531Y120225D01*
X113611Y120171D01*
X113694Y120121D01*
X113778Y120074D01*
X113864Y120030D01*
X113952Y119990D01*
X114042Y119953D01*
X114133Y119920D01*
X114225Y119891D01*
X114318Y119866D01*
X114413Y119844D01*
X114508Y119827D01*
X114604Y119813D01*
X114700Y119803D01*
X114796Y119797D01*
X114893Y119795D01*
X116078Y119795D01*
X116078Y124536D01*
X119634Y114249D02*
X112522Y114249D01*
X112522Y111286D01*
X112524Y111204D01*
X112530Y111122D01*
X112539Y111040D01*
X112552Y110959D01*
X112569Y110879D01*
X112590Y110799D01*
X112614Y110721D01*
X112642Y110644D01*
X112673Y110568D01*
X112708Y110493D01*
X112747Y110421D01*
X112788Y110350D01*
X112833Y110281D01*
X112881Y110215D01*
X112932Y110150D01*
X112986Y110088D01*
X113043Y110029D01*
X113102Y109972D01*
X113164Y109918D01*
X113229Y109867D01*
X113295Y109819D01*
X113364Y109774D01*
X113435Y109733D01*
X113507Y109694D01*
X113582Y109659D01*
X113658Y109628D01*
X113735Y109600D01*
X113813Y109576D01*
X113893Y109555D01*
X113973Y109538D01*
X114054Y109525D01*
X114136Y109516D01*
X114218Y109510D01*
X114300Y109508D01*
X119634Y109508D01*
X112522Y105032D02*
X112522Y101476D01*
X108966Y103847D02*
X117856Y103847D01*
X117938Y103845D01*
X118020Y103839D01*
X118102Y103830D01*
X118183Y103817D01*
X118263Y103800D01*
X118343Y103779D01*
X118421Y103755D01*
X118498Y103727D01*
X118574Y103696D01*
X118649Y103661D01*
X118721Y103622D01*
X118792Y103581D01*
X118861Y103536D01*
X118927Y103488D01*
X118992Y103437D01*
X119054Y103383D01*
X119113Y103326D01*
X119170Y103267D01*
X119224Y103205D01*
X119275Y103140D01*
X119323Y103074D01*
X119368Y103005D01*
X119409Y102934D01*
X119448Y102862D01*
X119483Y102787D01*
X119514Y102711D01*
X119542Y102634D01*
X119566Y102556D01*
X119587Y102476D01*
X119604Y102396D01*
X119617Y102315D01*
X119626Y102233D01*
X119632Y102151D01*
X119634Y102069D01*
X119634Y101476D01*
D13*
X574379Y190387D02*
X581152Y190387D01*
X577765Y187000D02*
X577765Y193774D01*
D12*
X277176Y61668D02*
X264476Y61668D01*
D14*
X222546Y76532D02*
X204125Y76532D01*
X222546Y76532D02*
X243508Y97494D01*
X243508Y181532D01*
X204125Y181532D01*
X177891Y76532D02*
X159470Y76532D01*
X138508Y97494D01*
X138508Y181532D01*
X177891Y181532D01*
D15*
X195938Y124284D02*
X197857Y124284D01*
X197943Y124286D01*
X198029Y124292D01*
X198115Y124301D01*
X198200Y124315D01*
X198284Y124332D01*
X198368Y124353D01*
X198450Y124378D01*
X198531Y124406D01*
X198611Y124438D01*
X198690Y124474D01*
X198766Y124513D01*
X198841Y124556D01*
X198914Y124601D01*
X198985Y124651D01*
X199053Y124703D01*
X199120Y124758D01*
X199183Y124816D01*
X199244Y124877D01*
X199302Y124940D01*
X199357Y125007D01*
X199410Y125075D01*
X199459Y125146D01*
X199504Y125219D01*
X199547Y125294D01*
X199586Y125370D01*
X199622Y125449D01*
X199654Y125529D01*
X199682Y125610D01*
X199707Y125693D01*
X199728Y125776D01*
X199745Y125860D01*
X199759Y125945D01*
X199768Y126031D01*
X199774Y126117D01*
X199776Y126203D01*
X199776Y131001D01*
X199774Y131087D01*
X199768Y131173D01*
X199759Y131259D01*
X199745Y131344D01*
X199728Y131428D01*
X199707Y131512D01*
X199682Y131594D01*
X199654Y131675D01*
X199622Y131755D01*
X199586Y131834D01*
X199547Y131910D01*
X199504Y131985D01*
X199459Y132058D01*
X199410Y132129D01*
X199357Y132197D01*
X199302Y132264D01*
X199244Y132327D01*
X199183Y132388D01*
X199120Y132446D01*
X199054Y132501D01*
X198985Y132553D01*
X198914Y132603D01*
X198841Y132648D01*
X198766Y132691D01*
X198690Y132730D01*
X198611Y132766D01*
X198531Y132798D01*
X198450Y132826D01*
X198368Y132851D01*
X198284Y132872D01*
X198200Y132889D01*
X198115Y132903D01*
X198029Y132912D01*
X197943Y132918D01*
X197857Y132920D01*
X195938Y132920D01*
X192118Y131001D02*
X189719Y132920D01*
X189719Y124284D01*
X192118Y124284D02*
X187320Y124284D01*
X182974Y131001D02*
X180575Y132920D01*
X180575Y124284D01*
X182974Y124284D02*
X178176Y124284D01*
X797532Y40132D02*
X799451Y40132D01*
X799537Y40134D01*
X799623Y40140D01*
X799709Y40149D01*
X799794Y40163D01*
X799878Y40180D01*
X799962Y40201D01*
X800044Y40226D01*
X800125Y40254D01*
X800205Y40286D01*
X800284Y40322D01*
X800360Y40361D01*
X800435Y40404D01*
X800508Y40449D01*
X800579Y40499D01*
X800647Y40551D01*
X800714Y40606D01*
X800777Y40664D01*
X800838Y40725D01*
X800896Y40788D01*
X800951Y40855D01*
X801004Y40923D01*
X801053Y40994D01*
X801098Y41067D01*
X801141Y41142D01*
X801180Y41218D01*
X801216Y41297D01*
X801248Y41377D01*
X801276Y41458D01*
X801301Y41541D01*
X801322Y41624D01*
X801339Y41708D01*
X801353Y41793D01*
X801362Y41879D01*
X801368Y41965D01*
X801370Y42051D01*
X801370Y46849D01*
X801368Y46935D01*
X801362Y47021D01*
X801353Y47107D01*
X801339Y47192D01*
X801322Y47276D01*
X801301Y47360D01*
X801276Y47442D01*
X801248Y47523D01*
X801216Y47603D01*
X801180Y47682D01*
X801141Y47758D01*
X801098Y47833D01*
X801053Y47906D01*
X801004Y47977D01*
X800951Y48045D01*
X800896Y48112D01*
X800838Y48175D01*
X800777Y48236D01*
X800714Y48294D01*
X800648Y48349D01*
X800579Y48401D01*
X800508Y48451D01*
X800435Y48496D01*
X800360Y48539D01*
X800284Y48578D01*
X800205Y48614D01*
X800125Y48646D01*
X800044Y48674D01*
X799962Y48699D01*
X799878Y48720D01*
X799794Y48737D01*
X799709Y48751D01*
X799623Y48760D01*
X799537Y48766D01*
X799451Y48768D01*
X797532Y48768D01*
X793712Y46849D02*
X791313Y48768D01*
X791313Y40132D01*
X793712Y40132D02*
X788914Y40132D01*
X784568Y42051D02*
X782649Y48768D01*
X784568Y42051D02*
X779770Y42051D01*
X781209Y43970D02*
X781209Y40132D01*
D12*
X488694Y28329D02*
X481582Y28329D01*
X485138Y24773D02*
X485138Y31885D01*
X472734Y24180D02*
X472639Y24182D01*
X472543Y24188D01*
X472448Y24197D01*
X472354Y24211D01*
X472260Y24228D01*
X472167Y24249D01*
X472074Y24274D01*
X471983Y24302D01*
X471893Y24334D01*
X471805Y24370D01*
X471718Y24409D01*
X471632Y24452D01*
X471549Y24498D01*
X471467Y24547D01*
X471387Y24600D01*
X471310Y24656D01*
X471234Y24714D01*
X471162Y24776D01*
X471092Y24841D01*
X471024Y24909D01*
X470959Y24979D01*
X470897Y25051D01*
X470839Y25127D01*
X470783Y25204D01*
X470730Y25284D01*
X470681Y25366D01*
X470635Y25449D01*
X470592Y25535D01*
X470553Y25622D01*
X470517Y25710D01*
X470485Y25800D01*
X470457Y25891D01*
X470432Y25984D01*
X470411Y26077D01*
X470394Y26171D01*
X470380Y26265D01*
X470371Y26360D01*
X470365Y26456D01*
X470363Y26551D01*
X472734Y24180D02*
X472870Y24182D01*
X473007Y24187D01*
X473143Y24197D01*
X473278Y24210D01*
X473414Y24226D01*
X473548Y24247D01*
X473683Y24271D01*
X473816Y24298D01*
X473949Y24330D01*
X474081Y24364D01*
X474212Y24403D01*
X474341Y24445D01*
X474470Y24490D01*
X474597Y24539D01*
X474723Y24592D01*
X474847Y24648D01*
X474970Y24707D01*
X475091Y24769D01*
X475211Y24835D01*
X475328Y24904D01*
X475444Y24977D01*
X475558Y25052D01*
X475669Y25130D01*
X475778Y25212D01*
X475886Y25296D01*
X475990Y25383D01*
X476093Y25473D01*
X476193Y25566D01*
X476290Y25662D01*
X475994Y32477D02*
X475992Y32572D01*
X475986Y32668D01*
X475977Y32763D01*
X475963Y32857D01*
X475946Y32951D01*
X475925Y33044D01*
X475900Y33137D01*
X475872Y33228D01*
X475840Y33318D01*
X475804Y33406D01*
X475765Y33493D01*
X475722Y33579D01*
X475676Y33663D01*
X475627Y33744D01*
X475574Y33824D01*
X475518Y33901D01*
X475460Y33977D01*
X475398Y34049D01*
X475333Y34119D01*
X475265Y34187D01*
X475195Y34252D01*
X475123Y34314D01*
X475047Y34372D01*
X474970Y34428D01*
X474890Y34481D01*
X474809Y34530D01*
X474725Y34576D01*
X474639Y34619D01*
X474552Y34658D01*
X474464Y34694D01*
X474374Y34726D01*
X474283Y34754D01*
X474190Y34779D01*
X474097Y34800D01*
X474003Y34817D01*
X473909Y34831D01*
X473814Y34840D01*
X473718Y34846D01*
X473623Y34848D01*
X473493Y34846D01*
X473363Y34840D01*
X473233Y34831D01*
X473104Y34818D01*
X472975Y34801D01*
X472847Y34780D01*
X472719Y34755D01*
X472592Y34727D01*
X472466Y34695D01*
X472341Y34659D01*
X472217Y34620D01*
X472095Y34577D01*
X471973Y34531D01*
X471853Y34480D01*
X471735Y34427D01*
X471618Y34370D01*
X471503Y34310D01*
X471389Y34246D01*
X471278Y34179D01*
X471168Y34109D01*
X471061Y34035D01*
X470956Y33959D01*
X474809Y30402D02*
X474890Y30453D01*
X474970Y30507D01*
X475048Y30563D01*
X475123Y30623D01*
X475196Y30686D01*
X475266Y30752D01*
X475333Y30820D01*
X475398Y30891D01*
X475460Y30965D01*
X475519Y31041D01*
X475575Y31119D01*
X475627Y31200D01*
X475677Y31282D01*
X475723Y31367D01*
X475765Y31453D01*
X475805Y31541D01*
X475840Y31630D01*
X475872Y31721D01*
X475901Y31813D01*
X475925Y31906D01*
X475946Y31999D01*
X475963Y32094D01*
X475977Y32189D01*
X475986Y32285D01*
X475992Y32381D01*
X475994Y32477D01*
X471549Y28626D02*
X471467Y28575D01*
X471387Y28521D01*
X471309Y28465D01*
X471234Y28405D01*
X471161Y28342D01*
X471091Y28276D01*
X471024Y28208D01*
X470959Y28137D01*
X470897Y28063D01*
X470838Y27987D01*
X470782Y27909D01*
X470730Y27828D01*
X470680Y27746D01*
X470634Y27661D01*
X470592Y27575D01*
X470552Y27487D01*
X470517Y27398D01*
X470485Y27307D01*
X470456Y27215D01*
X470432Y27122D01*
X470411Y27029D01*
X470394Y26934D01*
X470380Y26839D01*
X470371Y26743D01*
X470365Y26647D01*
X470363Y26551D01*
X471549Y28625D02*
X474809Y30403D01*
X716200Y184881D02*
X723312Y184881D01*
X707352Y180732D02*
X707257Y180734D01*
X707161Y180740D01*
X707066Y180749D01*
X706972Y180763D01*
X706878Y180780D01*
X706785Y180801D01*
X706692Y180826D01*
X706601Y180854D01*
X706511Y180886D01*
X706423Y180922D01*
X706336Y180961D01*
X706250Y181004D01*
X706167Y181050D01*
X706085Y181099D01*
X706005Y181152D01*
X705928Y181208D01*
X705852Y181266D01*
X705780Y181328D01*
X705710Y181393D01*
X705642Y181461D01*
X705577Y181531D01*
X705515Y181603D01*
X705457Y181679D01*
X705401Y181756D01*
X705348Y181836D01*
X705299Y181918D01*
X705253Y182001D01*
X705210Y182087D01*
X705171Y182174D01*
X705135Y182262D01*
X705103Y182352D01*
X705075Y182443D01*
X705050Y182536D01*
X705029Y182629D01*
X705012Y182723D01*
X704998Y182817D01*
X704989Y182912D01*
X704983Y183008D01*
X704981Y183103D01*
X707352Y180732D02*
X707488Y180734D01*
X707625Y180739D01*
X707761Y180749D01*
X707896Y180762D01*
X708032Y180778D01*
X708166Y180799D01*
X708301Y180823D01*
X708434Y180850D01*
X708567Y180882D01*
X708699Y180916D01*
X708830Y180955D01*
X708959Y180997D01*
X709088Y181042D01*
X709215Y181091D01*
X709341Y181144D01*
X709465Y181200D01*
X709588Y181259D01*
X709709Y181321D01*
X709829Y181387D01*
X709946Y181456D01*
X710062Y181529D01*
X710176Y181604D01*
X710287Y181682D01*
X710396Y181764D01*
X710504Y181848D01*
X710608Y181935D01*
X710711Y182025D01*
X710811Y182118D01*
X710908Y182214D01*
X710612Y189029D02*
X710610Y189124D01*
X710604Y189220D01*
X710595Y189315D01*
X710581Y189409D01*
X710564Y189503D01*
X710543Y189596D01*
X710518Y189689D01*
X710490Y189780D01*
X710458Y189870D01*
X710422Y189958D01*
X710383Y190045D01*
X710340Y190131D01*
X710294Y190215D01*
X710245Y190296D01*
X710192Y190376D01*
X710136Y190453D01*
X710078Y190529D01*
X710016Y190601D01*
X709951Y190671D01*
X709883Y190739D01*
X709813Y190804D01*
X709741Y190866D01*
X709665Y190924D01*
X709588Y190980D01*
X709508Y191033D01*
X709427Y191082D01*
X709343Y191128D01*
X709257Y191171D01*
X709170Y191210D01*
X709082Y191246D01*
X708992Y191278D01*
X708901Y191306D01*
X708808Y191331D01*
X708715Y191352D01*
X708621Y191369D01*
X708527Y191383D01*
X708432Y191392D01*
X708336Y191398D01*
X708241Y191400D01*
X708111Y191398D01*
X707981Y191392D01*
X707851Y191383D01*
X707722Y191370D01*
X707593Y191353D01*
X707465Y191332D01*
X707337Y191307D01*
X707210Y191279D01*
X707084Y191247D01*
X706959Y191211D01*
X706835Y191172D01*
X706713Y191129D01*
X706591Y191083D01*
X706471Y191032D01*
X706353Y190979D01*
X706236Y190922D01*
X706121Y190862D01*
X706007Y190798D01*
X705896Y190731D01*
X705786Y190661D01*
X705679Y190587D01*
X705574Y190511D01*
X709427Y186954D02*
X709508Y187005D01*
X709588Y187059D01*
X709666Y187115D01*
X709741Y187175D01*
X709814Y187238D01*
X709884Y187304D01*
X709951Y187372D01*
X710016Y187443D01*
X710078Y187517D01*
X710137Y187593D01*
X710193Y187671D01*
X710245Y187752D01*
X710295Y187834D01*
X710341Y187919D01*
X710383Y188005D01*
X710423Y188093D01*
X710458Y188182D01*
X710490Y188273D01*
X710519Y188365D01*
X710543Y188458D01*
X710564Y188551D01*
X710581Y188646D01*
X710595Y188741D01*
X710604Y188837D01*
X710610Y188933D01*
X710612Y189029D01*
X706167Y185178D02*
X706085Y185127D01*
X706005Y185073D01*
X705927Y185017D01*
X705852Y184957D01*
X705779Y184894D01*
X705709Y184828D01*
X705642Y184760D01*
X705577Y184689D01*
X705515Y184615D01*
X705456Y184539D01*
X705400Y184461D01*
X705348Y184380D01*
X705298Y184298D01*
X705252Y184213D01*
X705210Y184127D01*
X705170Y184039D01*
X705135Y183950D01*
X705103Y183859D01*
X705074Y183767D01*
X705050Y183674D01*
X705029Y183581D01*
X705012Y183486D01*
X704998Y183391D01*
X704989Y183295D01*
X704983Y183199D01*
X704981Y183103D01*
X706167Y185177D02*
X709427Y186955D01*
X381958Y149524D02*
X293958Y149524D01*
X293958Y53524D02*
X381958Y53524D01*
X727958Y53524D02*
X815958Y53524D01*
X815958Y149524D02*
X727958Y149524D01*
D10*
X621958Y126924D02*
X475258Y126924D01*
X621958Y126924D02*
X621958Y107366D01*
X621958Y94666D01*
X621958Y76124D01*
X475258Y76124D01*
X475258Y126924D01*
X621958Y107366D02*
X634658Y107366D01*
X634658Y94666D01*
X621958Y94666D01*
X513198Y101524D02*
X493998Y101524D01*
X580358Y101524D02*
X605758Y101524D01*
X593058Y114224D02*
X593058Y88824D01*
D12*
X421958Y140524D02*
X330958Y140524D01*
X330958Y62524D02*
X421958Y62524D01*
X687958Y140524D02*
X778958Y140524D01*
X778958Y62524D02*
X687958Y62524D01*
D16*
X905488Y47500D02*
X905488Y12500D01*
X925488Y12500D01*
X925488Y47500D01*
X905488Y47500D01*
D15*
X293241Y154140D02*
X291322Y154140D01*
X293241Y154140D02*
X293327Y154142D01*
X293413Y154148D01*
X293499Y154157D01*
X293584Y154171D01*
X293668Y154188D01*
X293752Y154209D01*
X293834Y154234D01*
X293915Y154262D01*
X293995Y154294D01*
X294074Y154330D01*
X294150Y154369D01*
X294225Y154412D01*
X294298Y154457D01*
X294369Y154507D01*
X294437Y154559D01*
X294504Y154614D01*
X294567Y154672D01*
X294628Y154733D01*
X294686Y154796D01*
X294741Y154863D01*
X294794Y154931D01*
X294843Y155002D01*
X294888Y155075D01*
X294931Y155150D01*
X294970Y155226D01*
X295006Y155305D01*
X295038Y155385D01*
X295066Y155466D01*
X295091Y155549D01*
X295112Y155632D01*
X295129Y155716D01*
X295143Y155801D01*
X295152Y155887D01*
X295158Y155973D01*
X295160Y156059D01*
X295160Y160857D01*
X295158Y160943D01*
X295152Y161029D01*
X295143Y161115D01*
X295129Y161200D01*
X295112Y161284D01*
X295091Y161368D01*
X295066Y161450D01*
X295038Y161531D01*
X295006Y161611D01*
X294970Y161690D01*
X294931Y161766D01*
X294888Y161841D01*
X294843Y161914D01*
X294794Y161985D01*
X294741Y162053D01*
X294686Y162120D01*
X294628Y162183D01*
X294567Y162244D01*
X294504Y162302D01*
X294438Y162357D01*
X294369Y162409D01*
X294298Y162459D01*
X294225Y162504D01*
X294150Y162547D01*
X294074Y162586D01*
X293995Y162622D01*
X293915Y162654D01*
X293834Y162682D01*
X293752Y162707D01*
X293668Y162728D01*
X293584Y162745D01*
X293499Y162759D01*
X293413Y162768D01*
X293327Y162774D01*
X293241Y162776D01*
X291322Y162776D01*
X284863Y162776D02*
X284771Y162774D01*
X284680Y162768D01*
X284589Y162759D01*
X284498Y162745D01*
X284408Y162728D01*
X284319Y162706D01*
X284231Y162681D01*
X284144Y162653D01*
X284058Y162620D01*
X283974Y162584D01*
X283891Y162545D01*
X283810Y162502D01*
X283731Y162455D01*
X283654Y162406D01*
X283579Y162353D01*
X283507Y162297D01*
X283437Y162238D01*
X283369Y162176D01*
X283304Y162111D01*
X283242Y162043D01*
X283183Y161973D01*
X283127Y161901D01*
X283074Y161826D01*
X283025Y161749D01*
X282978Y161670D01*
X282935Y161589D01*
X282896Y161506D01*
X282860Y161422D01*
X282827Y161336D01*
X282799Y161249D01*
X282774Y161161D01*
X282752Y161072D01*
X282735Y160982D01*
X282721Y160891D01*
X282712Y160800D01*
X282706Y160709D01*
X282704Y160617D01*
X284863Y162776D02*
X284966Y162774D01*
X285068Y162768D01*
X285170Y162759D01*
X285272Y162746D01*
X285373Y162729D01*
X285474Y162708D01*
X285573Y162684D01*
X285672Y162655D01*
X285769Y162624D01*
X285866Y162588D01*
X285961Y162550D01*
X286054Y162507D01*
X286146Y162461D01*
X286236Y162412D01*
X286324Y162360D01*
X286411Y162304D01*
X286495Y162245D01*
X286576Y162184D01*
X286656Y162119D01*
X286733Y162051D01*
X286808Y161980D01*
X286879Y161907D01*
X286948Y161831D01*
X287015Y161753D01*
X287078Y161672D01*
X287138Y161589D01*
X287195Y161504D01*
X287249Y161417D01*
X287300Y161327D01*
X287347Y161236D01*
X287391Y161144D01*
X287432Y161049D01*
X287469Y160954D01*
X287502Y160857D01*
X283424Y158938D02*
X283357Y159004D01*
X283293Y159073D01*
X283232Y159144D01*
X283174Y159218D01*
X283119Y159294D01*
X283067Y159372D01*
X283018Y159452D01*
X282972Y159534D01*
X282930Y159618D01*
X282891Y159704D01*
X282856Y159791D01*
X282825Y159879D01*
X282797Y159969D01*
X282772Y160059D01*
X282751Y160151D01*
X282734Y160243D01*
X282721Y160336D01*
X282712Y160429D01*
X282706Y160523D01*
X282704Y160617D01*
X283424Y158938D02*
X287502Y154140D01*
X282704Y154140D01*
X278358Y160857D02*
X275959Y162776D01*
X275959Y154140D01*
X278358Y154140D02*
X273560Y154140D01*
M02*
