G04 EAGLE Gerber RS-274X export*
G75*
%MOMM*%
%FSLAX34Y34*%
%LPD*%
%INTop Paste*%
%IPPOS*%
%AMOC8*
5,1,8,0,0,1.08239X$1,22.5*%
G01*
%ADD10C,0.250000*%
%ADD11C,0.800000*%
%ADD12C,0.320000*%
%ADD13C,0.450000*%
%ADD14C,0.300000*%
%ADD15R,1.400000X3.000000*%
%ADD16R,1.800000X0.700000*%
%ADD17R,1.800000X0.800000*%
%ADD18R,2.400000X2.400000*%
%ADD19R,1.400000X1.400000*%
%ADD20R,0.700000X0.280000*%
%ADD21R,2.387600X0.863600*%
%ADD22R,0.248919X0.805181*%
%ADD23C,0.222250*%
%ADD24R,1.300000X1.300000*%
%ADD25R,0.812800X0.355600*%
%ADD26R,1.200000X1.100000*%
%ADD27R,0.977900X0.508000*%
%ADD28R,3.000000X1.200000*%
%ADD29R,1.200000X0.600000*%


D10*
X412315Y40620D02*
X414815Y40620D01*
X414815Y38120D01*
X412315Y38120D01*
X412315Y40620D01*
X412315Y40495D02*
X414815Y40495D01*
X405565Y40620D02*
X403065Y40620D01*
X405565Y40620D02*
X405565Y38120D01*
X403065Y38120D01*
X403065Y40620D01*
X403065Y40495D02*
X405565Y40495D01*
D11*
X661384Y30752D02*
X671384Y30752D01*
X671384Y183152D02*
X661384Y183152D01*
X821884Y183152D02*
X831884Y183152D01*
X831884Y170452D02*
X821884Y170452D01*
X671384Y43452D02*
X661384Y43452D01*
X661384Y56152D02*
X671384Y56152D01*
X671384Y68852D02*
X661384Y68852D01*
X661384Y81552D02*
X671384Y81552D01*
X671384Y94252D02*
X661384Y94252D01*
X661384Y106952D02*
X671384Y106952D01*
X671384Y119752D02*
X661384Y119752D01*
X661384Y132352D02*
X671384Y132352D01*
X671384Y144952D02*
X661384Y144952D01*
X661384Y157652D02*
X671384Y157652D01*
X671384Y170452D02*
X661384Y170452D01*
D12*
X371150Y63900D02*
X371150Y52100D01*
X371150Y63900D02*
X374350Y63900D01*
X374350Y52100D01*
X371150Y52100D01*
X371150Y55140D02*
X374350Y55140D01*
X374350Y58180D02*
X371150Y58180D01*
X371150Y61220D02*
X374350Y61220D01*
X379150Y63900D02*
X379150Y52100D01*
X379150Y63900D02*
X382350Y63900D01*
X382350Y52100D01*
X379150Y52100D01*
X379150Y55140D02*
X382350Y55140D01*
X382350Y58180D02*
X379150Y58180D01*
X379150Y61220D02*
X382350Y61220D01*
X387150Y63900D02*
X387150Y52100D01*
X387150Y63900D02*
X390350Y63900D01*
X390350Y52100D01*
X387150Y52100D01*
X387150Y55140D02*
X390350Y55140D01*
X390350Y58180D02*
X387150Y58180D01*
X387150Y61220D02*
X390350Y61220D01*
X395150Y63900D02*
X395150Y52100D01*
X395150Y63900D02*
X398350Y63900D01*
X398350Y52100D01*
X395150Y52100D01*
X395150Y55140D02*
X398350Y55140D01*
X398350Y58180D02*
X395150Y58180D01*
X395150Y61220D02*
X398350Y61220D01*
X403150Y63900D02*
X403150Y52100D01*
X403150Y63900D02*
X406350Y63900D01*
X406350Y52100D01*
X403150Y52100D01*
X403150Y55140D02*
X406350Y55140D01*
X406350Y58180D02*
X403150Y58180D01*
X403150Y61220D02*
X406350Y61220D01*
X411150Y63900D02*
X411150Y52100D01*
X411150Y63900D02*
X414350Y63900D01*
X414350Y52100D01*
X411150Y52100D01*
X411150Y55140D02*
X414350Y55140D01*
X414350Y58180D02*
X411150Y58180D01*
X411150Y61220D02*
X414350Y61220D01*
X419150Y63900D02*
X419150Y52100D01*
X419150Y63900D02*
X422350Y63900D01*
X422350Y52100D01*
X419150Y52100D01*
X419150Y55140D02*
X422350Y55140D01*
X422350Y58180D02*
X419150Y58180D01*
X419150Y61220D02*
X422350Y61220D01*
X427150Y63900D02*
X427150Y52100D01*
X427150Y63900D02*
X430350Y63900D01*
X430350Y52100D01*
X427150Y52100D01*
X427150Y55140D02*
X430350Y55140D01*
X430350Y58180D02*
X427150Y58180D01*
X427150Y61220D02*
X430350Y61220D01*
X435150Y63900D02*
X435150Y52100D01*
X435150Y63900D02*
X438350Y63900D01*
X438350Y52100D01*
X435150Y52100D01*
X435150Y55140D02*
X438350Y55140D01*
X438350Y58180D02*
X435150Y58180D01*
X435150Y61220D02*
X438350Y61220D01*
X443150Y63900D02*
X443150Y52100D01*
X443150Y63900D02*
X446350Y63900D01*
X446350Y52100D01*
X443150Y52100D01*
X443150Y55140D02*
X446350Y55140D01*
X446350Y58180D02*
X443150Y58180D01*
X443150Y61220D02*
X446350Y61220D01*
X451150Y63900D02*
X451150Y52100D01*
X451150Y63900D02*
X454350Y63900D01*
X454350Y52100D01*
X451150Y52100D01*
X451150Y55140D02*
X454350Y55140D01*
X454350Y58180D02*
X451150Y58180D01*
X451150Y61220D02*
X454350Y61220D01*
X463150Y72700D02*
X474950Y72700D01*
X463150Y72700D02*
X463150Y75900D01*
X474950Y75900D01*
X474950Y72700D01*
X474950Y75740D02*
X463150Y75740D01*
X463150Y80700D02*
X474950Y80700D01*
X463150Y80700D02*
X463150Y83900D01*
X474950Y83900D01*
X474950Y80700D01*
X474950Y83740D02*
X463150Y83740D01*
X463150Y88700D02*
X474950Y88700D01*
X463150Y88700D02*
X463150Y91900D01*
X474950Y91900D01*
X474950Y88700D01*
X474950Y91740D02*
X463150Y91740D01*
X463150Y96700D02*
X474950Y96700D01*
X463150Y96700D02*
X463150Y99900D01*
X474950Y99900D01*
X474950Y96700D01*
X474950Y99740D02*
X463150Y99740D01*
X463150Y104700D02*
X474950Y104700D01*
X463150Y104700D02*
X463150Y107900D01*
X474950Y107900D01*
X474950Y104700D01*
X474950Y107740D02*
X463150Y107740D01*
X463150Y112700D02*
X474950Y112700D01*
X463150Y112700D02*
X463150Y115900D01*
X474950Y115900D01*
X474950Y112700D01*
X474950Y115740D02*
X463150Y115740D01*
X463150Y120700D02*
X474950Y120700D01*
X463150Y120700D02*
X463150Y123900D01*
X474950Y123900D01*
X474950Y120700D01*
X474950Y123740D02*
X463150Y123740D01*
X463150Y128700D02*
X474950Y128700D01*
X463150Y128700D02*
X463150Y131900D01*
X474950Y131900D01*
X474950Y128700D01*
X474950Y131740D02*
X463150Y131740D01*
X463150Y136700D02*
X474950Y136700D01*
X463150Y136700D02*
X463150Y139900D01*
X474950Y139900D01*
X474950Y136700D01*
X474950Y139740D02*
X463150Y139740D01*
X463150Y144700D02*
X474950Y144700D01*
X463150Y144700D02*
X463150Y147900D01*
X474950Y147900D01*
X474950Y144700D01*
X474950Y147740D02*
X463150Y147740D01*
X463150Y152700D02*
X474950Y152700D01*
X463150Y152700D02*
X463150Y155900D01*
X474950Y155900D01*
X474950Y152700D01*
X474950Y155740D02*
X463150Y155740D01*
X454350Y164700D02*
X454350Y176500D01*
X454350Y164700D02*
X451150Y164700D01*
X451150Y176500D01*
X454350Y176500D01*
X454350Y167740D02*
X451150Y167740D01*
X451150Y170780D02*
X454350Y170780D01*
X454350Y173820D02*
X451150Y173820D01*
X446350Y176500D02*
X446350Y164700D01*
X443150Y164700D01*
X443150Y176500D01*
X446350Y176500D01*
X446350Y167740D02*
X443150Y167740D01*
X443150Y170780D02*
X446350Y170780D01*
X446350Y173820D02*
X443150Y173820D01*
X438350Y176500D02*
X438350Y164700D01*
X435150Y164700D01*
X435150Y176500D01*
X438350Y176500D01*
X438350Y167740D02*
X435150Y167740D01*
X435150Y170780D02*
X438350Y170780D01*
X438350Y173820D02*
X435150Y173820D01*
X430350Y176500D02*
X430350Y164700D01*
X427150Y164700D01*
X427150Y176500D01*
X430350Y176500D01*
X430350Y167740D02*
X427150Y167740D01*
X427150Y170780D02*
X430350Y170780D01*
X430350Y173820D02*
X427150Y173820D01*
X422350Y176500D02*
X422350Y164700D01*
X419150Y164700D01*
X419150Y176500D01*
X422350Y176500D01*
X422350Y167740D02*
X419150Y167740D01*
X419150Y170780D02*
X422350Y170780D01*
X422350Y173820D02*
X419150Y173820D01*
X414350Y176500D02*
X414350Y164700D01*
X411150Y164700D01*
X411150Y176500D01*
X414350Y176500D01*
X414350Y167740D02*
X411150Y167740D01*
X411150Y170780D02*
X414350Y170780D01*
X414350Y173820D02*
X411150Y173820D01*
X406350Y176500D02*
X406350Y164700D01*
X403150Y164700D01*
X403150Y176500D01*
X406350Y176500D01*
X406350Y167740D02*
X403150Y167740D01*
X403150Y170780D02*
X406350Y170780D01*
X406350Y173820D02*
X403150Y173820D01*
X398350Y176500D02*
X398350Y164700D01*
X395150Y164700D01*
X395150Y176500D01*
X398350Y176500D01*
X398350Y167740D02*
X395150Y167740D01*
X395150Y170780D02*
X398350Y170780D01*
X398350Y173820D02*
X395150Y173820D01*
X390350Y176500D02*
X390350Y164700D01*
X387150Y164700D01*
X387150Y176500D01*
X390350Y176500D01*
X390350Y167740D02*
X387150Y167740D01*
X387150Y170780D02*
X390350Y170780D01*
X390350Y173820D02*
X387150Y173820D01*
X382350Y176500D02*
X382350Y164700D01*
X379150Y164700D01*
X379150Y176500D01*
X382350Y176500D01*
X382350Y167740D02*
X379150Y167740D01*
X379150Y170780D02*
X382350Y170780D01*
X382350Y173820D02*
X379150Y173820D01*
X374350Y176500D02*
X374350Y164700D01*
X371150Y164700D01*
X371150Y176500D01*
X374350Y176500D01*
X374350Y167740D02*
X371150Y167740D01*
X371150Y170780D02*
X374350Y170780D01*
X374350Y173820D02*
X371150Y173820D01*
X362350Y155900D02*
X350550Y155900D01*
X362350Y155900D02*
X362350Y152700D01*
X350550Y152700D01*
X350550Y155900D01*
X350550Y155740D02*
X362350Y155740D01*
X362350Y147900D02*
X350550Y147900D01*
X362350Y147900D02*
X362350Y144700D01*
X350550Y144700D01*
X350550Y147900D01*
X350550Y147740D02*
X362350Y147740D01*
X362350Y139900D02*
X350550Y139900D01*
X362350Y139900D02*
X362350Y136700D01*
X350550Y136700D01*
X350550Y139900D01*
X350550Y139740D02*
X362350Y139740D01*
X362350Y131900D02*
X350550Y131900D01*
X362350Y131900D02*
X362350Y128700D01*
X350550Y128700D01*
X350550Y131900D01*
X350550Y131740D02*
X362350Y131740D01*
X362350Y123900D02*
X350550Y123900D01*
X362350Y123900D02*
X362350Y120700D01*
X350550Y120700D01*
X350550Y123900D01*
X350550Y123740D02*
X362350Y123740D01*
X362350Y115900D02*
X350550Y115900D01*
X362350Y115900D02*
X362350Y112700D01*
X350550Y112700D01*
X350550Y115900D01*
X350550Y115740D02*
X362350Y115740D01*
X362350Y107900D02*
X350550Y107900D01*
X362350Y107900D02*
X362350Y104700D01*
X350550Y104700D01*
X350550Y107900D01*
X350550Y107740D02*
X362350Y107740D01*
X362350Y99900D02*
X350550Y99900D01*
X362350Y99900D02*
X362350Y96700D01*
X350550Y96700D01*
X350550Y99900D01*
X350550Y99740D02*
X362350Y99740D01*
X362350Y91900D02*
X350550Y91900D01*
X362350Y91900D02*
X362350Y88700D01*
X350550Y88700D01*
X350550Y91900D01*
X350550Y91740D02*
X362350Y91740D01*
X362350Y83900D02*
X350550Y83900D01*
X362350Y83900D02*
X362350Y80700D01*
X350550Y80700D01*
X350550Y83900D01*
X350550Y83740D02*
X362350Y83740D01*
X362350Y75900D02*
X350550Y75900D01*
X362350Y75900D02*
X362350Y72700D01*
X350550Y72700D01*
X350550Y75900D01*
X350550Y75740D02*
X362350Y75740D01*
D13*
X432500Y34961D02*
X432500Y20411D01*
X444500Y20411D02*
X444500Y34961D01*
X456500Y34961D02*
X456500Y20411D01*
D10*
X487700Y125295D02*
X487700Y127795D01*
X490200Y127795D01*
X490200Y125295D01*
X487700Y125295D01*
X487700Y127670D02*
X490200Y127670D01*
X487700Y118545D02*
X487700Y116045D01*
X487700Y118545D02*
X490200Y118545D01*
X490200Y116045D01*
X487700Y116045D01*
X487700Y118420D02*
X490200Y118420D01*
X337800Y114735D02*
X337800Y112235D01*
X335300Y112235D01*
X335300Y114735D01*
X337800Y114735D01*
X337800Y114610D02*
X335300Y114610D01*
X337800Y121485D02*
X337800Y123985D01*
X337800Y121485D02*
X335300Y121485D01*
X335300Y123985D01*
X337800Y123985D01*
X337800Y123860D02*
X335300Y123860D01*
X428825Y191750D02*
X431325Y191750D01*
X431325Y189250D01*
X428825Y189250D01*
X428825Y191750D01*
X428825Y191625D02*
X431325Y191625D01*
X422075Y191750D02*
X419575Y191750D01*
X422075Y191750D02*
X422075Y189250D01*
X419575Y189250D01*
X419575Y191750D01*
X419575Y191625D02*
X422075Y191625D01*
X500158Y191559D02*
X500158Y189059D01*
X500158Y191559D02*
X502658Y191559D01*
X502658Y189059D01*
X500158Y189059D01*
X500158Y191434D02*
X502658Y191434D01*
X500158Y182309D02*
X500158Y179809D01*
X500158Y182309D02*
X502658Y182309D01*
X502658Y179809D01*
X500158Y179809D01*
X500158Y182184D02*
X502658Y182184D01*
X403025Y189250D02*
X400525Y189250D01*
X400525Y191750D01*
X403025Y191750D01*
X403025Y189250D01*
X403025Y191625D02*
X400525Y191625D01*
X409775Y189250D02*
X412275Y189250D01*
X409775Y189250D02*
X409775Y191750D01*
X412275Y191750D01*
X412275Y189250D01*
X412275Y191625D02*
X409775Y191625D01*
X324338Y170869D02*
X324338Y168369D01*
X321838Y168369D01*
X321838Y170869D01*
X324338Y170869D01*
X324338Y170744D02*
X321838Y170744D01*
X324338Y177619D02*
X324338Y180119D01*
X324338Y177619D02*
X321838Y177619D01*
X321838Y180119D01*
X324338Y180119D01*
X324338Y179994D02*
X321838Y179994D01*
X311424Y180119D02*
X311424Y177619D01*
X311424Y180119D02*
X313924Y180119D01*
X313924Y177619D01*
X311424Y177619D01*
X311424Y179994D02*
X313924Y179994D01*
X311424Y170869D02*
X311424Y168369D01*
X311424Y170869D02*
X313924Y170869D01*
X313924Y168369D01*
X311424Y168369D01*
X311424Y170744D02*
X313924Y170744D01*
X337800Y142675D02*
X337800Y140175D01*
X335300Y140175D01*
X335300Y142675D01*
X337800Y142675D01*
X337800Y142550D02*
X335300Y142550D01*
X337800Y149425D02*
X337800Y151925D01*
X337800Y149425D02*
X335300Y149425D01*
X335300Y151925D01*
X337800Y151925D01*
X337800Y151800D02*
X335300Y151800D01*
D14*
X325064Y98108D02*
X318064Y98108D01*
X325064Y98108D02*
X325064Y91108D01*
X318064Y91108D01*
X318064Y98108D01*
X318064Y93958D02*
X325064Y93958D01*
X325064Y96808D02*
X318064Y96808D01*
X318064Y115648D02*
X325064Y115648D01*
X325064Y108648D01*
X318064Y108648D01*
X318064Y115648D01*
X318064Y111498D02*
X325064Y111498D01*
X325064Y114348D02*
X318064Y114348D01*
D15*
X115000Y177000D03*
X15000Y177000D03*
D16*
X254500Y101000D03*
D17*
X254500Y111500D03*
X254500Y122500D03*
X254500Y133500D03*
X254500Y144500D03*
X254500Y155500D03*
X254500Y166500D03*
X254500Y177500D03*
D16*
X254500Y188000D03*
X159500Y188000D03*
D17*
X159500Y177500D03*
X159500Y166500D03*
X159500Y155500D03*
X159500Y144500D03*
X159500Y133500D03*
X159500Y122500D03*
X159500Y111500D03*
D16*
X159500Y101000D03*
D10*
X286225Y94000D02*
X288725Y94000D01*
X286225Y94000D02*
X286225Y96500D01*
X288725Y96500D01*
X288725Y94000D01*
X288725Y96375D02*
X286225Y96375D01*
X295475Y94000D02*
X297975Y94000D01*
X295475Y94000D02*
X295475Y96500D01*
X297975Y96500D01*
X297975Y94000D01*
X297975Y96375D02*
X295475Y96375D01*
X288725Y104414D02*
X286225Y104414D01*
X286225Y106914D01*
X288725Y106914D01*
X288725Y104414D01*
X288725Y106789D02*
X286225Y106789D01*
X295475Y104414D02*
X297975Y104414D01*
X295475Y104414D02*
X295475Y106914D01*
X297975Y106914D01*
X297975Y104414D01*
X297975Y106789D02*
X295475Y106789D01*
X222685Y79776D02*
X220185Y79776D01*
X220185Y82276D01*
X222685Y82276D01*
X222685Y79776D01*
X222685Y82151D02*
X220185Y82151D01*
X229435Y79776D02*
X231935Y79776D01*
X229435Y79776D02*
X229435Y82276D01*
X231935Y82276D01*
X231935Y79776D01*
X231935Y82151D02*
X229435Y82151D01*
X180775Y79776D02*
X178275Y79776D01*
X178275Y82276D01*
X180775Y82276D01*
X180775Y79776D01*
X180775Y82151D02*
X178275Y82151D01*
X187525Y79776D02*
X190025Y79776D01*
X187525Y79776D02*
X187525Y82276D01*
X190025Y82276D01*
X190025Y79776D01*
X190025Y82151D02*
X187525Y82151D01*
X295475Y170160D02*
X297975Y170160D01*
X297975Y167660D01*
X295475Y167660D01*
X295475Y170160D01*
X295475Y170035D02*
X297975Y170035D01*
X288725Y170160D02*
X286225Y170160D01*
X288725Y170160D02*
X288725Y167660D01*
X286225Y167660D01*
X286225Y170160D01*
X286225Y170035D02*
X288725Y170035D01*
X295475Y180320D02*
X297975Y180320D01*
X297975Y177820D01*
X295475Y177820D01*
X295475Y180320D01*
X295475Y180195D02*
X297975Y180195D01*
X288725Y180320D02*
X286225Y180320D01*
X288725Y180320D02*
X288725Y177820D01*
X286225Y177820D01*
X286225Y180320D01*
X286225Y180195D02*
X288725Y180195D01*
X295475Y190480D02*
X297975Y190480D01*
X297975Y187980D01*
X295475Y187980D01*
X295475Y190480D01*
X295475Y190355D02*
X297975Y190355D01*
X288725Y190480D02*
X286225Y190480D01*
X288725Y190480D02*
X288725Y187980D01*
X286225Y187980D01*
X286225Y190480D01*
X286225Y190355D02*
X288725Y190355D01*
X190025Y71100D02*
X187525Y71100D01*
X190025Y71100D02*
X190025Y68600D01*
X187525Y68600D01*
X187525Y71100D01*
X187525Y70975D02*
X190025Y70975D01*
X180775Y71100D02*
X178275Y71100D01*
X180775Y71100D02*
X180775Y68600D01*
X178275Y68600D01*
X178275Y71100D01*
X178275Y70975D02*
X180775Y70975D01*
D18*
X152400Y69450D03*
X152400Y19450D03*
D19*
X187706Y52528D03*
X187706Y14528D03*
D20*
X593642Y152500D03*
X593642Y147500D03*
X623642Y152500D03*
X623642Y147500D03*
D21*
X608642Y150000D03*
D22*
X598634Y164770D03*
X603638Y164745D03*
X603638Y164745D03*
X608642Y164719D03*
X613646Y164745D03*
X618675Y164770D03*
X598634Y135255D03*
X603638Y135230D03*
X608642Y135255D03*
X613646Y135306D03*
X618650Y135255D03*
D10*
X612622Y189243D02*
X612622Y191743D01*
X615122Y191743D01*
X615122Y189243D01*
X612622Y189243D01*
X612622Y191618D02*
X615122Y191618D01*
X612622Y182493D02*
X612622Y179993D01*
X612622Y182493D02*
X615122Y182493D01*
X615122Y179993D01*
X612622Y179993D01*
X612622Y182368D02*
X615122Y182368D01*
X604352Y182623D02*
X604352Y180123D01*
X601852Y180123D01*
X601852Y182623D01*
X604352Y182623D01*
X604352Y182498D02*
X601852Y182498D01*
X604352Y189373D02*
X604352Y191873D01*
X604352Y189373D02*
X601852Y189373D01*
X601852Y191873D01*
X604352Y191873D01*
X604352Y191748D02*
X601852Y191748D01*
D23*
X633808Y153546D02*
X633808Y146878D01*
X633808Y153546D02*
X640476Y153546D01*
X640476Y146878D01*
X633808Y146878D01*
X633808Y148990D02*
X640476Y148990D01*
X640476Y151102D02*
X633808Y151102D01*
X633808Y153214D02*
X640476Y153214D01*
X633808Y138306D02*
X633808Y131638D01*
X633808Y138306D02*
X640476Y138306D01*
X640476Y131638D01*
X633808Y131638D01*
X633808Y133750D02*
X640476Y133750D01*
X640476Y135862D02*
X633808Y135862D01*
X633808Y137974D02*
X640476Y137974D01*
D10*
X580892Y145475D02*
X580892Y147975D01*
X583392Y147975D01*
X583392Y145475D01*
X580892Y145475D01*
X580892Y147850D02*
X583392Y147850D01*
X580892Y138725D02*
X580892Y136225D01*
X580892Y138725D02*
X583392Y138725D01*
X583392Y136225D01*
X580892Y136225D01*
X580892Y138600D02*
X583392Y138600D01*
X582648Y170277D02*
X582648Y172777D01*
X585148Y172777D01*
X585148Y170277D01*
X582648Y170277D01*
X582648Y172652D02*
X585148Y172652D01*
X582648Y163527D02*
X582648Y161027D01*
X582648Y163527D02*
X585148Y163527D01*
X585148Y161027D01*
X582648Y161027D01*
X582648Y163402D02*
X585148Y163402D01*
X582648Y189327D02*
X582648Y191827D01*
X585148Y191827D01*
X585148Y189327D01*
X582648Y189327D01*
X582648Y191702D02*
X585148Y191702D01*
X582648Y182577D02*
X582648Y180077D01*
X582648Y182577D02*
X585148Y182577D01*
X585148Y180077D01*
X582648Y180077D01*
X582648Y182452D02*
X585148Y182452D01*
D23*
X563058Y146493D02*
X563058Y139825D01*
X563058Y146493D02*
X569726Y146493D01*
X569726Y139825D01*
X563058Y139825D01*
X563058Y141937D02*
X569726Y141937D01*
X569726Y144049D02*
X563058Y144049D01*
X563058Y146161D02*
X569726Y146161D01*
X563058Y131253D02*
X563058Y124585D01*
X563058Y131253D02*
X569726Y131253D01*
X569726Y124585D01*
X563058Y124585D01*
X563058Y126697D02*
X569726Y126697D01*
X569726Y128809D02*
X563058Y128809D01*
X563058Y130921D02*
X569726Y130921D01*
D24*
X634526Y104732D03*
X604526Y104732D03*
D25*
X288544Y146200D03*
X288544Y139700D03*
X288544Y133200D03*
X309372Y133200D03*
X309372Y139700D03*
X309372Y146200D03*
D10*
X288725Y157500D02*
X286225Y157500D01*
X286225Y160000D01*
X288725Y160000D01*
X288725Y157500D01*
X288725Y159875D02*
X286225Y159875D01*
X295475Y157500D02*
X297975Y157500D01*
X295475Y157500D02*
X295475Y160000D01*
X297975Y160000D01*
X297975Y157500D01*
X297975Y159875D02*
X295475Y159875D01*
X502993Y11918D02*
X505493Y11918D01*
X505493Y9418D01*
X502993Y9418D01*
X502993Y11918D01*
X502993Y11793D02*
X505493Y11793D01*
X496243Y11918D02*
X493743Y11918D01*
X496243Y11918D02*
X496243Y9418D01*
X493743Y9418D01*
X493743Y11918D01*
X493743Y11793D02*
X496243Y11793D01*
X476685Y9418D02*
X474185Y9418D01*
X474185Y11918D01*
X476685Y11918D01*
X476685Y9418D01*
X476685Y11793D02*
X474185Y11793D01*
X483435Y9418D02*
X485935Y9418D01*
X483435Y9418D02*
X483435Y11918D01*
X485935Y11918D01*
X485935Y9418D01*
X485935Y11793D02*
X483435Y11793D01*
D26*
X478470Y25540D03*
X501970Y25540D03*
X501970Y43040D03*
X478470Y43040D03*
D10*
X450375Y191750D02*
X447875Y191750D01*
X450375Y191750D02*
X450375Y189250D01*
X447875Y189250D01*
X447875Y191750D01*
X447875Y191625D02*
X450375Y191625D01*
X441125Y191750D02*
X438625Y191750D01*
X441125Y191750D02*
X441125Y189250D01*
X438625Y189250D01*
X438625Y191750D01*
X438625Y191625D02*
X441125Y191625D01*
X905710Y147300D02*
X908210Y147300D01*
X908210Y144800D01*
X905710Y144800D01*
X905710Y147300D01*
X905710Y147175D02*
X908210Y147175D01*
X898960Y147300D02*
X896460Y147300D01*
X898960Y147300D02*
X898960Y144800D01*
X896460Y144800D01*
X896460Y147300D01*
X896460Y147175D02*
X898960Y147175D01*
X243005Y79776D02*
X240505Y79776D01*
X240505Y82276D01*
X243005Y82276D01*
X243005Y79776D01*
X243005Y82151D02*
X240505Y82151D01*
X249755Y79776D02*
X252255Y79776D01*
X249755Y79776D02*
X249755Y82276D01*
X252255Y82276D01*
X252255Y79776D01*
X252255Y82151D02*
X249755Y82151D01*
X201095Y79776D02*
X198595Y79776D01*
X198595Y82276D01*
X201095Y82276D01*
X201095Y79776D01*
X201095Y82151D02*
X198595Y82151D01*
X207845Y79776D02*
X210345Y79776D01*
X207845Y79776D02*
X207845Y82276D01*
X210345Y82276D01*
X210345Y79776D01*
X210345Y82151D02*
X207845Y82151D01*
D27*
X529908Y90272D03*
X529908Y80772D03*
X529908Y71272D03*
X557213Y71272D03*
X557213Y90272D03*
X532702Y31852D03*
X532702Y22352D03*
X532702Y12852D03*
X560007Y12852D03*
X560007Y31852D03*
D10*
X552885Y101874D02*
X550385Y101874D01*
X550385Y104374D01*
X552885Y104374D01*
X552885Y101874D01*
X552885Y104249D02*
X550385Y104249D01*
X559635Y101874D02*
X562135Y101874D01*
X559635Y101874D02*
X559635Y104374D01*
X562135Y104374D01*
X562135Y101874D01*
X562135Y104249D02*
X559635Y104249D01*
X562429Y45954D02*
X564929Y45954D01*
X564929Y43454D01*
X562429Y43454D01*
X562429Y45954D01*
X562429Y45829D02*
X564929Y45829D01*
X555679Y45954D02*
X553179Y45954D01*
X555679Y45954D02*
X555679Y43454D01*
X553179Y43454D01*
X553179Y45954D01*
X553179Y45829D02*
X555679Y45829D01*
X545879Y45954D02*
X543379Y45954D01*
X545879Y45954D02*
X545879Y43454D01*
X543379Y43454D01*
X543379Y45954D01*
X543379Y45829D02*
X545879Y45829D01*
X536629Y45954D02*
X534129Y45954D01*
X536629Y45954D02*
X536629Y43454D01*
X534129Y43454D01*
X534129Y45954D01*
X534129Y45829D02*
X536629Y45829D01*
X540585Y104374D02*
X543085Y104374D01*
X543085Y101874D01*
X540585Y101874D01*
X540585Y104374D01*
X540585Y104249D02*
X543085Y104249D01*
X533835Y104374D02*
X531335Y104374D01*
X533835Y104374D02*
X533835Y101874D01*
X531335Y101874D01*
X531335Y104374D01*
X531335Y104249D02*
X533835Y104249D01*
X348775Y180320D02*
X346275Y180320D01*
X348775Y180320D02*
X348775Y177820D01*
X346275Y177820D01*
X346275Y180320D01*
X346275Y180195D02*
X348775Y180195D01*
X339525Y180320D02*
X337025Y180320D01*
X339525Y180320D02*
X339525Y177820D01*
X337025Y177820D01*
X337025Y180320D01*
X337025Y180195D02*
X339525Y180195D01*
X339525Y189250D02*
X337025Y189250D01*
X337025Y191750D01*
X339525Y191750D01*
X339525Y189250D01*
X339525Y191625D02*
X337025Y191625D01*
X346275Y189250D02*
X348775Y189250D01*
X346275Y189250D02*
X346275Y191750D01*
X348775Y191750D01*
X348775Y189250D01*
X348775Y191625D02*
X346275Y191625D01*
X140354Y169125D02*
X140354Y166625D01*
X137854Y166625D01*
X137854Y169125D01*
X140354Y169125D01*
X140354Y169000D02*
X137854Y169000D01*
X140354Y175875D02*
X140354Y178375D01*
X140354Y175875D02*
X137854Y175875D01*
X137854Y178375D01*
X140354Y178375D01*
X140354Y178250D02*
X137854Y178250D01*
D28*
X712400Y98900D03*
X712400Y118900D03*
X712400Y138900D03*
X712400Y158900D03*
X712400Y78900D03*
X712400Y58900D03*
X712400Y38900D03*
X712400Y18900D03*
X862400Y18900D03*
X862400Y38900D03*
X862400Y58900D03*
X862400Y78900D03*
X862400Y98900D03*
X862400Y118900D03*
X862400Y138900D03*
X862400Y158900D03*
D10*
X896460Y60980D02*
X898960Y60980D01*
X896460Y60980D02*
X896460Y63480D01*
X898960Y63480D01*
X898960Y60980D01*
X898960Y63355D02*
X896460Y63355D01*
X905710Y60980D02*
X908210Y60980D01*
X905710Y60980D02*
X905710Y63480D01*
X908210Y63480D01*
X908210Y60980D01*
X908210Y63355D02*
X905710Y63355D01*
X580946Y125041D02*
X580946Y127541D01*
X583446Y127541D01*
X583446Y125041D01*
X580946Y125041D01*
X580946Y127416D02*
X583446Y127416D01*
X580946Y118291D02*
X580946Y115791D01*
X580946Y118291D02*
X583446Y118291D01*
X583446Y115791D01*
X580946Y115791D01*
X580946Y118166D02*
X583446Y118166D01*
X637600Y180053D02*
X637600Y182553D01*
X637600Y180053D02*
X635100Y180053D01*
X635100Y182553D01*
X637600Y182553D01*
X637600Y182428D02*
X635100Y182428D01*
X637600Y189303D02*
X637600Y191803D01*
X637600Y189303D02*
X635100Y189303D01*
X635100Y191803D01*
X637600Y191803D01*
X637600Y191678D02*
X635100Y191678D01*
X624306Y191803D02*
X624306Y189303D01*
X624306Y191803D02*
X626806Y191803D01*
X626806Y189303D01*
X624306Y189303D01*
X624306Y191678D02*
X626806Y191678D01*
X624306Y182553D02*
X624306Y180053D01*
X624306Y182553D02*
X626806Y182553D01*
X626806Y180053D01*
X624306Y180053D01*
X624306Y182428D02*
X626806Y182428D01*
D29*
X623426Y43180D03*
X605426Y33680D03*
X605426Y52680D03*
D23*
X898334Y102046D02*
X898334Y108714D01*
X898334Y102046D02*
X891666Y102046D01*
X891666Y108714D01*
X898334Y108714D01*
X898334Y104158D02*
X891666Y104158D01*
X891666Y106270D02*
X898334Y106270D01*
X898334Y108382D02*
X891666Y108382D01*
X898334Y117286D02*
X898334Y123954D01*
X898334Y117286D02*
X891666Y117286D01*
X891666Y123954D01*
X898334Y123954D01*
X898334Y119398D02*
X891666Y119398D01*
X891666Y121510D02*
X898334Y121510D01*
X898334Y123622D02*
X891666Y123622D01*
X891666Y105954D02*
X891666Y99286D01*
X891666Y105954D02*
X898334Y105954D01*
X898334Y99286D01*
X891666Y99286D01*
X891666Y101398D02*
X898334Y101398D01*
X898334Y103510D02*
X891666Y103510D01*
X891666Y105622D02*
X898334Y105622D01*
X891666Y90714D02*
X891666Y84046D01*
X891666Y90714D02*
X898334Y90714D01*
X898334Y84046D01*
X891666Y84046D01*
X891666Y86158D02*
X898334Y86158D01*
X898334Y88270D02*
X891666Y88270D01*
X891666Y90382D02*
X898334Y90382D01*
D10*
X620301Y69830D02*
X617801Y69830D01*
X620301Y69830D02*
X620301Y67330D01*
X617801Y67330D01*
X617801Y69830D01*
X617801Y69705D02*
X620301Y69705D01*
X611051Y69830D02*
X608551Y69830D01*
X611051Y69830D02*
X611051Y67330D01*
X608551Y67330D01*
X608551Y69830D01*
X608551Y69705D02*
X611051Y69705D01*
X611051Y16530D02*
X608551Y16530D01*
X608551Y19030D01*
X611051Y19030D01*
X611051Y16530D01*
X611051Y18905D02*
X608551Y18905D01*
X617801Y16530D02*
X620301Y16530D01*
X617801Y16530D02*
X617801Y19030D01*
X620301Y19030D01*
X620301Y16530D01*
X620301Y18905D02*
X617801Y18905D01*
X380165Y189250D02*
X377665Y189250D01*
X377665Y191750D01*
X380165Y191750D01*
X380165Y189250D01*
X380165Y191625D02*
X377665Y191625D01*
X386915Y189250D02*
X389415Y189250D01*
X386915Y189250D02*
X386915Y191750D01*
X389415Y191750D01*
X389415Y189250D01*
X389415Y191625D02*
X386915Y191625D01*
X361369Y189250D02*
X358869Y189250D01*
X358869Y191750D01*
X361369Y191750D01*
X361369Y189250D01*
X361369Y191625D02*
X358869Y191625D01*
X368119Y189250D02*
X370619Y189250D01*
X368119Y189250D02*
X368119Y191750D01*
X370619Y191750D01*
X370619Y189250D01*
X370619Y191625D02*
X368119Y191625D01*
X590276Y39805D02*
X590276Y37305D01*
X587776Y37305D01*
X587776Y39805D01*
X590276Y39805D01*
X590276Y39680D02*
X587776Y39680D01*
X590276Y46555D02*
X590276Y49055D01*
X590276Y46555D02*
X587776Y46555D01*
X587776Y49055D01*
X590276Y49055D01*
X590276Y48930D02*
X587776Y48930D01*
M02*
